<svg viewBox="0 0 168 320" width="168" height="320" fill-rule="evenodd" clip-rule="evenodd" stroke-linecap="round" stroke-linejoin="round" stroke-miterlimit="1.5">
    <g>
        <path data-bodypart="head" d="M61.903 20.927s19.205 7.801 42.902 1.27C101.548 3.621 87.524.759 82.49.769c-3.294.006-17.263 3.899-20.587 20.158z"  />
        <path data-bodypart="eyes" d="M92.736 29.356c3.375 0 6.116 2.14 6.116 4.775 0 2.635-2.741 4.775-6.116 4.775-3.376 0-6.117-2.14-6.117-4.775 0-2.635 2.741-4.775 6.117-4.775zm-17.666 0c3.375 0 6.116 2.14 6.116 4.775 0 2.635-2.741 4.775-6.116 4.775-3.376 0-6.117-2.14-6.117-4.775 0-2.635 2.741-4.775 6.117-4.775z"  />
        <path data-bodypart="ears" d="M103.697 32.472c-1.706-.632-4.098 1.573-5.338 4.922-1.241 3.348-.863 6.58.843 7.211 1.705.632 4.097-1.573 5.337-4.922 1.241-3.348.863-6.579-.842-7.211zm-40.676-.095c1.705-.632 4.097 1.574 5.338 4.922 1.24 3.349.862 6.58-.843 7.212-1.706.632-4.097-1.574-5.338-4.922-1.24-3.348-.863-6.58.843-7.212z"  />
        <path data-bodypart="nose" d="M84.072 36.418c-1.878 0-6.849 8.858.087 8.788 6.936-.07 1.662-8.788-.087-8.788z"  />
        <path data-bodypart="oral_cavity" d="M97.383 47.71s-12.489-4.699-27.357.65c1.801 2.953 4.114 9.371 13.59 10.026 9.476.654 12.997-9.673 13.767-10.676z"  />
    </g>
    <path data-bodypart="neck_or_throat" d="M72.825 54.966c2.039 2.4 4.796 4.095 7.825 4.793 4.893 1.129 10.289-.514 13.522-4.153a54.281 54.281 0 00.2 5.872c.195 2.159.446 3.582 1.024 4.615-4.227 1.51-9.009 1.706-13.609 1.45-3.317-.184-6.629-.621-9.842-1.467.629-.809.896-2.182.954-4.754a92.375 92.375 0 00-.074-6.356z"  />
    <path data-bodypart="chest" d="M70.53 67.01c3.716 1.215 7.691 1.654 11.623 1.841 4.775.227 9.698-.039 14.075-1.697.903.823 2.263 1.366 4.381 2.03 2.524.56 4.741 1.138 6.696 1.747.882 2.286 1.189 4.816 1.526 7.287.958 7.027 1.272 14.258 1.157 21.388-.209 1.062-.429 2.523-.65 4.234-17.106 3.141-34.923 3.203-52.099-.027l-.28-.055c.076-.143.101-.272.101-.272-.156-3.93-.179-7.855-.065-11.777.164-5.639.54-11.282 1.495-16.839.265-1.543.544-3.091 1.072-4.555.061-.165.086-.321.076-.462a59.063 59.063 0 015.581-1.521c2.437-.735 4.143-.901 5.311-1.322z"  />
    <path data-bodypart="upper_arm" d="M108.827 71.427c11.526 3.928 13.001 9.012 15.711 17.102 2.156 6.436 6.444 21.213 10.029 31.651-.471.474-1.032.877-1.589 1.261-3.514 2.419-7.974 3.811-12.271 3.274-2.588-7.403-7.493-18.705-9.425-25.704.08-6.494-.205-12.965-.974-19.387-.332-2.768-.694-5.541-1.481-8.197zm-50.644-1.06c-.706 2.086-.99 4.265-1.298 6.441-1.064 7.517-1.376 15.124-1.226 22.68-1.903 7.07-6.498 18.085-8.91 25.307-3.378.215-6.802-.731-9.808-2.389-1.427-.787-2.847-1.653-3.77-2.923 3.569-10.425 7.809-25.029 9.949-31.418 2.736-8.163 4.768-13.872 15.063-17.698z"  />
    <path data-bodypart="upper_abdomen" d="M56.476 104.999c.099.013.202.017.313.038 17.282 3.291 35.081 3.287 52.382.144-.493 4.094-.976 9.26-1.328 13.838-16.509 2.853-33.586 2.856-50.21-.226-.372-4.639-.801-9.852-1.157-13.794z"  />
    <path data-bodypart="forearm" d="M135.03 121.531c1.655 4.729 3.127 8.372 4.114 9.592 2.199 2.717 5.389 15.771 7.214 24.137a26.25 26.25 0 00-9.488 2.207c-2.847-5.444-7.565-12.304-8.273-13.152-1.041-1.245-5.848-9.7-6.813-16.27a42.936 42.936 0 00-.623-1.99c3.728.319 7.502-.678 10.808-2.487 1.079-.591 2.157-1.235 3.061-2.037zm-102.354-.601c.369.375.809.708 1.231 1.034 3.449 2.665 7.973 4.293 12.411 4.146a57.065 57.065 0 00-.444 1.472c-.965 6.57-5.772 15.025-6.813 16.27-.714.854-5.507 7.824-8.345 13.287a26.28 26.28 0 00-9.512-1.905c1.808-8.337 5.073-21.809 7.31-24.575.997-1.231 2.486-4.93 4.162-9.729z"  />
    <path data-bodypart="mid_abdomen" d="M57.738 120.118c16.507 3.033 33.418 3.072 50.001.226-.369 4.92-.569 8.928-.445 9.792.329 2.303 2.338 14.066 3.211 18.349-11.259 3.001-23.157 3.618-34.901 2.916-6.584-.393-13.181-1.136-19.484-2.921 1.129-10.285 2.395-18.562 2.395-18.562l-.777-9.8z"  />
    <path data-bodypart="lower_abdomen" d="M110.751 149.752c.663 3.388 1.145 6.9 1.476 10.469a54.948 54.948 0 00-5.184 2.184c-5.486 2.634-10.671 5.935-15.43 9.739-.538-1.699-1.476-3.24-2.808-4.398-1.279-1.113-2.911-1.788-4.59-1.808-.14 0-.279.002-.419.01-2.921.161-5.274 2.241-6.499 4.736-.289.588-.521 1.2-.694 1.83-6.496-5.132-13.784-9.661-21.585-12.419.271-3.486.607-6.996.961-10.329l1.539.404c6.866 1.672 13.961 2.401 21.035 2.662 10.789.399 21.75-.314 32.198-3.08z"  />
    <path data-bodypart="hand" d="M146.636 156.527c.662 3.058 1.094 5.281 1.161 5.777.247 1.836 1.269 15.261 1.25 15.285-.011.013.882 11.976-.721 12.665-.616.265-1.34-1.861-1.985-4.482l-.517 1.067c-2.547.691-3.238-4.547-3.238-4.547l-.291 1.496c-2.479.106-2.813-6.633-2.813-6.633l.026-4.044.13-.355c-3.028 1.584-6.06 7.122-9.309 3.182 2.893-1.849 4.03-3.526 4.542-4.663.519-1.154 2.877-5.819 4.169-7.863.074-.987-.576-2.738-1.589-4.791a24.336 24.336 0 019.185-2.094zm-125.713-.013c3.168.004 6.314.617 9.217 1.779-.981 2.008-1.602 3.713-1.521 4.674 1.71 3.069 3.798 7.023 4.168 7.845.512 1.137 1.649 2.814 4.542 4.663-3.249 3.939-4.875-1.006-9.23-2.985l.051.158.026 4.044s-.334 6.739-2.813 6.633l-.291-1.497s-.691 5.239-3.238 4.548l-.612-.685c-.621 2.441-1.304 4.352-1.89 4.1-1.603-.69-.71-12.653-.721-12.666-.019-.024 1.004-13.448 1.25-15.284.064-.472.457-2.503 1.062-5.327z"  />
    <path data-bodypart="sexual_organs" d="M77.7 173.389a9.71 9.71 0 01.709-2.049c1.054-2.207 3.263-4.085 5.711-4.115.253-.001.313.005.464.017 3.204.251 5.199 2.9 5.946 5.781.01.04.271 1.471.271 1.473.379 3.347-.874 7.033-3.673 8.784a5.345 5.345 0 01-2.076.784c.172-4.105.584-7.08.584-7.08s-2.404.159-3.702.406c.542 1.853.866 3.922.974 6.57-1.705-.441-3.191-1.675-4.086-3.156-1.082-1.789-1.526-3.9-1.353-5.954.002-.021.231-1.461.231-1.461z"  />
    <path data-bodypart="thigh" d="M54.913 161.428c4.9 1.765 9.514 4.267 13.889 7.104a94.721 94.721 0 017.498 5.372c-.554 3.57.558 7.383 3.182 9.695.986.869 2.189 1.48 3.46 1.722.044 3.466-.233 7.88-.827 13.893-1.139 11.523-1.26 16.631-1.26 16.631l.135-.375-.016 2.178c-3.137-.657-6.326-1.081-9.536-1.093-3.833-.006-7.729.657-11.453 1.696-.144.041-.232.021-.459.148l-.098.072c-1.492-9.683-3.646-26.285-4.786-37.915-.485-4.948-.261-11.929.271-19.128zm57.434.12c1.865 22.63-2.072 47.061-3.453 55.324l-.118.795c-3.124-.663-6.314-1.099-9.507-1.112h-.253c-3.876.021-7.639.735-11.336 1.787l-.104.048c-.213-6.643-.935-15.256-2.027-22.315-.55-3.561-.637-7.397-.543-10.695 2.66-.345 4.844-2.314 5.998-4.636 1.087-2.185 1.401-4.779.953-7.194 6.127-4.952 12.973-9.277 20.39-12.002z"  />
    <path data-bodypart="knee" d="M87.612 219.515c.207.079.42.065.42.065a52.602 52.602 0 014.546-1.101c5.419-1.033 10.799-.639 16.057.482-.447 4.852-.498 13.669.344 21.375-2.07.506-4.172.863-6.297.987-4.116.24-8.18-.573-12.169-1.548-.063-.012-.079-.018-.143-.019a.635.635 0 00-.489.225l.139-2.032c.282-4.665-2.395-8.41-2.366-15.23a95.107 95.107 0 00-.042-3.204zm-28.013.02c.206.079.417.045.417.045a51.388 51.388 0 014.585-1.101c5.468-1.025 10.99-.659 16.363.487-.067 5.434-.295 15.173-.912 18.252-.072.817-.039 1.816.057 2.943a52.55 52.55 0 01-3.676.761c-5.274.877-10.448.269-15.497-1.216-.07-.017-.07-.017-.142-.025-.042 0-.077-.012-.189.018.252-5.53.83-10.737.013-14.357-.254-1.126-.61-3.159-1.019-5.807z"  />
    <path data-bodypart="lower_leg" d="M89.832 240.681c.14.213.375.344.375.344 1.67.408 3.345.806 5.039 1.103 4.729.83 9.34.54 13.877-.515.169 1.371.369 2.698.602 3.95 1.287 6.909-2.347 23.831-3.703 35.823l-.45.119c-2.774.63-5.75.527-8.589.035-1-.173-2.017-.371-2.828-.909-.418-.277-.381-.598-.864-.677l-.078.001c-.198-4.235-.846-9.169-2.342-14.813-2.108-7.953-1.462-18.555-1.039-24.461zm-29.284.246l.025.014.219.064c3.147.915 6.474 1.572 9.799 1.647 3.245.073 6.474-.468 9.648-1.195.515 4.68 1.711 11.027 1.156 16.234-.157 1.471-1.274 12.999-2.093 22.622-.266.401-.839.607-1.358.784-2.554.871-5.497.929-8.297.706-1.085-.086-2.183-.171-3.127-.626-.301-.151-.624-.113-.827.056-1.13-12.119-4.751-28.049-5.12-34.405-.113-1.958-.097-3.942-.025-5.901z"  />
    <path data-bodypart="foot" d="M79.159 281.991c-.484 5.767-.826 10.541-.734 11.527.248 2.664 5.438 13.916-2.188 15.305-.62.021-3.776.257-6.737 2.813-1.147.99-2.278 3.818-3.79 4.248-3.123.889-6.315 3.423-7.336 3.6l-.285-.014c-4.315.337-4.072-2.292-3.734-3.515l.21-.603s-.11.239-.21.603l-.071.203c-2.111 1.374-2.481-.488-2.539-.944l.738-1.353-.748 1.256.01.097-.048.089c-1.391.711-1.907-1.194-1.907-1.194l.837-.965-.35.338c-.794.69-1.859-.659-1.859-.659l-.193-1.7-.041-.035c1.039-2.452 5.605-5.029 6.856-5.597l.131-.053c1.594-1.046 2.627-1.434 3.711-2.709 1.39-1.109 3.218-2.872 5.453-7.16 1.764-2.016 1.97-7.116 1.445-13.367.248.192.605.321.932.418 2.53.753 5.362.678 8.082.399 1.523-.156 3.068-.354 4.365-1.028zm14.112-.415c.187.148.389.268.596.373 2.942 1.5 6.649 1.435 10.081 1.103.649-.063 1.302-.136 1.922-.29-.439 4.257-.527 7.77.087 9.795 2.349 7.747 3.511 6.428 8.726 11.288l.231.188c1.237.596 5.745 3.274 6.728 5.749l.071.149-.344 1.58s-.97 1.175-1.734.721l-.544-.872.404.768a.858.858 0 00.14.104l.333.534s-.558 1.893-1.932 1.151l-.049-.079c.011-.068.014-.108.014-.108l-.931-1.389.917 1.497c-.073.473-.495 2.285-2.558.875l-.066-.204c-.092-.366-.196-.608-.196-.608l.196.608c.269 1.064.443 3.176-2.298 3.449a.14.14 0 01-.085.056c-2.657.403-4.693-1.981-5.618-2.634-1.312-.927-2.893-.601-3.759-1.905-1.005-1.513-5.405-7.29-10.022-8.191-1.899-.372-3.121-2.224-3.162-4.432-.075-4.048 2.49-9.795 2.723-13.357a66.39 66.39 0 00.129-5.919z"  />
    <g>
        <path d="M114.944 317.968c-1.806.912-3.434.541-4.761-.177-1.245-.674-2.206-1.666-2.757-2.056-.61-.43-1.285-.559-1.905-.742-.776-.229-1.475-.532-1.978-1.289-.592-.891-2.383-3.287-4.7-5.254-1.509-1.281-3.241-2.385-5.012-2.731-2.111-.413-3.507-2.444-3.552-4.896-.039-2.064.589-4.563 1.263-6.999.651-2.353 1.345-4.644 1.46-6.399.357-5.467.222-12.853-2.255-22.197-2.509-9.463-1.15-22.654-.867-27.346.138-2.281-.456-4.335-1.073-6.654-.639-2.407-1.308-5.088-1.294-8.549.029-6.801-.754-17.868-2.099-26.568-1.174-7.596-.254-16.428.017-18.686-.724 0-2.026.012-2.963.088.959 4.614 1.315 9.605.47 21.696-.803 11.479-1.254 16.571-1.26 16.64.008 3.027-.027 17.447-.806 21.397-.142 1.673.164 4.11.528 6.877.563 4.27 1.272 9.307.817 13.581-.262 2.457-3.219 33.058-2.97 35.73.15 1.618 2.101 6.382 1.947 10.212-.066 1.654-.517 3.139-1.584 4.19-.716.705-1.713 1.221-3.08 1.447h-.078v-.477l-.009.483s-3.142-.04-6.286 2.674c-.669.577-1.323 1.805-2.064 2.779-.58.762-1.219 1.372-1.909 1.568-2.147.611-4.323 2.019-5.782 2.865-.704.409-1.266.687-1.604.746l-.01-.058-.035.063c-2.528.198-3.695-.589-4.217-1.508-.271-.477-.366-1.011-.374-1.506-.526.212-.943.221-1.265.136-.492-.13-.816-.484-1.014-.878a2.484 2.484 0 01-.124-.296c-.188.039-.363.04-.523.017-.445-.065-.797-.333-1.053-.659a3.31 3.31 0 01-.51-1.012l-.005-.017a.472.472 0 01-.018-.158 1.935 1.935 0 01-.245-.104c-.567-.284-1.024-.858-1.024-.858a.48.48 0 01-.023-.565l1.433-2.164a.495.495 0 01.123-.127l2.871-2.041a.483.483 0 11.559.787l-2.798 1.989-1.175 1.774c.123.118.286.252.467.342.135.068.287.12.425.031l1.278-1.662a.482.482 0 01.114-.107l2.657-1.779a.483.483 0 11.537.802l-2.591 1.735-1.223 1.591a.493.493 0 01-.072.093l-.292.38c.061.144.15.318.273.475.108.138.244.271.432.299a.585.585 0 00.248-.022.488.488 0 01.049-.1l1.516-2.313a.483.483 0 01.166-.155s1.748-.988 2.93-1.884a.483.483 0 01.583.769c-1.052.798-2.535 1.666-2.935 1.896l-1.359 2.075c.027.15.077.347.171.534.082.162.198.325.399.379.271.072.63-.03 1.137-.348.082-.382.176-.63.176-.63a.479.479 0 01.189-.23l4.091-2.616a.483.483 0 01.52.813l-3.952 2.527c-.126.383-.41 1.465.07 2.31.402.707 1.343 1.171 3.277 1.025.382-.076 1.066-.504 1.941-1.023 1.471-.872 3.413-2.017 5.327-2.561.669-.191 1.223-.943 1.768-1.726.64-.921 1.241-1.908 1.838-2.424 3.237-2.794 6.486-2.905 6.885-2.908 1.113-.19 1.935-.598 2.522-1.176.898-.884 1.241-2.148 1.297-3.54.151-3.784-1.795-8.486-1.944-10.084-.25-2.686 2.708-33.452 2.971-35.922.447-4.203-.26-9.154-.814-13.352-.377-2.865-.682-5.388-.53-7.112l.007-.053c.807-4.022.802-19.332.792-21.526a.474.474 0 01.038-.192c.12-1.398.547-6.532 1.225-16.225.867-12.398.467-17.239-.563-21.95-.028-.306.112-.496.406-.582 1.292-.177 4.166-.148 4.166-.148a.486.486 0 01.472.549s-1.426 10.291-.088 18.952c1.353 8.75 2.14 19.881 2.111 26.72-.015 3.359.64 5.96 1.261 8.297.645 2.425 1.248 4.575 1.104 6.96-.28 4.639-1.644 17.683.836 27.04 2.511 9.476 2.647 16.964 2.285 22.508-.118 1.807-.822 4.17-1.493 6.594-.648 2.34-1.265 4.739-1.228 6.723.036 1.962 1.083 3.636 2.772 3.966 1.922.376 3.814 1.553 5.452 2.943 2.405 2.042 4.264 4.531 4.879 5.456.363.546.888.732 1.447.897.715.212 1.486.383 2.189.88.532.376 1.456 1.343 2.66 1.995 1.098.594 2.449.915 3.948.121l.047-.022c.691-.477.807-1.18.758-1.766a3.83 3.83 0 00-.271-1.089l-3.916-2.63a.483.483 0 01.538-.801l4.031 2.707a.49.49 0 01.164.186s.141.284.261.714c.62.34 1.005.37 1.256.186.264-.193.355-.544.386-.742l-1.313-2.107c-.395-.24-1.859-1.14-2.892-1.961a.482.482 0 11.6-.756c1.161.922 2.887 1.949 2.887 1.949a.486.486 0 01.163.159l1.462 2.346c.02.032.036.066.048.101a.589.589 0 00.247.028c.189-.024.328-.154.439-.289.126-.155.219-.327.283-.469l-.283-.386a.49.49 0 01-.07-.096l-1.187-1.617-2.552-1.793a.484.484 0 01.555-.79l2.616 1.839c.043.03.081.067.112.109l1.241 1.69c.136.092.289.044.426-.021.182-.086.348-.216.474-.332l-1.135-1.8-2.753-2.051a.483.483 0 01.577-.774l2.825 2.105c.047.036.088.08.12.13l1.384 2.195a.483.483 0 01-.036.565s-.47.563-1.043.835a1.929 1.929 0 01-.248.097.48.48 0 01-.021.159l-.005.017c-.03.095-.2.591-.533.999-.263.321-.621.58-1.068.636a1.49 1.49 0 01-.533-.032c-.118.298-.306.619-.603.836-.359.262-.888.42-1.658.162.007.844-.277 1.78-1.298 2.422a.546.546 0 01-.129.057zm-56.228 1.477h.31c-.093 0-.213 0-.334-.304l.024.304zM72.603 53.36a24.462 24.462 0 01-.489-.616c-1.949-2.552-3.372-5.561-4.424-8.324a1.52 1.52 0 01-.409.174c-.314.082-.696.077-1.151-.11-.883-.362-2.157-1.521-3.822-4.4-1.193-2.063-1.633-3.686-1.641-4.882-.005-.885.223-1.558.563-2.034.49-.685 1.215-.992 1.942-.942-.938-2.729-1.57-5.705-1.57-8.399 0-13.152 9.764-23.81 21.762-23.81 11.998 0 21.762 10.658 21.762 23.81 0 2.919-.558 5.727-1.492 8.319.686-.053 1.38.216 1.881.837.368.455.635 1.114.682 1.997.064 1.195-.279 2.841-1.348 4.97-1.492 2.973-2.695 4.205-3.555 4.619-.443.214-.825.241-1.143.178a1.554 1.554 0 01-.657-.306c-.952 2.688-2.232 5.543-3.96 7.997-.152.216-.308.429-.467.638.02.059.029.124.024.191 0 0-.298 3.68.103 8.13.227 2.51.5 3.98 1.348 4.999.847 1.019 2.247 1.569 4.628 2.312 9.86 2.162 15.057 4.608 18.212 7.723 3.167 3.128 4.293 6.944 5.955 11.906 2.288 6.828 6.974 23.043 10.668 33.502 1.557 4.409 2.92 7.785 3.856 8.941.972 1.201 2.152 4.372 3.308 8.284 2.651 8.963 5.274 21.848 5.448 23.138.223 1.655 1.076 12.717 1.23 14.93l.033.558c.063.998.391 6.122.13 9.525-.092 1.2-.266 2.195-.53 2.761-.169.363-.392.584-.621.683-.267.115-.551.085-.832-.143-.212-.171-.446-.511-.667-.997-.272-.598-.548-1.444-.816-2.418a.482.482 0 01-.252.165c-1.252.34-2.175-.421-2.789-1.535a8.344 8.344 0 01-.635-1.558.496.496 0 01-.211.059c-.921.039-1.651-.624-2.155-1.657-.983-2.015-1.16-5.435-1.16-5.435l-.001-.027.021-3.25c-1.312.942-2.488 2.056-3.603 2.831-1.122.78-2.2 1.221-3.268 1.002-.721-.147-1.453-.593-2.192-1.489a.485.485 0 01.112-.714c2.771-1.771 3.871-3.366 4.362-4.455.367-.817 2.423-4.708 4.132-7.782.01-.377-.094-.867-.275-1.443-.322-1.03-.893-2.306-1.602-3.694-2.796-5.473-7.736-12.667-8.459-13.533-1.055-1.261-5.924-9.812-6.916-16.476-1.946-6.815-8.41-20.775-10.749-28.983-1.287 5.699-3.107 28.689-2.791 30.903.337 2.35 2.425 14.575 3.26 18.592 5.348 25.733-.061 58.711-1.642 68.158h-.024l.024.004c-.81 4.588-1.001 18.929.81 28.652 1.092 5.861-1.321 18.893-2.931 30.062-1.055 7.317-1.777 13.82-.849 16.881 2.3 7.585 3.461 6.308 8.54 11.025.807.401 2.789 1.573 4.474 2.982 1.199 1.002 2.24 2.129 2.658 3.179a.484.484 0 01-.897.357c-.37-.93-1.317-1.908-2.38-2.796-1.652-1.381-3.602-2.528-4.334-2.881a.59.59 0 01-.132-.091c-5.301-4.938-6.464-3.616-8.853-11.495-.951-3.136-.263-9.802.817-17.299 1.594-11.053 4.019-23.947 2.939-29.747-1.833-9.837-1.633-24.345-.814-28.993 1.573-9.397 6.969-42.203 1.649-67.801-.837-4.03-2.933-16.294-3.27-18.653-.329-2.3 1.617-26.735 2.925-31.736-1.359 1.21-2.664 2.527-3.103 3.092a.483.483 0 11-.762-.593c.88-1.132 5.056-5.086 6.689-5.76a.483.483 0 01.368.893c-.457.188-1.122.649-1.853 1.234 1.847 7.859 9.101 23.316 11.168 30.578l.013.062c.951 6.473 5.681 14.804 6.706 16.031.734.878 5.745 8.166 8.579 13.712.825 1.616 1.457 3.095 1.768 4.242.57-1.001 1.052-1.811 1.346-2.242a.482.482 0 01.814.517l-2.019 3.44-.013.022c-1.697 3.046-3.764 6.962-4.131 7.777-.505 1.12-1.581 2.754-4.246 4.558.431.427.851.67 1.278.758.831.17 1.649-.242 2.523-.849 1.526-1.061 3.172-2.731 5.108-3.78l-1.142-1.163a.482.482 0 01.641-.719c1.541 1.202 4.749 5.503 5.395 6.327l.053.066c.05.042.11.113.145.233.007.025.037.176.081.43.307 1.759 1.563 9.212 2.75 11.824.091.2.18.369.27.498a.67.67 0 00.042.055l.007-.014a1.62 1.62 0 00.129-.296c.18-.522.29-1.306.36-2.222.258-3.355-.068-8.407-.13-9.39l-.033-.552c-.154-2.204-1.002-13.22-1.224-14.869-.172-1.281-2.782-14.085-5.416-22.992-1.108-3.748-2.203-6.8-3.134-7.95-.967-1.195-2.406-4.671-4.015-9.228-3.696-10.463-8.384-26.685-10.673-33.516-1.607-4.796-2.657-8.503-5.719-11.526-3.072-3.034-8.153-5.367-17.761-7.472l.103-.471-.143.461c-2.644-.825-4.165-1.494-5.103-2.623-.94-1.132-1.315-2.744-1.566-5.53a56.006 56.006 0 01-.167-7.191c-2.537 2.837-5.858 4.776-10.192 4.677-4.324.055-7.66-1.778-10.24-4.45.069 1.367.155 3.83.089 6.775-.065 2.898-.432 4.357-1.188 5.201-.484.538-1.129.852-1.996 1.094-1.145.319-2.713.526-4.839 1.167l-.033.008c-8.151 1.834-12.792 4.269-15.789 7.465-3 3.199-4.348 7.147-5.958 11.951-2.289 6.831-6.978 23.054-10.673 33.517-1.609 4.557-3.048 8.032-4.016 9.227-.931 1.151-2.025 4.203-3.133 7.95-2.634 8.908-5.244 21.712-5.416 22.993-.222 1.649-1.07 12.665-1.224 14.869l-.033.552c-.062.983-.388 6.035-.13 9.39.07.916.18 1.7.36 2.222.039.114.081.214.128.296l.008.013a.659.659 0 00.042-.054c.089-.13.179-.298.27-.498 1.187-2.612 2.443-10.065 2.75-11.825.044-.254.074-.405.081-.43a.474.474 0 01.145-.233l.053-.065c.646-.824 3.854-5.125 5.395-6.327a.483.483 0 01.641.719l-1.142 1.163c1.936 1.049 3.582 2.719 5.108 3.779.874.607 1.691 1.02 2.523.849.427-.087.847-.33 1.278-.757-2.665-1.804-3.741-3.438-4.246-4.559-.367-.815-2.434-4.73-4.131-7.777a.24.24 0 01-.013-.021l-2.019-3.44a.483.483 0 01.814-.517c.294.43.776 1.241 1.346 2.242.311-1.148.943-2.626 1.768-4.242 2.834-5.547 7.845-12.834 8.579-13.712 1.025-1.227 5.755-9.559 6.706-16.031l.013-.062c2.085-7.326 8.406-21.858 10.173-29.649a.486.486 0 01.039-.109c-.9-.75-1.744-1.366-2.29-1.591a.483.483 0 01.368-.893c1.633.674 5.808 4.628 6.689 5.76a.483.483 0 01-.762.593c-.436-.561-1.722-1.86-3.069-3.061.411 6.44 2.455 29.861 2.365 31.339-.092 1.51-5.311 35.259-3.8 50.671 1.511 15.413 4.803 39.575 5.966 44.726 1.169 5.177-.496 13.589-.034 21.565.4 6.904 4.691 25.111 5.441 37.457.196 3.222.15 6.051-.258 8.191-.281 1.477-.743 2.638-1.393 3.405-2.254 4.31-4.214 6.093-5.626 7.224-1.105 1.284-2.157 1.697-3.783 2.764l-.214.097.017-.008c-.733.333-2.631 1.373-4.252 2.669-1.038.829-1.969 1.757-2.359 2.677a.483.483 0 01-.889-.377c.441-1.042 1.47-2.115 2.645-3.054 1.698-1.357 3.688-2.445 4.456-2.793l.106-.044c1.524-.995 2.526-1.366 3.569-2.592a.5.5 0 01.066-.064c1.359-1.085 3.248-2.8 5.433-6.994l.065-.095c.581-.663.963-1.693 1.211-2.996.396-2.077.433-4.823.243-7.951-.75-12.348-5.042-30.556-5.442-37.46-.458-7.918 1.216-16.269.056-21.409-1.165-5.165-4.47-29.389-5.985-44.844-1.515-15.458 3.705-49.31 3.798-50.824.081-1.327-1.573-20.42-2.2-28.873l-.193-2.795c.04.685.107 1.641.193 2.795v.002c-2.382 8.105-7.555 20.263-9.413 26.776-.991 6.663-5.861 15.215-6.916 16.477-.724.866-5.664 8.059-8.459 13.532-.709 1.389-1.28 2.665-1.603 3.694-.18.577-.285 1.066-.274 1.444 1.709 3.073 3.764 6.965 4.132 7.782.491 1.089 1.591 2.684 4.362 4.455a.483.483 0 01.112.713c-.739.897-1.472 1.342-2.192 1.49-1.068.219-2.146-.222-3.268-1.002-1.115-.775-2.291-1.89-3.603-2.832l.021 3.251-.001.027s-.177 3.42-1.16 5.435c-.504 1.033-1.234 1.696-2.156 1.656a.485.485 0 01-.211-.058 8.3 8.3 0 01-.634 1.558c-.614 1.113-1.538 1.875-2.789 1.535a.484.484 0 01-.252-.166c-.268.974-.545 1.821-.816 2.419-.221.485-.455.825-.667.997-.282.227-.565.257-.832.142-.23-.098-.452-.32-.621-.682-.265-.566-.438-1.561-.53-2.761-.261-3.403.067-8.528.13-9.525l.033-.558c.154-2.213 1.007-13.275 1.23-14.931.173-1.289 2.797-14.174 5.447-23.137 1.157-3.912 2.337-7.083 3.309-8.284.936-1.156 2.299-4.532 3.856-8.942 3.694-10.458 8.38-26.673 10.668-33.501 1.659-4.953 3.077-9.008 6.169-12.305 3.091-3.298 7.86-5.85 16.264-7.743 2.126-.639 3.695-.848 4.842-1.167.661-.185 1.167-.398 1.536-.809.663-.739.885-2.039.942-4.577.1-4.485-.155-7.839-.155-7.839a.457.457 0 010-.074zm3.874 235.451c-.093 1.628-.591 3.881-1.157 5.351-.216.561-.427 1.003-.642 1.21a.482.482 0 10.669.695c.28-.269.592-.826.874-1.559.597-1.55 1.121-3.925 1.22-5.642a.482.482 0 10-.964-.055zm18.806-1.463c-.373 1.622-.343 3.582-.113 5.121.16 1.074.425 1.948.703 2.394a.482.482 0 10.82-.51c-.235-.376-.433-1.121-.569-2.027-.213-1.43-.247-3.253.1-4.761a.483.483 0 10-.941-.217zm45.734-114.504l1.684 4.031c.016.04.027.081.033.124l.673 5.191s.232 1.788.942 3.075c.385.7.904 1.283 1.69 1.07a.476.476 0 01.306.018c-.846-3.302-1.582-7.6-1.807-8.892l-.043-.244a6.426 6.426 0 00-.045-.054c-.426-.545-1.998-2.657-3.431-4.32l-.002.001zm-113.692-.463l-.002-.001c-1.433 1.663-3.005 3.775-3.432 4.319l-.044.055-.043.244c-.225 1.292-.961 5.59-1.807 8.891a.483.483 0 01.306-.018c.786.214 1.305-.369 1.69-1.069.71-1.288.942-3.075.942-3.074l.673-5.193a.52.52 0 01.033-.123l1.684-4.031zm113.004 1.319l-.022 3.405c.011.221.182 3.242 1.063 5.047.309.635.679 1.14 1.246 1.115h.013c-.127-.56-.179-.951-.179-.951l-.665-5.129-1.456-3.487zm-112.316-.463l-1.456 3.487-.665 5.129s-.052.391-.179.95l.013.001c.567.024.936-.48 1.246-1.115.881-1.806 1.052-4.826 1.063-5.047l-.022-3.405zm-4.574 3.781l-.022.001.022-.001zm121.487-.502a.448.448 0 00-.341.16.465.465 0 01.341-.16zm-121.51-.463a.472.472 0 01.341.159.448.448 0 00-.341-.159zm55.402-1.571a87.625 87.625 0 00-9.562-7.015.483.483 0 00-.517.816 86.264 86.264 0 019.454 6.936.484.484 0 00.625-.737zm11.287.392a86.704 86.704 0 018.773-6.418.484.484 0 00-.52-.814 87.691 87.691 0 00-8.872 6.491.482.482 0 10.619.741zm-6.64-37.444c.091-1.046.221-2.128.27-2.873a.483.483 0 01.963.064c-.048.741-.187 1.83-.281 2.869.101.272.374 1.04.519 1.728.089.422.125.818.078 1.087a.853.853 0 01-.304.547.71.71 0 01-.478.146c-.338-.015-.658-.266-.785-.828-.124-.551-.084-1.525.002-2.557a.467.467 0 01.016-.183zm11.58-37.421h3.582a.484.484 0 000-.966h-3.582a.483.483 0 000 .966zm-25.482 0h3.582a.483.483 0 000-.966h-3.582a.483.483 0 000 .966zm41.859-2.713l-.047-.204a19 19 0 00.046.202l.001.002zm-30.93-26.013c.713.671 1.947 1.521 3.34 1.462.942-.04 1.972-.477 2.963-1.694a.483.483 0 10-.749-.609c-.761.935-1.531 1.308-2.255 1.339-1.107.046-2.07-.667-2.637-1.201a.483.483 0 00-.662.703zm20.654-2.569h-.101v.461l.101-.461zm1.651-37.093c-1.631-2.78-1.87-6.956-2.643-9.963-.24-.936-.531-1.751-.956-2.35-.372-.523-.85-.867-1.504-.937-.768-.083-1.246-.291-1.568-.554-.485-.396-.636-.941-.803-1.548-.089-.323-.19-.668-.439-.993-.297-.387-.801-.735-1.692-1.017-.994-.314-2.431-.533-4.533-.601-5.078-.166-9.009 1.902-11.73 2.791-1.569.513-2.788.612-3.647-.033a2.145 2.145 0 01-.105-.084c-.149.008-1.565.106-2.722.757-.74.417-1.378 1.075-1.4 2.136-.066 3.174-2.165 10.543-4.677 13.514a29.897 29.897 0 001.9 4.136l.041.096c.423 1.392 1.036 3.73 1.988 6.355a.44.44 0 01.038.105c1.045 2.861 2.493 6.052 4.536 8.727 2.571 3.364 6.095 5.909 10.982 5.845l.006.483.011-.482c4.884.112 8.364-2.572 10.865-6.122 3.842-5.454 5.4-12.945 6.097-15.925l.024-.08.027-.057a26.568 26.568 0 001.904-4.199zM82.144 51.34c.528.21 1.677.23 2.616.138.659-.064 1.215-.19 1.417-.3a.484.484 0 00-.462-.848c-.149.081-.564.14-1.049.187-.776.076-1.728.1-2.164-.074a.484.484 0 00-.358.897zm-2.492-1.573c1.601-.514 4.911-1.1 8.87.005a.483.483 0 10.26-.929c-4.207-1.175-7.724-.542-9.425.005a.483.483 0 00.295.919zm2.782-2.646c.407.214 1.195.367 1.89.331.528-.028.998-.176 1.268-.418a.484.484 0 00-.645-.718c-.141.126-.399.157-.674.172-.509.026-1.091-.064-1.39-.222a.484.484 0 00-.449.855zm1.574-3.479c.356-.258.984-.585 1.906-.609a.482.482 0 01.026.965c-1.044.028-1.552.585-1.552.585h-.366v-.314l-.344.339s-.622-.612-1.698-.641a.483.483 0 11.026-.965 3.717 3.717 0 012.002.64zm15.84-.238a.42.42 0 01.052.066c.089.138.231.289.439.33.15.03.327 0 .536-.1.769-.371 1.777-1.524 3.111-4.183.81-1.614 1.179-2.918 1.243-3.938.058-.911-.127-1.572-.465-1.99a1.231 1.231 0 00-1.455-.384.46.46 0 01-.094.028 27.932 27.932 0 01-1.446 2.999c-.359 1.539-.941 4.202-1.921 7.172zM63.554 33.283a.42.42 0 01-.108-.024 1.23 1.23 0 00-1.43.47c-.312.437-.458 1.107-.347 2.014.125 1.014.57 2.294 1.474 3.857 1.489 2.575 2.564 3.667 3.353 3.991.215.088.393.108.541.069a.62.62 0 00.302-.19c-.912-2.54-1.512-4.791-1.929-6.169a30.755 30.755 0 01-1.856-4.018zm10.637.908c-.723.273-1.478.825-2.245 1.758a.482.482 0 01-.746-.612c1.205-1.468 2.411-2.107 3.516-2.277 2.581-.398 4.694 1.826 5.302 2.638a.482.482 0 01-.772.579c-.337-.45-1.213-1.448-2.394-1.969a1.628 1.628 0 01-.408 2.187 8.16 8.16 0 001.479-.35.483.483 0 01.319.911c-.769.269-2.038.535-3.226.475-.851-.043-1.659-.257-2.248-.716a.482.482 0 11.592-.762c.323.252.738.392 1.187.462a1.626 1.626 0 01-.356-2.324zm17.137.117c-1.181.521-2.057 1.519-2.394 1.969a.483.483 0 01-.773-.579c.609-.812 2.721-3.036 5.303-2.638 1.105.17 2.311.809 3.515 2.277a.482.482 0 11-.746.612c-.766-.933-1.521-1.485-2.245-1.758a1.625 1.625 0 01-.355 2.324c.449-.07.863-.21 1.186-.462a.483.483 0 01.593.762c-.589.459-1.397.673-2.248.716-1.188.06-2.457-.206-3.226-.475a.483.483 0 01.319-.911 8.14 8.14 0 001.479.35 1.628 1.628 0 01-.408-2.187zm-15.904.216a.662.662 0 11.112 1.32.662.662 0 01-.112-1.32zm17.332 0a.661.661 0 11-.114 1.318.661.661 0 01.114-1.318zm-4.881-2.835s2.949-3.247 9.625-1.218a.483.483 0 00.28-.924c-7.386-2.244-10.627 1.502-10.627 1.502a.482.482 0 00.722.64zm-6.848-.736s-3.242-3.746-10.628-1.502a.483.483 0 00.281.924c6.676-2.029 9.624 1.218 9.624 1.218a.484.484 0 00.723-.64zm22.185-.626c.602-2.064.949-4.247.949-6.5 0-12.596-9.306-22.844-20.797-22.844-11.491 0-20.797 10.248-20.797 22.844 0 2.512.573 5.276 1.43 7.836 2.238-3.065 4.033-9.577 4.093-12.458.03-1.459.874-2.383 1.891-2.957.876-.493 1.88-.713 2.517-.81a4.588 4.588 0 01-.128-.28c-.316-.766-.519-1.868-.591-3.407a.482.482 0 11.964-.046c.055 1.17.184 2.064.393 2.733.181.578.413.971.725 1.206.291.218.646.285 1.058.266.498-.023 1.068-.168 1.71-.378 2.796-.914 6.843-3.009 12.062-2.839 4.58.149 6.237 1.055 6.959 1.995.334.436.485.892.604 1.326.111.404.16.792.483 1.055.216.177.546.287 1.06.342 1.788.192 2.719 1.773 3.292 4.007.682 2.652.907 6.244 2.123 8.909z" />
    </g>
</svg>