<svg viewBox="0 0 168 320" width="168" height="320" fill-rule="evenodd" clip-rule="evenodd" stroke-linecap="round" stroke-linejoin="round" stroke-miterlimit="1.5">
    <path data-bodypart="head" d="M61.142 25.193l-.012-.527C61.13 11.328 71.007.5 83.174.5s22.044 10.828 22.044 24.166c0 .555-.017 1.105-.051 1.646l-.539-.018c-1.749-.006-3.504.338-4.998 1.212-2.061 1.205-3.378 3.322-4.078 5.547-1.343 4.274-1.07 8.929-.173 13.392-2.179 2.619-6.028 7.117-6.028 7.117-1.909.142-4.082.622-5.505 1.949-.088.082-.604.143-.719.281-1.218-1.448-3.211-2.015-5.266-2.248l-.579-.457a215.878 215.878 0 01-3.775-4.123l-2.486-2.919-.071-.505.006-.029c.432-2.072.658-4.188.713-6.303.092-3.548-.256-7.399-2.332-10.391-1.763-2.541-4.598-3.621-7.457-3.643h-.136l-.602.019z" />
    <path data-bodypart="ears" d="M101.896 37.482c-.499 1.431-2.96 4.66-5.69 7.967-.776-4.077-.959-8.6.459-12.57.949-2.657 2.983-4.729 5.568-5.333a10.384 10.384 0 012.855-.246 25.71 25.71 0 01-1.624 6.814l-.209.523-.133.314-.225.507-.138.3-.261.532-.126.252-.41.764.053-.095c.123-.222.243-.446.357-.669l.03-.055.096-.197.197-.394.064-.138.053-.109.085-.191.132-.288.093-.219.071-.16.062-.154.087-.207.122-.316.08-.199.102.004c1.788-.735 4.266 1.392 1.339 7.225-2.928 5.833-4.964 4.816-5.483 4.016 0 0 .466 3.568-3.503 7.768l-.638.1c.196-2.078.87-7.451.87-7.451 2.647-3.198 5.13-6.492 5.676-8.128l-.011.033zm-36.987.491l-.671-1.277-.149-.302-.62-1.353-.373-.908c-.982-2.5-1.704-5.257-1.904-7.954 1.642-.081 3.243.144 4.668.865 2.359 1.194 3.708 3.718 4.305 6.291.862 3.719.627 7.721-.108 11.555-2.074-2.502-3.925-4.865-4.775-6.265.943 1.65 2.779 4.004 4.758 6.361l-.014.081c-.122.614.277.808.277.808.3 2.109.94 7.172.94 7.172-4.203-4.299-4.114-7.957-4.114-7.957-.47.829-2.068 1.816-5.335-3.834-3.268-5.65-.92-7.92.909-7.292.092.032.218.074.375.126l.018.043c.12.307.244.609.373.908.198.463.404.915.62 1.353l.065.141.084.161c.216.443.442.868.671 1.277zm.166.294l.002.004-.002-.004zm-.018-.033l.004.008-.004-.008zm-.017-.032l.005.01-.005-.01zm-.017-.031l.006.011-.006-.011zm-.016-.032l.006.012-.006-.012zm-.015-.03l.005.01-.005-.01z" />
    <path data-bodypart="nape_of_neck" d="M72.657 65.175l.03-1.707c.048-2.154-.424-6.097-.949-9.722 0 0-1.627-8.235-.657-7.172.727.797 3.488 4.152 5.794 6.102 1.364 1.152 2.843 1.423 2.907 1.441 1.276.35 3.618 1.675 3.618 1.675.067-.316 1.805-1.21 5.747-2.065 1.762-1.342 5.217-5.176 6.832-7.299l-.674 7.536.002.002c-.324 3.635-.566 7.545-.375 9.664l.059 1.545h.093c.688 3.274 2.059 4.52 2.051 4.572h-9.799c-.298-1.757-2.119-2.93-3.894-2.944-1.847-.003-3.635 1.158-3.941 2.8H68.735c2.062-.764 3.495.592 3.908-4.428h.014z" />
    <path data-bodypart="back" d="M108.346 131.565H57.577c-.399-5.63-1.283-17.932-1.902-25.125.432-7.026.252-14.148-1.139-21.052-.668-3.32-1.697-6.554-2.813-9.742l-.006-.013c1.001-.648 11.809-4.459 13.072-5.03h15.166l.037-.009a.387.387 0 00.191-.046l.082-.07.049-.036.005-.009a.703.703 0 00.136-.329c.002-.595.299-1.171.752-1.559 1.795-1.534 4.998-.468 5.169 1.535l.02.123a.432.432 0 00.035.257c.065.139.105.265.452.287l12.011-.073c.246-.023 13.545 4.354 15.168 5.153a77.819 77.819 0 00-1.145 3.493c-2.344 7.94-2.54 16.263-1.941 24.521-1.062 6.079-2.336 20.993-2.63 27.724z" />
    <path data-bodypart="upper_arm" d="M115.262 76.448c7.037 3.867 8.625 8.739 10.952 15.685 2.295 6.85 6.92 22.817 10.689 33.662a9.834 9.834 0 01-1.269 1.026c-3.999 2.758-9.147 3.724-14.019 3.315l-.251-.034c-2.323-7.191-6.893-18.54-9.041-26.112-.586-7.807-.462-15.728 1.57-23.224.396-1.459.877-2.894 1.369-4.318zm-64.679-.024l.76 2.206c2.78 8.347 3.459 17.038 3.105 25.71-2.224 7.589-6.824 18.624-9.104 25.654a23.296 23.296 0 01-8.768-2.233c-1.775-.851-3.604-2.012-4.529-3.831-.147-.292-.185-.438-.41-.519 3.673-10.771 8.005-25.681 10.201-32.238 2.081-6.211 3.769-11.05 8.745-14.749z" />
    <path data-bodypart="elbow" d="M31.103 124.97c1.128 1.885 3.093 3.159 5.124 4.101a24.966 24.966 0 008.709 2.226l-.245.813c-.662 4.503-3.065 9.861-4.937 13.341-.464.011-.925.001-1.385-.029-4.673-.307-9.627-2.848-11.859-7.09-.221-.424-.229-.628-.695-.702a.66.66 0 00-.402.089c.454-1.086.89-1.922 1.294-2.421 1.05-1.297 2.627-5.236 4.396-10.328zm106.287 2.204c1.586 4.482 2.993 7.895 3.955 9.084.262.324.538.79.818 1.372-3.156 5.358-10.092 7.563-16.127 6.222l-.009-.002c-1.648-3.358-3.397-7.683-3.946-11.42l-.282-.942c3.725.283 7.707-.374 11.26-1.812 1.569-.636 3.104-1.447 4.331-2.502z" />
    <path data-bodypart="lower_back" d="M108.296 132.898c-.026.919-.02 1.564.022 1.858.349 2.44 2.517 15.124 3.383 19.292.33 1.588.62 3.205.87 4.84l-.152-.068-.121-.027c-9.674-2.173-19.693-3.13-29.676-3.154l-.729.001c-8.983.034-18.027.799-26.858 2.496l-.194.039c1.256-12.603 2.945-23.644 2.945-23.644l-.115-1.633h50.625z" />
    <path data-bodypart="forearm" d="M142.802 139.083c1.867 4.647 4.017 13.253 5.534 19.987-1.36.968-2.927 1.646-4.522 2.169a24.909 24.909 0 01-5.716 1.177c-2.872-5.275-8.19-12.211-8.959-13.131-.393-.471-1.305-1.935-2.353-3.94 2.157.352 4.352.282 6.478-.177 3.696-.799 7.331-2.946 9.538-6.085zm-117.66-.688c.001.13.02.225.02.225 2.528 5.171 8.177 8.019 13.87 8.154-.624 1.092-1.132 1.871-1.399 2.191-.803.961-5.968 8.24-8.417 13.445a23.145 23.145 0 01-6.247-1.957c-1.174-.563-2.36-1.261-3.288-2.182 1.49-6.629 3.602-15.127 5.461-19.876z" />
    <path data-bodypart="buttocks" d="M54.704 159.571c3.69-.739 7.41-1.293 11.148-1.704 15.422-1.693 31.372-1.109 46.273 2.254l.26.006c.081-.031.17-.047.243-.093l.099-.075c1.014 7.015 1.374 14.392 1.33 21.593-2.882 3.278-6.169 6.3-10.297 7.997-4.716 1.939-9.867 1.436-14.323-.669 1.518-2.619 1.436-6.091-.206-8.626-1.347-2.08-3.723-3.467-6.218-3.492h-.098a7.434 7.434 0 00-4.889 1.927c-2.213 2.002-3.125 5.292-2.368 8.176.169.642.42 1.261.743 1.841-2.166.936-4.505 1.466-6.86 1.46-3.913-.01-7.647-1.459-10.874-3.546a33.468 33.468 0 01-5.141-4.109c-.155-6.565.41-14.989 1.178-22.94z" />
    <path data-bodypart="anus" d="M77.838 188.503c-1.115-1.744-1.42-4.009-.762-5.982.837-2.51 3.255-4.399 5.848-4.426l.161.001c2.697.064 5.062 2.074 5.829 4.619.582 1.934.215 4.063-.826 5.721-.195.015-.357.098-.452.279a.563.563 0 00-.046.424 6.026 6.026 0 01-2.314 1.772 5.423 5.423 0 01-1.341.378c-.103-4.313.033-6.446.033-6.446l-1.03-2.542-.948 2.762c.068 2.196.202 3.996.23 6.243a6.094 6.094 0 01-3.242-1.455 6.196 6.196 0 01-.952-1.064.524.524 0 00-.188-.284z" />
    <path data-bodypart="hand" d="M148.648 160.49c.941 4.213 1.577 7.449 1.661 8.071.256 1.902-2.67 15.014-2.69 15.038l-.127.344-.22 12.05s-2.56 1.2-2.88-6.08l-.061.008-2.659 5.432s-2.08-1.92-.64-5.12l.386-.39-2.306 1.67s-2.4-.96 1.6-4.96c1.506-4.479.218-5.069.262-6.083-2.581-4.216-7.475 5.496-10.84 1.415 2.997-1.916 4.174-3.653 4.705-4.831.575-1.277 3.875-7.614 5.129-9.451l-.036-.139c.073-.854-.389-2.191-1.167-3.759a25.944 25.944 0 006.937-1.737c1.016-.411 2.024-.893 2.946-1.478zm-129.296-.722c.949.79 2.06 1.428 3.191 1.959a24.595 24.595 0 006.124 1.931c-.508 1.242-.793 2.303-.731 3.03l.148-.045c1.255 1.837 4.555 8.174 5.13 9.451.53 1.178 1.707 2.915 4.705 4.831-3.366 4.081-9.826-6.585-10.298-2.271-.047 1.157-2.424 3.624-.281 6.939 4 4 1.6 4.96 1.6 4.96l-1.9-1.455-.02.175c1.44 3.2-.64 5.12-.64 5.12l-2.714-5.406-.006-.034c-.32 7.28-2.88 6.08-2.88 6.08l-.22-12.05-.056.04-.856-1.829c-.02-.024-2.161-11.691-1.905-13.593.082-.611.696-3.737 1.609-7.833z" />
    <path data-bodypart="thigh" d="M114.036 183.582c-.296 18.266-3.057 35.043-4.117 41.378l-.12.016c-.394 1.657-1.013 7.575-1.312 13.937-1.355.549-2.795.896-4.248 1.14-5.269.886-10.769.633-15.825-1.02-.104-.035-.141-.083-.365-.106a.646.646 0 00-.476.154c-.599-2.37-1.19-5.019-1.137-8.384.11-7.064-1.131-18.508-1.865-27.625-.342-4.24-.519-7.731-.6-10.479a7.79 7.79 0 004.683-2.607c4.134 2.003 8.913 2.758 13.311 1.578 3.766-1.011 7.009-3.163 9.811-5.712a34.075 34.075 0 002.26-2.27zm-60.444.784c3.203 2.92 6.985 5.384 11.258 6.508 4.142 1.089 8.498.654 12.302-1.041.832 1.052 1.915 1.888 3.152 2.377a6.795 6.795 0 001.929.451c-.011 2.995-.218 6.909-.922 13.286-1.315 11.923-1.837 17.549-1.837 17.549l-.021.091c-.012 6.364.474 10.4.146 14.856-2.269 1.136-4.845 1.499-7.391 1.662-4.091.262-8.252-.02-12.251-1.015.279-2.132.365-4.07.008-5.706-1.34-6.147-4.623-30.406-6.191-46.395a48.746 48.746 0 01-.182-2.623z" />
    <path data-bodypart="lower_leg" d="M103.541 296.101h-12.28c-.462-11.373-2.931-25.414-3.321-28.618l-.043-.118c-1.003-7.291 1.263-16.856.742-21.242l.067.379c.155-2.146-.298-4.11-.842-6.248 3.834 1.293 7.849 1.674 11.85 1.562 2.975-.084 5.982-.428 8.714-1.44-.23 5.857-.154 11.843.643 15.037l.042.044c.87 13.129-4.368 32.291-5.572 40.644zm-26.846 0h-12.21c-1.288-8.165-7.012-27.475-6.387-40.751l-.058.21c-.302-5.211 1.017-10.566 1.729-15.157 1.605.375 3.24.635 4.879.819 4.559.512 9.429.592 13.84-.884.32-.107.656-.219.97-.348a40.657 40.657 0 01-1.069 5.636c-.437 4.395 2.012 13.915 1.149 21.224l-.041.119c-.335 3.274-2.509 17.974-2.802 29.132z" />
    <path data-bodypart="foot" d="M103.367 297.435c-.082.801-.101 1.446-.046 1.912l-.013-.427c.539 7.134 3.317 7.262-.1 10.675l.633-.233c.049 1.6 3.71 2.661 1.753 4.962a57.58 57.58 0 01-3.824 4.066l.067-.092a2.73 2.73 0 00.827-1.143l-.827 1.143c-.853.711-2.362 1.222-4.942 1.201-5.034-.039-5.855-1.787-5.557-3.98l-.15.608c-.928-2.426-5.129-2.473-3.303-5.103 1.34-.881 2.679-3.195 2.679-3.195.686-2.563.869-6.256.746-10.394h12.057zm-37.006 20.683c-.258-.301-2.425-2.63-3.617-3.978-2.001-2.263 1.639-3.395 1.657-4.995l.638.221c-3.482-3.347-.707-3.528-.305-10.671l-.005.427c.042-.424.02-.993-.057-1.687h12.051l.22 6.307c.306 1.061-.146 1.721-.605 2.573 0 0 .498 3.024 4.048 4.186 1.83 2.53-2.277 3.041-3.298 5.331.02 1.818-1.123 3.196-5.548 3.315-2.409.065-5.106-1.095-5.179-1.029.032.037.035.043.004.013-.005-.006-.007-.011-.004-.013z" />
    <g>
        <path d="M62.229 33.368c-.992-2.777-1.646-5.81-1.646-8.702C60.583 11.04 70.698 0 83.127 0s22.544 11.04 22.544 24.666c0 3.028-.499 5.93-1.413 8.611.665-.014 1.325.268 1.81.87.379.471.654 1.153.703 2.067.065 1.237-.288 2.943-1.386 5.152-1.797 3.619-3.49 4.831-4.631 5.08a2.12 2.12 0 01-1.133-.04c-.299 2.354-1.142 4.862-3.858 7.483-.324 3.636-.572 7.571-.38 9.697.235 2.6.518 4.123 1.396 5.179.877 1.056 2.329 1.626 4.799 2.396l.177.043c9.791 2.341 15.138 4.981 18.476 8.295 3.348 3.324 4.689 7.337 6.41 12.475 2.37 7.074 7.225 23.872 11.051 34.706 1.614 4.568 3.025 8.066 3.995 9.264 1.007 1.244 2.229 4.529 3.428 8.581 2.745 9.285 5.463 22.633 5.643 23.969.233 1.732-1.481 11.469-1.844 13.417-.039.208-.064.333-.07.358a.516.516 0 01-.059.147l-.842 1.651-.218 11.936a.5.5 0 01-.289.444l-.029.012a1.638 1.638 0 01-1.106.026c-.371-.119-.813-.391-1.222-1.012-.435-.662-.854-1.783-1.084-3.666l-1.924 3.774a.502.502 0 01-.785.14s-1.773-1.601-1.201-4.347l-.72.539a.502.502 0 01-.486.065s-.868-.328-1.009-1.378c-.108-.798.242-2.171 2.35-4.308.531-1.859.659-3.591.622-5.17a.328.328 0 01-.027-.038c-.349-.551-.719-.859-1.131-.969-.414-.111-.854-.022-1.312.157-.725.283-1.483.795-2.253 1.313-.83.557-1.672 1.122-2.492 1.467-.832.35-1.648.477-2.421.231-.521-.167-1.029-.503-1.505-1.08a.502.502 0 01.116-.74c2.871-1.834 4.011-3.486 4.519-4.614.562-1.248 3.707-7.29 5.051-9.345a.561.561 0 010-.082c.034-.399-.075-.916-.276-1.522-.331-1.002-.919-2.219-1.65-3.533-2.89-5.199-8.002-11.864-8.752-12.761-1.093-1.307-6.137-10.166-7.164-17.069-2.02-7.081-7.742-20.915-10.004-29.309-1.324 6.709-3.093 29.231-2.775 31.458.349 2.435 2.513 15.099 3.377 19.261 5.54 26.657-.14 61.309-1.778 71.095l-.493-.082.486.115c-.778 3.272-2.569 23.317-.849 30.217l-.485.121.499-.033c.717 10.821-2.671 25.747-4.576 35.375-.799 4.038-1.345 7.123-1.176 8.532l-.496.06.498-.038c.266 3.518 1.084 5.202 1.411 6.429.156.582.208 1.078.1 1.59-.117.549-.428 1.128-1.066 1.869.049.257.237.498.453.75.327.385.739.771 1.088 1.18.505.59.871 1.231.853 1.938-.013.485-.199 1.013-.684 1.583-1.976 2.324-3.862 4.105-3.862 4.105a.504.504 0 01-.206.118c-.951.666-2.507 1.148-5.016 1.128-2.788-.021-4.359-.581-5.196-1.392-.589-.573-.852-1.279-.901-2.07a.507.507 0 01-.071-.127c-.199-.521-.583-.914-1.01-1.255-.488-.391-1.036-.714-1.499-1.044-.694-.495-1.193-1.034-1.272-1.71-.054-.459.075-1.003.532-1.662a.495.495 0 01.13-.128c1.541-1.048 2.058-1.805 2.216-2.123.37-1.028.627-2.312.792-3.783.005-.099.015-.201.032-.307.225-2.209.253-4.819.154-7.615-.405-11.489-2.997-26.076-3.397-29.354-1.006-7.32.614-17.77.738-21.323l.5.017-.499-.036c.17-2.359-.404-4.399-.998-6.715-.618-2.406-1.262-5.096-1.206-8.683.11-7.051-1.13-18.476-1.863-27.576-.92-11.414-.639-18.126-.595-19.01a12.134 12.134 0 01-.432-1.349c-.137.62-.325 1.233-.58 1.83.169 5.277.729 8.85-.658 21.418-1.267 11.481-1.797 17.12-1.834 17.518-.016 9.506 1.039 13.937-1.091 22.193-.165 1.731.122 4.254.467 7.118.532 4.429 1.206 9.653.685 14.074-.345 3.354-3.125 17.991-3.224 29.703.029 3.213.009 4.896.613 6.995.29 1.008.022 1.711-.385 2.47-.089.166-.185.336-.282.516a.507.507 0 01.04.109c.253 1.067.946 1.737 1.674 2.216.821.541 1.693.856 2.182 1.164a.522.522 0 01.139.13c.468.648.608 1.198.563 1.675-.065.695-.551 1.274-1.226 1.818-.458.37-1.002.734-1.486 1.158-.424.372-.805.79-.996 1.32a.507.507 0 01-.082.146c-.074.689-.328 1.31-.843 1.83-.821.828-2.381 1.417-5.168 1.492-2.508.068-4.073-.384-5.037-1.032a.497.497 0 01-.208-.114s-1.919-1.745-3.94-4.03c-.497-.562-.692-1.078-.713-1.547-.032-.692.326-1.312.827-1.881.341-.387.745-.753 1.065-1.122.234-.271.436-.529.439-.822a.665.665 0 01.011-.1c-.517-.6-.831-1.137-1.005-1.66-.25-.748-.223-1.476-.048-2.338.304-1.497 1.079-3.451 1.291-6.897a.508.508 0 01-.011-.166c.142-1.411-.471-4.357-1.358-8.202-2.115-9.176-5.831-23.341-5.328-34.173-.283-4.969.888-10.067 1.622-14.513.475-2.876.771-5.47.316-7.56-1.342-6.155-4.631-30.444-6.2-46.453-1.536-15.663 3.765-50.933 4.007-52.526-.085-1.208-1.537-22-2.296-30.225-2.441 8.395-7.867 21.131-9.807 27.931-1.026 6.901-6.072 15.761-7.164 17.069-.75.896-5.319 7.329-7.885 12.386-.944 1.86-1.631 3.516-1.7 4.612a.54.54 0 01.065.077c1.265 1.852 4.593 8.24 5.173 9.528.508 1.128 1.647 2.78 4.518 4.614a.501.501 0 01.116.74c-.992 1.203-2.208 1.339-3.506.949-1.14-.342-2.352-1.122-3.498-1.842-.744-.469-1.458-.91-2.102-1.156-.499-.191-.942-.281-1.299-.048-.335.217-.564.674-.737 1.417l-.004.017c-.006 1.465.143 3.056.627 4.752 2.109 2.137 2.459 3.51 2.351 4.308a1.732 1.732 0 01-1.01 1.378.502.502 0 01-.486-.065l-.719-.539c.571 2.746-1.202 4.347-1.202 4.347a.502.502 0 01-.784-.14l-1.925-3.774c-.23 1.883-.648 3.004-1.084 3.666-.408.621-.851.893-1.222 1.012a1.635 1.635 0 01-1.105-.026l-.03-.012a.502.502 0 01-.289-.444l-.218-11.936-.842-1.651a.516.516 0 01-.059-.147c-.006-.025-.031-.15-.07-.358-.363-1.948-2.076-11.685-1.843-13.417.179-1.336 2.897-14.684 5.643-23.969 1.198-4.052 2.421-7.337 3.428-8.581.969-1.198 2.381-4.696 3.994-9.264 3.826-10.834 8.681-27.632 11.051-34.706 1.719-5.13 3.188-9.331 6.391-12.747 3.203-3.416 8.143-6.06 16.849-8.021 2.202-.662 3.828-.878 5.016-1.209.685-.191 1.209-.412 1.591-.838.687-.766.917-2.112.976-4.742.047-2.103-.406-5.921-.916-9.471a.64.64 0 01-.049-.042c-2.891-2.765-3.835-5.403-4.217-7.869-.393.183-.909.233-1.55-.011-.981-.373-2.367-1.571-4.094-4.558-1.236-2.136-1.692-3.817-1.699-5.057-.006-.916.23-1.613.583-2.107.511-.716 1.272-1.033 2.031-.974zm8.919 13.73c.608 3.579 2.075 12.65 1.992 16.382-.067 3.001-.447 4.513-1.231 5.387-.501.558-1.169.882-2.068 1.133-1.185.331-2.811.545-5.013 1.209l-.034.009c-8.443 1.9-13.252 4.422-16.357 7.733-3.107 3.314-4.504 7.404-6.172 12.381-2.371 7.077-7.228 23.882-11.056 34.721-1.667 4.721-3.158 8.322-4.16 9.56-.965 1.192-2.098 4.353-3.246 8.235-2.729 9.228-5.433 22.492-5.611 23.819-.228 1.692 1.48 11.198 1.835 13.1l.05.26 3.841 7.53a.499.499 0 01.195.383l2.308 4.525c.438-.72.943-2.105.096-3.986a.5.5 0 01-.034-.108l-1.73-1.298a.502.502 0 01-.164-.214l-2.24-5.6a.493.493 0 01-.035-.212l.16-3.04a.501.501 0 01.999.053l-.155 2.93 2.147 5.368 3.438 2.578a.764.764 0 00.185-.373c.073-.37-.043-.895-.516-1.653-.344-.549-.866-1.197-1.632-1.963a.494.494 0 01-.126-.212c-.983-3.34-.729-6.291-.455-8.722.172-1.533.36-2.847.2-3.905-.104-.688-.25-1.48-.562-2.154-.272-.586-.673-1.085-1.327-1.281a.501.501 0 01.287-.958c.945.283 1.554.972 1.947 1.819.352.76.526 1.648.644 2.425.17 1.128-.011 2.531-.196 4.166-.045.399-.089.812-.128 1.24.065-.048.131-.09.198-.127.361-.198.766-.26 1.209-.208.552.066 1.176.323 1.838.684 1.232.673 2.622 1.721 3.955 2.294.955.41 1.88.573 2.654-.007-2.738-1.861-3.846-3.545-4.367-4.702-.546-1.213-3.572-7.032-4.92-9.121a.499.499 0 01-.4-.448c-.101-1.183.639-3.219 1.802-5.51 2.606-5.136 7.249-11.665 8.009-12.576 1.063-1.271 5.962-9.902 6.948-16.607l.013-.064c2.16-7.589 8.709-22.644 10.539-30.715a.501.501 0 01.985.167l-.019.166c.623 4.949 2.57 32.905 2.57 32.905a.504.504 0 01-.004.11s-5.573 36.383-4.009 52.334c1.565 15.969 4.843 40.198 6.182 46.337.478 2.194.192 4.918-.306 7.936-.725 4.387-1.893 9.416-1.609 14.318l-.499.029.499.024c-.506 10.75 3.202 24.816 5.303 33.927.889 3.859 1.484 6.851 1.391 8.372a.489.489 0 01.01.133c-.203 3.607-1.004 5.636-1.318 7.184-.137.672-.178 1.239.016 1.822.203.606.65 1.22 1.443 1.982.031.03.058.064.081.101l.001.002a.493.493 0 01.053.12c.441 1.494.424 2.069.424 2.069a.5.5 0 11-1-.011s-.003-.355-.238-1.253a1.913 1.913 0 01-.052.084c-.248.387-.627.765-1.007 1.151-.284.289-.568.583-.766.899-.153.244-.255.5-.219.786.034.265.181.544.457.857a55.138 55.138 0 001.91 2.048 4.922 4.922 0 01.394-1.974c.072-.159.141-.246.159-.264a.472.472 0 01.32-.155.482.482 0 01.353.104.471.471 0 01.192.401.499.499 0 01-.091.282c-.023.05-.093.209-.149.384-.184.576-.388 1.609.187 2.478.619.937 2.077 1.617 5.134 1.535 2.405-.065 3.777-.483 4.485-1.197.771-.777.653-1.878.361-3.058-.342-1.38-.958-2.865-1.17-4.186-.323-2.026.182-3.176.684-4.109.398-.741.841-1.298.576-2.218-.627-2.181-.621-3.927-.652-7.266v-.011.001c.099-11.756 2.886-26.451 3.23-29.805l.497.051-.497-.059c.514-4.348-.161-9.485-.684-13.841-.358-2.972-.643-5.589-.466-7.373l.014-.076c2.121-8.194 1.052-12.576 1.069-22.006l.5.001-.498-.046s.522-5.629 1.838-17.557c1.231-11.156.917-15.178.716-19.647a8.44 8.44 0 01-.302.395c-1.876 2.309-5.348 4.117-11.768 4.497-3.826.227-9.527-2.513-9.527-2.513a.5.5 0 01.436-.9s5.401 2.63 9.032 2.415c6.012-.356 9.294-1.968 11.051-4.129 1.736-2.137 1.957-4.783 1.929-7.144-.017-1.441-.12-2.786-.08-3.882-.048-2.087-.138-4.474-.586-6.659-.339-1.65-.88-3.183-1.783-4.362a.5.5 0 01.794-.608c1.025 1.338 1.632 3.097 1.998 4.982.301-3.125.901-4.472 1.21-5.229a.5.5 0 01.926.378c-.43 1.053-1.42 3.292-1.308 10.142a.526.526 0 01.015.06c.176.914-.026 2.628-.021 4.649.006 2.852.445 6.365 3.274 8.959 2.046 1.876 5.321 3.26 10.514 3.62 3.834.267 9.117-2.464 9.117-2.464a.5.5 0 11.457.889s-5.592 2.855-9.643 2.573c-5.501-.382-8.954-1.894-11.12-3.881a10.177 10.177 0 01-1.725-2.054c-.05 2.813-.028 8.649.649 17.052.736 9.132 1.978 20.597 1.867 27.673-.055 3.478.576 6.086 1.174 8.419.622 2.422 1.204 4.559 1.028 7.026-.125 3.535-1.744 13.892-.746 21.146h-.495v.069l.496-.061c.4 3.279 2.998 17.917 3.405 29.444.093 2.655.069 5.147-.123 7.304a.5.5 0 01.006.277c-.247.925.206 1.474.618 2.207.52.923 1.047 2.063.762 4.094-.185 1.326-.773 2.822-1.088 4.208-.27 1.186-.367 2.289.419 3.051.721.701 2.101 1.092 4.507 1.11 3.058.024 4.502-.684 5.103-1.632.558-.88.335-1.909.14-2.481-.059-.175-.133-.332-.156-.382a.495.495 0 01-.097-.28.47.47 0 01.184-.404.485.485 0 01.352-.111.468.468 0 01.323.149c.017.018.088.103.163.261a4.92 4.92 0 01.432 1.966 55.122 55.122 0 001.87-2.085c.271-.318.412-.607.441-.882.032-.306-.078-.585-.242-.851-.205-.334-.496-.646-.788-.952-.384-.402-.768-.794-1.022-1.188l-.012-.019c-.254 1.011-.25 1.404-.25 1.404a.499.499 0 11-.999.031s-.028-.575.384-2.078a.51.51 0 01.051-.121l.001-.001a.503.503 0 01.079-.103c.924-.923 1.371-1.527 1.496-2.119.123-.58-.071-1.126-.329-1.912-.397-1.212-.979-2.908-1.199-5.815-.171-1.467.364-4.661 1.189-8.833 1.889-9.546 5.262-24.335 4.562-35.073-1.726-7.039.062-27.255.853-30.626 1.633-9.755 7.291-44.206 1.783-70.712-.867-4.175-3.038-16.88-3.388-19.323-.351-2.456 1.802-29.275 3.154-33.296l.199-.424a.501.501 0 01.939.106c1.83 8.071 8.287 23.491 10.447 31.08l.014.064c.985 6.705 5.885 15.336 6.947 16.607.76.909 5.933 7.655 8.859 12.917 1.281 2.303 2.111 4.347 2.054 5.544a.5.5 0 01-.055.46c-1.244 1.822-4.516 8.108-5.086 9.374-.522 1.158-1.633 2.846-4.38 4.709.208.173.422.292.642.362.553.177 1.134.051 1.729-.2.766-.322 1.548-.855 2.322-1.375.835-.561 1.661-1.107 2.447-1.414.674-.264 1.325-.355 1.934-.192.277.074.549.2.811.391-.042-.504-.094-.99-.147-1.455-.184-1.635-.366-3.038-.195-4.166.117-.777.291-1.665.644-2.425.392-.847 1.001-1.536 1.946-1.819a.5.5 0 11.288.958c-.655.196-1.055.695-1.327 1.281-.313.674-.458 1.466-.562 2.154-.16 1.058.027 2.372.2 3.905.274 2.431.527 5.382-.455 8.722a.504.504 0 01-.126.212c-1.133 1.132-1.73 2-2 2.669-.199.495-.204.846-.107 1.092.038.095.09.171.143.228l3.438-2.578 2.147-5.368-.154-2.93a.5.5 0 11.998-.053l.16 3.04a.493.493 0 01-.035.212l-2.24 5.6a.494.494 0 01-.164.214l-1.729 1.298a.566.566 0 01-.035.108c-.847 1.881-.341 3.266.096 3.986l2.308-4.525a.5.5 0 01.196-.383l3.84-7.53.05-.26c.355-1.902 2.063-11.408 1.836-13.1-.179-1.327-2.883-14.591-5.611-23.819-1.148-3.882-2.282-7.043-3.246-8.235-1.002-1.238-2.493-4.839-4.16-9.56-3.829-10.839-8.686-27.644-11.057-34.721-1.665-4.969-2.928-8.868-6.167-12.083-3.249-3.226-8.473-5.753-18.004-8.032l-.227-.056c-2.738-.854-4.314-1.548-5.286-2.717-.974-1.172-1.362-2.842-1.622-5.729-.334-3.702.644-12.833 1.068-16.496-3.124 3.773-6.049 6.966-6.049 6.966a.496.496 0 01-.331.161s-1.914.142-3.472.737c-.482.184-.93.409-1.261.697-.263.228-.449.494-.468.822a.501.501 0 01-.997.017c-.031-.338-.229-.618-.504-.863-.339-.302-.791-.548-1.275-.751-1.554-.654-3.442-.871-3.442-.871a.493.493 0 01-.305-.152s-3.037-3.195-6.203-6.844zm20.106 259.704a14.698 14.698 0 01-.443 1.741.185.185 0 01-.004.023s-.016.105-.106.297l-.01.026a.51.51 0 01-.068.126c-.265.481-.904 1.321-2.424 2.368-.238.358-.341.646-.311.902.049.421.428.704.86 1.012.477.34 1.039.674 1.543 1.077.211.169.413.35.595.547.293-1.445.942-3.032 1.138-4.429.263-1.879-.294-2.865-.77-3.69zm11.316 7.852a.505.505 0 01-.313.048.448.448 0 00.313-.048zm-26.401-6.685c-.124.556-.161 1.227-.025 2.08.231 1.45.959 3.096 1.26 4.583.165-.185.344-.359.533-.525.494-.433 1.049-.806 1.518-1.184.437-.353.815-.684.858-1.134.025-.267-.08-.561-.322-.915-.504-.295-1.333-.609-2.117-1.124-.659-.434-1.285-1-1.705-1.781zm26.673 6.228a.5.5 0 01-.166.384.472.472 0 00.115-.142.497.497 0 00.051-.242v-.003.003zm-37.189.201a.494.494 0 01-.254-.441.453.453 0 00.254.441zm33.913-22.361c-.725 7.993.168 12.49.801 15.594a.5.5 0 00.98-.2c-.622-3.046-1.496-7.46-.785-15.304a.5.5 0 00-.996-.09zm-32.31-.186c.861 7.83.071 12.259-.492 15.317a.5.5 0 00.984.181c.574-3.116 1.379-7.629.502-15.607a.5.5 0 00-.994.109zm27.398-.05c.736 3.536.464 11.501-1.098 15.212a.5.5 0 00.922.388c1.622-3.856 1.92-12.13 1.155-15.804a.5.5 0 10-.979.204zm-22.48-.574c-.695 3.688-.239 11.954 1.457 15.779a.5.5 0 00.914-.406c-1.632-3.681-2.057-11.638-1.389-15.188a.5.5 0 10-.982-.185zm30.786 8.158h.315v-.038l-.315.038zm5.931-43.939h.133v-.033l-.133.033zm38.015-69.345l-2.05 4.019c.135 2.624.562 4.048 1.059 4.804.298.453.605.592.818.627l.173-9.45zm-125.853-.96l.172 9.456c.371-.059 1.029-.449 1.48-2.332.188-.786.33-1.8.398-3.105l-2.05-4.019zm61.713-69.814v26.454a.5.5 0 001 0v-26.454a.5.5 0 00-1 0zm3.468-18.74c.331 4.972 4.812 10.603 7.795 12.094a.5.5 0 10.447-.894c-2.777-1.389-6.936-6.638-7.244-11.266a.5.5 0 00-.998.066zm-8-.866c-.309 4.628-4.468 9.877-7.245 11.266a.5.5 0 10.448.894c2.983-1.491 7.463-7.122 7.795-12.093a.5.5 0 00-.998-.067zm10.564-42.393c1.201-1.317 10.428-11.514 12.665-16.236l.452.214-.436-.245c2.025-3.607 3.192-7.853 3.192-12.395C104.671 11.616 95.031 1 83.127 1S61.583 11.616 61.583 24.666c0 4.545 1.686 9.445 3.711 13.055l.084.137c1.989 4.032 11.4 14.026 12.576 15.268.65.093 2.876.461 4.357 1.324.424.247.786.536 1.056.865.265-.32.625-.596 1.049-.828 1.469-.804 3.704-1.089 4.382-1.159zM67.659 42.914v.004l.166 2.12a.458.458 0 01.001.064c.251 2.255.888 4.672 3.149 7.2-.542-3.58-1.069-6.515-1.069-6.515a.492.492 0 01-.005-.143 106.864 106.864 0 01-2.242-2.73zm31.182.005c-.702.929-1.45 1.881-2.207 2.818l-.001.009s-.372 2.946-.72 6.542c2.059-2.342 2.626-4.589 2.811-6.7-.004-.03-.005-.06-.004-.09l.102-1.924.019-.655zm1.096-1.491l-.207 3.924c.162.134.449.196.811.117 1-.218 2.374-1.377 3.949-4.547 1.356-2.731 1.517-4.58 1.074-5.67-.336-.828-1.059-1.12-1.7-.899a25.486 25.486 0 01-1.505 3.183c-.511 1.074-1.375 2.426-2.422 3.892zm-37.295-6.964a.494.494 0 01-.149-.027 1.274 1.274 0 00-1.481.486c-.324.453-.475 1.148-.359 2.087.129 1.05.59 2.376 1.527 3.996 1.54 2.663 2.709 3.791 3.583 4.123.513.195.866.031 1.051-.188l-.007-.093a44.542 44.542 0 01-.103-1.315l-.162-2.07c-.903-1.212-1.631-2.3-2.048-3.137l-.068-.108a31.652 31.652 0 01-1.784-3.754z" />
    </g>
</svg>