<svg viewBox="0 0 168 320" width="168" height="320" fill-rule="evenodd" clip-rule="evenodd" stroke-linecap="round" stroke-linejoin="round" stroke-miterlimit="1.5">
    <g>
        <path data-bodypart="head" d="M60.53 22.087s23.452 7.463 46.979.979C104.276 4.623 86.551 1.73 83.293 1.446c-3.258-.284-19.462 4.499-22.763 20.641z"/>
        <path data-bodypart="eyes" d="M93.068 30.716c3.704 0 6.711 2.125 6.711 4.741 0 2.616-3.007 4.741-6.711 4.741s-6.712-2.125-6.712-4.741c0-2.616 3.008-4.741 6.712-4.741zm-17.568 0c3.704 0 6.711 2.125 6.711 4.741 0 2.616-3.007 4.741-6.711 4.741s-6.712-2.125-6.712-4.741c0-2.616 3.008-4.741 6.712-4.741z" />
        <path data-bodypart="ears" d="M64.551 51.736c2.939-2.774 4.9-4.316 3.039-10.761-1.03-12.13-7.965-14.592-8.246-12.431-1.156 8.894 2.649 18.006 5.207 23.192zm38.689 0c-2.939-2.774-4.9-4.316-3.039-10.761 1.03-12.13 5.254-14.88 8.246-12.431 1.156 8.894-2.649 18.006-5.207 23.192z" />
        <path data-bodypart="nose" d="M84.071 37.142c-1.867 0-6.808 8.806.087 8.736 6.895-.069 1.652-8.736-.087-8.736z"/>
        <path data-bodypart="oral_cavity" d="M97.856 48.62s-12.399-4.665-27.16.645c1.788 2.933 4.084 9.304 13.493 9.954 9.408.65 12.904-9.603 13.667-10.599z"/>
    </g>
    <path data-bodypart="neck_or_throat" d="M94.698 55.907c-.04 1.161-.069 2.994-.047 5.802.029 3.749 1.499 5.321 3.205 6.184-1.873.976-3.887 1.58-5.948 1.976-5.696 1.094-11.762.765-17.567-.39-1.56-.31-3.092-.546-4.404-1.16 2.285-.725 4.655-2.08 4.756-6.304.054-2.252-.025-3.898-.151-5.077 3.65 3.582 9.302 4.917 14.146 3.428 2.462-.756 4.682-2.325 6.01-4.459z" />
    <path data-bodypart="chest" d="M99.224 68.46c.665.232 1.323.415 1.901.635l.107.042c6.988 1.682 11.389 3.781 14.373 6.392l-.009.056c-.077 1.962-.653 3.879-1.203 5.781-1.653 5.71-3.817 11.283-6.092 16.804-.1.289-.002.624.248.783.194.123.508.322.804-.078-.176 1.203-.33 3.981-.441 7.397l-.075-.015H58.063l-.004-.096-.1-1.541-.263-4.639c.012-.121 1.028-1.225.986-1.317l-.001-.012a169.467 169.467 0 01-3.77-10.036c-1.227-3.604-2.468-7.216-2.984-10.927-.06-.429-.063-.914-.178-1.274 2.986-3.026 7.556-5.409 15.32-7.278a14.81 14.81 0 011.237-.365.87.87 0 00.122.169c.601.438 1.388.683 2.14.919 3.744 1.171 7.711 1.67 11.649 1.857 5.657.27 11.507-.176 16.37-2.758.103-.054.204-.109.305-.166a.78.78 0 00.332-.333z" />
    <path data-bodypart="upper_arm" d="M116.786 76.661c3.155 3.315 4.499 7.393 6.092 12.393 2.48 7.787 7.89 27.793 11.542 37.497-.261.36-.633.626-1.003.879-1.657 1.133-3.617 1.891-5.597 2.442-2.507.697-5.225 1.119-7.639.306a.921.921 0 00-.306-.053 26.787 26.787 0 01-.316-1.883c-1.895-7.056-8.219-21.527-10.122-29.507l.045-.078.07-.168c2.421-5.893 4.737-11.801 6.391-17.919.349-1.293.688-2.593.843-3.909zm-66.158 1.006c.142 1.196.426 2.39.719 3.566 1.5 6.016 3.683 11.913 6.087 17.746l-.613 4.518c-2.374 8.017-6.488 18.819-8.08 24.745-.085.647-.192 1.29-.325 1.929-.397.144-.81.24-1.228.304-3.534.547-7.59-.546-11.018-2.311-.854-.44-1.733-.887-2.291-1.608 3.653-9.709 9.063-29.715 11.544-37.502 1.435-4.506 2.668-8.263 5.205-11.387z" />
    <path data-bodypart="upper_abdomen" d="M108.869 107.529a445.057 445.057 0 00-.21 15.319H58.303c.174-4.786.048-10.673-.181-15.313h50.715l.032-.006z"/>
    <path data-bodypart="forearm" d="M33.368 127.86c.136.125.284.243.435.355 1.768 1.321 3.953 2.156 6.132 2.783 2.683.771 5.554 1.258 8.167.602-1.281 5.251-3.761 9.986-5.884 12.895-2.386 3.268-7.267 8.268-9.239 13.875l-.077-.043a37.11 37.11 0 00-2.705-1.142c-1.749-.653-3.555-1.224-5.383-1.246l-.13.001c1.675-8.311 4.699-21.621 6.869-24.386.501-.639 1.123-1.933 1.815-3.694zm101.568.011c.693 1.76 1.312 3.046 1.811 3.683 2.171 2.765 5.194 16.075 6.87 24.388-2.868.048-5.707 1.032-8.361 2.242-2.015-5.533-6.814-10.457-9.174-13.689-2.136-2.927-4.633-7.703-5.905-12.985.424.122.854.207 1.288.264 3.267.429 6.771-.441 9.923-1.812 1.288-.56 2.574-1.166 3.548-2.091z" />
    <path data-bodypart="mid_abdomen" d="M58.251 124.118l.03.008h50.392c.011 1.857.053 3.37.119 4.316.164 2.355 2.329 13.342 3.219 17.324l.067.282c-11.932 3.532-24.234 4.197-36.48 3.491-7.012-.405-14.031-1.195-20.707-3.243 1.226-7.755 2.604-15.374 2.96-17.714.186-1.22.316-2.748.4-4.464z" />
    <path data-bodypart="lower_abdomen" d="M112.375 147.295c.614 2.547 1.552 6.212 1.84 8.201a73.87 73.87 0 01.376 3.02c-2.87 1.061-5.656 2.372-8.343 3.849a80.886 80.886 0 00-13.325 9.161c-.545-2.623-1.877-5.016-3.938-6.577-1.299-.984-2.881-1.566-4.505-1.588h-.114c-1.877.026-3.687.809-5.08 2.063-1.825 1.643-2.95 3.932-3.397 6.38-6.658-5.73-14.302-10.569-22.684-13.534.351-3.126.892-6.897 1.489-10.698 1.043.313 2.094.588 3.151.837 7.346 1.734 14.923 2.433 22.474 2.596 10.676.229 21.68-.66 32.056-3.71z" />
    <path data-bodypart="hand" d="M24.421 157.223l.109.003c.02-.003.243-.011.399-.006 2.646.089 5.178 1.202 7.564 2.327l.11.032c-.361 1.325-.538 2.679-.468 4.046l-.169-.278c-.797-1.391-1.502-2.563-1.887-3.108l1.887 3.108c1.778 3.056 4.031 7.168 4.423 8.004.525 1.121 1.678 2.769 4.577 4.562-3.167 3.959-6.651-1.854-9.096-2.656l-.058-.015.086 4.014s-.232 6.696-2.694 6.626l-.312-1.481s-.608 5.211-3.146 4.563l-.463-.076c-.029-.034-.452 4.129-1.971 3.503-1.601-.661-.892-12.55-.903-12.563-.02-.023.797-13.365 1.015-15.191.057-.476.426-2.544.997-5.414zm119.458-.002c.571 2.869.94 4.94.997 5.416.218 1.826 1.035 15.168 1.015 15.191-.011.013.585 13.45-.902 12.563-1.128-.674-1.854-3.77-1.883-3.736l-.551.309c-2.538.648-3.147-4.563-3.147-4.563l-.311 1.481c-2.463.07-2.695-6.626-2.695-6.626l.086-4.014 1.278-.79c-4.352 1.9-7.265 7.42-10.432 3.461 2.9-1.793 4.053-3.441 4.578-4.562.569-1.216 3.41-6.391 4.639-8.133l-.385.407c.073-1.425-.123-2.835-.511-4.213a27.945 27.945 0 012.873-1.159c1.742-.589 3.536-1.091 5.351-1.032z" />
    <path data-bodypart="sexual_organs" d="M77.006 172.779a11.232 11.232 0 011.419-4.273c1.272-2.177 3.512-3.838 5.95-3.868.22 0 .44.009.659.032 3.942.414 6.215 4.086 6.754 7.832l.131 1.597c.046 3.264-1.208 6.699-3.823 8.6a6.24 6.24 0 01-2.717 1.135c-.003-3.866.242-6.55.242-6.55l-3.1-.191c.428 1.826.743 3.92.872 6.731a6.085 6.085 0 01-2.205-.83c-2.86-1.773-4.306-5.192-4.292-8.661.098.06.11-1.554.11-1.554z" />
    <path data-bodypart="thigh" d="M53.074 159.587c2.504.896 4.934 1.993 7.291 3.227A77.567 77.567 0 0175.7 173.34c-.287 4.178 1.325 8.514 4.72 10.68a7.064 7.064 0 003.017 1.084c.085 3.385-.074 7.746-.574 13.713-.959 11.456-1.004 16.529-1.004 16.529-.002.599-.024 2.185-.072 4.26-3.374-.75-6.774-1.233-10.208-1.244h-.257c-3.623.024-7.213.629-10.74 1.588-1.73-9.367-4.829-27.702-6.528-39.85-.561-6.259-1.59-13.49-.98-20.513zm61.655.24c2.183 22.928-3.78 48.149-5.046 56.32-.127.89-.228 2.078-.296 3.479-3.346-.748-6.759-1.252-10.176-1.264-3.531-.005-7.102.595-10.556 1.518-.223-6.79-1.155-16.458-2.428-24.23-.601-3.672-.811-7.424-.841-10.572 1.974-.285 3.817-1.354 5.104-2.888 2.112-2.516 2.966-5.931 2.658-9.178l.077-.068c6.422-5.495 13.55-10.141 21.504-13.117z" />
    <path data-bodypart="knee" d="M88.688 221.192c2.865-.785 5.749-1.358 8.686-1.508 3.907-.199 7.831.322 11.671 1.173.107.024.182.059.289.082-.189 5.647.082 13.931 1.151 20.772-2.681.751-5.424 1.287-8.2 1.419-3.821.181-7.564-.54-11.245-1.425l.245-4.551c.21-4.636-2.502-8.314-2.575-15.085l-.022-.877zm-27.873.016a48.182 48.182 0 014.206-.978c5.529-1.007 11.173-.561 16.621.651l.112.033c-.14 5.508-.446 13.328-1.008 16.016-.12 1.248.003 2.927.223 4.852-1.438.349-2.878.674-4.333.919-4.808.809-9.57.406-14.166-.817l-1.161-.324c.205-6.337 1.133-12.478.243-16.584-.176-.809-.429-2.102-.737-3.768z" />
    <path data-bodypart="lower_leg" d="M61.285 242.548c3.064.879 6.204 1.483 9.375 1.563 3.497.089 6.981-.557 10.417-1.369.521 4.431 1.36 9.931.831 14.524-.18 1.57-1.563 14.699-2.466 24.592-.277.321-.74.51-1.174.672-2.567.954-5.601 1-8.48.772-1.097-.087-2.205-.175-3.162-.638a.658.658 0 00-.348-.07c-.758-12.231-4.62-29.602-4.95-36.287a52.334 52.334 0 01-.043-3.759zm49.348.109l.326 1.764c1.466 7.268-2.418 25.846-3.348 37.793-.177-.038-.357.01-.357.01-.623.342-1.354.464-2.07.566-2.703.388-5.652.34-8.336-.447-.609-.179-1.238-.378-1.658-.774-.092-4.774-.733-10.582-2.658-17.433-1.891-6.729-1.81-15.412-1.535-21.455 1.992.481 3.993.926 6.025 1.185 4.577.584 9.184.014 13.611-1.209z" />
    <path data-bodypart="foot" d="M79.328 283.147c-.446 4.903-.742 8.787-.668 9.663.225 2.662 5.338 13.985-2.426 15.197l-.085.02s-3.199-.106-6.501 2.696c-1.146.973-2.293 3.772-3.798 4.186-3.108.856-6.604 3.314-7.619 3.48l.023.017c-4.44.309-4-2.499-3.634-3.644l.169-.475s-.085.184-.169.475l-.116.323c-2.387 1.526-2.522-1.054-2.522-1.054l-.04.184c-1.386.694-1.882-1.201-1.882-1.201l.489-.619c-.795.679-1.841-.67-1.841-.67l-.284-1.831.066.107c1.052-2.426 5.607-4.946 6.854-5.499l.131-.052c1.591-1.025 2.62-1.402 3.707-2.658 1.388-1.09 3.218-2.825 5.473-7.063 1.555-1.748 1.933-5.874 1.68-11.064.361.159.843.213 1.223.295 2.719.586 5.619.516 8.412.096 1.185-.178 2.421-.372 3.358-.909zm15.866-.432l.012.007c1.55.834 3.347 1.024 5.099 1.15 2.208.158 4.446.17 6.519-.448.253-.076.517-.183.722-.315-.234 3.461-.184 6.294.367 8.019 2.446 7.656 3.581 6.329 8.829 11.077l-.111-.082c1.3 1.195 6.068 3.467 7.081 5.909l.067-.12-.313 1.841s-1.067 1.332-1.851.64l.479.627s-.526 1.886-1.902 1.17l-.037-.184s-.316 1.633-1.671 1.339c-.432-.093-2.457-.384-1.287.936.107.121.084.328.005.551a2.122 2.122 0 01-1.368 1.316c-2.903.931-5.194-1.704-6.188-2.384-1.317-.901-2.881-.554-3.76-1.835-1.021-1.487-5.474-7.157-10.07-7.984-1.892-.34-3.132-2.162-3.205-4.352-.135-4.018 2.327-9.761 2.505-13.301a58.79 58.79 0 00.078-3.577z" />
    <g>
        <path d="M81.807 177.286a9 9 0 01-1.471-.477c-1.933-.834-5.891-5.017-5.891-5.017a.479.479 0 01.697-.655s3.737 4.001 5.574 4.793c1.684.728 4.335 1.004 6.05.35 2.086-.796 6.202-4.772 6.202-4.772a.48.48 0 01.662.691s-4.336 4.14-6.523 4.975c-.39.148-.824.255-1.283.324-.1 1.208-.737 9.827.613 18.045 1.421 8.646 2.418 19.64 2.49 26.408.036 3.325.724 5.889 1.375 8.192.676 2.39 1.306 4.51 1.199 6.872-.21 4.595-1.371 17.524 1.229 26.747 2.634 9.34 2.88 16.749 2.602 22.241-.09 1.79-.755 4.139-1.385 6.548-.608 2.325-1.186 4.708-1.12 6.671.066 1.941 1.13 3.582 2.811 3.883 1.914.344 3.809 1.48 5.456 2.832 2.418 1.985 4.3 4.421 4.924 5.327.369.535.892.712 1.45.867.713.199 1.481.357 2.186.838.534.365 1.447 1.307 2.635 1.932 1.035.545 2.296.838 3.696.154a.466.466 0 01.105-.079c.752-.419.886-1.133.848-1.735a3.94 3.94 0 00-.242-1.099l-3.915-2.538a.478.478 0 11.521-.803l4.041 2.62c.077.05.138.12.176.204 0 0 .124.272.231.682.475.294.816.388 1.077.321.201-.051.317-.212.399-.371.095-.184.147-.379.175-.527l-1.334-2.063c-.396-.231-1.862-1.101-2.9-1.898a.479.479 0 01.583-.759c1.167.896 2.895 1.886 2.895 1.886a.48.48 0 01.164.156l1.486 2.3a.435.435 0 01.049.099.599.599 0 00.247.024c.187-.026.324-.157.432-.293.123-.154.212-.325.274-.467l-.286-.377a.478.478 0 01-.071-.093l-1.203-1.584-2.559-1.736a.478.478 0 11.537-.792l2.624 1.781a.495.495 0 01.113.106l1.257 1.655c.136.089.289.039.424-.027.179-.088.342-.219.465-.335l-1.152-1.763-2.763-1.99a.479.479 0 11.559-.777l2.835 2.042a.487.487 0 01.121.127l1.407 2.152a.48.48 0 01-.028.562s-.458.564-1.023.841c-.08.039-.161.073-.244.1a.467.467 0 01-.019.157l-.005.017a3.226 3.226 0 01-.515.997c-.255.321-.607.583-1.049.645a1.487 1.487 0 01-.519-.021 2.36 2.36 0 01-.126.292c-.199.388-.524.736-1.013.861-.301.077-.685.071-1.163-.109-.004.791-.262 1.648-1.126 2.231a.465.465 0 01-.143.12c-1.819.995-3.456.653-4.789-.049-1.227-.646-2.176-1.611-2.729-1.988-.611-.417-1.284-.535-1.902-.707-.773-.216-1.471-.505-1.982-1.246-.601-.873-2.415-3.219-4.743-5.13-1.518-1.246-3.254-2.314-5.018-2.63-2.101-.377-3.516-2.367-3.598-4.793-.069-2.043.517-4.525 1.151-6.945.611-2.338 1.267-4.616 1.355-6.355.273-5.415.029-12.721-2.568-21.932-2.63-9.328-1.476-22.403-1.264-27.05.103-2.259-.517-4.283-1.164-6.569-.67-2.373-1.374-5.016-1.411-8.441-.072-6.731-1.064-17.665-2.477-26.264-1.315-8.006-.77-16.387-.636-18.11a11.394 11.394 0 01-2.026-.109c.896 4.095 1.23 9.643.247 21.338-.957 11.395-1.002 16.441-1.002 16.439-.008 2.186-.281 17.532-1.118 21.584-.155 1.654.128 4.069.467 6.81.523 4.231 1.185 9.222.697 13.448-.281 2.43-3.472 32.691-3.247 35.337.136 1.603 2.001 6.343 1.793 10.139-.09 1.638-.559 3.106-1.633 4.138-.721.692-1.717 1.195-3.075 1.406h-.073v-.473l-.016.479s-3.035-.083-6.176 2.575c-.668.565-1.328 1.775-2.072 2.733-.582.749-1.222 1.347-1.908 1.536-2.142.587-4.469 1.951-6.016 2.769-.737.389-1.319.656-1.652.71h-.045l.001.006c-2.531.175-3.63-.626-4.078-1.54-.219-.446-.286-.939-.27-1.406-.468.162-.842.16-1.136.08-.487-.133-.806-.486-.999-.877a2.509 2.509 0 01-.122-.294c-.187.036-.36.037-.519.012-.441-.068-.788-.336-1.039-.661a3.276 3.276 0 01-.498-1.005l-.005-.017a.495.495 0 01-.017-.157 2.124 2.124 0 01-.242-.104c-.561-.286-1.009-.858-1.009-.858a.48.48 0 01-.019-.562l1.441-2.129a.487.487 0 01.123-.125l2.868-1.996a.478.478 0 11.546.785l-2.794 1.946-1.181 1.744c.121.118.282.251.46.342.134.069.286.121.424.034l1.283-1.634a.495.495 0 01.114-.105l2.653-1.739a.478.478 0 11.524.8l-2.587 1.696-1.227 1.564a.454.454 0 01-.073.092l-.292.373c.059.143.146.315.266.471.106.138.241.271.427.3a.599.599 0 00.248-.02.419.419 0 01.05-.099l1.524-2.276a.478.478 0 01.166-.153s1.744-.962 2.924-1.839a.479.479 0 11.571.768c-1.051.78-2.531 1.627-2.93 1.851l-1.366 2.042c.025.148.074.344.166.529.079.161.193.323.393.378.258.071.599-.017 1.076-.3.119-.411.248-.683.248-.683a.474.474 0 01.179-.2l4.083-2.555a.479.479 0 01.507.811l-3.956 2.475c-.076.19-.215.582-.273 1.039-.05.396-.044.846.149 1.241.339.691 1.223 1.135 3.127 1.008.385-.072 1.12-.487 2.056-.993 1.553-.838 3.595-1.941 5.494-2.462.666-.183 1.224-.923 1.771-1.693.643-.907 1.248-1.879 1.845-2.384 3.213-2.718 6.339-2.803 6.774-2.801 1.108-.179 1.93-.577 2.521-1.145.905-.87 1.264-2.12 1.34-3.5.206-3.748-1.656-8.424-1.791-10.006-.225-2.66 2.968-33.085 3.25-35.527.48-4.156-.181-9.062-.696-13.221-.351-2.839-.632-5.338-.467-7.044l.008-.052c.834-3.973 1.095-19.248 1.103-21.42v-.002s.044-5.068 1.006-16.513c1.002-11.925.633-17.37-.318-21.451zm-24.96-76.31l.574-2.384c-.534-1.044-1.11-2.023-1.523-2.427a.478.478 0 11.668-.683c.988.966 2.864 4.971 3.172 6.021a.478.478 0 01-.917.27c-.1-.342-.377-1.023-.733-1.802l-.287 1.14c.551 4.705 1.293 20.967.262 27.722-.556 3.64-3.601 20.095-4.679 29.869-.803 7.282.298 14.85.883 21.361 2.11 15.036 6.379 39.58 7.49 44.689 1.117 5.134-.605 13.445-.213 21.343.339 6.837 4.395 24.885 5.005 37.108.159 3.189.083 5.988-.344 8.101-.294 1.46-.764 2.604-1.416 3.358-2.273 4.248-4.129 6.008-5.538 7.116-1.108 1.262-2.156 1.662-3.78 2.704h-.08l.015.035c-.731.324-2.672 1.357-4.331 2.641-1.061.821-2.013 1.739-2.408 2.646a.48.48 0 01-.878-.382c.447-1.027 1.499-2.09 2.7-3.021 1.709-1.323 3.707-2.389 4.496-2.744 1.526-.976 2.526-1.334 3.573-2.541a.568.568 0 01.067-.063c1.358-1.062 3.141-2.758 5.346-6.889l.065-.094c.582-.651.971-1.667 1.231-2.955.415-2.052.481-4.769.326-7.865-.61-12.222-4.666-30.271-5.005-37.107-.389-7.841 1.343-16.091.234-21.187-1.113-5.119-5.391-29.71-7.504-44.771l-.003-.024c-.59-6.572-1.693-14.213-.882-21.564 1.08-9.786 4.127-26.264 4.684-29.908.884-5.789.448-18.625-.039-25.001-2.364 8-6.519 18.869-8.129 24.83-.879 6.593-4.007 12.838-6.607 16.389-1.553 2.121-4.167 4.975-6.343 8.251-2.103 3.164-3.805 6.726-3.653 10.401 1.741 3.015 3.837 6.831 4.214 7.634.503 1.07 1.619 2.632 4.396 4.344a.48.48 0 01.122.707c-.721.897-1.441 1.349-2.154 1.506-1.056.232-2.133-.189-3.258-.943-1.119-.751-2.302-1.838-3.62-2.751l.069 3.217a.803.803 0 01-.002.049s-.279 3.378-1.316 5.382c-.527 1.018-1.266 1.678-2.172 1.653a.811.811 0 01-.051-.004 8.546 8.546 0 01-.711 1.509c-.654 1.065-1.59 1.805-2.786 1.537-.241.911-.491 1.702-.74 2.271-.212.483-.439.823-.647.996-.276.229-.556.263-.822.153-.229-.094-.454-.31-.627-.666-.27-.556-.457-1.539-.567-2.725-.309-3.364-.059-8.441-.012-9.429l.025-.552c.121-2.193.804-13.152 1-14.794.153-1.279 2.567-14.069 5.066-22.979 1.09-3.888 2.215-7.043 3.162-8.246.912-1.158 2.215-4.519 3.696-8.906 3.512-10.404 7.924-26.52 10.094-33.311 1.574-4.925 2.922-8.96 5.942-12.268s7.714-5.904 16.023-7.9c.752-.268 1.722-.463 2.717-.767 1.302-.398 2.66-.983 3.552-2.265.595-.855.975-2.017 1.014-3.62.067-2.804-.071-4.636-.236-5.789a.428.428 0 01-.038-.062c-.223-.433-.54-.691-1.101-1.361-.601-.718-1.427-1.581-1.986-2.046l-.525 1.812c-.077.27-.15.493-.211.627a.837.837 0 01-.162.251c-.313.312-.798.364-1.383.081-.864-.418-2.078-1.636-3.015-2.684-6.278-6.881-7.599-19.798-6.367-26.878 1.22-7.012 5.51-14.478 11.304-19.328 3.895-3.261 8.468-5.338 13.241-5.338 11.883 0 23.462 11.031 24.681 23.959.163 1.727 2.79 9.866-4.396 26.01l-.001.002c-1.01 2.293-2.223 3.785-3.097 4.284-.572.326-1.059.291-1.398.023-.235-.186-.519-.611-.865-1.04-.261-.325-.563-.662-.951-.793-.38-.128-1.298.016-1.85.855-.474.721-.528 1.205-.694 1.655a153.756 153.756 0 00-.036 5.462c.014 1.736.347 2.976.884 3.883.61 1.03 1.481 1.615 2.394 2.024.977.438 2.003.681 2.859 1.002 8.306 1.996 13.025 4.601 16.071 7.919 3.048 3.319 4.423 7.364 5.997 12.29 2.17 6.791 6.582 22.907 10.094 33.311 1.481 4.387 2.784 7.748 3.696 8.906.947 1.203 2.071 4.358 3.162 8.246 2.499 8.91 4.912 21.7 5.065 22.979.197 1.642.88 12.601 1 14.794l.026.552c.047.988.297 6.065-.013 9.429-.109 1.186-.296 2.169-.566 2.725-.174.356-.398.572-.627.666-.267.11-.547.076-.822-.153-.208-.173-.435-.513-.647-.996-.262-.597-.523-1.439-.776-2.408a.47.47 0 01-.253.162c-1.247.318-2.152-.449-2.744-1.56a8.255 8.255 0 01-.608-1.552.479.479 0 01-.211.055c-.915.026-1.629-.641-2.114-1.671-.946-2.009-1.072-5.396-1.072-5.396v-.027l.069-3.217c-1.318.913-2.502 2-3.62 2.751-1.125.754-2.202 1.175-3.258.943-.713-.157-1.433-.609-2.154-1.506a.477.477 0 01.122-.707c2.777-1.712 3.893-3.274 4.396-4.344.377-.803 2.472-4.619 4.214-7.634.151-3.675-1.551-7.237-3.653-10.401-2.176-3.276-4.79-6.13-6.343-8.251-2.601-3.552-5.729-9.797-6.607-16.39-1.792-6.625-7.478-19.756-9.741-27.914-.401 6.469-.388 23.586-.08 27.985.164 2.339 2.323 13.246 3.209 17.199.522 2.332 1.857 7.295 2.211 9.735 3.499 24.108-3.258 52.232-4.556 60.742h-.027l.026.004c-.736 4.551-.646 18.28 1.296 27.875 1.171 5.784-1.032 18.717-2.466 29.793-.939 7.257-1.56 13.702-.593 16.718 2.403 7.497 3.426 6.102 8.582 10.75l.003.003c.774.709 2.788 1.798 4.49 3.079 1.22.919 2.278 1.942 2.71 2.981a.478.478 0 01-.884.367c-.378-.909-1.333-1.779-2.401-2.583-1.73-1.302-3.77-2.415-4.558-3.136-5.342-4.816-6.364-3.402-8.853-11.169-.991-3.09-.407-9.697.555-17.133 1.419-10.961 3.636-23.756 2.477-29.48-1.966-9.711-2.047-23.605-1.303-28.215 1.292-8.469 8.038-36.462 4.555-60.459-.352-2.421-1.679-7.347-2.198-9.663-.893-3.986-3.065-14.983-3.23-17.341-.307-4.402-.318-21.445.08-28.052l.182-2.041c-.068.455-.129 1.154-.182 2.041-.197.462-.343.843-.41 1.072a.479.479 0 01-.917-.269c.308-1.051 2.184-5.056 3.172-6.022a.478.478 0 01.668.683c-.341.334-.793 1.06-1.241 1.89a.499.499 0 01.041.116c1.638 7.736 8.353 22.944 10.314 30.225l.013.061c.849 6.428 3.9 12.52 6.435 15.983 1.876 2.562 5.285 6.188 7.63 10.333 1.307 2.311 2.283 4.781 2.51 7.319.516-.867.949-1.565 1.222-1.95a.477.477 0 01.799.525l-2.056 3.375-.013.02c-1.729 2.991-3.84 6.835-4.216 7.636-.517 1.101-1.61 2.703-4.281 4.448.421.428.834.675 1.256.767.824.182 1.642-.215 2.519-.803 1.531-1.027 3.189-2.655 5.126-3.664l-1.116-1.167a.479.479 0 01.645-.704c1.512 1.213 4.634 5.516 5.263 6.341l.051.066a.46.46 0 01.141.233c.007.025.034.175.074.427.278 1.745 1.415 9.14 2.555 11.742.088.199.174.367.261.496.012.019.027.038.042.057l.008-.015c.048-.081.091-.178.132-.291.186-.514.307-1.288.39-2.193.305-3.316.057-8.321.01-9.295l-.025-.546c-.12-2.183-.799-13.097-.995-14.733-.152-1.27-2.553-13.98-5.036-22.833-1.045-3.725-2.086-6.761-2.993-7.913-.943-1.197-2.32-4.658-3.85-9.192-3.514-10.409-7.929-26.532-10.1-33.326-1.527-4.778-2.834-8.714-5.79-11.934-2.955-3.218-7.553-5.708-15.619-7.643l.112-.465-.169.448c-.877-.332-1.934-.584-2.94-1.035-1.082-.484-2.104-1.189-2.826-2.409-.605-1.02-1.002-2.411-1.017-4.363-.026-3.271.018-5.227.067-6.344-2.411 2.603-5.564 4.352-9.702 4.266-4.086-.028-7.216-1.512-9.671-3.902.201 1.214.379 3.194.304 6.293-.044 1.838-.503 3.163-1.185 4.143-1.023 1.472-2.562 2.177-4.057 2.634-.99.302-1.955.494-2.698.761l-.051.015c-8.064 1.935-12.636 4.413-15.564 7.621-2.93 3.209-4.211 7.136-5.737 11.914-2.171 6.794-6.586 22.917-10.1 33.326-1.53 4.534-2.907 7.995-3.85 9.192-.907 1.152-1.948 4.188-2.993 7.913-2.483 8.853-4.884 21.563-5.037 22.833-.195 1.636-.875 12.55-.994 14.733l-.025.546c-.047.974-.296 5.979.009 9.295.084.905.205 1.679.391 2.193.041.113.084.21.132.291l.008.015c.015-.019.03-.038.042-.057.087-.129.173-.297.261-.496 1.14-2.602 2.276-9.997 2.555-11.742.04-.252.067-.402.074-.427a.454.454 0 01.141-.233l.051-.066c.629-.825 3.75-5.128 5.262-6.341a.48.48 0 01.652.05.477.477 0 01-.007.654l-1.115 1.167c1.937 1.009 3.595 2.637 5.125 3.664.877.588 1.696.985 2.519.803.423-.092.836-.339 1.257-.767-2.671-1.745-3.764-3.347-4.281-4.448-.376-.801-2.487-4.645-4.216-7.636l-.014-.02-2.055-3.375a.478.478 0 01.799-.525c.273.385.706 1.083 1.222 1.95.227-2.538 1.203-5.008 2.51-7.319 2.345-4.145 5.754-7.771 7.63-10.333 2.535-3.463 5.585-9.555 6.435-15.983l.012-.061c1.777-6.593 6.7-19.247 8.83-27.322zm19.318 186.86c-.106 1.611-.619 3.836-1.193 5.286-.219.554-.433.989-.648 1.192a.479.479 0 10.657.696c.28-.264.595-.813.881-1.536.605-1.529 1.146-3.876 1.258-5.575a.48.48 0 00-.955-.063zm20.475-1.991c-.347 1.611-.288 3.55-.037 5.07.175 1.06.451 1.921.734 2.359a.478.478 0 00.804-.518c-.238-.369-.446-1.103-.594-1.997-.233-1.413-.294-3.215.029-4.713a.479.479 0 00-.936-.201zm-20.663-56.932c-.161 2.247-2.353 5.905-5.665 7.792a.478.478 0 10.473.831c3.622-2.063 5.97-6.098 6.146-8.555a.479.479 0 00-.954-.068zM94.1 230.54c.774 2.037 2.528 6.286 7.129 6.562a.479.479 0 00.057-.955c-4.111-.247-5.6-4.127-6.292-5.947a.478.478 0 00-.894.34zm43.288-57.467l1.611 4.013c.016.04.027.081.031.124l.592 5.147s.204 1.772.889 3.057c.373.698.88 1.282 1.664 1.083a.473.473 0 01.303.022c-.791-3.279-1.457-7.543-1.662-8.825l-.039-.241a1.531 1.531 0 01-.043-.055c-.416-.545-1.945-2.659-3.343-4.326l-.003.001zm-106.999 0l-.003-.001c-1.398 1.667-2.927 3.781-3.343 4.326l-.043.055-.04.241c-.203 1.276-.864 5.503-1.65 8.776.767.156 1.315-.421 1.738-1.109.743-1.208 1.076-2.852 1.109-3.022l.589-5.129a.482.482 0 01.032-.124l1.611-4.013zm106.303.834l-.073 3.373c.008.218.134 3.209.981 5.009.298.633.658 1.137 1.222 1.122l.013-.001c-.118-.555-.164-.942-.164-.942l-.584-5.085-1.395-3.476zm-105.607 0l-1.395 3.476-.584 5.084-.005.034s-.068.356-.213.874c.447-.109.774-.561 1.059-1.111.918-1.773 1.186-4.704 1.21-4.995l-.072-3.362zm-4.486 3.813l-.021.001.021-.001zm114.615-.956a.444.444 0 00-.339.152.46.46 0 01.339-.152zm-114.651 0a.46.46 0 01.339.152.444.444 0 00-.339-.152zm57.742-36.079c.016.026.03.053.041.082 0 0 .572 1.486.617 2.368.037.718-.293 1.115-.795 1.101-.335-.01-.656-.253-.79-.808-.271-1.122.125-4.047.202-5.559a.479.479 0 01.956.048c-.036.717-.153 1.762-.231 2.768zm11.176-38.328l2.74.021a.477.477 0 10.007-.956l-2.739-.022a.478.478 0 10-.008.957zm-25.864-.008l2.739.022a.479.479 0 10.008-.957l-2.739-.021a.479.479 0 10-.008.956zm-12.201-3.738l-.569 2.365a48.45 48.45 0 00.569-2.365zm23.822-25.147c.717.654 1.954 1.476 3.335 1.398.935-.053 1.951-.502 2.916-1.72a.478.478 0 00-.75-.594c-.742.937-1.501 1.318-2.22 1.358-1.099.063-2.066-.629-2.637-1.149a.479.479 0 10-.644.707zm5.8-56.04c-1.633.343-10.127 2.242-15.361 5.615-2.354 1.517-4.064 3.31-3.994 5.447.042 1.248-.218 2.28-.447 3.148a10.714 10.714 0 01-.904 2.272c1.334 5.562 2.792 11.843 5.451 16.76 2.622 4.849 6.423 8.36 12.503 8.4l-.003.479.01-.479c4.867.103 8.253-2.553 10.647-6.063 3.683-5.401 5.045-12.814 5.735-15.761 1.305-5.992-2.604-9.929-6.834-13.57-2.198-1.891-4.493-3.699-6.269-5.641a19.823 19.823 0 01-.534-.607zm8.685 36.129c.769-.464 1.614-.479 2.03-.339.555.187 1.016.634 1.391 1.1.291.362.515.733.712.889.033.026.077.003.127-.012.107-.032.222-.095.347-.183.397-.278.85-.778 1.314-1.464.419-.619.844-1.386 1.239-2.284h.005l-.004-.002c7.055-15.849 4.478-23.838 4.318-25.533-1.173-12.445-12.29-23.093-23.728-23.093-4.555 0-8.91 2.004-12.627 5.116-5.624 4.707-9.791 11.952-10.976 18.758-1.194 6.865.046 19.403 6.135 26.073l-.353.322.356-.319c.74.826 1.655 1.78 2.404 2.277.167.111.323.198.464.246a.625.625 0 00.123.025c.035-.099.101-.286.148-.449.244-.851.57-2.182.758-2.478.223-.35.521-.311.693-.225.375.188 1.196.936 1.952 1.735a24.167 24.167 0 01-1.61-2.591c-.983-1.818-1.806-3.82-2.52-5.902-.323.181-.755.268-1.273.145-1.027-.242-2.548-1.444-4.034-5.07-1.285-3.132-1.06-4.929-.372-5.853.649-.873 1.739-1.083 2.701-.905a9.671 9.671 0 00.868-2.147c.209-.792.454-1.733.416-2.873-.081-2.432 1.752-4.555 4.432-6.282 4.958-3.196 12.777-5.104 15.218-5.646-1.188-1.608-1.964-3.332-2.055-5.269a.479.479 0 11.955-.046c.094 1.978.993 3.701 2.308 5.312l.018.021c.214.262.44.521.675.778 1.752 1.916 4.019 3.696 6.187 5.562 3.474 2.99 6.67 6.205 7.308 10.448a2.6 2.6 0 011.638-.318c.8.117 1.544.634 1.969 1.595.495 1.122.55 2.918-.412 5.413-1.406 3.643-2.959 4.942-4.034 5.256-.544.159-1.002.095-1.344-.071-.896 2.762-2.129 5.734-3.86 8.272l-.007.011zm-13.459-.775c.524.209 1.664.228 2.596.137.654-.064 1.206-.188 1.406-.297a.479.479 0 00-.456-.841c-.148.08-.561.139-1.043.186-.771.075-1.716.099-2.15-.074a.478.478 0 10-.353.889zm-2.604-2.145c1.849-.066 4.595-.745 8.985-.007a.479.479 0 00.159-.943c-4.484-.754-7.289-.074-9.178-.006a.478.478 0 10.034.956zm2.892-2.336c.404.212 1.186.363 1.875.327.524-.027.991-.173 1.258-.413a.478.478 0 10-.638-.713c-.14.125-.397.156-.67.171-.506.026-1.084-.064-1.381-.22a.48.48 0 00-.444.848zm1.534-3.271c.347-.258.98-.599 1.92-.624a.479.479 0 01.026.957c-1.037.027-1.541.579-1.541.579a.48.48 0 01-.478.153l-.123-.03a.488.488 0 01-.249-.153s-.504-.552-1.541-.58a.478.478 0 11.026-.956c.977.026 1.622.393 1.96.654zm15.799-.697c.131.15.42.199.781.093.94-.274 2.18-1.497 3.409-4.682.735-1.904.839-3.336.558-4.321-.237-.833-.757-1.307-1.36-1.395-.469-.069-.97.094-1.395.459.041.936-.041 1.922-.268 2.964l-.002.008c-.343 1.464-.854 4.01-1.723 6.874zm-34.387-9.798c-.569-.163-1.249-.158-1.737.224-.349.272-.578.736-.621 1.435-.054.886.186 2.102.859 3.742 1.09 2.659 2.125 3.894 2.974 4.348.546.292.965.209 1.129-.017-1.041-3.211-1.848-6.576-2.604-9.732zm25.577 1.848c-1.174.516-2.044 1.504-2.378 1.949a.479.479 0 01-.765-.574c.604-.803 2.7-3.004 5.263-2.611 1.097.168 2.294.801 3.489 2.253a.478.478 0 11-.738.608c-.761-.924-1.511-1.47-2.23-1.74a1.609 1.609 0 01-.351 2.299c.445-.07.857-.209 1.177-.457a.479.479 0 01.587.756c-.585.453-1.387.665-2.232.708-1.179.059-2.438-.204-3.201-.47a.478.478 0 11.315-.903c.38.132.9.265 1.468.345a1.61 1.61 0 01-.404-2.163zm-16.401-.115c-.719.27-1.468.816-2.23 1.74a.478.478 0 11-.738-.608c1.196-1.452 2.393-2.085 3.489-2.253 2.563-.393 4.66 1.808 5.263 2.611a.477.477 0 11-.764.574c-.335-.445-1.205-1.433-2.378-1.949a1.607 1.607 0 01-.404 2.163 8.075 8.075 0 001.468-.345.478.478 0 11.315.903c-.764.266-2.023.529-3.202.47-.845-.043-1.647-.255-2.231-.708a.48.48 0 01.586-.756c.321.248.732.387 1.178.457a1.605 1.605 0 01-.352-2.299zm17.818.329c.361.031.63.348.599.708a.657.657 0 01-1.31-.111.657.657 0 01.711-.597zm-16.594 0a.658.658 0 01.712.597.655.655 0 01-.599.707.657.657 0 01-.712-.596.656.656 0 01.599-.708zm11.748-2.805s2.928-3.214 9.557-1.206a.478.478 0 00.277-.916c-7.332-2.221-10.55 1.487-10.55 1.487a.479.479 0 00.716.635zm-6.186-.731s-3.218-3.707-10.55-1.486a.478.478 0 10.278.916c6.629-2.008 9.557 1.206 9.557 1.206a.479.479 0 00.715-.636z" />
    </g>
</svg>