<svg viewBox="0 0 168 320" width="168" height="320" fill-rule="evenodd" clip-rule="evenodd" stroke-linecap="round" stroke-linejoin="round" stroke-miterlimit="1.5">
    <path data-bodypart="head" d="M72.459 6.464l-.017-.007c7.428-8.914 21.193-3.524 26.732 1.287 4.981 4.326 7.54 10.141 8.566 16.304l-.243-.013h-.102c-3.56.036-6.551 2.442-8.247 5.473-2.534 4.528-2.6 10.401-.175 15.02 1.312 2.501 3.516 4.645 6.152 5.444-1.67 5.068-3.601 8.607-4.691 9.216 0 0-.763-.784-1.007-.947-1.818-1.213-3.29-1.694-4.619-1.775v-.001h-.011a6.315 6.315 0 00-.659-.005l-.07-.001-.088.008-.179.009-.416.046-.034.003-.009.002a7.21 7.21 0 00-.579.103c-.273.055-.544.121-.821.193-.468.127-.937.275-1.422.425l-1.406.416-.053.015-.042.01-.898.208-.647.12-.029.005-.776.092-.202.016-.823.035-.022.001-.891-.034-.231-.018-.959-.113-.014-.002-.018-.003-.672-.125-.213-.047-.538-.128-.221-.058-.768-.223-1.103-.34-.741-.212-.128-.039-.064-.016-.071-.021-.28-.07-.454-.118-.09-.019-.096-.024-.255-.053-.364-.079-.115-.019-.116-.023-.224-.033-.299-.049-.139-.014-.133-.019-.195-.013-.247-.025-.163-.003-.149-.011-.169.003-.206-.005-.189.012-.164.003-.147.016-.171.01-.218.033-.182.019.001.007c-1.642.251-3.314 1.054-5.808 2.522l-.018.049c-1.751-3.408-3.214-6.607-4.414-9.611a10.058 10.058 0 002.971-2.373c3.976-4.655 4.433-12.009 1.421-17.392-1.744-3.118-4.883-5.448-8.281-5.473-.056-.001-.112 0-.169.001l-.108.006c1.032-6.662 4.138-11.762 8.145-16.109 1.543-1.674 3.082-1.947 4.494-1.469l.645.269a4.648 4.648 0 00-.645-.269z" />
    <path data-bodypart="ears" d="M105.52 48.732a7.75 7.75 0 01-2.77-1.474c-2.818-2.326-4.222-6.222-4.241-10.001-.018-3.903 1.403-7.911 4.378-10.268 1.291-1.023 2.896-1.66 4.548-1.673h.084l.411.022c1.083 8.195-.4 16.865-2.41 23.394zM59.647 25.338l.388-.022h.084c1.612.017 3.197.639 4.473 1.636 3.013 2.356 4.481 6.484 4.423 10.46-.062 4.262-1.953 8.736-5.478 10.691-3.551-9.256-4.572-16.654-3.89-22.765z" />
    <path data-bodypart="nape_of_neck" d="M74.226 56.313l.181-.026.389-.043.311-.019.395-.007.318.008.41.028.328.032.438.063.34.056.479.098.351.077.544.137.351.091.192.055 1.844.552c.263.083.519.158.768.223l.083.025.138.033.274.07.264.058.132.032.081.015.119.026.553.099.016.003h.002l.003.001.011.001.715.094.244.019.116.014.115.004c.307.022.603.031.891.034h.004l.018-.001.606-.018.217-.017.101-.004.101-.012c.267-.024.526-.056.776-.092h.005l.024-.005.522-.09.125-.03.16-.029.738-.179.034-.008.008-.002.008-.002.045-.013.935-.27.471-.146.028-.008 1.394-.417.821-.193.579-.103.043-.005.595-.055.158-.007.659.005.011.001c-.719 6.02.016 8.972 2.017 10.748h-9.751c-.306-1.408-1.604-2.454-3.01-2.481h-.081a3.196 3.196 0 00-2.609 1.47 3.602 3.602 0 00-.369.889h-8.973c2.045-1.601 3.022-4.481 2.194-10.779z" />
    <path data-bodypart="back" d="M108.656 122.947H58.103c-.002-4.915-.04-12.813-.234-18.126.716-7.79.705-15.935-.913-23.752-.507-2.447-1.218-4.842-2.012-7.221 2.35-1.459 5.354-2.731 9.299-3.911l-.253.082c2.057-.664 3.983-1.053 5.607-1.645h11.579l.104.065c.614.275.903-.579.903-.579.004-.505.211-.996.57-1.337.799-.759 2.226-.569 2.808.321.239.364.226.76.307 1.079-.002.264.088.542.637.572h12.383c.685.318 1.435.585 2.255.841l-.296-.063c5.299 1.448 9.028 2.825 11.758 4.359l-.4 1.138c-3.28 9.627-3.853 19.756-3.064 29.748-.214 5.313-.429 13-.485 18.429z" />
    <path data-bodypart="upper_arm" d="M53.856 74.569c.312.922.605 1.844.869 2.775 2.398 8.463 2.68 17.426 1.965 26.21-2.015 6.891-5.734 16.539-8.048 23.438-3.229.114-6.527-.515-9.53-1.759-1.516-.628-3.081-1.457-4.209-2.636 3.741-10.748 8.484-27.772 10.749-34.938 1.845-5.835 3.697-9.907 8.204-13.09zm59.881-.257c4.863 3.131 6.136 7.003 8.271 13.373 2.36 7.044 7.197 23.78 11.01 34.56a7.243 7.243 0 01-.876.858c-3.497 2.926-8.454 4.023-13.174 3.841-2.285-6.852-6.491-17.039-8.675-24.305-.319-4.927-.297-9.906.267-14.81.534-4.643 1.699-9.12 3.177-13.517z" />
    <path data-bodypart="elbow" d="M34.445 123.903c.334.305.694.587 1.066.846 3.522 2.456 8.165 3.58 12.7 3.524a77.384 77.384 0 00-.904 2.921c-.346 2.36-1.174 4.956-2.153 7.384-5.437 1.092-11.891-.974-14.941-5.599.29-.611.575-1.095.844-1.428.857-1.058 2.047-3.881 3.388-7.648zm99.069-.277c1.417 3.923 2.668 6.871 3.547 7.957.199.247.407.576.62.979a10.803 10.803 0 01-1.156 1.595c-3.373 3.871-8.916 5.378-13.933 4.399-1.222-2.808-2.321-5.962-2.735-8.78a55.303 55.303 0 00-.467-1.543c2.216.027 4.452-.286 6.607-.846 2.693-.7 5.599-1.838 7.517-3.761z" />
    <path data-bodypart="lower_back" d="M108.64 124.228c-.017 2.505.008 4.347.095 4.951.305 2.136 1.817 11.32 3.437 18.401-.141-.043-.277-.048-.415-.078-9.254-2.056-18.697-2.933-28.175-2.954l-.701.001c-8.631.033-17.314.765-25.815 2.399-.575.111-1.15.226-1.724.345-.289.061-.585.11-.86.214 1.551-10.859 3.618-20.075 3.618-20.075l.005-3.204h50.535z" />
    <path data-bodypart="forearm" d="M29.61 134.356c3.378 4.526 9.423 6.461 14.955 5.634-1.707 3.946-3.654 7.223-4.28 7.972-.913 1.094-5.219 6.441-7.322 11.637a22.433 22.433 0 01-7.534-2.073 14.69 14.69 0 01-1.823-1.023c1.507-6.917 3.929-16.988 6.004-22.147zm108.709-.432c2.085 4.932 4.572 15.198 6.128 22.315-1.385 1.045-3.083 1.71-4.745 2.242a24.19 24.19 0 01-4.397.981c-2.222-5.269-7.523-11.837-8.426-12.918-.551-.658-2.122-3.271-3.656-6.578 1.448.208 2.928.222 4.383.048 4.102-.492 8.29-2.647 10.713-6.09z" />
    <path data-bodypart="buttocks" d="M54.334 148.576l.043.042.232.092.25-.004a124.286 124.286 0 0112.178-1.969c14.997-1.692 30.281-1.173 44.903 2.119l.25.006c.141-.054.197-.076.26-.129l.385 1.599c1.426 5.555 2.043 12.516 2.141 19.952-2.648 3.196-5.672 6.173-9.393 8.044-4.875 2.451-10.294 2.32-15.033.324l-.401-.183.27-.418c1.115-1.927 1.074-4.332.107-6.303-1.194-2.434-3.781-4.06-6.498-4.086h-.095c-3.635.035-6.893 3.093-7.208 6.632-.117 1.319.282 2.732.93 3.987-5.201 2.215-10.805 1.231-15.622-1.026-3.398-1.593-6.333-3.7-9.138-5.976a99.275 99.275 0 01-.095-3.49c-.045-5.861.639-12.776 1.534-19.213z" />
    <path data-bodypart="anus" d="M78.804 177.714a8.068 8.068 0 01-.676-1.783c-.569-2.186.543-4.557 2.35-5.859 2.49-1.795 6.091-1.281 8.017.919 1.731 1.978 1.851 4.856.524 6.871-1.018-.623-2.001-1.32-2.772-2.221-1.007-1.179-1.452-2.657-1.799-4.142-.073-.314-.13-.634-.26-.925l-.19-.175-.244-.086-.258.018-.23.118-.165.199-.072.248-.022.242a8.754 8.754 0 01-4.203 6.576z" />
    <path data-bodypart="hand" d="M144.735 157.549c.709 3.26 1.173 5.647 1.244 6.171.254 1.892-1.875 13.499-1.895 13.524l-1.06 2.079.152-.3-.219 11.989s-2.469 1.285-2.787-5.957l-.107.071-2.677 5.249s-2.064-1.906-.641-5.083l.225-.149-.221.138-.004.011-1.906 1.263s-2.387-.955 1.592-4.935c.829-2.911.777-4.292.54-5.062l-.477-.921c.127.219.335.461.477.921l.109.211c-.282-1.616-1.969-2.69-2.746-2.106-3.22 2.419-5.729 5.583-8.427 2.312 2.982-1.905 4.153-3.634 4.681-4.806.572-1.27 3.525-7.584 5.421-9.781l.188-.143a10.67 10.67 0 00-.404-1.526 25 25 0 005.876-1.586c1.071-.433 2.125-.948 3.066-1.584zm-121.425.297c2.625 1.727 5.861 2.721 9.178 3.035-.163.469-.297.934-.404 1.392l-.045.046c1.639 1.705 4.919 8.548 5.491 9.818.528 1.172 1.699 2.9 4.681 4.806-2.717 3.295-5.289.12-8.498-2.366-1.082-.839-2.763.644-2.54 1.399.086.935-.601 2.491.514 5.612 3.98 3.979 1.592 4.934 1.592 4.934l-1.95-1.484.04.211c1.432 3.184-.637 5.094-.637 5.094l-2.631-5.148-.121-.079c-.318 7.243-2.819 5.863-2.819 5.863l-.219-11.965-.908-1.803c-.02-.024-2.149-11.631-1.895-13.523.068-.507.504-2.752 1.171-5.842z" />
    <path data-bodypart="thigh" d="M114.994 172.186c.049 21.013-3.734 45.156-4.905 52.153l-.015.047c-.489 2.019-.847 10.445-.798 18.286-1.464.714-3.062 1.137-4.673 1.425-4.92.878-10.149.693-14.946-.783-.389-3.873-2.267-7.567-2.151-13.459.139-7.028-.492-18.478-1.742-27.491-1.008-7.261-.884-21.196-.794-26.341 1.062 1.41 2.501 2.425 4.017 3.32l.08.028.125.081c2.198 1.021 4.521 1.729 6.914 1.965 5.701.562 11.06-1.864 15.225-5.457 1.381-1.19 2.568-2.468 3.663-3.774zm-62.012.788c3.945 3.095 8.233 5.819 13.019 7.117 4.163 1.129 8.689.968 12.599-.817 1.905-.87 3.643-2.538 4.667-4.533 1.035 5.527.245 19.11-1.093 30.803-1.358 11.856-1.564 17.118-1.564 17.118l-.003-.008c-.052 8.754.844 13.17-.751 20.302-1.269.513-2.631.804-3.996 1-5.15.739-10.82.341-16.008-1.289.324-3.352.524-6.376-.041-8.877-1.087-4.819-5.863-42-6.829-60.816z" />
    <path data-bodypart="lower_leg" d="M104.285 294.935H92.002c-.473-11.417-2.846-25.724-3.231-28.998l.04.402c-.907-6.799.653-17.925.89-20.762l.034-.881-.001-.028c3.204.922 6.566 1.234 9.908 1.173 3.307-.06 6.669-.45 9.649-1.759.05 4.124.223 7.966.558 10.465 1.159 13.611-4.243 32.185-5.564 40.388zm-26.732 0H65.482c-.963-7.894-5.682-26.396-6.248-40.007l-.001.051c-.222-3.846.156-7.581.497-11.015 3.517 1.081 7.242 1.524 10.948 1.574 2.962.041 6.04-.124 8.813-1.069l-.051.205c-.453 4.37 1.904 13.95 1.016 21.217v.02c-.343 3.215-2.624 17.55-2.903 29.024z" />
    <path data-bodypart="foot" d="M104.103 296.216c-.081.661-.117 1.217-.102 1.66.513 7.068 3.279 7.162-.13 10.539l.631-.229c.042 1.591 3.68 2.662 1.723 4.943-1.956 2.281-3.447 3.647-3.447 3.647l.005-.006c-.775.855-2.318 1.507-5.233 1.472-4.07-.048-5.367-1.208-5.546-2.812l-.096-.352c-.913-2.418-5.114-2.695-3.287-5.304 1.586-1.034 2.346-2.181 2.71-3.024l.03-.112c.658-2.497.822-6.218.688-10.422h12.054zm-26.573 0c-.047 4.223.211 7.963.984 10.476.074.242.153.472.237.69l-.099-.301c.07.19.492 1.088 2.511 2.142 1.856 2.589-2.36 2.929-3.247 5.357l-.073-.431c.166 1.987-.822 3.532-5.515 3.64-2.678.061-4.268-.536-5.193-1.369l-.723-.901c.177.316.413.621.723.901l.14.174s-1.697-1.563-3.678-3.823c-1.982-2.259 1.712-3.604 1.737-5.195l.565.455c-3.446-3.339-.69-3.3-.256-10.374.025-.387.014-.872-.027-1.441H77.53z" />
    <g>
        <path d="M73.598 56.981c-1.392.331-2.871 1.072-4.94 2.286a.479.479 0 01-.804-.078c-14.157-27.564-9.575-41.499-.361-51.497 1.224-1.328 2.457-1.837 3.63-1.834.375.001.745.055 1.109.155 3.831-4.511 9.203-5.391 14.342-4.506 5.109.88 9.976 3.508 12.797 5.959 5.035 4.373 7.646 10.238 8.705 16.466 1.574 9.26-.292 19.324-2.646 26.393-1.184 3.556-2.493 6.357-3.547 7.929-.501.749-.967 1.234-1.333 1.439-.217.076-.415.031-.599-.107-.19-.221-.688-.713-.908-.86-1.483-.988-2.723-1.465-3.842-1.63-.571 4.551-.344 7.15.676 8.8 1.02 1.65 2.827 2.297 5.284 3.063 8.399 2.297 12.825 4.422 15.588 7.226 2.771 2.812 3.883 6.318 5.596 11.432 2.358 7.038 7.188 23.749 10.995 34.528 1.605 4.547 3.011 8.028 3.976 9.221 1.001 1.237 2.216 4.503 3.407 8.531 2.732 9.237 5.435 22.515 5.614 23.844.232 1.722-1.473 11.405-1.834 13.342-.039.207-.063.331-.069.355a.523.523 0 01-.057.142l-.84 1.647-.217 11.878a.483.483 0 01-.26.419l-.032.015a1.574 1.574 0 01-1.271-.013c-.566-.248-1.306-.943-1.761-2.876a15.42 15.42 0 01-.307-1.879l-1.993 3.907a.478.478 0 01-.754.135s-1.775-1.604-1.181-4.353l-.752.564a.48.48 0 01-.466.062s-.855-.323-.995-1.357c-.107-.793.243-2.154 2.337-4.275.451-1.576.61-3.059.625-4.436a.534.534 0 01-.021-.081c-.141-.807-.7-1.454-1.266-1.735-.269-.134-.535-.208-.719-.07-1.635 1.229-3.094 2.64-4.483 3.336-.785.393-1.555.568-2.319.423-.755-.142-1.519-.597-2.284-1.525a.484.484 0 01.112-.711c2.86-1.827 3.995-3.474 4.501-4.598.579-1.286 3.576-7.673 5.496-9.898a.493.493 0 01.107-.093c-2.747-5.968-8.397-14.117-9.242-15.129-1.087-1.3-6.104-10.11-7.124-16.974-1.879-6.584-7.02-18.629-9.527-26.94-.122-.403-.113-1.374-.153-.506-.359 7.816-.793 24.601-.496 26.679.347 2.42 2.245 13.915 4.09 21.101 5.55 21.617-1.108 64.47-2.737 74.207l-.031.113.009-.033c-.789 3.258-1.32 22.537-.248 29.627l-.476.072.479-.045c.91 9.673-1.568 21.804-3.583 30.995-1.321 6.024-2.454 10.76-2.237 12.641l-.477.056.479-.035c.25 3.507 1.066 5.281 1.393 6.598.152.609.205 1.134.1 1.667-.118.598-.441 1.218-1.109 1.988.064.238.242.464.445.701.329.385.745.773 1.098 1.183.506.588.876 1.226.862 1.926-.01.482-.194 1.006-.677 1.569-1.889 2.203-3.349 3.561-3.478 3.68-.841.904-2.479 1.638-5.568 1.601-2.767-.033-4.325-.593-5.152-1.402-.56-.548-.818-1.218-.877-1.967a.475.475 0 01-.057-.107c-.198-.524-.583-.927-1.012-1.28-.487-.402-1.034-.74-1.497-1.084-.682-.509-1.176-1.057-1.253-1.733-.053-.462.077-1.003.531-1.652a.484.484 0 01.099-.103c2.247-1.749 2.523-2.706 2.523-2.706l.468.112-.463-.129c.229-.824.401-1.787.524-2.86a2.775 2.775 0 01.088-.885c.203-2.363.202-5.174.071-8.177-.493-11.379-2.859-25.49-3.244-28.753-.97-7.285.912-19.11.966-20.888l.481.014-.48-.036c.179-2.346-.41-4.357-1.017-6.641-.631-2.375-1.288-5.032-1.217-8.601.138-7.008-.492-18.427-1.739-27.415-1.193-8.603-.84-26.571-.803-28.276a11.5 11.5 0 01-.629-1.81c-.093.423-.211.842-.36 1.255 1.379 4.72.593 19.443-.844 31.999-1.324 11.569-1.554 16.839-1.564 17.067-.055 9.466.982 13.886-1.172 22.094-.437 4.385 1.9 13.925 1.019 21.174l-.001.029c-.347 3.259-2.589 17.603-2.858 29.052-.114 4.847.119 9.169 1.021 11.878l.002.007.005.014c.053.153.448.926 2.282 1.884a.485.485 0 01.169.146c.461.644.596 1.185.547 1.649-.072.678-.562 1.233-1.242 1.752-.46.351-1.006.698-1.491 1.106-.427.36-.808.767-1.001 1.294a.504.504 0 01-.036.078c-.048.754-.299 1.432-.856 1.989-.818.818-2.37 1.395-5.137 1.458-2.725.063-4.327-.487-5.251-1.232a.482.482 0 01-.138-.09s-1.713-1.578-3.714-3.859c-.487-.556-.68-1.074-.701-1.551-.031-.697.321-1.333.809-1.921.339-.409.742-.796 1.06-1.181.224-.271.417-.527.447-.804-.641-.729-.956-1.314-1.078-1.877-.113-.521-.067-1.031.078-1.628.31-1.279 1.104-3.021 1.315-6.528l.48.029-.478-.05c.147-1.407-.315-4.346-1.035-8.193-1.712-9.143-4.918-23.312-5.379-34.381-.285-4.937.412-9.691.758-13.857.224-2.71.302-5.166-.169-7.251-1.201-5.324-6.9-50.095-7.023-66.103-.121-15.773 5.023-39.166 5.3-40.413.004-1.014.064-16.877-.29-24.305l.74-2.86c-1.821 8.032-8.131 23.509-10.291 31.082-1.021 6.864-6.037 15.674-7.124 16.974-.745.892-5.285 7.613-7.836 12.837-.147.302-.288.599-.422.889 1.665 1.747 4.993 8.657 5.572 9.944.506 1.124 1.642 2.77 4.502 4.598a.482.482 0 01.112.711c-.771.934-1.542 1.392-2.305 1.536-.773.146-1.552-.03-2.346-.427-1.407-.705-2.881-2.137-4.513-3.401-.275-.214-.611-.164-.914 0-.493.267-.92.828-1.013 1.428-.022 1.52.116 3.177.623 4.951 2.094 2.122 2.444 3.483 2.337 4.276-.139 1.033-.994 1.357-.994 1.357a.483.483 0 01-.467-.062l-.752-.564c.595 2.749-1.18 4.353-1.18 4.353a.48.48 0 01-.754-.135l-1.96-3.842c-.147 1.378-.39 2.353-.668 3.038-.404.995-.906 1.442-1.333 1.645a1.593 1.593 0 01-1.414-.002.48.48 0 01-.249-.412l-.217-11.878-.84-1.647a.523.523 0 01-.057-.142 11.937 11.937 0 01-.069-.355c-.362-1.937-2.066-11.62-1.834-13.343.179-1.328 2.882-14.606 5.613-23.843 1.192-4.029 2.406-7.295 3.407-8.531.965-1.193 2.344-4.667 3.91-9.206 3.711-10.762 8.364-27.453 10.601-34.529 1.459-4.614 2.87-8.119 5.537-10.964 2.666-2.844 6.591-5.037 13.117-6.99 2.006-.648 3.888-.965 5.49-1.436 1.488-.438 2.728-.999 3.554-2.171 1.128-1.599 1.483-4.267.824-9.057zm20.643.045c-1.12.001-2.144.286-3.215.617-2.575.795-5.404 1.83-10.192.315-2.786-.881-4.552-1.321-6.277-1.141l-.011.001c.714 5.179.23 8.049-.986 9.774-.952 1.349-2.355 2.035-4.069 2.539-1.597.469-3.472.785-5.472 1.43l-.147-.457.138.46c-6.309 1.888-10.119 3.98-12.695 6.728-2.576 2.747-3.914 6.142-5.323 10.597-2.238 7.08-6.895 23.783-10.609 34.553-1.617 4.689-3.074 8.265-4.07 9.496-.961 1.187-2.09 4.334-3.233 8.199-2.715 9.181-5.405 22.379-5.583 23.7-.226 1.683 1.473 11.144 1.827 13.038l.05.26 6.326 12.404c.441-.712.968-2.106.112-4.008a.498.498 0 01-.034-.11l-1.726-1.294a.493.493 0 01-.158-.206l-2.228-5.572a.47.47 0 01-.034-.203l.159-3.025a.48.48 0 11.96.051l-.154 2.919 2.14 5.348 3.436 2.577a.782.782 0 00.198-.391c.073-.371-.042-.897-.516-1.656-.342-.547-.863-1.193-1.626-1.956a.47.47 0 01-.121-.205 17.542 17.542 0 01-.697-4.912.476.476 0 01-.017-.114 2.3 2.3 0 01.02-.38c.019-1.171.129-2.262.242-3.264.172-1.527.358-2.835.199-3.889-.104-.686-.249-1.475-.561-2.147-.272-.588-.674-1.088-1.33-1.284a.482.482 0 01.276-.921c.336.101.629.254.885.447.218-1.19.847-2.803 1.712-4.574 2.59-5.304 7.205-12.126 7.961-13.031 1.058-1.265 5.935-9.856 6.916-16.53l.013-.062c2.14-7.519 8.413-22.901 10.264-30.958a.482.482 0 01.849-.317.48.48 0 01.122.359c.597 4.986.5 27.288.5 27.288a.5.5 0 01-.011.103s-5.413 24.126-5.289 40.248c.123 15.958 5.802 60.591 7 65.899.489 2.168.422 4.722.188 7.542-.342 4.127-1.038 8.835-.755 13.725l-.48.028.48-.02c.459 11.027 3.658 25.14 5.363 34.248.743 3.965 1.197 7 1.048 8.458-.175 2.891-.73 4.619-1.109 5.87-.25.824-.435 1.409-.304 2.015.133.613.586 1.229 1.522 2.136.06.058.104.131.127.211.433 1.487.414 2.058.414 2.058a.481.481 0 01-.961-.015s-.002-.403-.281-1.436l-.045.075c-.245.394-.62.786-.994 1.189-.284.307-.568.62-.766.954-.159.267-.264.547-.226.853.033.275.179.563.457.879a58.283 58.283 0 001.921 2.085 4.87 4.87 0 01.398-2.005 1.05 1.05 0 01.156-.258.46.46 0 01.308-.148.47.47 0 01.34.102.453.453 0 01.182.386.472.472 0 01-.089.271 3.88 3.88 0 00-.152.386c-.186.575-.393 1.608.179 2.48.614.937 2.065 1.625 5.115 1.555 2.4-.055 3.769-.467 4.479-1.177.774-.774.663-1.875.375-3.057-.334-1.374-.941-2.852-1.146-4.168-.312-2.006.118-3.125.579-4.038.383-.758.826-1.335.687-2.316a.466.466 0 01.007-.175c-.2-2.191-.246-4.71-.183-7.386.27-11.472 2.512-25.843 2.863-29.125l.001-.033c.888-7.264-1.469-16.84-1.016-21.208l.013-.073c2.144-8.146 1.095-12.518 1.151-21.901l.48.003-.48-.02s.21-5.264 1.57-17.145c1.318-11.515 2.119-24.873 1.138-30.462a8.14 8.14 0 01-.726 1.053c-1.803 2.219-5.14 3.957-11.311 4.323-3.678.218-9.157-2.416-9.157-2.416a.481.481 0 01.418-.865s5.192 2.528 8.682 2.321c5.779-.342 8.934-1.891 10.622-3.969 1.669-2.054 1.881-4.596 1.854-6.866-.015-1.286-.101-2.493-.083-3.502-.123-4.643-.114-8.112-1.987-10.865a.48.48 0 11.794-.541c.923 1.356 1.425 2.876 1.711 4.612.299-2.743.798-4.135 1.054-4.788a.48.48 0 11.895.35c-.374.957-1.268 3.553-1.23 9.835.072.449.062 1.075.035 1.826l.002.056a.893.893 0 01-.01.166c-.027.698-.063 1.492-.061 2.343.004 1.755.178 3.771 1.017 5.648a.49.49 0 01.083.181 8.888 8.888 0 002.047 2.782c1.966 1.803 5.114 3.133 10.106 3.48 3.684.256 8.763-2.37 8.763-2.37a.481.481 0 01.439.855s-5.375 2.744-9.269 2.473c-5.288-.367-8.606-1.82-10.689-3.73a9.826 9.826 0 01-1.418-1.616c-.077 4.956-.194 19.154.824 26.495 1.254 9.037 1.887 20.519 1.748 27.566-.069 3.459.574 6.034 1.185 8.335.635 2.391 1.232 4.498 1.047 6.953-.063 1.812-1.934 13.51-.972 20.721l-.477.064.478-.056c.384 3.263 2.754 17.416 3.25 28.827.131 3.026.129 5.862-.074 8.258a.485.485 0 01-.013.146 31.99 31.99 0 01-.068.687c.053.559.374.998.673 1.536.512.918 1.03 2.051.739 4.066-.19 1.318-.781 2.803-1.1 4.18-.274 1.185-.373 2.287.409 3.053.718.702 2.092 1.099 4.492 1.128 2.695.032 4.136-.514 4.852-1.292a2.235 2.235 0 00.246-.319c.562-.879.344-1.91.151-2.483a3.61 3.61 0 00-.156-.384.47.47 0 01-.092-.27.454.454 0 01.178-.388.466.466 0 01.339-.105.452.452 0 01.31.144c.017.018.085.101.158.256.146.312.433 1.098.42 1.996a53.297 53.297 0 001.898-2.101c.3-.349.44-.663.446-.963.009-.473-.288-.881-.63-1.279-.431-.5-.952-.97-1.305-1.44a4.091 4.091 0 01-.141-.201c-.255.999-.252 1.39-.252 1.39a.481.481 0 01-.961.025s-.025-.571.391-2.063a.492.492 0 01.125-.212 15.414 15.414 0 00.491-.51c.597-.656.904-1.165 1.004-1.674.124-.63-.069-1.241-.331-2.089-.395-1.278-.97-3.026-1.177-5.912-.164-1.46.424-4.568 1.308-8.641 2.024-9.317 5.561-23.81 4.512-34.992-1.082-7.191-.531-26.686.267-29.982l.013-.043c1.629-9.74 8.264-52.299 2.749-73.779-1.854-7.221-3.762-18.772-4.11-21.204-.349-2.435.29-24.946.656-29.906a.482.482 0 01.951-.071c1.821 8.029 8.304 22.824 10.453 30.374l.013.062c.981 6.674 5.858 15.265 6.915 16.53 1.048 1.254 9.289 13.251 10.732 18.98.23-.158.489-.284.781-.372a.48.48 0 01.276.921c-.656.197-1.058.696-1.33 1.284-.312.672-.457 1.461-.561 2.148-.16 1.053.027 2.362.199 3.888.272 2.417.524 5.351-.452 8.671a.483.483 0 01-.121.204c-1.129 1.129-1.724 1.994-1.993 2.661-.201.498-.205.851-.107 1.098a.755.755 0 00.156.244l3.436-2.577 2.139-5.348-.153-2.919a.48.48 0 11.96-.05l.159 3.024a.49.49 0 01-.034.204l-2.228 5.571a.487.487 0 01-.158.206l-1.726 1.294a.453.453 0 01-.035.11c-.855 1.902-.328 3.296.113 4.008l6.326-12.403.05-.261c.353-1.893 2.053-11.354 1.826-13.038-.177-1.321-2.867-14.518-5.582-23.699-1.143-3.865-2.273-7.013-3.233-8.199-.996-1.232-2.478-4.812-4.136-9.506-3.808-10.783-8.641-27.502-10.999-34.542-1.656-4.941-2.693-8.346-5.37-11.063-2.684-2.724-7.004-4.745-15.166-6.976l.127-.463-.143.458c-2.729-.851-4.69-1.646-5.822-3.478-1.089-1.76-1.421-4.526-.819-9.375zM91.96 305.712c-.086.461-.185.893-.296 1.293-.023.098-.347 1.258-2.806 3.187-.249.368-.356.667-.325.934.05.437.432.743.873 1.071.474.353 1.034.701 1.534 1.113.204.169.399.348.576.541.286-1.463.965-3.081 1.17-4.502.265-1.838-.26-2.822-.726-3.637zm11.176 7.803a.478.478 0 01-.299.045c.117.024.216 0 .299-.045zm.264-.438a.48.48 0 01-.161.367.441.441 0 00.161-.367v-.003.003zm-25.882-8.027c-.449.851-.967 1.83-.662 3.794.221 1.418.917 3.027 1.219 4.487.171-.189.358-.365.556-.531.497-.419 1.055-.775 1.527-1.135.441-.337.822-.649.869-1.089.027-.26-.074-.548-.31-.898-2.279-1.216-2.622-2.28-2.658-2.419a16.171 16.171 0 01-.541-2.209zm-11.093 8.06a.48.48 0 01-.241-.424.434.434 0 00.241.424zm33.84-22.092c-.754 7.947.115 12.423.733 15.513a.48.48 0 00.942-.188c-.606-3.035-1.458-7.43-.718-15.234a.481.481 0 00-.957-.091zm-4.886-.259c.718 3.523.414 11.451-1.155 15.139a.481.481 0 00.884.377c1.629-3.827 1.958-12.052 1.212-15.708a.48.48 0 00-.941.192zm-27.258-.06c.826 7.795.022 12.2-.551 15.241a.48.48 0 10.944.178c.584-3.097 1.404-7.582.563-15.52a.481.481 0 00-.956.101zm4.895-.596c-.705 3.664-.286 11.884 1.385 15.693a.481.481 0 10.88-.386c-1.61-3.671-2.001-11.594-1.321-15.126a.48.48 0 00-.944-.181zm15.215-24.025h.421v-.056l-.421.056zM58.77 255.084h.345v-.02l-.345.02zm83.77-73.902l-2.008 3.937c.121 2.76.545 4.225 1.041 4.983.226.347.452.515.657.575a.596.596 0 00.136.025l.174-9.52zm-117.198-.032l.174 9.539c.05 0 .104-.006.162-.021.205-.052.43-.21.656-.543.5-.741.926-2.19 1.048-4.945l.002-.028-2.042-4.002zm110.716-18.125c-1.873 2.356-4.605 8.215-5.15 9.427-.52 1.155-1.632 2.841-4.386 4.702.455.453.902.707 1.358.793.565.107 1.13-.048 1.711-.339 1.346-.674 2.751-2.054 4.336-3.245.438-.329 1.083-.34 1.723-.022.269.133.537.325.782.563a50.355 50.355 0 00-.161-1.626c-.183-1.625-.364-3.018-.195-4.14.117-.771.29-1.654.64-2.408.099-.215.213-.419.342-.609a.488.488 0 01-.016-.066c-.153-.852-.502-1.887-.984-3.03zm-104.208.027c-.568 1.355-.905 2.497-.842 3.245a.54.54 0 010 .09c.056.1.109.204.158.311.35.754.523 1.637.639 2.408.17 1.121-.011 2.515-.194 4.14-.046.404-.091.824-.13 1.258a2.68 2.68 0 01.448-.307c.649-.351 1.369-.373 1.96.085 1.578 1.222 2.994 2.62 4.354 3.301.59.295 1.164.451 1.738.343.463-.087.917-.345 1.379-.805-2.755-1.86-3.866-3.546-4.386-4.702-.533-1.184-3.444-7.288-5.124-9.367zm51.387-47.901v26.317a.48.48 0 10.961 0v-26.317a.481.481 0 10-.961 0zm3.338-23.626c.319 4.779 4.626 10.191 7.493 11.624a.48.48 0 10.43-.859c-2.669-1.335-6.667-6.38-6.964-10.829a.48.48 0 00-.959.064zm-7.689-.833c-.297 4.449-4.294 9.494-6.963 10.829a.48.48 0 10.43.859c2.867-1.433 7.173-6.845 7.492-11.624a.48.48 0 00-.959-.064zm21.484-32.061c.334-.318.722-.877 1.158-1.623.932-1.596 2.003-4.023 2.99-6.987 2.312-6.945 4.157-16.83 2.61-25.928-1.022-6.012-3.528-11.68-8.388-15.902-2.717-2.36-7.407-4.889-12.329-5.737-4.715-.812-9.653-.075-13.225 3.928a7.23 7.23 0 011.235.79c2.858 2.236 4.899 6.696 4.899 6.696a.48.48 0 01-.875.398s-1.916-4.224-4.617-6.337c-.837-.655-1.749-1.108-2.708-1.11-.949-.002-1.928.449-2.92 1.525-8.965 9.727-13.297 23.261.263 49.924 2.547-1.476 4.253-2.225 5.994-2.407 1.831-.191 3.71.245 6.667 1.181 4.519 1.43 7.188.433 9.618-.318 2.624-.81 4.989-1.362 8.834 1.202.181.122.523.434.794.705z" />
    </g>
</svg>