<svg width="240" height="204" style="--icon-color: transparent;" xmlns="http://www.w3.org/2000/svg"><path fill-rule="evenodd" clip-rule="evenodd" d="M205.697 204C226.916 182.355 240 152.705 240 120 240 53.726 186.274 0 120 0S0 53.726 0 120c0 32.705 13.084 62.355 34.303 84h171.394z" fill="var(--boy-background, #EDF6FD)"/><path fill-rule="evenodd" clip-rule="evenodd" d="M188 183h12l4 20h-12l-4-20z" fill="var(--boy-skin, #FEDDB8)" stroke="var(--boy-skin-outline, #333D48)" stroke-width="2"/><path opacity=".15" d="M190 189l10-2.5" stroke="var(--boy-skin-shadow, #1F262C)" stroke-width="2"/><path fill-rule="evenodd" clip-rule="evenodd" d="M142 153h9v50h-17v-22l-3 7-15-4c0-31 26-31 26-31zm34 0h-9v50h17v-22l3 7 15-4c0-31-26-31-26-31z" fill="var(--boy-shirt, #71B5F0)"/><path d="M151 153h1a1 1 0 00-1-1v1zm0 50v1a1 1 0 001-1h-1zm-17 0h-1a1 1 0 001 1v-1zm0-22h1a1 1 0 00-1.919-.394L134 181zm-3 7l-.258.966a1 1 0 001.177-.572L131 188zm-15-4h-1a1 1 0 00.742.966L116 184zm51-31v-1a1 1 0 00-1 1h1zm0 50h-1a1 1 0 001 1v-1zm17 0v1a1 1 0 001-1h-1zm0-22l.919-.394A1.001 1.001 0 00183 181h1zm3 7l-.919.394a1 1 0 001.177.572L187 188zm15-4l.258.966A1 1 0 00203 184h-1zm-51-32h-9v2h9v-2zm1 51v-50h-2v50h2zm-18 1h17v-2h-17v2zm-1-23v22h2v-22h-2zm-1.081 7.394l3-7-1.838-.788-3 7 1.838.788zm-16.177-3.428l15 4 .516-1.932-15-4-.516 1.932zM142 153l-.001-1h-.027l-.066.001a20.292 20.292 0 00-1.108.063c-.743.063-1.795.189-3.055.44-2.517.5-5.882 1.501-9.255 3.512C121.676 160.077 115 168.158 115 184h2c0-15.158 6.324-22.577 12.512-26.266 3.127-1.864 6.262-2.8 8.62-3.269a26.025 26.025 0 012.836-.408c.339-.029.603-.043.78-.05.088-.004.154-.005.197-.006l.046-.001H142.001l-.001-1zm25 1h9v-2h-9v2zm1 49v-50h-2v50h2zm16-1h-17v2h17v-2zm-1-21v22h2v-22h-2zm4.919 6.606l-3-7-1.838.788 3 7 1.838-.788zm13.823-4.572l-15 4 .516 1.932 15-4-.516-1.932zM176 153l-.001 1H176.009l.046.001c.043.001.109.002.197.006.177.007.441.021.78.05.68.058 1.658.174 2.836.408 2.358.469 5.493 1.405 8.62 3.269C194.676 161.423 201 168.842 201 184h2c0-15.842-6.676-23.923-13.488-27.984-3.373-2.011-6.738-3.012-9.255-3.512a27.795 27.795 0 00-3.055-.44 20.292 20.292 0 00-1.108-.063l-.066-.001h-.027l-.001 1z" fill="var(--boy-shirt-outline, #333D48)"/><path opacity=".15" d="M167 165l5 4" stroke="var(--boy-shirt-shadow, #1F262C)" stroke-width="3"/><path opacity=".15" fill-rule="evenodd" clip-rule="evenodd" d="M133 154h4l4 48h-8v-48z" fill="var(--boy-shirt-shadow, #1F262C)"/><path opacity=".15" d="M151 165l-5 4" stroke="var(--boy-shirt-shadow, #1F262C)" stroke-width="3"/><path fill="var(--boy-undershirt, #fff)" stroke="var(--boy-shirt-outline, #333D48)" stroke-width="2" d="M151 153h16v50h-16z"/><path fill-rule="evenodd" clip-rule="evenodd" d="M151 142v11s0 7 8 7 8-7 8-7v-11h-16z" fill="var(--boy-skin, #FEDDB8)" stroke="var(--boy-skin-outline, #333D48" stroke-width="2"/><path opacity=".15" d="M152 145s7 2 14 0" stroke="var(--boy-skin-shadow, #1F262C)" stroke-width="3"/><path fill-rule="evenodd" clip-rule="evenodd" d="M191 75v36h-4V75h4z" fill="var(--boy-hair, #5F7285)" stroke="var(--boy-hair-outline, #333D48)" stroke-width="2"/><path fill-rule="evenodd" clip-rule="evenodd" d="M131 116s0 28 28 28 28-28 28-28V80h-56v36z" fill="var(--boy-skin, #FEDDB8)" stroke="var(--boy-skin-outline, #333D48)" stroke-width="2"/><path d="M159 105v8s-3 0-3 3 3 3 3 3h1" stroke="var(--boy-skin-outline, #333D48)" stroke-width="2" stroke-linecap="round" stroke-linejoin="round"/><path d="M20 203h200" stroke="var(--boy-table-outline, #333D48)" stroke-width="2" stroke-linecap="round"/><path d="M62 158a5 5 0 015-5h62a5 5 0 015 5v39H62v-39z" fill="var(--boy-laptop, #D6DDE3)" stroke="var(--boy-laptop-outline, #333D48)" stroke-width="2"/><path fill-rule="evenodd" clip-rule="evenodd" d="M60 197c0 6 5.7 6 5.7 6h64.6s5.7 0 5.7-6H60z" fill="var(--boy-laptop, #D6DDE3" stroke="var(--boy-laptop-outline, #333D48)" stroke-width="2"/><circle cx="98" cy="175" r="4" fill="var(--boy-laptop-logo, #fff)" stroke="var(--boy-laptop-logo-outline, #333D48)" stroke-width="2"/><path fill-rule="evenodd" clip-rule="evenodd" d="M95.007 111c3.305 0 5.993-2.688 5.993-6.005V43H1v61.995A5.998 5.998 0 006.993 111H74l15 15v-15h6.007z" fill="var(--boy-browser-page, #fff)" stroke="var(--boy-browser-outline, #333D48)" stroke-width="2"/><path fill="var(--boy-browser-page-secondary, #D6DDE3)" d="M16 61h70v2H16zM16 67h35v2H16z"/><rect x="17" y="78" width="20" height="18" rx="2" fill="var(--boy-browser-page, #fff)" stroke="var(--boy-browser-page-secondary, #D6DDE3)" stroke-width="2"/><path d="M23 86l3 3 5-5" stroke="var(--boy-browser-page-primary, #71B5F0" stroke-width="2"/><rect x="41" y="78" width="20" height="18" rx="2" fill="var(--boy-browser-page, #fff)" stroke="var(--boy-browser-page-secondary, #D6DDE3)" stroke-width="2"/><path d="M48 84l6 6M54 84l-6 6" stroke="var(--boy-browser-page-primary, #71B5F0)" stroke-width="2"/><rect x="65" y="78" width="20" height="18" rx="2" fill="var(--boy-browser-page, #fff)" stroke="var(--boy-browser-page-secondary, #D6DDE3)" stroke-width="2"/><path d="M78 87l-3.5 3.5M78 87l-3.5-3.5M78 87h-7" stroke="var(--boy-browser-page-primary, #71B5F0)" stroke-width="2"/><path fill-rule="evenodd" clip-rule="evenodd" d="M1 40a6 6 0 016-6h88a6 6 0 016 6v3H1v-3z" fill="var(--boy-browser, #E7EBEF)" stroke="var(--boy-browser-outline, #333D48)" stroke-width="2"/><circle cx="7.5" cy="38.5" r="1.5" fill="var(--boy-browser-button-first, #FA514F)"/><circle cx="12.5" cy="38.5" r="1.5" fill="var(--boy-browser-button-second, #FFC037)"/><circle cx="17.5" cy="38.5" r="1.5" fill="var(--boy-browser-button-third, #2DC692)"/><path fill="var(--boy-browser-page-primary, #71B5F0)" d="M2 44h98v8H2z"/><path d="M141 103s2-2 8-2M178 103s-2-2-8-2" stroke="var(--boy-skin-outline, #333D48)" stroke-width="2" stroke-linecap="round"/><path fill-rule="evenodd" clip-rule="evenodd" d="M151 125h16s-.005 7-8.003 7C151 132 151 125 151 125z" fill="var(--boy-skin-outline, #333D48)" stroke="var(--boy-skin-outline, #333D48)" stroke-width="2"/><path fill-rule="evenodd" clip-rule="evenodd" d="M167 125h-16s0 2.1 1.314 4h13.369c1.315-1.9 1.317-4 1.317-4z" fill="var(--boy-teeth, #fff)"/><path d="M151 125v-1h-1v1h1zm16 0l1 .001.001-1.001H167v1zm-14.686 4l-.822.569.298.431h.524v-1zm13.369 0v1h.523l.299-.431-.822-.569zM151 126h16v-2h-16v2zm2.137 2.431c-.561-.811-.849-1.678-.995-2.354a7.033 7.033 0 01-.126-.809 5.5 5.5 0 01-.014-.216l-.002-.048v-.008.003l-1 .001-1 .001v.015l.001.028.002.092a8.65 8.65 0 00.184 1.362c.183.849.552 1.982 1.305 3.071l1.645-1.138zm-.823 1.569h13.369v-2h-13.369v2zM167 125l-1-.001v-.001-.001-.001-.001.008l-.002.048a6.585 6.585 0 01-.141 1.025c-.146.677-.435 1.543-.996 2.355l1.644 1.138c.754-1.088 1.124-2.221 1.307-3.07.092-.427.139-.79.163-1.05a6.058 6.058 0 00.024-.404l.001-.028v-.01-.003-.002-.001l-1-.001z" fill="var(--boy-skin-outline, #333D48"/><rect x="171" y="107" width="4" height="6" rx="2" fill="var(--boy-skin-outline, #333D48)"/><rect x="144" y="107" width="4" height="6" rx="2" fill="var(--boy-skin-outline, #333D48)"/><path opacity=".15" d="M184.098 86.166C179.39 87.818 172.65 89 163 89c-10 0-16-4-20-4s-12 0-12 10" stroke="var(--boy-skin-shadow, #1F262C)" stroke-width="4" stroke-linecap="round" stroke-linejoin="round"/><path fill-rule="evenodd" clip-rule="evenodd" d="M131 111h-4V84s0-16 12-14c0 0 0-14 20-14 26 0 36 18.5 36 19s0 13-32 13c-10 0-16-4-20-4s-12 0-12 10v17z" fill="var(--boy-hair, #5F7285)" stroke="var(--boy-hair-outline, #333D48)" stroke-width="2"/><path fill-rule="evenodd" clip-rule="evenodd" d="M124 111a7 7 0 017-7v14a7 7 0 01-7-7zm70 0a7 7 0 01-7 7v-14a7 7 0 017 7z" fill="var(--boy-skin, #FEDDB8)"/><path d="M131 104h1v-1h-1v1zm0 14v1h1v-1h-1zm56 0h-1v1h1v-1zm0-14v-1h-1v1h1zm-56-1a8 8 0 00-8 8h2a6 6 0 016-6v-2zm1 15v-14h-2v14h2zm-9-7a8 8 0 008 8v-2a6 6 0 01-6-6h-2zm64 8a8 8 0 008-8h-2a6 6 0 01-6 6v2zm-1-15v14h2v-14h-2zm9 7a8 8 0 00-8-8v2a6 6 0 016 6h2z" fill="var(--boy-skin-outline, #333D48)"/><path d="M169 74s8 1 13-3M162 80s10 2 18-2" stroke="var(--boy-hair-outline, #333D48)" stroke-width="2" stroke-linecap="round"/><path fill-rule="evenodd" clip-rule="evenodd" d="M146 148h5v15l-5 4-4-14 4-5zm26 0h-5v15l5 4 4-14-4-5z" fill="var(--boy-shirt, #71B5F0)"/><path d="M151 148h1v-1h-1v1zm-5 0v-1h-.481l-.3.375.781.625zm5 15l.625.781.375-.3V163h-1zm-5 4l-.962.275.413 1.445 1.174-.939L146 167zm-4-14l-.781-.625-.322.403.141.497L142 153zm25-5v-1h-1v1h1zm5 0l.781-.625-.3-.375H172v1zm-5 15h-1v.481l.375.3L167 163zm5 4l-.625.781 1.174.939.413-1.445L172 167zm4-14l.962.275.141-.497-.322-.403L176 153zm-25-6h-5v2h5v-2zm1 16v-15h-2v15h2zm-5.375 4.781l5-4-1.25-1.562-5 4 1.25 1.562zm-5.587-14.506l4 14 1.924-.55-4-14-1.924.55zm4.181-5.9l-4 5 1.562 1.25 4-5-1.562-1.25zM167 149h5v-2h-5v2zm1 14v-15h-2v15h2zm4.625 3.219l-5-4-1.25 1.562 5 4 1.25-1.562zm2.413-13.494l-4 14 1.924.55 4-14-1.924-.55zm-3.819-4.1l4 5 1.562-1.25-4-5-1.562 1.25z" fill="var(--boy-shirt-outline, #333D48)"/></svg>
