<svg xmlns="http://www.w3.org/2000/svg" viewBox="0 0 64 64"><path fill-rule="evenodd" clip-rule="evenodd" d="M50.6667 38.668C52.8759 38.668 54.6667 36.8771 54.6667 34.668C54.6667 32.4588 52.8759 30.668 50.6667 30.668C48.4576 30.668 46.6667 32.4588 46.6667 34.668C46.6667 36.8771 48.4576 38.668 50.6667 38.668ZM50.6667 36.0013C51.4031 36.0013 52.0001 35.4044 52.0001 34.668C52.0001 33.9316 51.4031 33.3346 50.6667 33.3346C49.9304 33.3346 49.3334 33.9316 49.3334 34.668C49.3334 35.4044 49.9304 36.0013 50.6667 36.0013Z"/><path fill-rule="evenodd" clip-rule="evenodd" d="M8.00008 4.0013H9.33341V2.66797H12.0001C13.4728 2.66797 14.6667 3.86188 14.6667 5.33464C14.6667 6.80739 13.4728 8.0013 12.0001 8.0013H9.33341V6.66797H8.00008C6.52732 6.66797 5.33341 7.86188 5.33341 9.33464V20.0013C5.33341 27.3651 11.303 33.3346 18.6667 33.3346C26.0305 33.3346 32.0001 27.3651 32.0001 20.0013V9.33464C32.0001 7.86188 30.8062 6.66797 29.3334 6.66797H28.0001V8.0013H25.3334C23.8607 8.0013 22.6667 6.80739 22.6667 5.33464C22.6667 3.86188 23.8607 2.66797 25.3334 2.66797H28.0001V4.0013H29.3334C32.2789 4.0013 34.6667 6.38912 34.6667 9.33464V20.0013C34.6667 28.3889 28.2128 35.269 20.0001 35.9465V45.3346C20.0001 53.4348 26.5666 60.0013 34.6667 60.0013C42.7669 60.0013 49.3334 53.4348 49.3334 45.3346V45.2521C44.0717 44.596 40.0001 40.1075 40.0001 34.668C40.0001 28.7769 44.7757 24.0013 50.6667 24.0013C56.5578 24.0013 61.3334 28.7769 61.3334 34.668C61.3334 40.1075 57.2618 44.596 52.0001 45.2521V45.3346C52.0001 54.9076 44.2397 62.668 34.6667 62.668C25.0938 62.668 17.3334 54.9076 17.3334 45.3346V35.9465C9.12071 35.269 2.66675 28.3889 2.66675 20.0013V9.33464C2.66675 6.38912 5.05456 4.0013 8.00008 4.0013ZM58.6667 34.668C58.6667 39.0863 55.085 42.668 50.6667 42.668C46.2485 42.668 42.6667 39.0863 42.6667 34.668C42.6667 30.2497 46.2485 26.668 50.6667 26.668C55.085 26.668 58.6667 30.2497 58.6667 34.668Z"/></svg>