<svg xmlns="http://www.w3.org/2000/svg" viewBox="0 0 64 64"><path fill-rule="evenodd" clip-rule="evenodd" d="M50.6667 38.668C52.8759 38.668 54.6667 36.8771 54.6667 34.668C54.6667 32.4588 52.8759 30.668 50.6667 30.668C48.4576 30.668 46.6667 32.4588 46.6667 34.668C46.6667 36.8771 48.4576 38.668 50.6667 38.668ZM50.6667 36.0013C51.4031 36.0013 52.0001 35.4044 52.0001 34.668C52.0001 33.9316 51.4031 33.3346 50.6667 33.3346C49.9304 33.3346 49.3334 33.9316 49.3334 34.668C49.3334 35.4044 49.9304 36.0013 50.6667 36.0013Z"/><path fill-rule="evenodd" clip-rule="evenodd" d="M8.00008 4.0013H9.33341V2.66797H12.0001C13.4728 2.66797 14.6667 3.86188 14.6667 5.33464C14.6667 6.80739 13.4728 8.0013 12.0001 8.0013H9.33341V6.66797H8.00008C6.52732 6.66797 5.33341 7.86188 5.33341 9.33464V20.0013C5.33341 27.3651 11.303 33.3346 18.6667 33.3346C26.0305 33.3346 32.0001 27.3651 32.0001 20.0013V9.33464C32.0001 7.86188 30.8062 6.66797 29.3334 6.66797H28.0001V8.0013H25.3334C23.8607 8.0013 22.6667 6.80739 22.6667 5.33464C22.6667 3.86188 23.8607 2.66797 25.3334 2.66797H28.0001V4.0013H29.3334C32.2789 4.0013 34.6667 6.38912 34.6667 9.33464V20.0013C34.6667 28.3889 28.2128 35.269 20.0001 35.9465V45.3346C20.0001 53.4348 26.5666 60.0013 34.6667 60.0013C42.7669 60.0013 49.3334 53.4348 49.3334 45.3346V45.2521C44.0717 44.596 40.0001 40.1075 40.0001 34.668C40.0001 28.7769 44.7757 24.0013 50.6667 24.0013C56.5578 24.0013 61.3334 28.7769 61.3334 34.668C61.3334 40.1075 57.2618 44.596 52.0001 45.2521V45.3346C52.0001 54.9076 44.2397 62.668 34.6667 62.668C25.0938 62.668 17.3334 54.9076 17.3334 45.3346V35.9465C9.12071 35.269 2.66675 28.3889 2.66675 20.0013V9.33464C2.66675 6.38912 5.05456 4.0013 8.00008 4.0013ZM58.6667 34.668C58.6667 39.0863 55.085 42.668 50.6667 42.668C46.2485 42.668 42.6667 39.0863 42.6667 34.668C42.6667 30.2497 46.2485 26.668 50.6667 26.668C55.085 26.668 58.6667 30.2497 58.6667 34.668Z"/><path d="M40.9606 15.3308V17.3346H50.3376V15.061H44.8141V14.9711L46.7345 13.0893C47.6379 12.2672 48.338 11.5629 48.8347 10.9763C49.3314 10.3854 49.676 9.84802 49.8687 9.36418C50.0657 8.88034 50.1642 8.39008 50.1642 7.8934C50.1642 7.13553 49.9693 6.4633 49.5797 5.8767C49.1901 5.29011 48.6441 4.83196 47.9419 4.50227C47.244 4.16829 46.4241 4.0013 45.4821 4.0013C44.5658 4.0013 43.7565 4.17471 43.0543 4.52153C42.3521 4.86835 41.8062 5.35861 41.4166 5.99231C41.0269 6.62601 40.8321 7.37317 40.8321 8.2338H43.4718C43.4718 7.81419 43.5532 7.45238 43.7159 7.14838C43.8786 6.84438 44.1098 6.61102 44.4095 6.44832C44.7092 6.28561 45.0603 6.20426 45.4628 6.20426C45.8482 6.20426 46.1928 6.28133 46.4968 6.43547C46.8009 6.58533 47.0406 6.80156 47.2162 7.08415C47.3917 7.36247 47.4795 7.6943 47.4795 8.07966C47.4795 8.42648 47.4089 8.74975 47.2676 9.04947C47.1263 9.34491 46.9186 9.64677 46.6446 9.95506C46.3748 10.2633 46.0408 10.6102 45.6426 10.9955L40.9606 15.3308Z"/><path fill-rule="evenodd" clip-rule="evenodd" d="M51.2062 12.8324V15.0225H57.5196V17.3346H60.1786V15.0225H61.8099V12.7939H60.1786V4.18114H56.6975L51.2062 12.8324ZM57.571 7.21261H57.4682L54.0064 12.6911V12.7939H57.571V7.21261Z"/></svg>