<svg xmlns="http://www.w3.org/2000/svg" viewBox="0 0 64 64"><path fill-rule="evenodd" clip-rule="evenodd" d="M29.9998 13.3346C28.8953 13.3346 27.9998 14.2301 27.9998 15.3346V18.668H24.6665C23.5619 18.668 22.6665 19.5634 22.6665 20.668V24.668C22.6665 25.7725 23.5619 26.668 24.6665 26.668H27.9998V30.0013C27.9998 31.1059 28.8953 32.0013 29.9998 32.0013H33.9998C35.1044 32.0013 35.9998 31.1059 35.9998 30.0013V26.668H39.3332C40.4377 26.668 41.3332 25.7725 41.3332 24.668V20.668C41.3332 19.5634 40.4377 18.668 39.3332 18.668H35.9998V15.3346C35.9998 14.2301 35.1044 13.3346 33.9998 13.3346H29.9998ZM25.3332 24.0013V21.3346H30.6665V16.0013H33.3332V21.3346H38.6665V24.0013H33.3332V29.3346H30.6665V24.0013H25.3332Z"/><path fill-rule="evenodd" clip-rule="evenodd" d="M61.3332 61.3346V58.668H55.9998V8.0013C55.9998 5.05578 53.612 2.66797 50.6665 2.66797H13.3332C10.3877 2.66797 7.99984 5.05578 7.99984 8.0013V58.668H2.6665V61.3346H61.3332ZM50.6665 5.33464H13.3332C11.8604 5.33464 10.6665 6.52854 10.6665 8.0013V58.668H18.6665V42.668C18.6665 41.1952 19.8604 40.0013 21.3332 40.0013H42.6665C44.1393 40.0013 45.3332 41.1952 45.3332 42.668V58.668H53.3332V8.0013C53.3332 6.52854 52.1393 5.33464 50.6665 5.33464ZM30.6665 58.668H21.3332V42.668H30.6665V58.668ZM33.3332 58.668H42.6665V42.668H33.3332V58.668Z"/></svg>
