<svg xmlns="http://www.w3.org/2000/svg" viewBox="0 0 64 64"><path d="M33.3332 0H30.6665V12H33.3332V0Z"/><path fill-rule="evenodd" clip-rule="evenodd" d="M14.193 24.4317L8.57127 50.6667H7.99984C5.05432 50.6667 2.6665 53.0545 2.6665 56V61.3333H61.3332V56C61.3332 53.0545 58.9454 50.6667 55.9998 50.6667H55.4284L49.8066 24.4317C48.7528 19.5136 44.4065 16 39.3767 16H24.6229C19.5932 16 15.2469 19.5136 14.193 24.4317ZM39.3767 18.6667H24.6229C20.8506 18.6667 17.5909 21.3019 16.8005 24.9904L11.2985 50.6667H30.6665V42.5561C26.8829 41.9213 23.9998 38.6307 23.9998 34.6667C23.9998 30.2484 27.5816 26.6667 31.9998 26.6667C36.4181 26.6667 39.9998 30.2484 39.9998 34.6667C39.9998 38.6307 37.1168 41.9213 33.3332 42.5561V50.6667H52.7012L47.1992 24.9904C46.4087 21.3019 43.149 18.6667 39.3767 18.6667ZM7.99984 53.3333H55.9998C57.4726 53.3333 58.6665 54.5272 58.6665 56V58.6667H5.33317V56C5.33317 54.5272 6.52708 53.3333 7.99984 53.3333ZM37.3332 34.6667C37.3332 37.6122 34.9454 40 31.9998 40C29.0543 40 26.6665 37.6122 26.6665 34.6667C26.6665 31.7211 29.0543 29.3333 31.9998 29.3333C34.9454 29.3333 37.3332 31.7211 37.3332 34.6667Z"/><path d="M51.9998 4.00004L54.3092 5.33337L48.9759 14.571L46.6665 13.2376L51.9998 4.00004Z"/><path d="M9.69044 5.42908L11.9998 4.09574L17.3332 13.3333L15.0238 14.6667L9.69044 5.42908Z"/></svg>
