<svg xmlns="http://www.w3.org/2000/svg" viewBox="0 0 48 48"><path d="M23.25 10.5V.75h1.5v9.75zM9.625 4.082l4.5 6.75-1.25.836-4.5-6.75zm30 .836l-4.5 6.75-1.25-.836 4.5-6.75zM17.352 15a5.252 5.252 0 00-5.215 4.652L9.84 39.75h13.41v-6.797A5.999 5.999 0 0118 27c0-3.313 2.688-6 6-6 3.313 0 6 2.688 6 6a5.999 5.999 0 01-5.25 5.953v6.797h13.41l-2.297-20.098A5.252 5.252 0 0030.648 15zm22.316 24.75l-2.316-20.266a6.746 6.746 0 00-6.704-5.984H17.352a6.746 6.746 0 00-6.704 5.984L8.332 39.75H7.5c-2.07 0-3.75 1.68-3.75 3.75V48h40.5v-4.5c0-2.07-1.68-3.75-3.75-3.75zM7.5 41.25a2.25 2.25 0 00-2.25 2.25v3h37.5v-3a2.25 2.25 0 00-2.25-2.25zM24 22.5a4.501 4.501 0 000 9 4.501 4.501 0 000-9zm0 0" fill-rule="evenodd"/></svg>
