<svg xmlns="http://www.w3.org/2000/svg" width="64" height="64" viewBox="0 0 48 48"><path d="M10 18c0 8.629 7.234 18.29 11.305 23.04C22.895 42.894 24 44 24 44s1.105-1.105 2.695-2.96C30.765 36.29 38 26.628 38 18c0-7.742-6.262-14-14-14s-14 6.258-14 14zm17.723 15.207A68.034 68.034 0 0124 38.031a68.034 68.034 0 01-3.723-4.824C16.847 28.305 14 22.684 14 18A9.99 9.99 0 0124 8a9.99 9.99 0 0110 10c0 4.684-2.848 10.305-6.277 15.207zm0 0" fill-rule="evenodd"/><path d="M28 18c0 2.21-1.79 4-4 4s-4-1.79-4-4a4 4 0 018 0zm0 0"/></svg>
