<svg width="160" height="160" style="--icon-color: transparent;" xmlns="http://www.w3.org/2000/svg"><circle cx="80" cy="80" r="80" fill="var(--lock-background, #FFE8B8)"/><path fill-rule="evenodd" clip-rule="evenodd" d="M80.1 42c-10.494 0-19 8.507-19 19v19c0 10.493 8.506 19 19 19 10.493 0 19-8.507 19-19V61c0-10.493-8.507-19-19-19zm0 8.143c-5.996 0-10.857 4.861-10.857 10.857v21.715c0 5.996 4.86 10.857 10.857 10.857 5.996 0 10.857-4.861 10.857-10.858V61c0-5.996-4.861-10.857-10.857-10.857z" fill="var(--lock-padlock-hasp, #E7EBEE)"/><path d="M62.1 61c0-9.941 8.059-18 18-18v-2c-11.046 0-20 8.954-20 20h2zm0 19V61h-2v19h2zm18 18c-9.941 0-18-8.059-18-18h-2c0 11.046 8.954 20 20 20v-2zm18-18c0 9.941-8.06 18-18 18v2c11.045 0 20-8.954 20-20h-2zm0-19v19h2V61h-2zm-18-18c9.94 0 18 8.059 18 18h2c0-11.046-8.955-20-20-20v2zm-9.857 18c0-5.444 4.413-9.857 9.857-9.857v-2c-6.549 0-11.857 5.309-11.857 11.857h2zm0 21.715V61h-2v21.715h2zm9.857 9.857c-5.444 0-9.857-4.414-9.857-9.858h-2c0 6.549 5.308 11.858 11.857 11.858v-2zm9.857-9.858c0 5.444-4.413 9.858-9.857 9.858v2c6.548 0 11.857-5.309 11.857-11.858h-2zm0-21.714v21.715h2V61h-2zM80.1 51.143c5.444 0 9.857 4.413 9.857 9.857h2c0-6.548-5.309-11.857-11.857-11.857v2z" fill="var(--lock-padlock-hasp-outline, #333D48)"/><rect x="53" y="62" width="54" height="54" rx="27" fill="var(--lock-padlock, #FFC037)" stroke="var(--lock-padlock-outline, #EBA100)" stroke-width="2"/><circle cx="80" cy="86" r="6" fill="var(--lock-padlock-lock, #333D48)"/><rect x="77" y="87" width="6" height="16" rx="2" fill="var(--lock-padlock-lock, #333D48)"/></svg>
