<svg xmlns="http://www.w3.org/2000/svg" style="--icon-color: transparent;" width="160" height="160"><mask id="a" width="160" height="160" x="0" y="0" maskUnits="userSpaceOnUse" style="mask-type:alpha"><path fill="#E7EBEF" d="M160 80c0-44.1828-35.817-80-80-80C35.8172 0 0 35.8172 0 80c0 44.183 35.8172 80 80 80 44.183 0 80-35.817 80-80Z"/></mask><g mask="url(#a)"><path fill="#E7EBEF" d="M160 0H0v160h160V0Z"/><path fill="#333D48" d="M160 52H80c-16.8016 0-25.2024 0-31.6197 3.2698-5.6449 2.8762-10.2343 7.4656-13.1105 13.1105C32 74.7976 32 83.1984 32 100v60h128V52Z"/><path fill="#475463" d="M160 54H78.8c-15.6815 0-23.5222 0-29.5117 3.0518-5.2686 2.6845-9.552 6.9679-12.2365 12.2365C34 75.2778 34 83.1185 34 98.8V160h126V54Z"/><path fill="#333D48" d="M160 90H71.6c-8.9608 0-13.4413 0-16.8638 1.7439-3.0106 1.534-5.4583 3.9817-6.9923 6.9923C46 102.159 46 106.639 46 115.6V160h114V90Z"/><path fill="#2F91EA" d="M160 124H48v36h112z"/><path fill="#1471C9" d="M160 92H70.4c-7.8407 0-11.7611 0-14.7559 1.5259-2.6342 1.3422-4.776 3.484-6.1182 6.1182C48 102.639 48 106.559 48 114.4v9.6h112V92Z"/><path fill="#fff" fill-rule="evenodd" d="M64.3203 113.531h-1.4531v-9.633l-2.9141 1.071v-1.313l4.1407-1.554h.2265v11.429Zm11.3672-4.851c0 1.692-.2891 2.95-.8672 3.773s-1.4818 1.235-2.7109 1.235c-1.2136 0-2.112-.403-2.6953-1.208-.5834-.804-.8855-2.006-.9063-3.605v-1.93c0-1.672.2891-2.914.8672-3.726.5781-.813 1.4844-1.219 2.7188-1.219 1.2239 0 2.1249.392 2.7031 1.176.5781.784.875 1.993.8906 3.629v1.875Zm-1.4453-1.977c0-1.224-.1719-2.116-.5156-2.676-.3438-.56-.8881-.839-1.6328-.839-.7396 0-1.2787.278-1.6172.835-.3386.558-.5131 1.414-.5235 2.571v2.312c0 1.229.1784 2.137.5352 2.723.3568.586.8971.879 1.6211.879.7135 0 1.2435-.276 1.5898-.828.3464-.552.5274-1.422.543-2.61v-2.367Zm3.3984 6.07c0-.25.0742-.458.2227-.625.1484-.166.3711-.25.6679-.25.2969 0 .5222.084.6758.25.1537.167.2305.375.2305.625 0 .24-.0768.441-.2305.602-.1536.161-.3789.242-.6758.242-.2968 0-.5195-.081-.6679-.242-.1485-.161-.2227-.362-.2227-.602Zm.0078-6.898c0-.25.0743-.458.2227-.625.1484-.167.3711-.25.668-.25.2968 0 .5221.083.6757.25.1537.167.2305.375.2305.625 0 .24-.0768.44-.2305.602-.1536.161-.3789.242-.6757.242-.2969 0-.5196-.081-.668-.242-.1484-.162-.2227-.362-.2227-.602Zm4.4297 1.953.5781-5.672h5.8282v1.336h-4.6016l-.3437 3.102c.5573-.328 1.1901-.492 1.8984-.492 1.0365 0 1.8594.342 2.4687 1.027.6094.685.9141 1.611.9141 2.777 0 1.172-.3164 2.095-.9492 2.77-.6328.674-1.5169 1.012-2.6523 1.012-1.0053 0-1.8256-.279-2.461-.836-.6354-.558-.9974-1.329-1.0859-2.313h1.3672c.0885.651.3203 1.142.6953 1.473.375.33.8698.496 1.4844.496.6718 0 1.1992-.229 1.582-.688.3828-.458.5742-1.091.5742-1.898 0-.761-.207-1.371-.6211-1.832-.4141-.461-.9648-.692-1.6523-.692-.6302 0-1.125.138-1.4844.414l-.3828.313-1.1563-.297Zm13.9922-5.68v1.227h-.2656c-1.125.021-2.0208.354-2.6875 1-.6667.646-1.0521 1.555-1.1563 2.727.599-.688 1.4167-1.032 2.4532-1.032.9896 0 1.7799.349 2.3711 1.047.5911.698.8867 1.599.8867 2.703 0 1.172-.319 2.11-.9571 2.813-.638.703-1.4934 1.055-2.5664 1.055-1.0885 0-1.9713-.418-2.6484-1.254-.6771-.836-1.0156-1.913-1.0156-3.231v-.555c0-2.093.4466-3.694 1.3398-4.8.8933-1.107 2.2227-1.674 3.9883-1.7h.2578Zm-1.8984 5.125c-.4948 0-.9505.149-1.3672.446-.4167.297-.7057.669-.8672 1.117v.531c0 .938.2109 1.693.6328 2.266.4219.573.9479.859 1.5781.859.6511 0 1.1628-.239 1.5352-.719.3724-.479.5586-1.106.5586-1.882 0-.782-.1888-1.413-.5664-1.895-.3776-.482-.8789-.723-1.5039-.723Z" clip-rule="evenodd"/><path fill="#fff" d="m129.844 104 .289-.341C127.432 101.935 124.288 101 121 101c-3.288 0-6.432.935-9.133 2.659L121 114.452l3-3.546v3.097l-3 3.545-12-14.263.798-.633C113.026 100.292 116.917 99 121 99s7.974 1.292 11.202 3.652l.798.633-3 3.607V104h-.156Z"/><path fill="#fff" d="M126 106h2v7h-2zm0 9h2v2h-2z"/></g></svg>