<svg width="240" height="204" style="--icon-color: transparent;" xmlns="http://www.w3.org/2000/svg"><path fill-rule="evenodd" clip-rule="evenodd" d="M205.697 204C226.916 182.355 240 152.705 240 120 240 53.726 186.274 0 120 0S0 53.726 0 120c0 32.705 13.084 62.355 34.303 84h171.394z" fill="var(--podium-background, #FFF4DB)"/><path fill-rule="evenodd" clip-rule="evenodd" d="M48 149v54h48v-54H48h48v-8H48s-4 0-4 4 4 4 4 4z" fill="var(--podium-second, #E7EBEF)"/><path d="M48 149v54h48v-54H48h48v-8H48s-4 0-4 4 4 4 4 4v0z" stroke="var(--podium-outline, #333D48)" stroke-width="2"/><path fill="var(--podium-third, #BE8200)" stroke="var(--podium-outline, #333D48)" stroke-width="2" d="M144 159h48v44h-48z"/><path fill-rule="evenodd" clip-rule="evenodd" d="M144 151h48s4 0 4 4-4 4-4 4h-48v-8z" fill="var(--podium-third, #BE8200)" stroke="var(--podium-outline, #333D48)" stroke-width="2"/><path fill-rule="evenodd" clip-rule="evenodd" d="M77.93 184H66.457v-1.957l5.684-6.199c.82-.914 1.404-1.678 1.752-2.291.347-.614.521-1.229.521-1.846 0-.812-.228-1.469-.686-1.969-.456-.5-1.072-.75-1.845-.75-.922 0-1.637.282-2.145.844-.507.563-.761 1.332-.761 2.309h-2.848c0-1.039.236-1.975.709-2.807a4.875 4.875 0 012.027-1.939c.88-.461 1.893-.692 3.041-.692 1.656 0 2.963.416 3.92 1.248.957.832 1.436 1.983 1.436 3.451 0 .852-.24 1.744-.721 2.678-.48.934-1.268 1.994-2.361 3.182l-4.172 4.465h7.922V184zM165.75 181.168h1.734c.875-.008 1.569-.234 2.08-.68.512-.445.768-1.09.768-1.933 0-.813-.213-1.444-.639-1.893-.425-.449-1.076-.674-1.951-.674-.765 0-1.394.221-1.887.662-.492.442-.738 1.018-.738 1.729h-2.847c0-.875.232-1.672.697-2.391.465-.718 1.113-1.279 1.945-1.681.832-.403 1.764-.604 2.795-.604 1.703 0 3.041.428 4.014 1.283.972.856 1.459 2.045 1.459 3.569 0 .765-.244 1.486-.733 2.162a4.592 4.592 0 01-1.892 1.529c.937.32 1.65.824 2.138 1.512.489.687.733 1.508.733 2.461 0 1.531-.526 2.75-1.576 3.656-1.051.906-2.432 1.359-4.143 1.359-1.641 0-2.984-.437-4.031-1.312-1.047-.875-1.571-2.039-1.571-3.492h2.848c0 .75.252 1.359.756 1.828.504.469 1.182.703 2.033.703.883 0 1.578-.234 2.086-.703.508-.469.762-1.149.762-2.039 0-.899-.266-1.59-.797-2.074-.531-.485-1.32-.727-2.367-.727h-1.676v-2.25z" fill="var(--podium-text, #333D48)"/><path opacity=".1" fill-rule="evenodd" clip-rule="evenodd" d="M49 150h46v8c-23-8-46-8-46-8zM145 160h46v8c-23-8-46-8-46-8z" fill="var(--podium-shadow, #333D48)"/><path d="M86 55c0 17.329 12.964 31.63 29.722 33.734L120 99l4.278-10.266C141.036 86.63 154 72.329 154 55c0-18.778-15.222-34-34-34S86 36.222 86 55z" fill="var(--podium-message, #fff)" stroke="var(--podium-message-outline, #333D48)" stroke-width="2"/><path fill-rule="evenodd" clip-rule="evenodd" d="M96 203h48v-74H96h48s4 0 4-4-4-4-4-4H96s-4 0-4 4 4 4 4 4v74z" fill="var(--podium-first, #FFC037)" stroke="var(--podium-outline, #333D48)" stroke-width="2"/><path d="M20 203h200" stroke="var(--podium-floor, #333D48)" stroke-width="2" stroke-linecap="round"/><path fill-rule="evenodd" clip-rule="evenodd" d="M122.168 174h-2.836v-13.699l-4.184 1.429v-2.402l6.657-2.449h.363V174z" fill="var(--podium-text, #333D48)"/><path opacity=".1" fill-rule="evenodd" clip-rule="evenodd" d="M97 130h46v8c-23-8-46-8-46-8z" fill="var(--podium-shadow, #333D48)"/><path d="M105 48h30M105 56h30M105 64h20" stroke="var(--podium-message-text, #333D48)" stroke-width="2"/></svg>
