<svg xmlns="http://www.w3.org/2000/svg" width="64" height="64" viewBox="0 0 48 48"><path d="M40 22c0 1-.453 2.402-3.648 4-1.301.652-2.692 1.117-4.352 1.434v3.957c7.848-1.336 12-4.77 12-9.391 0-6-8.953-10-20-10S4 16 4 22c0 5.43 5.73 9.219 16.45 9.895l-3.762 3.761 2.828 2.828L28 30l-8.484-8.484-2.828 2.828 3.566 3.57c-3.79-.203-6.332-.777-8.606-1.914C8.453 24.402 8 23 8 22s.453-2.402 3.648-4c2.954-1.477 7.317-2 12.352-2s9.398.523 12.352 2C39.547 19.598 40 21 40 22zm0 0" fill-rule="evenodd"/></svg>
