<svg xmlns="http://www.w3.org/2000/svg" viewBox="0 0 64 64"><path fill-rule="evenodd" clip-rule="evenodd" d="M26.667 21.332C25.1943 21.332 24.0004 22.5259 24.0004 23.9987V31.9987C24.0004 33.4715 25.1943 34.6654 26.667 34.6654H37.3337C38.8065 34.6654 40.0004 33.4715 40.0004 31.9987V23.9987C40.0004 22.5259 38.8065 21.332 37.3337 21.332H26.667ZM37.3337 23.9987H26.667V31.9987H37.3337V23.9987Z"/><path fill-rule="evenodd" clip-rule="evenodd" d="M62.2304 28.8141L52.0004 19.5141V5.33203C52.0004 3.85927 50.8065 2.66536 49.3337 2.66536H44.0004C42.5276 2.66536 41.3337 3.85927 41.3337 5.33203V9.8171L32.0001 1.33203L1.7699 28.8141L3.56369 30.7872L8.00037 26.7539V55.9987C8.00037 58.9442 10.3882 61.332 13.3337 61.332H50.667C53.6126 61.332 56.0004 58.9442 56.0004 55.9987V26.7543L60.4366 30.7872L62.2304 28.8141ZM53.3337 24.3301L32.0001 4.93593L10.667 24.3297V55.9987C10.667 57.4715 11.8609 58.6654 13.3337 58.6654H24.0004V42.6654C24.0004 41.1926 25.1943 39.9987 26.667 39.9987H37.3337C38.8065 39.9987 40.0004 41.1926 40.0004 42.6654V58.6654H50.667C52.1398 58.6654 53.3337 57.4715 53.3337 55.9987V24.3301ZM37.3337 58.6654V42.6654H26.667V58.6654H37.3337ZM49.3337 5.33203V17.0898L44.0004 12.2413V5.33203H49.3337Z"/></svg>