<svg xmlns="http://www.w3.org/2000/svg" width="64" height="64" viewBox="0 0 48 48"><path d="M47.781 24.969l-8.031-8.032V7.5a2.25 2.25 0 00-2.25-2.25h-3a2.25 2.25 0 00-2.25 2.25v1.938L24 1.19.219 24.97 1.28 26.03 24 3.313 46.719 26.03zM38.25 7.5v7.938l-4.5-4.5V7.5a.75.75 0 01.75-.75h3a.75.75 0 01.75.75zm-18 13.5a.75.75 0 01.75-.75h6a.75.75 0 01.75.75v3a.75.75 0 01-.75.75h-6a.75.75 0 01-.75-.75zm.75-2.25A2.25 2.25 0 0018.75 21v3A2.25 2.25 0 0021 26.25h6A2.25 2.25 0 0029.25 24v-3A2.25 2.25 0 0027 18.75zm-15.75 6V43.5a3 3 0 003 3H18a1.5 1.5 0 001.5-1.5v-6.75a4.501 4.501 0 019 0V45a1.5 1.5 0 001.5 1.5h9.75a3 3 0 003-3V24.75h-1.5V43.5a1.5 1.5 0 01-1.5 1.5H30v-6.75c0-3.313-2.688-6-6-6-3.313 0-6 2.688-6 6V45H8.25a1.5 1.5 0 01-1.5-1.5V24.75zm0 0" fill-rule="evenodd"/></svg>
