<svg xmlns="http://www.w3.org/2000/svg" width="64" height="64" viewBox="0 0 48 48"><path d="M12 0a5 5 0 00-5 5v2c0 1.129.375 2.172 1.008 3.008-4.41.203-7.852 3.96-7.617 8.414l.41 7.84a5.007 5.007 0 003.691 4.566c.082 2.988.301 5.973.653 8.945l.55 4.696A4.003 4.003 0 009.668 48h4.664a4.003 4.003 0 003.973-3.531l.55-4.696c.766-6.488.899-13.03.395-19.546l-.11-1.45c.114.051.235.102.364.153 1.176.468 2.832.93 4.969 1.043l.328 6.289a5.007 5.007 0 003.691 4.566c.082 2.988.301 5.973.653 8.945l.55 4.696A4.003 4.003 0 0033.668 48h4.664a4.003 4.003 0 003.973-3.531l.55-4.696c.352-2.972.57-5.957.653-8.945a5.007 5.007 0 003.691-4.566l.41-7.84c.235-4.453-3.207-8.211-7.617-8.414A4.968 4.968 0 0041 7V5a5 5 0 10-10 0v2c0 1.129.375 2.172 1.008 3.008a7.974 7.974 0 00-5.211 2.262c-.719.46-1.527.566-2.395.433-.933-.14-1.886-.555-2.715-1.027C20.13 10.789 18.302 10 16.313 10H16c.629-.836 1-1.875 1-3V5a5 5 0 00-5-5zm16.078 13.816l.004-.004A5.967 5.967 0 0132.379 12H35V9.828A3.001 3.001 0 0133 7V5a3 3 0 016 0v2a3.001 3.001 0 01-2 2.828V12h2.621a6.002 6.002 0 015.992 6.316l-.414 7.84a2.996 2.996 0 01-1.652 2.528c.02-2.82-.078-5.641-.297-8.457l-.254-3.305-1.992.156.254 3.3a99.065 99.065 0 01-.387 19.161l-.55 4.695A2.002 2.002 0 0138.331 46H37V28h-2v18h-1.332a2.002 2.002 0 01-1.988-1.766l-.551-4.695a99.065 99.065 0 01-.387-19.16l.254-3.3-1.992-.157-.254 3.305a100.224 100.224 0 00-.297 8.457 3.004 3.004 0 01-1.652-2.528l-.414-7.84a5.964 5.964 0 011.691-4.5zm-3.015.942a7.086 7.086 0 01-.961-.078c-1.274-.192-2.465-.73-3.407-1.266C19.25 12.59 17.785 12 16.312 12H13V9.828c1.164-.41 2-1.523 2-2.828V5a3 3 0 00-6 0v2c0 1.305.836 2.418 2 2.828V12H8.379a6.002 6.002 0 00-5.992 6.316l.414 7.84a2.996 2.996 0 001.652 2.528c-.02-2.82.078-5.641.297-8.457l.254-3.305 1.992.156-.254 3.3a99.112 99.112 0 00.387 19.165l.55 4.691A2.002 2.002 0 009.669 46H11V28h2v18h1.332a2.002 2.002 0 001.988-1.766l.551-4.691c.746-6.36.879-12.777.387-19.164l-.254-3.3 1.617-.86h.004-.004v-.004l.008.008c.012.007.031.023.062.043.059.043.157.109.293.187.27.164.692.39 1.262.617.953.383 2.328.774 4.133.895a7.919 7.919 0 01.683-3.207zm0 0" fill-rule="evenodd"/></svg>
