<svg xmlns="http://www.w3.org/2000/svg" width="64" height="64" viewBox="0 0 64 64"><path d="M40 56a5.331 5.331 0 0 1-5.332 5.332C28.778 61.332 24 56.559 24 50.668v-8H10.668a5.338 5.338 0 0 1-5.336-5.336V24.738c0-.965.266-1.914.762-2.742l6.843-11.406A5.33 5.33 0 0 1 17.508 8h23.208a5.33 5.33 0 0 1 4.617-2.668h5.336A5.335 5.335 0 0 1 56 10.668v24A5.331 5.331 0 0 1 50.668 40h-7.262L40 48.512Zm0-21.848v-20.82H17.508l-6.84 11.406v12.594H24a5.335 5.335 0 0 1 5.332 5.336v8A5.335 5.335 0 0 0 34.668 56v-7.488c0-.676.129-1.348.379-1.98Zm5.332.516h5.336v-24h-5.336Zm0 0"/></svg>