<svg xmlns="http://www.w3.org/2000/svg" width="64" height="64" viewBox="0 0 64 64"><path d="M24 8a5.331 5.331 0 0 1 5.332-5.332C35.222 2.668 40 7.441 40 13.332v8h13.332a5.338 5.338 0 0 1 5.336 5.336v12.594c0 .965-.266 1.914-.762 2.742L51.063 53.41a5.33 5.33 0 0 1-4.57 2.59H23.284a5.33 5.33 0 0 1-4.617 2.668h-5.336A5.335 5.335 0 0 1 8 53.332v-24A5.331 5.331 0 0 1 13.332 24h7.262L24 15.488Zm0 21.848v20.82h22.492l6.84-11.406V26.668H40a5.335 5.335 0 0 1-5.332-5.336v-8A5.335 5.335 0 0 0 29.332 8v7.488c0 .676-.129 1.348-.379 1.98Zm-5.332-.516h-5.336v24h5.336Zm0 0"/></svg>