<svg width="240" height="204" viewBox="0 0 240 204" fill="none" xmlns="http://www.w3.org/2000/svg">
<path fill-rule="evenodd" clip-rule="evenodd" d="M205.697 204C226.916 182.355 240 152.705 240 120C240 53.7258 186.274 0 120 0C53.7258 0 0 53.7258 0 120C0 152.705 13.0838 182.355 34.3028 204H205.697Z" fill="#FFF4DB"/>
<path fill-rule="evenodd" clip-rule="evenodd" d="M48 149V203H96V149H48H96V141H48C48 141 44 141 44 145C44 149 47.9998 149 48 149Z" fill="#E7EBEF"/>
<path d="M48 149V203H96V149H48H96V141H48C48 141 44 141 44 145C44 149 47.9998 149 48 149V149Z" stroke="#333D48" stroke-width="2"/>
<rect x="144" y="159" width="48" height="44" fill="#BE8200" stroke="#333D48" stroke-width="2"/>
<path fill-rule="evenodd" clip-rule="evenodd" d="M144 151H192C192 151 196 151 196 155C196 159 192 159 192 159H144V151Z" fill="#BE8200" stroke="#333D48" stroke-width="2"/>
<path fill-rule="evenodd" clip-rule="evenodd" d="M77.9297 184H66.457V182.043L72.1406 175.844C72.9609 174.93 73.5449 174.166 73.8926 173.553C74.2402 172.939 74.4141 172.324 74.4141 171.707C74.4141 170.895 74.1855 170.238 73.7285 169.738C73.2715 169.238 72.6563 168.988 71.8828 168.988C70.9609 168.988 70.2461 169.27 69.7383 169.832C69.2305 170.395 68.9766 171.164 68.9766 172.141H66.1289C66.1289 171.102 66.3652 170.166 66.8379 169.334C67.3105 168.502 67.9863 167.855 68.8652 167.395C69.7441 166.934 70.7578 166.703 71.9062 166.703C73.5625 166.703 74.8691 167.119 75.8262 167.951C76.7832 168.783 77.2617 169.934 77.2617 171.402C77.2617 172.254 77.0215 173.146 76.541 174.08C76.0605 175.014 75.2734 176.074 74.1797 177.262L70.0078 181.727H77.9297V184Z" fill="#333D48"/>
<path fill-rule="evenodd" clip-rule="evenodd" d="M165.75 181.168H167.484C168.359 181.16 169.053 180.934 169.564 180.488C170.076 180.043 170.332 179.398 170.332 178.555C170.332 177.742 170.119 177.111 169.693 176.662C169.268 176.213 168.617 175.988 167.742 175.988C166.977 175.988 166.348 176.209 165.855 176.65C165.363 177.092 165.117 177.668 165.117 178.379H162.27C162.27 177.504 162.502 176.707 162.967 175.988C163.432 175.27 164.08 174.709 164.912 174.307C165.744 173.904 166.676 173.703 167.707 173.703C169.41 173.703 170.748 174.131 171.721 174.986C172.693 175.842 173.18 177.031 173.18 178.555C173.18 179.32 172.936 180.041 172.447 180.717C171.959 181.393 171.328 181.902 170.555 182.246C171.492 182.566 172.205 183.07 172.693 183.758C173.182 184.445 173.426 185.266 173.426 186.219C173.426 187.75 172.9 188.969 171.85 189.875C170.799 190.781 169.418 191.234 167.707 191.234C166.066 191.234 164.723 190.797 163.676 189.922C162.629 189.047 162.105 187.883 162.105 186.43H164.953C164.953 187.18 165.205 187.789 165.709 188.258C166.213 188.727 166.891 188.961 167.742 188.961C168.625 188.961 169.32 188.727 169.828 188.258C170.336 187.789 170.59 187.109 170.59 186.219C170.59 185.32 170.324 184.629 169.793 184.145C169.262 183.66 168.473 183.418 167.426 183.418H165.75V181.168Z" fill="#333D48"/>
<path opacity="0.1" fill-rule="evenodd" clip-rule="evenodd" d="M49 150L95 150V158C72 150 49 150 49 150Z" fill="#333D48"/>
<path opacity="0.1" fill-rule="evenodd" clip-rule="evenodd" d="M145 160H191V168C168 160 145 160 145 160Z" fill="#333D48"/>
<path d="M86 55C86 72.3288 98.9639 86.6298 115.722 88.7335L120 99L124.278 88.7335C141.036 86.6298 154 72.3288 154 55C154 36.2223 138.778 21 120 21C101.222 21 86 36.2223 86 55Z" fill="white" stroke="#333D48" stroke-width="2"/>
<path fill-rule="evenodd" clip-rule="evenodd" d="M96 203H144V129H96H144C144 129 148 129 148 125C148 121 144 121 144 121L96 121C96 121 92 121 92 125C92 129 95.9998 129 96 129V203Z" fill="#FFC037" stroke="#333D48" stroke-width="2"/>
<path d="M20 203H220" stroke="#333D48" stroke-width="2" stroke-linecap="round"/>
<path fill-rule="evenodd" clip-rule="evenodd" d="M122.168 174H119.332V160.301L115.148 161.73V159.328L121.805 156.879H122.168V174Z" fill="#333D48"/>
<path opacity="0.1" fill-rule="evenodd" clip-rule="evenodd" d="M97 130L143 130V138C120 130 97 130 97 130Z" fill="#333D48"/>
<path d="M105 48H135" stroke="#333D48" stroke-width="2"/>
<path d="M105 56H135" stroke="#333D48" stroke-width="2"/>
<path d="M105 64H125" stroke="#333D48" stroke-width="2"/>
</svg>
