<svg width="240" height="204" viewBox="0 0 240 204" fill="none" xmlns="http://www.w3.org/2000/svg">
<path fill-rule="evenodd" clip-rule="evenodd" d="M205.697 204C226.916 182.355 240 152.705 240 120C240 53.7258 186.274 0 120 0C53.7258 0 0 53.7258 0 120C0 152.705 13.0838 182.355 34.3028 204H205.697Z" fill="#EDF6FD"/>
<path fill-rule="evenodd" clip-rule="evenodd" d="M188 183H200L204 203H192L188 183Z" fill="#FEDDB8" stroke="#333D48" stroke-width="2"/>
<path opacity="0.15" d="M190 189L200 186.5" stroke="#1F262C" stroke-width="2"/>
<path fill-rule="evenodd" clip-rule="evenodd" d="M142 153H151V203H134V181L131 188L116 184C116 153 142 153 142 153ZM176 153H167V203H184V181L187 188L202 184C202 153 176 153 176 153Z" fill="#71B5F0"/>
<path d="M151 153H152C152 152.448 151.552 152 151 152V153ZM151 203V204C151.552 204 152 203.552 152 203H151ZM134 203H133C133 203.552 133.448 204 134 204V203ZM134 181H135C135 180.525 134.666 180.116 134.201 180.02C133.736 179.925 133.268 180.17 133.081 180.606L134 181ZM131 188L130.742 188.966C131.222 189.094 131.723 188.85 131.919 188.394L131 188ZM116 184H115C115 184.453 115.305 184.85 115.742 184.966L116 184ZM167 153V152C166.448 152 166 152.448 166 153H167ZM167 203H166C166 203.552 166.448 204 167 204V203ZM184 203V204C184.552 204 185 203.552 185 203H184ZM184 181L184.919 180.606C184.732 180.17 184.264 179.925 183.799 180.02C183.334 180.116 183 180.525 183 181H184ZM187 188L186.081 188.394C186.277 188.85 186.778 189.094 187.258 188.966L187 188ZM202 184L202.258 184.966C202.695 184.85 203 184.453 203 184H202ZM151 152H142V154H151V152ZM152 203V153H150V203H152ZM134 204H151V202H134V204ZM133 181V203H135V181H133ZM131.919 188.394L134.919 181.394L133.081 180.606L130.081 187.606L131.919 188.394ZM115.742 184.966L130.742 188.966L131.258 187.034L116.258 183.034L115.742 184.966ZM142 153C142 152 141.999 152 141.999 152C141.998 152 141.997 152 141.996 152C141.995 152 141.993 152 141.991 152C141.986 152 141.98 152 141.972 152C141.956 152 141.934 152.001 141.906 152.001C141.85 152.002 141.771 152.004 141.668 152.008C141.464 152.016 141.169 152.033 140.798 152.064C140.055 152.127 139.003 152.253 137.743 152.504C135.226 153.004 131.861 154.005 128.488 156.016C121.676 160.077 115 168.158 115 184H117C117 168.842 123.324 161.423 129.512 157.734C132.639 155.87 135.774 154.934 138.132 154.465C139.31 154.231 140.288 154.115 140.968 154.057C141.307 154.028 141.571 154.014 141.748 154.007C141.836 154.003 141.902 154.002 141.945 154.001C141.966 154 141.981 154 141.991 154C141.995 154 141.998 154 142 154C142.001 154 142.001 154 142.001 154C142.001 154 142.001 154 142.001 154C142 154 142 154 142 153ZM167 154H176V152H167V154ZM168 203V153H166V203H168ZM184 202H167V204H184V202ZM183 181V203H185V181H183ZM187.919 187.606L184.919 180.606L183.081 181.394L186.081 188.394L187.919 187.606ZM201.742 183.034L186.742 187.034L187.258 188.966L202.258 184.966L201.742 183.034ZM176 153C176 154 176 154 175.999 154C175.999 154 175.999 154 175.999 154C175.999 154 175.999 154 176 154C176.002 154 176.005 154 176.009 154C176.019 154 176.034 154 176.055 154.001C176.098 154.002 176.164 154.003 176.252 154.007C176.429 154.014 176.693 154.028 177.032 154.057C177.712 154.115 178.69 154.231 179.868 154.465C182.226 154.934 185.361 155.87 188.488 157.734C194.676 161.423 201 168.842 201 184H203C203 168.158 196.324 160.077 189.512 156.016C186.139 154.005 182.774 153.004 180.257 152.504C178.997 152.253 177.945 152.127 177.202 152.064C176.831 152.033 176.536 152.016 176.332 152.008C176.229 152.004 176.15 152.002 176.094 152.001C176.066 152.001 176.044 152 176.028 152C176.02 152 176.014 152 176.009 152C176.007 152 176.005 152 176.004 152C176.003 152 176.002 152 176.001 152C176.001 152 176 152 176 153Z" fill="#333D48"/>
<path opacity="0.15" d="M167 165L172 169" stroke="#1F262C" stroke-width="3"/>
<path opacity="0.15" fill-rule="evenodd" clip-rule="evenodd" d="M133 154H137L141 202H133V154Z" fill="#1F262C"/>
<path opacity="0.15" d="M151 165L146 169" stroke="#1F262C" stroke-width="3"/>
<rect x="151" y="153" width="16" height="50" fill="white" stroke="#333D48" stroke-width="2"/>
<path fill-rule="evenodd" clip-rule="evenodd" d="M151 142L151 153C151 153 151 160 159 160C167 160 167 153 167 153V142H151Z" fill="#FEDDB8" stroke="#333D48" stroke-width="2"/>
<path opacity="0.15" d="M152 145C152 145 159 147 166 145" stroke="#1F262C" stroke-width="3"/>
<path fill-rule="evenodd" clip-rule="evenodd" d="M191 75V111H187V75H191Z" fill="#5F7285" stroke="#333D48" stroke-width="2"/>
<path fill-rule="evenodd" clip-rule="evenodd" d="M131 116C131 116 131 144 159 144C187 144 187 116 187 116V80H131V116Z" fill="#FEDDB8" stroke="#333D48" stroke-width="2"/>
<path d="M159 105V113C159 113 156 113 156 116C156 119 159 119 159 119H160" stroke="#333D48" stroke-width="2" stroke-linecap="round" stroke-linejoin="round"/>
<path d="M20 203H220" stroke="#333D48" stroke-width="2" stroke-linecap="round"/>
<path d="M62 158C62 155.239 64.2386 153 67 153H129C131.761 153 134 155.239 134 158V197H62V158Z" fill="#D6DDE3" stroke="#333D48" stroke-width="2"/>
<path fill-rule="evenodd" clip-rule="evenodd" d="M60 197C60 203 65.7 203 65.7 203H130.3C130.3 203 136 203 136 197H60Z" fill="#D6DDE3" stroke="#333D48" stroke-width="2"/>
<circle cx="98" cy="175" r="4" fill="white" stroke="#333D48" stroke-width="2"/>
<path fill-rule="evenodd" clip-rule="evenodd" d="M95.0069 111C98.3123 111 101 108.312 101 104.995V43H1V104.995C1 108.313 3.68319 111 6.99306 111H74L89 126V111H95.0069Z" fill="white" stroke="#333D48" stroke-width="2"/>
<rect x="21" y="81" width="16" height="16" rx="2" fill="white" stroke="#D6DDE3" stroke-width="2"/>
<circle cx="29" cy="89" r="3" fill="#1AA175"/>
<rect x="43" y="81" width="16" height="16" rx="2" fill="white" stroke="#D6DDE3" stroke-width="2"/>
<circle cx="51" cy="89" r="3" fill="#FA514F"/>
<rect x="65" y="81" width="16" height="16" rx="2" fill="white" stroke="#D6DDE3" stroke-width="2"/>
<circle cx="73" cy="89" r="3" fill="#7D8FA3"/>
<path fill-rule="evenodd" clip-rule="evenodd" d="M1 40C1 36.6863 3.68629 34 7 34H95C98.3137 34 101 36.6863 101 40V43H1V40Z" fill="#E7EBEF" stroke="#333D48" stroke-width="2"/>
<circle cx="7.5" cy="38.5" r="1.5" fill="#FA514F"/>
<circle cx="12.5" cy="38.5" r="1.5" fill="#FFC037"/>
<circle cx="17.5" cy="38.5" r="1.5" fill="#2DC692"/>
<rect x="2" y="44" width="98" height="8" fill="#71B5F0"/>
<rect x="21" y="64" width="60" height="2" fill="#D6DDE3"/>
<rect x="39" y="70" width="24" height="2" fill="#D6DDE3"/>
<path d="M141 103C141 103 143 101 149 101" stroke="#333D48" stroke-width="2" stroke-linecap="round"/>
<path d="M178 103C178 103 176 101 170 101" stroke="#333D48" stroke-width="2" stroke-linecap="round"/>
<path fill-rule="evenodd" clip-rule="evenodd" d="M151 125H167C167 125 166.995 132 158.997 132C151 132 151 125 151 125Z" fill="#333D48" stroke="#333D48" stroke-width="2"/>
<path fill-rule="evenodd" clip-rule="evenodd" d="M167 125H151C151 125 151 127.1 152.314 129H165.683C166.998 127.1 167 125 167 125Z" fill="white"/>
<path d="M151 125V124H150V125L151 125ZM167 125L168 125.001L168.001 124H167V125ZM152.314 129L151.492 129.569L151.79 130H152.314V129ZM165.683 129V130H166.206L166.505 129.569L165.683 129ZM151 126H167V124H151V126ZM153.137 128.431C152.576 127.62 152.288 126.753 152.142 126.077C152.07 125.741 152.034 125.46 152.016 125.268C152.008 125.172 152.004 125.098 152.002 125.052C152.001 125.029 152 125.013 152 125.004C152 124.999 152 124.997 152 124.996C152 124.996 152 124.996 152 124.997C152 124.997 152 124.997 152 124.998C152 124.998 152 124.999 152 124.999C152 124.999 152 124.999 152 124.999C152 125 152 125 151 125C150 125 150 125 150 125.001C150 125.001 150 125.001 150 125.001C150 125.002 150 125.002 150 125.003C150 125.004 150 125.005 150 125.006C150 125.009 150 125.012 150 125.016C150 125.023 150 125.033 150.001 125.044C150.001 125.067 150.002 125.098 150.003 125.136C150.007 125.212 150.013 125.318 150.025 125.448C150.048 125.709 150.095 126.071 150.187 126.498C150.37 127.347 150.739 128.48 151.492 129.569L153.137 128.431ZM152.314 130H165.683V128H152.314V130ZM167 125C166 124.999 166 124.999 166 124.999C166 124.999 166 124.998 166 124.998C166 124.998 166 124.997 166 124.997C166 124.997 166 124.996 166 124.996C166 124.995 166 124.995 166 124.995C166 124.996 166 124.999 166 125.003C166 125.012 165.999 125.028 165.998 125.051C165.996 125.097 165.992 125.171 165.983 125.267C165.966 125.459 165.93 125.741 165.857 126.076C165.711 126.753 165.422 127.619 164.861 128.431L166.505 129.569C167.259 128.481 167.629 127.348 167.812 126.499C167.904 126.072 167.951 125.709 167.975 125.449C167.987 125.318 167.993 125.213 167.996 125.137C167.998 125.099 167.999 125.068 167.999 125.045C168 125.034 168 125.024 168 125.017C168 125.013 168 125.01 168 125.007C168 125.006 168 125.005 168 125.004C168 125.003 168 125.003 168 125.002C168 125.002 168 125.002 168 125.001C168 125.001 168 125.001 167 125Z" fill="#333D48"/>
<rect x="171" y="107" width="4" height="6" rx="2" fill="#333D48"/>
<rect x="144" y="107" width="4" height="6" rx="2" fill="#333D48"/>
<path opacity="0.15" d="M184.098 86.1663C179.39 87.8177 172.65 89 163 89C153 89 147 85 143 85C139 85 131 85 131 95" stroke="#1F262C" stroke-width="4" stroke-linecap="round" stroke-linejoin="round"/>
<path fill-rule="evenodd" clip-rule="evenodd" d="M131 111H127V84C127 84 127 68 139 70C139 70 139 56 159 56C185 56 195 74.5 195 75C195 75.5 195 88 163 88C153 88 147 84 143 84C139 84 131 84 131 94C131 104 131 111 131 111Z" fill="#5F7285" stroke="#333D48" stroke-width="2"/>
<path fill-rule="evenodd" clip-rule="evenodd" d="M124 111C124 107.134 127.134 104 131 104V118C127.134 118 124 114.866 124 111ZM194 111C194 114.866 190.866 118 187 118V104C190.866 104 194 107.134 194 111Z" fill="#FEDDB8"/>
<path d="M131 104H132V103H131V104ZM131 118V119H132V118H131ZM187 118H186V119H187V118ZM187 104V103H186V104H187ZM131 103C126.582 103 123 106.582 123 111H125C125 107.686 127.686 105 131 105V103ZM132 118V104H130V118H132ZM123 111C123 115.418 126.582 119 131 119V117C127.686 117 125 114.314 125 111H123ZM187 119C191.418 119 195 115.418 195 111H193C193 114.314 190.314 117 187 117V119ZM186 104V118H188V104H186ZM195 111C195 106.582 191.418 103 187 103V105C190.314 105 193 107.686 193 111H195Z" fill="#333D48"/>
<path d="M169 74C169 74 177 75 182 71" stroke="#333D48" stroke-width="2" stroke-linecap="round"/>
<path d="M162 80C162 80 172 82 180 78" stroke="#333D48" stroke-width="2" stroke-linecap="round"/>
<path fill-rule="evenodd" clip-rule="evenodd" d="M146 148H151V163L146 167L142 153L146 148ZM172 148H167V163L172 167L176 153L172 148Z" fill="#71B5F0"/>
<path d="M151 148H152V147H151V148ZM146 148V147H145.519L145.219 147.375L146 148ZM151 163L151.625 163.781L152 163.481V163H151ZM146 167L145.038 167.275L145.451 168.72L146.625 167.781L146 167ZM142 153L141.219 152.375L140.897 152.778L141.038 153.275L142 153ZM167 148V147H166V148H167ZM172 148L172.781 147.375L172.481 147H172V148ZM167 163H166V163.481L166.375 163.781L167 163ZM172 167L171.375 167.781L172.549 168.72L172.962 167.275L172 167ZM176 153L176.962 153.275L177.103 152.778L176.781 152.375L176 153ZM151 147H146V149H151V147ZM152 163V148H150V163H152ZM146.625 167.781L151.625 163.781L150.375 162.219L145.375 166.219L146.625 167.781ZM141.038 153.275L145.038 167.275L146.962 166.725L142.962 152.725L141.038 153.275ZM145.219 147.375L141.219 152.375L142.781 153.625L146.781 148.625L145.219 147.375ZM167 149H172V147H167V149ZM168 163V148H166V163H168ZM172.625 166.219L167.625 162.219L166.375 163.781L171.375 167.781L172.625 166.219ZM175.038 152.725L171.038 166.725L172.962 167.275L176.962 153.275L175.038 152.725ZM171.219 148.625L175.219 153.625L176.781 152.375L172.781 147.375L171.219 148.625Z" fill="#333D48"/>
</svg>
