<svg width="240" height="204" viewBox="0 0 240 204" fill="none" xmlns="http://www.w3.org/2000/svg">
<circle cx="120" cy="102" r="102" fill="#E6F9F2"/>
<path fill-rule="evenodd" clip-rule="evenodd" d="M166 64L140 38H79.9983C76.6846 38 73.9983 40.6863 73.9983 44V158C73.9983 162.418 77.58 166 81.9983 166H160C163.314 166 166 163.314 166 160V64Z" fill="white" stroke="#333D48" stroke-width="2" stroke-linejoin="round"/>
<path fill-rule="evenodd" clip-rule="evenodd" d="M96.6237 39C96.8715 40.6305 97 42.3003 97 44C97 58.3684 87.8171 70.592 75 75.1222V39L96.6237 39Z" fill="#D6DDE3"/>
<circle cx="62" cy="42" r="32" fill="white" stroke="#333D48" stroke-width="2"/>
<path fill-rule="evenodd" clip-rule="evenodd" d="M62 24C57.0294 24 53 28.0294 53 33V41C53 45.9706 57.0294 50 62 50C66.9706 50 71 45.9706 71 41V33C71 28.0294 66.9706 24 62 24ZM62 50C59.2386 50 57 47.7614 57 45V34C57 31.2386 59.2386 29 62 29C64.7614 29 67 31.2386 67 34V45C67 47.7614 64.7614 50 62 50Z" fill="#E7EBEE"/>
<path d="M54 33C54 28.5817 57.5817 25 62 25V23C56.4772 23 52 27.4772 52 33H54ZM54 41V33H52V41H54ZM62 49C57.5817 49 54 45.4183 54 41H52C52 46.5228 56.4772 51 62 51V49ZM70 41C70 45.4183 66.4183 49 62 49V51C67.5228 51 72 46.5228 72 41H70ZM70 33V41H72V33H70ZM62 25C66.4183 25 70 28.5817 70 33H72C72 27.4772 67.5228 23 62 23V25ZM62 49C59.7909 49 58 47.2091 58 45H56C56 48.3137 58.6863 51 62 51V49ZM58 45V34H56V45H58ZM58 34C58 31.7909 59.7909 30 62 30V28C58.6863 28 56 30.6863 56 34H58ZM62 30C64.2091 30 66 31.7909 66 34H68C68 30.6863 65.3137 28 62 28V30ZM66 34V45H68V34H66ZM66 45C66 47.2091 64.2091 49 62 49V51C65.3137 51 68 48.3137 68 45H66Z" fill="#333D48"/>
<rect x="50" y="36" width="24" height="24" rx="12" fill="#FFC037" stroke="#EBA100" stroke-width="2"/>
<circle cx="62" cy="46" r="3" fill="#333D48"/>
<rect x="61" y="46" width="2" height="8" rx="1" fill="#333D48"/>
<circle cx="178" cy="158" r="32" fill="white" stroke="#333D48" stroke-width="2"/>
<path fill-rule="evenodd" clip-rule="evenodd" d="M164 161L168 157L174 163L190 147L194 151L174 171L164 161Z" fill="#2DC692" stroke="#1AA175" stroke-width="2" stroke-linecap="round" stroke-linejoin="round"/>
<path fill-rule="evenodd" clip-rule="evenodd" d="M140 41V54V59C140 63.4183 143.582 67 148 67H165V65L140 41Z" fill="#D6DDE3"/>
<path fill-rule="evenodd" clip-rule="evenodd" d="M140 38L140 56C140 60.4183 143.582 64 148 64H166L140 38Z" fill="#C1CBD5" stroke="#333D48" stroke-width="2" stroke-linejoin="round"/>
<path d="M94 89H134" stroke="#C1CBD5" stroke-width="2"/>
<path d="M94 81H146" stroke="#C1CBD5" stroke-width="2"/>
<path d="M94 97H142" stroke="#C1CBD5" stroke-width="2"/>
<path d="M94 105H134" stroke="#C1CBD5" stroke-width="2"/>
<path d="M94 113H146" stroke="#C1CBD5" stroke-width="2"/>
<path d="M94 121H138" stroke="#C1CBD5" stroke-width="2"/>
<path d="M94 135H118" stroke="#C1CBD5" stroke-width="2"/>
</svg>
