<svg xmlns="http://www.w3.org/2000/svg" width="64" height="64" viewBox="0 0 48 48"><path d="M9 12l-2.121 2.121L10.758 18l-3.88 3.879L9 24l6-6zm0 0M34.5 30h3v4.5H42v3h-4.5V42h-3v-4.5H30v-3h4.5zm0 0"/><path d="M42 24h1.5c2.484 0 4.5 2.016 4.5 4.5v15c0 2.484-2.016 4.5-4.5 4.5h-15a4.501 4.501 0 01-4.5-4.5V42H4.5A4.501 4.501 0 010 37.5v-33C0 2.016 2.016 0 4.5 0h33C39.984 0 42 2.016 42 4.5zM37.5 3h-33A1.5 1.5 0 003 4.5V6h36V4.5A1.5 1.5 0 0037.5 3zM39 9v15H28.5a4.501 4.501 0 00-4.5 4.5V39H4.5A1.5 1.5 0 013 37.5V9zm4.5 18h-15a1.5 1.5 0 00-1.5 1.5v15a1.5 1.5 0 001.5 1.5h15a1.5 1.5 0 001.5-1.5v-15a1.5 1.5 0 00-1.5-1.5zm0 0" fill-rule="evenodd"/></svg>
