<svg xmlns="http://www.w3.org/2000/svg" width="64" height="64" viewBox="0 0 48 48"><path d="M24 3C15.578 3 9 9.176 9 16.5V30c0 5.363 4.02 9.785 9.21 10.422A6.002 6.002 0 0130 42a6.002 6.002 0 01-11.828 1.438C12.195 42.852 7.363 38.37 6.246 32.57L6 32.488A9.003 9.003 0 010 24a9.003 9.003 0 016-8.488l.031-.012C6.598 6.738 14.551 0 24 0c9.45 0 17.402 6.738 17.969 15.5l.031.012A9.003 9.003 0 0148 24a9.003 9.003 0 01-6 8.488A8.977 8.977 0 0139 33V16.5C39 9.176 32.422 3 24 3zM6 18.8A6.001 6.001 0 003 24a6.001 6.001 0 003 5.2zM27 42a3 3 0 11-6.002-.002A3 3 0 0127 42zm18-18a6.001 6.001 0 00-3-5.2v10.4a6.001 6.001 0 003-5.2zm0 0" fill-rule="evenodd"/><path d="M25.5 16.5V21H30v3h-4.5v4.5h-3V24H18v-3h4.5v-4.5zm0 0"/></svg>
