<svg xmlns="http://www.w3.org/2000/svg" width="64" height="64" viewBox="0 0 48 48"><path d="M19.5 6.063A17.376 17.376 0 0018 6C8.059 6 0 14.059 0 24s8.059 18 18 18c.504 0 1.004-.02 1.5-.063v-3.011l-.297-2.985c-.398.04-.797.059-1.203.059-6.629 0-12-5.371-12-12s5.371-12 12-12c.406 0 .805.02 1.203.059l.297-2.985zm0 0M46.5 6c.504 0 1.004.02 1.5.063v3.011l-.297 2.985c-.398-.04-.797-.059-1.203-.059-5.71 0-10.488 3.988-11.703 9.332H45v5.336H34.797C36.012 32.012 40.789 36 46.5 36c.406 0 .805-.02 1.203-.059L48 38.926v3.011c-.496.043-.996.063-1.5.063-9.941 0-18-8.059-18-18s8.059-18 18-18zm0 0"/></svg>
