<svg xmlns="http://www.w3.org/2000/svg" viewBox="0 0 48 48"><path d="M36.75 42.75a1.5 1.5 0 100-3 1.5 1.5 0 000 3zm0 0"/><path d="M16.5 3.75a2.25 2.25 0 012.25-2.25h1.313c.519 0 .937.418.937.938v.636c1.71.348 3 1.864 3 3.676v6c0 5.96-4.637 10.84-10.5 11.227V34.5a5.251 5.251 0 005.25 5.25A5.251 5.251 0 0024 34.5v-3.75A6.752 6.752 0 0130.75 24a6.752 6.752 0 016.75 6.75v5.305a5.25 5.25 0 11-1.5 0V30.75a5.251 5.251 0 00-5.25-5.25 5.251 5.251 0 00-5.25 5.25v3.75a6.752 6.752 0 01-6.75 6.75A6.752 6.752 0 0112 34.5V23.977C6.137 23.59 1.5 18.71 1.5 12.75v-6a3.754 3.754 0 013-3.676v-.636c0-.52.418-.938.938-.938H6.75a2.25 2.25 0 010 4.5H5.437a.935.935 0 01-.937-.938V4.63A2.247 2.247 0 003 6.75v6a9.748 9.748 0 009.75 9.75 9.748 9.748 0 009.75-9.75v-6c0-.98-.625-1.813-1.5-2.121v.434c0 .519-.418.937-.938.937H18.75a2.248 2.248 0 01-2.242-2.082l-.004-.016-.004-.136zm1.5-.012l.004.078a.75.75 0 00.734.684h.762V3h-.75a.75.75 0 00-.75.738zM6 4.5V3h.75a.75.75 0 010 1.5zm30.75 33a3.751 3.751 0 000 7.5 3.751 3.751 0 000-7.5zm0 0" fill-rule="evenodd"/><path d="M38.098 16.5h-6.813v-1.16l3.375-3.684c.485-.543.832-.996 1.04-1.36.206-.362.308-.73.308-1.097 0-.48-.133-.87-.406-1.168-.27-.297-.637-.445-1.094-.445-.551 0-.973.168-1.274.5-.304.336-.453.793-.453 1.371H31.09c0-.617.14-1.172.422-1.664a2.88 2.88 0 011.203-1.152c.523-.274 1.125-.41 1.805-.41.984 0 1.761.246 2.328.742.566.492.851 1.175.851 2.047 0 .507-.14 1.035-.426 1.59-.285.554-.753 1.183-1.402 1.89l-2.476 2.648h4.703zm0 0"/><path d="M45.102 12.89h1.261v1.356h-1.261V16.5h-1.688v-2.254h-4.379l-.047-1.031 4.367-6.844h1.747zm-1.688 0h-2.652l2.527-4.007.125-.223zm0 0" fill-rule="evenodd"/></svg>
