<svg xmlns="http://www.w3.org/2000/svg" viewBox="0 0 48 49"><g fill-rule="evenodd"><path d="M21.75 12.344c0-.621.504-1.125 1.125-1.125h2.25c.621 0 1.125.504 1.125 1.125v3.386h3.375c.621 0 1.125.504 1.125 1.125v2.258c0 .621-.504 1.125-1.125 1.125H26.25v3.387c0 .621-.504 1.125-1.125 1.125h-2.25a1.125 1.125 0 01-1.125-1.125v-3.387h-3.375a1.125 1.125 0 01-1.125-1.125v-2.258c0-.62.504-1.125 1.125-1.125h3.375zm1.5.379v4.511h-4.5v1.5h4.5v4.512h1.5v-4.512h4.5v-1.5h-4.5v-4.511zm0 0"/><path d="M0 45.805V44.3h6.75V7.457a3.755 3.755 0 013.75-3.758h27c2.07 0 3.75 1.684 3.75 3.758v36.844H48v1.504zM10.5 5.203a2.251 2.251 0 00-2.25 2.254v36.844h4.5V33.023c0-.832.672-1.503 1.5-1.503h19.5c.828 0 1.5.671 1.5 1.503v11.278h4.5V7.457a2.251 2.251 0 00-2.25-2.254zm23.25 39.098V33.023h-9v11.278zm-10.5 0h-9V33.023h9zm0 0"/></g></svg>
