<svg xmlns="http://www.w3.org/2000/svg" width="64" height="64" viewBox="0 0 48 48"><path d="M33.129 19.07a2.998 2.998 0 004.242 0 2.998 2.998 0 000-4.242 2.998 2.998 0 00-4.242 0 2.998 2.998 0 000 4.242zm0 0M38.25 21.45H30v2.25h3v6h-3v2.25h10.5V29.7h-2.25zm0 0"/><path d="M14.293 7.375C17.5 5.668 20.781 5.551 24 7.027c3.219-1.476 6.5-1.359 9.707.348 4.176 2.23 8.266 2.664 12.348 1.39L48 8.16v31.77l-1.207.242c-4.879.973-9.73.144-14.5-2.399-2.555-1.363-5.027-1.363-7.586 0l-.707.375-.707-.375c-2.559-1.363-5.031-1.363-7.586 0-4.77 2.543-9.621 3.372-14.5 2.399L0 39.93V8.16l1.945.606c4.082 1.27 8.172.84 12.348-1.391zm1.414 2.648c2.29-1.222 4.512-1.351 6.793-.382v24.562c-2.734-.828-5.496-.523-8.207.922-3.816 2.035-7.566 2.781-11.293 2.3V12.13c4.266.848 8.52.125 12.707-2.106zm9.793 24.18V9.641c2.281-.97 4.504-.84 6.793.382 4.187 2.23 8.441 2.954 12.707 2.106v25.297c-3.727.48-7.477-.266-11.293-2.301-2.71-1.445-5.473-1.75-8.207-.922zm0 0" fill-rule="evenodd"/></svg>
