<svg xmlns="http://www.w3.org/2000/svg" width="64" height="64" viewBox="0 0 48 48"><path d="M19 5a5 5 0 1110 0v2a4.968 4.968 0 01-1.008 3.008c4.41.203 7.852 3.96 7.617 8.414l-.41 7.84a5.003 5.003 0 01-3.3 4.445c-.02.32-.051.637-.087.953L30.305 44.47A4.003 4.003 0 0126.332 48h-4.664a4.003 4.003 0 01-3.973-3.531L16.187 31.66a17.132 17.132 0 01-.066-3.289l.164-2.129C13.941 25.902 12 23.891 12 21.29V18a8 8 0 018-8 4.972 4.972 0 01-1-3zm14.2 21.156a2.989 2.989 0 01-1.313 2.328 1.032 1.032 0 01-.008-.113l-.883-11.45-1.992.157.879 11.45a15.02 15.02 0 01-.059 2.902L28.32 44.234A2.002 2.002 0 0126.332 46H25V28h-2v18h-1.332a2.002 2.002 0 01-1.988-1.766L18.176 31.43a15.02 15.02 0 01-.059-2.903l.184-2.41a3.77 3.77 0 00.406-.129l3-1.09A5.002 5.002 0 0025 20.2v-.812a2.002 2.002 0 00-2.633-1.899L19 18.613V17h-2v1.613a2.002 2.002 0 002.633 1.899L23 19.387v.812c0 1.262-.79 2.387-1.977 2.82l-3 1.09C16.07 24.82 14 23.371 14 21.29V18c0-3.313 2.688-6 6-6h3V9.828A3.001 3.001 0 0121 7V5a3 3 0 016 0v2a3.001 3.001 0 01-2 2.828V12h2.621a6.002 6.002 0 015.992 6.316zm0 0" fill-rule="evenodd"/></svg>
