<svg width="160" height="160" style="--icon-color: transparent;" xmlns="http://www.w3.org/2000/svg"><path d="M160 0H0v160h160V0z" fill="#E7EBEF"/><path d="M160 52H80c-16.802 0-25.202 0-31.62 3.27a30 30 0 00-13.11 13.11C32 74.798 32 83.198 32 100v60h128V52z" fill="#333D48"/><path d="M160 54H78.8c-15.681 0-23.522 0-29.512 3.052a28 28 0 00-12.236 12.236C34 75.278 34 83.118 34 98.8V160h126V54z" fill="#475463"/><path d="M160 90H71.6c-8.96 0-13.441 0-16.864 1.744a16 16 0 00-6.992 6.992C46 102.16 46 106.64 46 115.6V160h114V90z" fill="#333D48"/><path fill="#2F91EA" d="M160 124H48v36h112z"/><path d="M160 92H70.4c-7.84 0-11.761 0-14.756 1.526a14 14 0 00-6.118 6.118C48 102.64 48 106.56 48 114.4v9.6h112V92z" fill="#1471C9"/><path fill-rule="evenodd" clip-rule="evenodd" d="M64.32 113.531h-1.453v-9.633l-2.914 1.071v-1.313l4.14-1.554h.227v11.429zm11.368-4.851c0 1.692-.29 2.95-.868 3.773-.578.823-1.481 1.235-2.71 1.235-1.214 0-2.113-.403-2.696-1.208-.583-.804-.885-2.006-.906-3.605v-1.93c0-1.672.289-2.914.867-3.726.578-.813 1.484-1.219 2.719-1.219 1.224 0 2.125.392 2.703 1.176.578.784.875 1.993.89 3.629v1.875zm-1.446-1.977c0-1.224-.172-2.116-.515-2.676-.344-.56-.889-.839-1.633-.839-.74 0-1.279.278-1.617.835-.339.558-.514 1.414-.524 2.571v2.312c0 1.229.178 2.137.535 2.723.357.586.897.879 1.621.879.714 0 1.244-.276 1.59-.828.347-.552.528-1.422.543-2.61v-2.367zm3.399 6.07c0-.25.074-.458.222-.625.149-.166.371-.25.668-.25.297 0 .522.084.676.25.154.167.23.375.23.625 0 .24-.076.441-.23.602-.154.161-.379.242-.676.242-.297 0-.52-.081-.668-.242a.855.855 0 01-.222-.602zm.007-6.898c0-.25.075-.458.223-.625.148-.167.371-.25.668-.25.297 0 .522.083.676.25.153.167.23.375.23.625a.84.84 0 01-.23.602c-.154.161-.38.242-.676.242-.297 0-.52-.081-.668-.242a.857.857 0 01-.223-.602zm4.43 1.953l.578-5.672h5.828v1.336h-4.601l-.344 3.102c.557-.328 1.19-.492 1.898-.492 1.037 0 1.86.342 2.47 1.027.609.685.913 1.611.913 2.777 0 1.172-.316 2.095-.949 2.77-.633.674-1.517 1.012-2.652 1.012-1.005 0-1.826-.279-2.461-.836-.636-.558-.998-1.329-1.086-2.313h1.367c.089.651.32 1.142.695 1.473.375.33.87.496 1.485.496.672 0 1.199-.229 1.582-.688.383-.458.574-1.091.574-1.898 0-.761-.207-1.371-.621-1.832-.414-.461-.965-.692-1.652-.692-.63 0-1.125.138-1.485.414l-.383.313-1.156-.297zm13.992-5.68v1.227h-.265c-1.125.021-2.021.354-2.688 1-.666.646-1.052 1.555-1.156 2.727.599-.688 1.417-1.032 2.453-1.032.99 0 1.78.349 2.371 1.047s.887 1.599.887 2.703c0 1.172-.32 2.11-.957 2.813-.638.703-1.494 1.055-2.567 1.055-1.088 0-1.97-.418-2.648-1.254-.677-.836-1.016-1.913-1.016-3.231v-.555c0-2.093.447-3.694 1.34-4.8.894-1.107 2.223-1.674 3.989-1.7h.257zm-1.898 5.125c-.495 0-.95.149-1.367.446a2.32 2.32 0 00-.868 1.117v.531c0 .938.211 1.693.633 2.266.422.573.948.859 1.578.859.651 0 1.163-.239 1.536-.719.372-.479.558-1.106.558-1.882 0-.782-.189-1.413-.566-1.895-.378-.482-.88-.723-1.504-.723z" fill="#fff"/><path d="M129.844 104l.289-.341A16.918 16.918 0 00121 101c-3.288 0-6.432.935-9.133 2.659L121 114.452l3-3.546v3.097l-3 3.545-12-14.263.798-.633A18.915 18.915 0 01121 99c4.083 0 7.974 1.292 11.202 3.652l.798.633-3 3.607V104h-.156z" fill="#fff"/><path fill="#fff" d="M126 106h2v7h-2zM126 115h2v2h-2z"/><path fill-rule="evenodd" clip-rule="evenodd" d="M160 0H0v160h160V0zM80 160c-44.183 0-80-35.817-80-80S35.817 0 80 0s80 35.817 80 80-35.817 80-80 80z" fill="#fff"/></svg>
