<svg xmlns="http://www.w3.org/2000/svg" width="64" height="64" viewBox="0 0 48 48"><g fill-rule="evenodd"><path d="M24 4C12.953 4 4 12.953 4 24s8.953 20 20 20 20-8.953 20-20S35.047 4 24 4zM0 24C0 10.746 10.746 0 24 0s24 10.746 24 24-10.746 24-24 24S0 37.254 0 24zm0 0"/><path d="M22 16v8h-4v-8zm0 0M30 16v8h-4v-8zm0 0M16.79 34.898c0-.003 0-.003-1.79-.898s-1.79-.895-1.79-.898h.005v-.008l.008-.012.015-.027c.012-.02.024-.047.04-.075.03-.058.074-.128.124-.21.106-.168.254-.387.453-.637.395-.5.993-1.133 1.844-1.75C17.426 29.125 20.09 28 24 28c3.91 0 6.574 1.125 8.3 2.383a9.286 9.286 0 011.845 1.75 6.974 6.974 0 01.578.847c.015.028.027.055.039.075l.015.027.008.012v.008h.004c0 .003 0 .003-1.789.898-1.79.895-1.79.895-1.79.898h.005v.004l.004.008.008.012c0 .004 0 .008.003.008a3.1 3.1 0 00-.219-.313 5.52 5.52 0 00-1.062-1C28.926 32.875 27.09 32 24 32c-3.09 0-4.926.875-5.95 1.617a5.52 5.52 0 00-1.062 1 3.1 3.1 0 00-.191.27l-.027.043.003-.008.008-.012.004-.008v-.004zm0 0"/></g></svg>
