<svg viewBox="0 0 168 320" width="168" height="320" fill-rule="evenodd" clip-rule="evenodd" stroke-linecap="round" stroke-linejoin="round" stroke-miterlimit="1.5">
    <path data-bodypart="head" d="M72.294 61.108c-1.812-.218-3.133 1.747-4.754 3.197-.143-.024-3.455-2.342-5.196-3.101-1.78-.776-4.531-.913-6.009-1.38.518-1.304 1.813-2.559 2.056-3.897 6.17-1.594 10.831-7.94 10.831-15.574 0-8.095-5.24-14.742-11.965-15.811a5.594 5.594 0 00-.361-.978c-.411-.85-.333-3.366.74-4.72 1.917-2.419 5.928-3.99 8.304-6.1 3.667-6.41 6.742-10.101 8.536-10.17l8.245.689 8.359-2.21c2.03-.319 5.701-.437 8.55 2.625 1.766 1.899 1.553 5.219 4.435 9.068 2.473 3.303 8.154 7.191 8.747 8.677.432 1.083-.842 2.154-1.031 3.283-6.316 1.467-11.124 7.892-11.124 15.647 0 7.994 5.11 14.575 11.714 15.768.534 2.098.671 3.28.077 4.435-.232.452.027 1.48-.752 1.685-1.853-2.376-4.373-3.149-6.466-2.655-2.466.582-4.37 2.694-4.37 2.694-.798.661-1.799-.935-3.733-1.394l-1.215-.635c-.883-.327-1.802.051-2.7.511-.398.204-.792.419-1.179.567-.341.131-.674.212-.997.158-.721-.119-1.72-.844-2.772-1.522-1.151-.742-2.36-1.428-3.347-1.418-.741.008-1.357.357-1.907.89-.502.486-.95 1.13-1.4 1.768-.424.601-.851 1.199-1.343 1.634-.444.393-.942.65-1.553.613-.413-.025-.901-.323-1.431-.693-.893-.623-1.876-1.465-2.76-1.89-.568-.273-1.105-.375-1.568-.222a1.447 1.447 0 00-.661.461z" />
    <path data-bodypart="ears" d="M111.598 26.693c-.069 3.537 1.167 7.238 3.255 10.54 2.92 4.616-1.532 11.546-2.513 14.214-.325.886-.394 1.79-.324 2.679-5.439-1.357-9.48-7.038-9.48-13.773 0-6.562 3.835-12.122 9.062-13.66zm-54.089-.196c5.617 1.196 9.833 6.976 9.833 13.856 0 6.4-3.648 11.848-8.679 13.539.193-2.268-.015-4.27-.563-5.446-1.018-2.181-4.932-6.082-3.982-9.61.551-2.047 3.453-7.82 3.391-12.339z" />
    <path data-bodypart="nape_of_neck" d="M73.531 61.508s.118-.308.397-.211c.329.114.676.311 1.031.546.759.5 1.549 1.165 2.264 1.63.531.344 1.03.577 1.453.603.785.047 1.433-.263 2.005-.769.526-.465.986-1.099 1.44-1.742.427-.605.848-1.218 1.324-1.68.429-.415.9-.707 1.478-.713.891-.009 1.964.649 3.002 1.318 1.136.733 2.231 1.485 3.009 1.614.808.133 1.683-.335 2.563-.786.635-.325 1.273-.647 1.898-.531.112 1.607.406 3.049 1.67 4.482-10.73 3.151-19.89 1.672-25.137.003.683-.906 1.416-2.204 1.603-3.764z" />
    <path data-bodypart="back" d="M98.714 66.729c2.562 1.841 7.131 3.754 15.335 6.063 1.07.301 2.062.685 2.982 1.142-.42 6.841-1.191 14.648-2.194 20.538a.916.916 0 00-.011.221c-.192 2.452-1.181 18.898-1.181 18.898a.973.973 0 00.007.187l.105.737c-.176 2.718-.557 9.361-.497 15.187-19.498 2.918-39.063 2.797-58.697-.268.106-1.343.195-2.554.269-3.647.614-2.695.584-8.143.565-8.593-.12-2.835.101-16.97-.4-20.06-.387-2.38-2.232-13.182-2.806-21.237a70.42 70.42 0 01-.159-3.05 10.205 10.205 0 012.978-1.409c1.777-.497 3.596-1.217 5.416-1.493 3.584-.543 7.244-.686 10.1-3.166 5.54 1.915 15.958 3.861 28.188-.05z" />
    <path data-bodypart="upper_arm" d="M50.214 74.337c.027.548.061 1.114.103 1.694.578 8.118 2.435 19.006 2.825 21.405.44 2.709 1.351 14.039 1.634 18.526a.358.358 0 00-.078.11c-.446 2.015-1.272 4.117-2.222 6.175-4.341-3.657-11.506-6.683-16.183-8.179.179-.317.354-.617.527-.9 6.548-10.739 2.865-16.625 6.494-26.343 0 0 2.145-7.887 6.9-12.488zm68.633.65c8.653 5.808 9.909 18.898 10.434 27.748.301 1.649.857 5.033 2.83 10.266-5.303 1.623-12.06 4.41-15.556 7.862l-2.036-6.311c.239-4.095 2.113-19.218 2.126-19.394l.016-.187.011-.103.011-.046.008-.044c.967-5.678 1.72-13.119 2.156-19.791z" />
    <path data-bodypart="elbow" d="M35.397 115.753c4.62 1.427 12.095 4.491 16.242 8.239-1.681 3.402-3.507 6.576-4.256 8.906-.497 1.547-1.419 3.671-2.607 6.121-1.718-2.326-4.169-4.311-6.85-5.803-2.819-1.568-5.883-2.589-8.579-2.924 2.057-5.582 4.153-10.793 6.05-14.539zm97.397-1.011c1.339 3.292 3.206 7.22 5.832 11.806.437.763.857 1.552 1.262 2.361-2.454.29-5.163 1.076-7.709 2.293-3.266 1.561-6.253 3.825-8.126 6.597-2.801-5.593-5.149-10.781-6.887-14.985a.943.943 0 00.349-.24c3.192-3.487 10.011-6.255 15.279-7.832z" />
    <path data-bodypart="lower_back" d="M54.412 131.313c19.696 3.06 39.325 3.185 58.884.283.03.993.075 1.944.141 2.826.581 7.851 2.181 19.047 2.035 23.264-.082 2.382-.257 4.486.262 8.093-21.211 2.814-42.1 3.115-63.38-.012.147-1.261.307-2.544.479-3.851-.7-9.706.765-21.233 1.37-28.159.075-.856.144-1.671.209-2.444z" />
    <path data-bodypart="forearm" d="M28.685 132.104c2.571.237 5.574 1.222 8.327 2.754 2.752 1.531 5.263 3.611 6.81 6.085-4.365 8.641-11.228 20.186-14.762 25.431-3.015-2.562-6.677-4.488-10.137-5.68 1.583-4.166 5.535-16.919 9.762-28.59zm112.059-1.4c4.512 9.889 6.9 22.166 8.953 29.031-3.366.902-6.975 2.463-10.081 4.645-5.435-7.785-10.44-16.54-14.567-24.611 1.593-2.939 4.627-5.288 7.94-6.871 2.58-1.233 5.338-2.004 7.755-2.194z" />
    <path data-bodypart="buttocks" d="M76.887 197.63c-8.585.849-17.529-.482-25.811-3.659-.31-7.366-.054-16.04 1.067-26.336 21.453 3.146 42.511 2.841 63.896-.001.464 2.523 1.234 5.712 2.487 9.972 1.013 3.446 1.055 9.423.594 16.37-8.11 3.109-16.856 4.448-25.276 3.701a.896.896 0 00-.374-.133c-.816-.103-1.724-.272-2.631-.617a6.44 6.44 0 001.996-4.653c0-3.598-2.988-6.532-6.683-6.532s-6.683 2.934-6.683 6.532c0 1.558.56 2.991 1.495 4.115-1.263.715-2.605.994-3.761 1.139a.883.883 0 00-.316.102z" />
    <path data-bodypart="anus" d="M83.224 195.962c-1.139-.85-1.876-2.184-1.876-3.688 0-2.575 2.16-4.653 4.804-4.653s4.803 2.078 4.803 4.653c0 1.999-1.301 3.699-3.12 4.359l-1.952-3.596-2.659 2.925z" />
    <path data-bodypart="hand" d="M17.012 162.031c3.674 1.058 7.757 3.058 10.987 5.867l-.211.284-.032.491c.38 4.196-3.864 11.268-3.904 12.076-.042.842-.163 9.941-2.289 9.982-2.125.042-.445-10.62-1.591-10.844-1.146-.224-2.517 12.69-5.593 12.107-3.076-.583 2.377-10.682 1.153-12.147-1.224-1.465-5.584 12.472-8.11 11.235-2.585-1.267 2.989-9.525 4.508-12.737l-.192-.406c-3.439 1.004-5.792 9.447-8.215 8.577-4.115-1.477 8.438-14.085 7.764-17.91l.147-.098c-1.667-.856-6.749 4.156-9.37 1.593-1.999-1.955 5.124-3.605 6.255-4.841 1.131-1.237 2.818-1.968 6.304-2.755.956-.216 1.732-.377 2.389-.474zm133.629-.627c.767.128 1.696.385 2.93.758 3.421 1.035 5.648 2.162 6.195 2.974.937 1.389 7.569 3.351 5.787 5.504-2.369 2.86-8.186-2.842-9.012-2.098l-.08-.055c-.948 3.766 10.668 17.243 6.458 18.421-2.48.693-4.22-7.896-7.579-9.145l-.22.391c1.285 3.314 6.251 11.95 3.581 13.028-2.608 1.053-5.955-13.161-7.281-11.788-1.327 1.373 3.388 11.838.277 12.199-3.11.361-3.55-12.619-4.709-12.478-1.159.142-.249 10.896-2.366 10.702-2.117-.193-1.585-9.277-1.566-10.12.02-.871-4.297-9.326-2.792-13.216l.247-.474c3.096-2.229 6.77-3.777 10.13-4.603z" />
    <path data-bodypart="thigh" d="M90.918 198.933a.924.924 0 00.643.39c9.06 1.173 18.578-.042 27.409-3.284-.898 11.535-2.994 25.207-4.293 34.379-4.277 2.473-9.614 3.243-14.579 3.044-5.181-.208-9.977-1.463-12.748-3.043.196-3.331.553-5.699.205-7.593-2.124-11.561-1.345-19.381-.252-24.116a6.654 6.654 0 001.731-.544l.386.203.784.328.714.236zm-8.489-1.235a6.68 6.68 0 001.352.685c2.215 10.519-2.286 23.234-1.024 29.583.158.794.286 1.579.388 2.356-6.004 2.415-13.608 2.324-19.85 1.131-1.963-.375-3.793-.857-5.391-1.408-.554-2.964-1.637-6.941-3.501-13.621-1.499-5.371-2.737-12-3.225-20.408 8.848 3.26 18.39 4.483 27.47 3.307.205-.026 2.72-.93 3.781-1.625z" />
    <path data-bodypart="knee" d="M58.225 232.119a42.08 42.08 0 004.717 1.18c6.401 1.223 14.151 1.294 20.403-1.044.585 7.563-1.166 14.604-2.218 23.429-5.731 2.052-12.534 2.106-18.18 1.149-2.325-.395-4.454-.957-6.224-1.628.095-4.279.426-8.943 1.074-14.02.506-3.958.776-6.123.428-9.066zm29.035.354c3.072 1.489 7.741 2.665 12.763 2.867 4.837.194 9.988-.51 14.334-2.631-.515 3.749-.834 6.473-.775 7.565.15 2.778 1.269 7.106 1.616 13.386-3.883 2.62-8.584 3.437-13.152 3.192-4.233-.227-8.36-1.365-11.65-2.872l.067-.474c-2.908-9.528-3.335-16.179-3.203-21.033z" />
    <path data-bodypart="lower_leg" d="M56.696 257.181c1.744.616 3.759 1.135 5.937 1.504 5.78.98 12.701.92 18.633-1.066 1.195 12.007-3.013 26.494-1.62 34.489-7.57 2.545-13.363 1.826-17.27.552-1.734-6.612-5.778-17.57-5.68-35.479zm58.587-1.353c.127 5.547-.404 12.452-2.573 20.942-1.317 5.152-2.286 10.888-2.856 15.766-7.659 2.248-13.382 1.135-17.048-.281-.035-1.41-.271-3.016-.843-4.89-3.112-10.192-3.069-21.305-1.821-31.445 3.396 1.478 7.548 2.581 11.804 2.809 4.599.246 9.309-.526 13.337-2.901z" />
    <path data-bodypart="foot" d="M80.01 293.97c1.154 6.786-2.047 5.829 1.35 11.112 3.594 5.591 2.595 8.986-.599 10.184-3.195 1.198-.349 4.444-12.58 3.594-7.468-.519-7.764-5.789-6.829-10.304 1.225-5.921 3.062-6.64 1.534-13.766 4.094 1.138 9.831 1.589 17.124-.82zm12.714.269c3.815 1.372 9.487 2.339 16.912.316-.445 4.497-.503 7.983-.125 9.115 2.376 7.124.666 10.613.431 11.346-1.152 3.594-10.027 5.402-15.656 1.116l-2.765-2.86c-.195-.005-5.882-3.579-2.954-6.041 2.927-2.461 3.004-4.208 3.004-4.208-.845-2.817.754-5.085 1.153-8.784z" />
    <g>
        <path d="M81.985 2.939a.069.069 0 01.008-.003c1.292-.352 4.33-1.67 7.726-2.215 3.173-.509 6.643-.338 9.37 1.779 1.814 1.409 3.313 3.684 4.153 7.234.499 2.104 1.696 3.638 3.071 4.897 1.438 1.318 3.07 2.343 4.362 3.379 1.925 1.545 3.109 3.138 2.281 5.522-1.489 4.283-.874 6.407.163 8.834.731 1.713 1.655 3.571 2.247 6.343.651 3.052-.24 5.739-1.187 8.165-.45 1.152-.909 2.241-1.195 3.282-.266.965-.382 1.885-.161 2.772.956 3.826.909 6.363-.646 9.524a.524.524 0 01-.797.173c-3.114-2.544-4.944-3.202-6.271-2.941-.837.165-1.437.703-2.022 1.267-1.204 1.163-2.345 2.42-4.51 2.098a.522.522 0 01-.294-.882c-.838-.566-1.529-.894-2.122-1.054.21 2.252.977 4.157 4.814 6.263 2.722 1.494 6.925 3.07 13.433 4.902 6.69 1.882 10.46 6.916 12.621 12.814 2.117 5.78 2.681 12.39 2.989 17.569.509 2.797 1.761 10.49 9.28 23.618 6.287 10.978 9.066 27.151 11.52 34.582.809.124 1.794.392 3.124.794 2.096.635 3.753 1.305 4.864 1.917.823.454 1.364.896 1.613 1.265.234.347.883.709 1.638 1.129 1.31.729 2.932 1.553 3.799 2.423.47.472.733.973.741 1.469.005.362-.115.735-.423 1.106-.689.833-1.612 1.085-2.642.973-1.337-.145-2.874-.951-4.185-1.711-.81-.47-1.528-.918-2.044-1.136a1.647 1.647 0 00-.163-.057c.007.693.34 1.618.819 2.687 1.509 3.372 4.605 7.968 5.944 11.194.444 1.069.696 2.002.679 2.713-.021.913-.424 1.53-1.303 1.775-.526.148-1.034.023-1.524-.342-.387-.287-.769-.739-1.145-1.304-.945-1.421-1.885-3.601-2.994-5.306-.465-.716-.953-1.35-1.494-1.776 1.096 2.529 3.385 6.885 3.957 9.735.15.75.183 1.406.077 1.92-.134.647-.475 1.101-1.039 1.329-.356.144-.721.124-1.091-.052-.404-.193-.831-.608-1.247-1.203-1.385-1.98-2.817-6.09-3.951-8.667-.326-.739-.622-1.345-.888-1.716l-.004-.005-.001.013c-.028.225-.019.503.013.82.166 1.681.957 4.35 1.346 6.595.241 1.387.318 2.625.069 3.427-.221.715-.669 1.15-1.386 1.233-.739.086-1.404-.335-1.94-1.187-.974-1.546-1.593-4.639-2.079-7.279-.253-1.373-.471-2.617-.698-3.422-.237 1.369-.275 3.887-.487 6.004-.154 1.543-.421 2.881-.863 3.521-.3.436-.681.629-1.116.589-.393-.036-.742-.248-1.026-.635-.309-.421-.548-1.085-.712-1.892-.572-2.807-.319-7.449-.302-8.109-.01-.036-.103-.377-.217-.687-.37-1.009-1.085-2.727-1.709-4.63-.929-2.83-1.616-6.059-.83-8.091a.52.52 0 01.332-.31l-.042-.059a161.693 161.693 0 01-4.747-7.05 201.992 201.992 0 01-3.975-6.511 238.167 238.167 0 01-4.19-7.465 258.138 258.138 0 01-3.89-7.521 257.407 257.407 0 01-3.001-6.245 225.625 225.625 0 01-2.535-5.662 165.723 165.723 0 01-2.016-4.88c-.257-.655-.51-1.313-.755-1.973a71.813 71.813 0 01-.772-2.173l1.796-23.864c-1.014 5.072-2.609 33.976-2.029 41.801.583 7.871 2.182 19.095 2.037 23.322-.145 4.182-.573 7.499 3.032 19.757 1.466 4.982.935 15.218-.235 26.053-1.738 16.09-4.862 33.516-4.688 36.737.292 5.403 4.223 16.648-.888 36.655-1.943 7.603-3.126 16.483-3.381 21.965-.105 2.268-.065 3.934.171 4.642 2.445 7.327.675 10.917.434 11.671-.503 1.569-2.316 2.88-4.751 3.524-3.479.921-8.205.522-11.718-2.153a.47.47 0 01-.058-.052l-2.699-2.792a1.717 1.717 0 01-.164-.084c-.484-.283-1.656-1.087-2.564-2.098-.879-.977-1.477-2.152-1.208-3.247.122-.496.414-.987.954-1.441 2.372-1.995 2.753-3.449 2.809-3.767-.49-1.745-.123-3.3.36-5.086.68-2.516 1.569-5.536.064-10.464-3.371-11.043-3.071-23.159-1.533-33.971-3.892-12.808-3.328-20.44-2.937-25.499.162-2.103.302-3.746.048-5.13-2.471-13.449-1.039-21.882.273-26.314-.88-.982-1.455-2.226-1.936-3.651-.442 1.038-1.021 1.993-1.768 2.827.016.029.03.059.04.092 1.8 5.522 1.369 11.877.646 17.718-.706 5.701-1.701 10.896-1.03 14.272 1.879 9.446-.416 17.522-1.663 28.213 1.067 7.574-.264 16.32-1.12 23.882-.562 4.961-.923 9.403-.214 12.635.925 4.216.409 5.964.127 7.377-.015.072-.028.143-.041.213a.507.507 0 01-.007.145l-.056.292c-.105 1.011.127 2.041 1.504 4.184 2.28 3.546 2.748 6.274 2.08 8.148-.473 1.326-1.502 2.268-2.934 2.805-.844.316-1.2.805-1.588 1.299-1.075 1.369-2.278 2.948-11.212 2.327-3.184-.221-5.131-1.284-6.274-2.75-1.698-2.178-1.621-5.319-1.029-8.179 1.276-6.166 3.248-6.602 1.242-14.827-2.004-8.217-8.478-23.75-4.803-52.509 1.047-8.195 1.062-8.637-3.38-24.555-3.127-11.204-5.132-27.864-1.591-54.667-.694-9.724.768-21.256 1.374-28.19.492-5.626.713-10.533.752-14.875-1.844 5.251-5.425 10.697-6.557 14.221-2.512 7.815-15.825 30.304-19.649 35.403a.507.507 0 01.043.167c.235 2.592-1.218 6.257-2.448 8.949-.555 1.214-1.058 2.225-1.315 2.832-.07.166-.132.357-.14.383-.031.656-.111 5.307-.883 8.068-.222.792-.509 1.438-.847 1.836-.311.365-.674.552-1.069.559-.436.009-.802-.211-1.071-.667-.394-.67-.565-2.025-.608-3.574-.058-2.127.084-4.641-.054-6.024-.284.787-.591 2.012-.942 3.363-.674 2.598-1.513 5.64-2.596 7.111-.596.811-1.29 1.184-2.021 1.045-.709-.134-1.124-.6-1.294-1.33-.19-.817-.024-2.046.315-3.413.549-2.211 1.53-4.816 1.817-6.481.054-.314.083-.59.072-.817l-.001-.013-.004.005c-.292.35-.631.934-1.008 1.648-1.317 2.488-3.04 6.485-4.564 8.36-.458.564-.914.948-1.33 1.111-.382.149-.747.142-1.092-.026-.547-.269-.853-.746-.941-1.401-.069-.52.011-1.172.215-1.909.775-2.802 3.37-6.982 4.646-9.426-.57.386-1.103.984-1.618 1.664-1.229 1.621-2.323 3.728-3.367 5.077-.416.537-.83.961-1.236 1.219-.515.329-1.031.417-1.545.232-.859-.308-1.216-.953-1.172-1.864.035-.71.353-1.623.872-2.657 1.568-3.122 4.985-7.484 6.733-10.739.604-1.126 1.024-2.093 1.016-2.805-.17.023-.356.074-.557.142-.826.281-1.849.847-2.916 1.334-.956.437-1.945.811-2.867.913-1.03.113-1.982-.1-2.757-.858-.362-.355-.503-.714-.508-1.055-.006-.469.268-.952.795-1.391.917-.764 2.664-1.477 4.095-2.11.84-.372 1.566-.694 1.854-1.009 1.182-1.293 2.93-2.089 6.574-2.911 1.575-.356 2.676-.563 3.563-.59 1.957-4.296 11.845-37.919 18.305-48.513 3.22-5.28 3.922-9.368 4.268-13.329.354-4.067.349-8.003 2.175-12.905.103-.369 1.414-4.952 4.127-9.112 1.923-2.949 4.553-5.673 7.925-6.617 1.798-.503 3.638-1.227 5.479-1.506 3.968-.602 8.052-.644 10.942-4.187.692-.849 1.529-2.169 1.725-3.796-.622-.167-1.14-.185-1.582-.093-1.084.225-1.637 1.126-2.146 1.873-.307.45-.599.861-.924 1.136-.28.238-.587.386-.935.42-.502.051-1.134-.143-1.946-.839-5.193-4.451-9.439-3.358-9.439-3.358a.52.52 0 01-.535-.837s2.055-2.465 2.786-5.421c.466-1.887.388-3.986-1.23-5.729-2.384-2.568-3.506-4.748-3.897-6.734-.396-2.005-.049-3.822.551-5.658 1.122-3.432 3.181-6.932 2.316-12.075-.712-4.229 1.487-6.418 4.114-8.131 1.228-.801 2.549-1.493 3.665-2.264 1.025-.708 1.879-1.473 2.257-2.496 1.833-4.96 4.325-7.385 6.786-8.483 3.698-1.649 7.385-.297 8.914.194zm13.138 58.059c-.623.041-1.117.289-1.596.535-.749.382-1.471.758-2.413.716-.917-.04-2.069-.478-3.677-1.812-1.019-.846-1.813-1.166-2.489-1.101-.468.046-.862.283-1.221.607-.417.378-.786.871-1.144 1.377-.556.786-1.089 1.602-1.695 2.159-.476.438-1 .725-1.593.784-.618.061-1.329-.123-2.162-.724-1.138-.822-2.092-1.386-2.902-1.744-.271 1.746-1.164 3.168-1.919 4.093-3.073 3.767-7.374 3.919-11.593 4.559-1.8.273-3.597.988-5.354 1.48-3.133.877-5.547 3.442-7.334 6.182-2.737 4.198-4 8.84-4 8.84l-.015.046c-1.795 4.806-1.774 8.667-2.122 12.652-.357 4.096-1.087 8.322-4.416 13.781-6.543 10.731-16.597 45.128-18.343 48.606a.51.51 0 01-.153.184.522.522 0 01-.433.221c-.876-.013-1.965.197-3.598.566-3.33.751-4.955 1.417-6.035 2.598-.233.255-.682.538-1.259.823-1.166.575-2.904 1.218-4.104 1.923-.402.236-.739.474-.95.725-.09.108-.16.209-.158.321.001.11.077.211.195.325.535.524 1.202.646 1.914.567.821-.09 1.697-.435 2.548-.824 1.102-.503 2.161-1.082 3.014-1.373.725-.247 1.337-.275 1.769-.053a.522.522 0 01.157.802c.016.864-.41 2.047-1.132 3.393-1.744 3.248-5.156 7.599-6.72 10.713-.439.875-.733 1.64-.763 2.24-.019.399.108.699.484.834.317.113.612-.074.931-.36.461-.412.923-1.054 1.405-1.79.929-1.419 1.911-3.179 2.997-4.493.792-.957 1.649-1.678 2.561-1.944a.52.52 0 01.667.502.522.522 0 01.141.626c-1.055 2.231-4.089 6.91-4.93 9.951-.16.577-.241 1.086-.186 1.494.036.273.138.49.367.602.115.057.235.011.365-.062.255-.144.515-.406.789-.743 1.492-1.836 3.163-5.756 4.452-8.191.349-.66.672-1.215.956-1.605.234-.321.456-.541.645-.656a.865.865 0 01.538-.136.773.773 0 01.535.291c.142.171.243.407.283.711.042.323.016.744-.069 1.236-.29 1.684-1.277 4.32-1.832 6.555-.247.996-.41 1.906-.359 2.595.034.454.141.802.521.874.218.041.414-.053.603-.213.282-.238.537-.61.782-1.066.828-1.541 1.478-3.987 2.03-6.115.521-2.009.977-3.746 1.375-4.316.255-.366.561-.446.807-.398.251.05.522.258.663.718.267.865.195 3.102.186 5.318-.006 1.563.023 3.115.275 4.101.056.217.12.402.204.545.046.078.078.155.153.154.167-.003.281-.152.404-.338.211-.319.381-.77.529-1.297.756-2.703.817-7.272.846-7.853.006-.127.076-.379.221-.723.259-.613.766-1.633 1.326-2.859 1.16-2.537 2.58-5.979 2.359-8.422a.514.514 0 01.076-.322.52.52 0 01.058-.529c3.755-4.985 17.021-27.365 19.517-35.132 1.318-4.101 5.984-10.817 7.302-16.78a.519.519 0 01.242-.335l-.747 18.088c1.792-20.51-.001-31.462-1.196-40.423a.521.521 0 011.033-.138c1.201 9.012 3.003 20.025 1.201 40.651-.604 6.907-2.068 18.4-1.37 28.078l-.003.106c-3.523 26.628-1.55 43.177 1.555 54.303 4.516 16.183 4.474 16.635 3.41 24.967-3.648 28.552 2.792 43.972 4.782 52.13 2.067 8.477.081 8.93-1.234 15.285-.53 2.558-.689 5.379.83 7.327 1.002 1.286 2.734 2.158 5.525 2.352 8.192.57 9.335-.676 10.32-1.931.495-.63.968-1.229 2.042-1.631 2.95-1.107 3.663-4.252.344-9.415-.525-.816-.9-1.494-1.163-2.078a26.112 26.112 0 00-.374 2.417c-.093.982-.076 1.867.161 2.638a.52.52 0 11-.995.307c-.632-2.054.058-4.831.697-8.107.029-.257.075-.512.128-.778.267-1.332.749-2.978-.123-6.95-.728-3.318-.38-7.88.197-12.975.849-7.501 2.187-16.18 1.115-23.686l-.002-.134c1.231-10.602 3.544-18.597 1.684-27.955-.687-3.453.295-8.771 1.017-14.603.687-5.552 1.13-11.582-.477-16.869-1.882 1.632-4.612 2.65-8.537 2.65a.52.52 0 010-1.041c4.126 0 6.829-1.178 8.549-3.076 1.727-1.903 2.462-4.508 2.702-7.286.499-5.783-1.138-12.314-1.047-15.307a.52.52 0 111.041.031c-.091 3.005 1.544 9.561 1.043 15.366a18.548 18.548 0 01-.582 3.362c.59 2.044 1.199 3.802 2.513 4.997 1.316 1.196 3.331 1.799 6.681 1.627a.521.521 0 11.053 1.04c-3.411.175-5.565-.436-7.03-1.559-1.243 4.47-2.441 12.618-.105 25.333.267 1.456.136 3.185-.035 5.399-.386 4.997-.941 12.544 2.929 25.224l.017.226c-1.531 10.698-1.856 22.7 1.483 33.635 1.587 5.199.662 8.385-.056 11.04-.268.992-.512 1.902-.553 2.824l.007.03c.658 3.455 1.434 6.378.776 8.517a.52.52 0 11-.996-.306c.238-.771.255-1.656.162-2.638a23.302 23.302 0 00-.296-2.005c-.445.781-1.228 1.799-2.604 2.956-1.19 1.001-.52 2.218.359 3.195.89.99 2.343 1.904 2.42 1.952a.521.521 0 01.215.134l2.737 2.831c3.239 2.448 7.588 2.799 10.79 1.951 2.026-.536 3.606-1.529 4.025-2.835.228-.712 1.879-4.102-.43-11.023-.255-.766-.337-2.567-.223-5.02.257-5.534 1.451-14.499 3.412-22.175 5.067-19.835 1.146-30.984.857-36.341-.175-3.235 2.947-20.742 4.692-36.905 1.152-10.667 1.715-20.742.272-25.647-3.665-12.462-3.221-15.835-3.074-20.087.145-4.206-1.455-15.375-2.035-23.209-.584-7.878 1.026-36.976 2.047-42.082a.521.521 0 011.021.204c-.519 2.598-1.191 11.448-1.645 20.517.008.024.013.05.017.076.759 4.947 12.347 32.301 26.687 52.322a.522.522 0 01-.289.807.516.516 0 01-.004.367c-.719 1.858-.001 4.802.848 7.39.62 1.889 1.331 3.595 1.698 4.596.192.524.285.895.281 1.054-.013.582-.28 5.143.28 7.893.109.536.247.999.435 1.332.109.194.212.351.378.366.075.007.112-.068.164-.143.093-.136.171-.316.242-.528.323-.966.463-2.512.569-4.071.15-2.211.239-4.447.567-5.292.174-.447.46-.636.713-.667.249-.031.548.071.777.455.355.596.686 2.361 1.061 4.403.398 2.162.871 4.648 1.586 6.244.211.473.439.862.703 1.12.178.173.366.281.586.256.385-.045.517-.384.583-.834.101-.684.003-1.604-.172-2.615-.393-2.269-1.188-4.969-1.357-6.669-.049-.497-.045-.919.02-1.238.062-.3.18-.529.334-.688.392-.407.968-.384 1.522.388.295.412.632 1.082.994 1.903 1.11 2.522 2.496 6.552 3.852 8.49.249.356.49.636.734.798.124.082.241.136.36.088.236-.095.353-.304.409-.574.083-.403.039-.917-.079-1.504-.62-3.093-3.311-7.978-4.202-10.279a.519.519 0 01.186-.614.521.521 0 01.701-.453c.89.331 1.693 1.112 2.414 2.123.989 1.389 1.842 3.215 2.667 4.697.427.769.843 1.441 1.273 1.886.298.308.578.516.903.425.384-.107.532-.397.542-.796.014-.601-.225-1.385-.6-2.289-1.336-3.219-4.427-7.804-5.933-11.168-.708-1.582-1.05-2.928-.832-3.794a.522.522 0 01.608-.384c.173-.033.384-.023.629.053.556.172 1.442.715 2.456 1.304 1 .579 2.136 1.203 3.196 1.47.894.225 1.731.2 2.307-.495.12-.146.185-.284.183-.426-.002-.155-.076-.303-.182-.453-.203-.286-.523-.561-.901-.834-.956-.688-2.267-1.331-3.281-1.914-.774-.444-1.382-.878-1.636-1.254-.189-.281-.624-.589-1.252-.934-1.065-.587-2.654-1.225-4.663-1.833-1.333-.403-2.301-.669-3.093-.778a.504.504 0 01-.208-.075.523.523 0 01-.423-.349c-2.461-7.269-5.197-23.608-11.522-34.653-7.652-13.36-8.894-21.171-9.407-23.98l-.007-.063c-.303-5.096-.844-11.61-2.929-17.304-2.047-5.587-5.588-10.386-11.925-12.17-6.616-1.861-10.885-3.472-13.652-4.991-4.355-2.39-5.131-4.592-5.357-7.155a.512.512 0 01.006-.136zM67.11 289.646c.416 5.522.002 9.222-1.795 16.405a.521.521 0 001.01.253c1.833-7.328 2.248-11.103 1.824-16.736a.52.52 0 00-1.039.078zm36.627 9.887c-.248 2.732.364 4.596.613 6.459a.52.52 0 101.032-.138c-.239-1.796-.847-3.592-.607-6.227a.522.522 0 00-1.038-.094zm-4.515-4.71c0 3.501-.603 8.692-1.085 10.865a.52.52 0 101.016.226c.493-2.218 1.111-7.517 1.111-11.091a.521.521 0 00-1.042 0zm-26.113.398c.646 7.584 1.457 10.327 1.457 10.327a.522.522 0 00.999-.294s-.785-2.689-1.418-10.122a.52.52 0 10-1.038.089zm2.432-48.292l-3.635 5.68a.522.522 0 00.878.562l3.635-5.68a.522.522 0 00-.878-.562zm20.345-1.097a206.802 206.802 0 002.227 5.986.52.52 0 10.97-.38s-1.246-3.182-2.214-5.95a.521.521 0 00-.983.344zM85.217 135.027c-.293 3.223-.577 17.291.009 20.075a.521.521 0 101.019-.214c-.577-2.742-.279-16.593.009-19.767a.521.521 0 10-1.037-.094zM99.82 61.999c1.089-.227 1.786-1.065 2.544-1.797.728-.704 1.5-1.335 2.544-1.54 1.418-.279 3.411.235 6.609 2.739 1.162-2.659 1.119-4.923.295-8.221-.412-1.65.118-3.404.856-5.309 1.009-2.607 2.408-5.526 1.679-8.944-.574-2.69-1.476-4.49-2.186-6.151-1.125-2.635-1.804-4.938-.189-9.586.663-1.908-.408-3.131-1.949-4.367-1.308-1.05-2.958-2.09-4.414-3.424-1.52-1.393-2.829-3.098-3.38-5.425-.771-3.256-2.115-5.359-3.779-6.651-2.49-1.934-5.668-2.038-8.566-1.573-3.349.537-6.343 1.844-7.617 2.191a.523.523 0 01-.283-.002.517.517 0 01-.304-.004c-1.395-.447-4.784-1.755-8.185-.238-2.278 1.016-4.536 3.3-6.233 7.892-.363.981-1.068 1.784-1.969 2.497-1.244.984-2.869 1.802-4.361 2.774-2.299 1.499-4.279 3.386-3.656 7.086.725 4.308-.477 7.52-1.594 10.472-.942 2.49-1.835 4.779-1.233 7.449.403 1.782 1.47 3.724 3.593 6.01 1.891 2.038 2.023 4.482 1.478 6.688-.494 2-1.551 3.792-2.268 4.847 1.769-.057 5.21.374 9.123 3.728.5.429.854.625 1.164.594.185-.019.331-.134.476-.281.217-.221.414-.514.627-.826.647-.95 1.415-2.019 2.794-2.306 1.312-.272 3.256.17 6.307 2.374.53.382.975.552 1.376.536.598-.023 1.056-.451 1.499-.982.383-.459.742-1.003 1.115-1.53.855-1.21 1.811-2.293 3.115-2.42.873-.084 1.936.243 3.254 1.336 1.349 1.119 2.288 1.54 3.057 1.574.744.033 1.303-.302 1.893-.604.751-.383 1.537-.737 2.611-.638 1.022.094 2.332.613 4.156 2.031l.001.001z" />
    </g>
</svg>