<svg viewBox="0 0 168 320" width="168" height="320" fill-rule="evenodd" clip-rule="evenodd" stroke-linecap="round" stroke-linejoin="round" stroke-miterlimit="1.5">
    <g>
        <path data-bodypart="head" d="M55.646 26.446c.449-2.347.568-3.558 1.181-6.505.444-2.136 8.221-5.217 10.256-9.824 1.32-2.986 4.277-9.32 14.534-6.36 5.871-2.617 12.23-4.036 16.28-.817 2.635 2.095 5.4 10.694 5.4 10.694-1.017.294 6.036 5.048 6.036 5.048-.659-.104.425 3.495 1.792 7.418-25.394 5.336-45.062 2.859-55.479.346z" />
        <path data-bodypart="eyes" d="M76.111 33.795c3.668.918 5.996 4.262 5.195 7.464-.801 3.202-4.429 5.056-8.098 4.139-3.668-.918-5.996-4.262-5.195-7.464.801-3.202 4.43-5.057 8.098-4.139zm15.009-.127c-3.668.918-5.996 4.263-5.195 7.464.801 3.202 4.429 5.057 8.098 4.139 3.668-.917 5.996-4.262 5.195-7.464-.801-3.202-4.43-5.056-8.098-4.139z" />
        <path data-bodypart="ears" d="M107.011 35.12c3.108-.144 5.527 3.496 2.798 9.082-1.044 2.138-4.915 7.439-5.839 6.939-2.469-1.336-4.182-4.247-4.182-7.621 0-4.636 3.177-8.212 7.223-8.4zm-46.059 1.609c3.987 0 7.223 3.764 7.223 8.4 0 2.071-.646 3.967-1.715 5.432-1.325 1.816-5.999-2.412-6.909-4.918-.866-2.383-1.884-5.628-1.859-6.025.115-1.795 1.454-2.889 3.26-2.889z" />
        <path data-bodypart="nose" d="M85.403 43.896c-1.156-.945-1.349-.742-1.454-.74-.452.011-.816.272-1.26.782-.991 1.14-5.184 4.797-2.43 6.566 3.648 2.344 14.213.81 5.144-6.608z" />
        <path data-bodypart="oral_cavity" d="M67.423 53.705c5.678-1.412 24.02-2.184 33.985.186 0 0-2.104 4.794-4.637 7.448-2.533 2.655-8.341 5-11.454 5.103-3.113.103-12.223-2.133-15.29-8.396-3.067-6.263-2.455-4.2-2.604-4.341z" />
    </g>
    <path data-bodypart="neck_or_throat" d="M97.144 64.049c.605 2.086 1.521 3.612 2.698 4.778-11.126 7.676-21.812 4.777-28.997.609A7.716 7.716 0 0072 68.044c.508-.777.851-1.914 1.114-3.012.442-.349-.129-.525.202-.79 1.461 1.29 6.238 3.846 11.735 3.909 6.702.076 10.106-3.079 11.655-4.363.021-.018.416.279.438.261z" />
    <path data-bodypart="chest" d="M101.369 70.062c2.035 1.347 4.593 2.078 7.505 2.843 1.713.45 2.37.14 4.145.701 1.41 3.891 2.671 13.118 3.273 25.291.277 5.608-.532 8.661-1.364 9.352-.009.008 0 .024 0 .035l.682 18.406a.945.945 0 00.028.194c.03 1.638.055 3.28.08 4.882-6.15-7.046-13.831-13.44-29.851-13.667-15.833-.224-25.791 7.876-30.791 13.89.015-2.324.005-4.695-.014-6.78-.109-11.852 1.635-13.868.978-17.419-.577-3.112-1.056-9.545-.428-12.058-.084-9.031.085-13.683 3.774-23.065.442-.093.883-.173 1.32-.24 2.862-.434 5.969-.469 8.464-1.794 7.756 4.74 19.745 8.355 32.199-.571z" />
    <path data-bodypart="upper_arm" d="M57.14 73.252c-3.349 8.878-3.496 13.644-3.411 22.59l.021.185s1.773 8.382 2.023 13.043c.122 2.264.209 6.05-.554 9.815-.266 1.311-1.25 2.471-1.527 3.767-1.338 3.34-3.232 6.685-4.614 9.498-1.73-2.485-4.298-4.6-7.121-6.171-2.797-1.556-5.837-2.575-8.52-2.921 1.266-2.944 2.487-5.467 3.605-7.302 6.565-10.765 2.872-16.666 6.511-26.407 0 0 .49-1.112.93-2.364 1.947-5.543 5.128-10.725 10.794-13.061a22.697 22.697 0 011.863-.672zm58.15 1.487c1.903.777 4.839 2.214 6.287 3.661.869.868 1.465 2.108 2.079 3.164 2.641 6.2 6.074 23.733 6.074 23.733.43 2.358 1.379 8.251 6.226 18.006-2.821.265-6.104 1.316-9.108 2.987-2.496 1.389-4.793 3.204-6.487 5.323a147.828 147.828 0 01-2.949-7.186l-2.272-6.855-.485-8.201s1.576-2.205 2.697-9.44l.01-1.732c.328-9.51-.845-19.378-2.072-23.46z" />
    <path data-bodypart="upper_abdomen" d="M55.037 135.111c4.047-5.677 13.918-15.368 30.803-15.128 16.543.234 23.788 7.38 29.929 14.742.038 2.002.086 3.888.158 5.557-12.422.215-48.272-.209-61.066-.339.086-1.36.142-3.03.176-4.832z" />
    <path data-bodypart="forearm" d="M32.677 124.863c2.581.235 5.599 1.224 8.364 2.763 2.926 1.628 5.581 3.875 7.099 6.556-.2.476-.372.928-.508 1.353-2.282 7.099-13.496 26.327-18.371 33.563-3.064-2.531-6.75-4.42-10.209-5.571 2.009-5.22 8.114-25.323 13.625-38.664zm104.208.263a115.78 115.78 0 002.213 4.043c6.016 10.504 8.811 25.768 11.189 33.57-3.09 1.215-6.532 2.962-9.608 5.192l-.005-.007c-.561-.792-1.116-1.59-1.663-2.392a181.36 181.36 0 01-4.596-7.099 211.043 211.043 0 01-4.495-7.663 229.934 229.934 0 01-8.683-17.188l-.001-.003c1.565-2.279 3.941-4.203 6.528-5.643 3.04-1.692 6.386-2.719 9.121-2.81z" />
    <path data-bodypart="mid_abdomen" d="M54.696 141.825c12.652.126 48.791.553 61.329.336.037.582.079 1.124.126 1.619.205 2.157 1.219 7.07 2.121 14.312-19.654 7.7-51.09 3.989-65.463 1.653.539-8.874 1.547-15.013 1.887-17.92z" />
    <path data-bodypart="lower_abdomen" d="M118.503 160.018c.202 1.768.395 3.659.565 5.668-10.047 2.58-19.935 7.746-25.334 16.312a8.181 8.181 0 00-6.772-3.567 8.183 8.183 0 00-6.973 3.875c-6.073-8.983-16.014-13.999-27.467-15.895.043-1.665.105-3.26.182-4.779 14.546 2.331 45.876 5.915 65.799-1.614z" />
    <path data-bodypart="hand" d="M16.811 164.799c3.51.916 7.474 2.724 10.748 5.301l.248.467c1.141 4.023-3.721 12.07-3.764 12.936-.042.844-.164 9.965-2.295 10.007-2.13.041-.446-10.646-1.595-10.871-1.148-.225-2.523 12.721-5.607 12.137-3.083-.585 2.383-10.709 1.156-12.178-1.227-1.468-5.597 12.503-8.129 11.263-2.592-1.27 2.996-9.548 4.518-12.768l-.192-.407c-3.448 1.006-5.806 9.47-8.235 8.598-4.123-1.48 8.444-14.105 7.784-17.947-2.669-.209-7.274 2.697-9.247 1.491-2.391-1.461 5.137-3.613 6.271-4.852 1.134-1.24 2.824-1.973 6.319-2.762a41.969 41.969 0 012.02-.415zm134.87-.584c.659.144 1.437.365 2.398.656 3.43 1.037 5.064 1.889 6.105 3.207 1.042 1.318 8.396 4.005 5.907 5.291-2.054 1.061-6.44-2.168-9.116-2.152-.935 3.786 10.693 17.28 6.475 18.46-2.485.695-4.23-7.916-7.597-9.167l-.221.392c1.288 3.321 6.267 11.979 3.59 13.059-2.614 1.056-5.97-13.193-7.299-11.817-1.33 1.377 3.396 11.868.278 12.229-3.118.362-3.559-12.65-4.721-12.508-1.162.142-.249 10.923-2.371 10.729-2.123-.195-1.589-9.301-1.57-10.146.017-.788-3.511-7.781-3.082-11.999 3.463-2.808 7.647-4.912 11.224-6.234z" />
    <path data-bodypart="sexual_organs" d="M81.151 184.155a6.286 6.286 0 015.811-3.84 6.288 6.288 0 015.688 3.566 26.708 26.708 0 00-2.29 6.087.94.94 0 00.01.486l-6.456-.133a.942.942 0 00-.055-.306 34.626 34.626 0 00-2.708-5.86z" />
    <path data-bodypart="thigh" d="M52.483 168.312c13.585 2.308 24.926 9.175 29.601 22.334a.943.943 0 00.978.622c4.145 8.243.541 27.701 1.355 34.969.167 1.485.288 2.871.37 4.169-3.571 2.129-7.68 2.928-11.66 3.012-5.2.109-10.191-1.002-13.55-2.062v-.006c-.458-4.387-1.117-8.751-1.901-13.091-.21-1.162-.429-2.322-.656-3.48-.127-.647-.258-1.293-.386-1.94a227.933 227.933 0 01-1.729-9.87 212.875 212.875 0 01-2.344-25.281 199.717 199.717 0 01-.079-9.303l.001-.073zm66.737-.73c.95 12.638.97 29.546-2.495 49.539-.932 5.378-1.614 10.015-2.072 14.07-3.208 1.545-6.752 2.154-10.199 2.227-5.865.123-11.464-1.307-14.755-2.464-.032-1.524-.066-3.171-.121-4.999-.338-11.135-2.328-26.017 1.261-34.929a.942.942 0 001.351-.612c3.083-12.662 14.91-19.679 27.03-22.832z" />
    <path data-bodypart="knee" d="M84.891 232.508c.311 9.083-1.375 13.495-2.258 18.143-3.02 1.313-6.305 1.843-9.506 1.91-4.981.105-9.769-.91-13.115-1.927.25-4.556.417-9.859-.239-17.251 3.483 1.03 8.344 2.025 13.394 1.918 3.982-.084 8.076-.853 11.724-2.793zm4.85.45c3.506 1.16 9.007 2.464 14.753 2.343 3.341-.07 6.761-.623 9.93-1.945-.44 4.475-.584 8.205-.477 11.446.069 2.067.174 3.959.294 5.725-3.098 1.403-6.487 1.965-9.787 2.034-4.669.099-9.169-.788-12.471-1.737-1.859-7.27-2.101-11.643-2.242-17.866z" />
    <path data-bodypart="lower_leg" d="M114.384 252.516c.507 6.645 1.116 11.594.488 17.849-.104 2.638-2.099 9.515-3.13 14.634-2.126.563-4.321.819-6.478.864-3.251.069-6.419-.34-9.158-.915-.672-5.832-2.996-11.206-2.841-19.566.038-2.009.997-6.388-.496-11.649l-.225-.804c3.322.87 7.565 1.608 11.95 1.515 3.327-.07 6.732-.618 9.89-1.928zm-54.484.048c3.475 1.017 8.279 1.986 13.267 1.88 3.061-.064 6.188-.533 9.128-1.628-.207 1.749-.253 3.626-.006 5.864.566 5.111.328 8.075-.362 11.81.039 0-1.552 8.382-2.093 13.379-2.198.607-4.473.879-6.707.926-2.975.063-5.88-.274-8.451-.772-.844-3.038-1.931-5.985-2.561-8.419-2.999-10.167-2.639-15.856-2.215-23.04z" />
    <path data-bodypart="foot" d="M96.291 286.905c2.732.54 5.835.909 9.013.842 2.019-.043 4.066-.261 6.07-.72-.219 1.401-.307 2.55-.178 3.269.604 3.362 2.316 7.631 1.971 10.045-.345 2.413 2.758 1.034 8.533 8.619 4.482 3.103 4.224 5.603 2.845 6.379 0 0-6.051 3.125-8.103 3.965-2.221.908-3.448-1.121-3.448-1.121l-.08-.586a3.06 3.06 0 00-.006-.793c-.473-2.792-.157-.404.006.793-.413 3.154-6.246 2.965-8.367.845-1.81-1.811-1.738-3.544-4.582-8.285-4.396-3.189-1.279-5.851-2.744-10.678-1.316-4.336-.549-7.277-.93-12.574zm-16.621-1.049c-.024.535-.017.963.027 1.248.403 2.56 2.459 4.509.672 9.258-1.786 4.749.517 6.239.163 8.465-.282 1.777-.672 3.4-2.285 4.891-1.614 1.492-1.105 4.683-3.151 8.124-2.046 3.441-7.777.426-7.777.426l-4.994.729c-2.476.518-3.639-1.318-3.558-1.318l-3.202-1.026c-2.608-.462-1.563-4.187-.008-5.442 1.934-1.562 4.273-4.931 5.693-6.048.922-.725 3.005-2.348 3.093-4.083-.219-3.564 1.662-6.82 1.522-10.404-.058-1.51-.315-3.078-.676-4.646 2.469.431 5.195.707 7.978.648 2.164-.045 4.362-.293 6.503-.822z" />
    <g>
        <path d="M54.272 121.808c-1.92 4.965-5.158 9.991-6.225 13.313-2.513 7.82-15.814 30.294-19.677 35.463.008.059.014.12.02.181.118 1.259-.154 2.768-.616 4.299-.78 2.582-2.094 5.235-2.823 6.794-.244.524-.459 1.083-.473 1.119-.03.656-.11 5.32-.885 8.088-.222.793-.509 1.44-.848 1.839-.31.365-.673.551-1.068.559-.436.009-.801-.211-1.07-.667-.395-.671-.566-2.028-.608-3.581-.06-2.142.085-4.677-.057-6.06-.287.789-.597 2.026-.951 3.392-.676 2.604-1.517 5.652-2.602 7.127-.597.812-1.29 1.185-2.021 1.046-.71-.134-1.124-.6-1.294-1.33-.191-.819-.024-2.05.316-3.42.55-2.216 1.533-4.828 1.821-6.497.054-.316.083-.593.072-.82l-.001-.024-.012.013c-.292.351-.632.937-1.011 1.653-1.32 2.494-3.048 6.5-4.575 8.381-.458.564-.915.948-1.332 1.111-.381.15-.746.143-1.09-.026-.547-.268-.854-.745-.941-1.4-.07-.521.011-1.174.215-1.912.779-2.816 3.39-7.018 4.666-9.465-.578.387-1.117.991-1.639 1.679-1.231 1.626-2.328 3.737-3.375 5.09-.416.538-.831.962-1.238 1.221-.515.329-1.031.417-1.545.232-.859-.308-1.216-.953-1.172-1.865.035-.711.354-1.625.874-2.661 1.572-3.13 4.998-7.503 6.75-10.766.556-1.036.956-1.939 1.012-2.633a6.262 6.262 0 00-.226.019c-.872.087-1.878.396-2.896.724-1.301.419-2.621.87-3.734 1.006-.855.104-1.6.019-2.166-.327-.46-.281-.655-.608-.702-.917-.065-.426.172-.921.728-1.382.903-.747 2.713-1.542 4.196-2.243.884-.418 1.646-.784 1.938-1.103 1.184-1.295 2.937-2.093 6.588-2.917 1.564-.353 2.676-.559 3.573-.588 1.956-4.285 11.874-38.016 18.353-48.641 3.229-5.295 3.933-9.393 4.28-13.365.356-4.083.35-8.034 2.189-12.958a.233.233 0 01.011-.028s.483-1.094.915-2.326c1.996-5.683 5.28-10.976 11.087-13.37a24.469 24.469 0 015.55-1.53c2.034-.309 4.193-.411 6.163-.93 1.867-.492 3.562-1.366 4.777-3.225.593-.909.93-1.919 1.189-2.956l-.026-.021c-1.554-1.332-3.226-1.811-4.067-1.744-.845.067-1.447.584-2.078.948-.551.319-1.118.548-1.787.502-.641-.044-1.395-.343-2.335-1.148-5.139-4.405-8.315-3.04-8.315-3.04a.517.517 0 01-.677-.703s3.391-6.829-4.134-12.409c-1.179-.875-1.831-1.805-2.108-2.782-.409-1.438.002-3.007.876-4.732 1.994-3.934 6.453-8.78 7.264-15.087.528-4.118 2.714-6.141 4.994-7.716 1.079-.745 2.179-1.384 3.111-2.116.862-.678 1.579-1.433 1.959-2.462 1.837-4.971 4.334-7.402 6.801-8.502 3.707-1.653 7.403-.296 8.934.195l.01-.003c1.295-.353 4.341-1.674 7.745-2.221 3.18-.51 6.657-.339 9.39 1.783 1.818 1.411 3.32 3.691 4.163 7.249.826 3.49 2.413 4.384 3.951 5.302 1.733 1.035 3.418 2.092 4.142 6.127 1.346 7.498 3.352 13.079 6.813 17.405.967 1.208 1.2 2.667.994 4.247-.193 1.476-.775 3.062-1.446 4.624-.775 1.804-1.67 3.577-2.166 5.104-.299.921-.46 1.74-.303 2.404.348 1.47.796 2.625 1.112 3.676.515 1.715.698 3.174-.274 5.149a.519.519 0 01-.792.173c-2.658-2.172-4.752-3.07-6.522-3.259-1.739-.185-3.148.321-4.449.909-1.801.814-4.292 1.754-6.3 1.629 1.901 5.187 6.552 6.747 11.775 8.118 4.443 1.167 9.557 2.252 12.939 5.631.899.898 1.524 2.176 2.161 3.27 0 0 .056.26.028.057 2.653 6.229 6.107 23.84 6.108 23.847.507 2.778 1.743 10.5 9.31 23.711 6.305 11.009 9.091 27.229 11.551 34.675.82.127 1.813.394 3.132.793 3.584 1.084 5.274 2.006 6.362 3.383.268.339 1.003.758 1.854 1.238 1.429.806 3.177 1.729 4.024 2.539.522.499.723 1.01.627 1.431-.069.305-.287.616-.766.864-.589.304-1.339.336-2.184.17-1.1-.215-2.384-.759-3.652-1.271-.992-.401-1.973-.781-2.837-.931a6.418 6.418 0 00-.224-.034c.006.696.34 1.625.821 2.699 1.513 3.38 4.616 7.988 5.959 11.222.445 1.071.697 2.006.681 2.718-.021.913-.424 1.53-1.303 1.776-.526.147-1.034.022-1.525-.343-.387-.287-.77-.74-1.146-1.306-.948-1.425-1.89-3.61-3.002-5.319-.471-.725-.965-1.366-1.513-1.793 1.096 2.532 3.399 6.911 3.974 9.775.151.751.184 1.408.077 1.923-.134.647-.474 1.101-1.039 1.329-.355.144-.72.124-1.089-.052-.404-.193-.832-.609-1.249-1.205-1.388-1.985-2.824-6.105-3.961-8.688-.326-.741-.624-1.349-.89-1.721l-.011-.014-.003.024c-.027.226-.018.505.013.824.167 1.685.96 4.361 1.35 6.611.241 1.39.319 2.631.07 3.434-.222.715-.669 1.15-1.386 1.233-.739.086-1.404-.336-1.941-1.188-.976-1.549-1.597-4.65-2.084-7.296-.255-1.388-.475-2.644-.705-3.451-.24 1.369-.278 3.908-.491 6.041-.154 1.545-.422 2.886-.864 3.527-.301.436-.681.628-1.116.589-.393-.036-.741-.248-1.025-.635-.309-.422-.549-1.088-.713-1.895-.574-2.817-.319-7.474-.302-8.13a18.59 18.59 0 00-.392-1.15c-.615-1.608-1.735-4.348-2.327-6.98-.351-1.56-.514-3.084-.306-4.332a4.528 4.528 0 01.481-1.45c-11.999-16.833-21.211-36.986-24.438-46.408.237 7.816.169 16.828.623 21.595.575 6.04 7.472 33.652.569 73.488-2.177 12.565-2.987 21.064-2.771 27.579.369 11.086 1.771 17.165.924 25.622-.098 2.323-1.619 7.856-2.697 12.643-.696 3.089-1.221 5.854-.986 7.162.361 2.01 1.12 4.345 1.595 6.411.334 1.454.524 2.784.379 3.799-.037.261-.03.457.049.621.143.295.461.485.903.759 1.393.864 3.927 2.204 7.432 6.79 2.84 1.983 3.823 3.78 3.885 5.045.05 1.016-.439 1.764-1.149 2.163a.516.516 0 01-.569-.041c-.358.63-.976 1.056-1.84 1.056a.516.516 0 01-.376-.163 2.358 2.358 0 01-.27.696c-.474.806-1.478 1.41-3.186 1.259a.517.517 0 01-.459-.402c-.208.702-.684 1.271-1.461 1.589-1.837.752-3.1-.194-3.696-.834-.436.614-1.122 1.041-1.942 1.297-2.174.677-5.335.047-6.82-1.438-.769-.769-1.222-1.523-1.677-2.476-.632-1.322-1.276-3.049-2.931-5.821-2.319-1.714-2.648-3.298-2.598-5.095.045-1.622.461-3.443-.251-5.789-1.475-4.859-.363-7.976-1.128-14.566-.664-5.875-3.007-11.278-2.851-19.696.037-1.983.998-6.307-.476-11.499-3.361-11.845-2.857-16.206-3.211-27.908-.207-6.831-1.034-15.069-.819-22.479.136-4.686.692-9.044 2.062-12.527l-6.889-.141c1.663 3.151 2.182 7.992 2.2 13.202.028 8.334-1.192 17.621-.684 22.154 1.308 11.68-.153 17.252-1.275 22.159-.729 3.193-1.316 6.097-.853 10.289.572 5.175.331 8.176-.367 11.956-.01.079-.029.213-.061.396-.39 2.276-2.526 13.771-2.167 16.052.156.998.576 1.899.906 2.919.535 1.656.869 3.598-.261 6.604-1.012 2.688-.638 4.27-.246 5.559.302.991.589 1.836.435 2.805-.3 1.889-.73 3.606-2.445 5.191-.578.534-.829 1.323-1.067 2.261-.408 1.611-.732 3.632-1.991 5.749-1.365 2.296-4.346 2.706-6.466 1.826-.629-.262-1.179-.633-1.596-1.095-.451.415-1.523 1.225-2.914 1.093a2.604 2.604 0 01-1.728-.87.516.516 0 01-.408.443c-1.209.253-2.144-.114-2.743-.785a2.777 2.777 0 01-.481-.768.521.521 0 01-.254.211c-.09.049-.401.202-.744.184-.335-.018-.819-.163-1.446-.738-.243-.223-.545-.696-.715-1.303-.245-.871-.232-2.013.54-3.002 1.129-1.447 2.002-2.911 2.381-3.645a.517.517 0 01.92.475c-.396.766-1.307 2.296-2.485 3.807-.535.686-.53 1.481-.36 2.085.106.376.268.682.418.82.359.328.61.457.802.467.118.006.185-.054.218-.072a.587.587 0 01.285-.078c.083 0 .161.019.231.054-.133-.817.017-1.751.516-2.628.851-1.494 1.422-3.082 1.646-4.037a.518.518 0 011.008.236c-.24 1.021-.846 2.717-1.754 4.313-.606 1.063-.564 2.247.046 2.93.382.427.988.622 1.76.461a.512.512 0 01.237.006c-.467-.914-.468-2.148.223-3.366.717-1.264 1.36-2.286 1.869-3.703a.517.517 0 11.974.35c-.53 1.477-1.195 2.545-1.943 3.864-.858 1.514-.283 3.127 1.086 3.258 1.22.117 2.096-.786 2.239-.944a3.083 3.083 0 01-.25-1.451c.065-.985.417-1.639.911-2.065a2.55 2.55 0 01.819-.468c.493-.381.778-1.097 1.022-1.693.226-.554.424-1.032.617-1.251a.517.517 0 01.777.684c-.191.217-.348.773-.598 1.343a6.982 6.982 0 01-.359.719c1.155.037 2.42.435 3.29.789a.517.517 0 11-.389.959c-.863-.351-2.163-.77-3.273-.711-.215.011-.423.04-.616.095l-.012.008a.516.516 0 01-.233.08 1.427 1.427 0 00-.369.23c-.319.275-.512.712-.554 1.349-.074 1.131.728 1.964 1.786 2.404 1.693.703 4.089.434 5.179-1.399 1.198-2.014 1.489-3.942 1.878-5.475.293-1.158.654-2.106 1.367-2.766 1.513-1.398 1.861-2.927 2.126-4.593.129-.812-.151-1.512-.403-2.342-.439-1.443-.866-3.214.267-6.225 1.014-2.694.725-4.436.245-5.921-.347-1.074-.779-2.026-.944-3.076-.366-2.328 1.772-14.065 2.17-16.388.027-.157.048-.295.054-.334a.54.54 0 01.008-.069c.681-3.688.915-6.614.357-11.661-.479-4.331.119-7.333.873-10.632 1.105-4.831 2.543-10.316 1.255-21.814-.51-4.556.706-13.89.678-22.265-.019-5.452-.548-10.494-2.514-13.456-.102-.425.041-.695.442-.804l8.548.175c.052.001.104.01.153.027l.026.008a.518.518 0 01.309.7c-1.538 3.484-2.126 7.983-2.267 12.842-.215 7.39.612 15.606.818 22.418.352 11.596-.158 15.918 3.173 27.656 1.512 5.33.553 9.766.515 11.801-.155 8.361 2.185 13.725 2.845 19.56.755 6.504-.367 9.585 1.089 14.382.609 2.005.464 3.65.354 5.115-.088 1.174-.167 2.219.328 3.248.327.68.905 1.347 1.871 2.048l.14.153c1.437 2.395 2.138 4.03 2.708 5.296.535 1.187.939 2.032 1.798 2.89 1.257 1.257 3.94 1.754 5.78 1.181 1.087-.338 1.867-1.09 1.704-2.377-.316-1.835-1.615-2.384-2.884-2.474-.933-.066-1.855.101-2.44.231a.518.518 0 01-.225-1.011c.587-.13 1.475-.289 2.405-.268-.12-.306-.293-.747-.534-1.367a.519.519 0 01.965-.375c.44 1.131.651 1.666.733 1.873 1.395.3 2.653 1.17 3.002 3.228l-.51.087.513-.067c.053.41.044.785-.021 1.126a.377.377 0 01.037.052s1 1.65 2.809.91c.617-.253.905-.778.937-1.392.056-1.09-.616-2.421-1.75-3.334-1.626-1.309-1.955-2.978-1.955-2.978a.518.518 0 011.014-.207s.284 1.327 1.59 2.379c1.417 1.14 2.205 2.831 2.135 4.193a3.253 3.253 0 01-.027.284.519.519 0 01.459-.205c1.161.103 1.881-.205 2.203-.752.476-.809.068-1.998-.842-2.624-1.957-1.346-2.934-4.019-2.934-4.019a.518.518 0 01.974-.353s.839 2.344 2.547 3.52c.89.612 1.409 1.596 1.47 2.545a.515.515 0 01.323-.113c.565 0 .918-.362 1.069-.831.261-.814-.017-1.936-.882-2.434-.681-.393-1.169-.96-1.566-1.519-.337-.475-.596-.942-.883-1.229a.518.518 0 01.732-.732c.262.262.512.65.797 1.074.356.529.776 1.128 1.437 1.509 1.104.636 1.59 1.942 1.471 3.071.32-.331.45-.856.26-1.512-.303-1.04-1.319-2.328-3.419-3.781l-.117-.113c-3.4-4.465-5.856-5.765-7.204-6.602-.657-.407-1.076-.749-1.288-1.187-.157-.324-.216-.706-.143-1.218.131-.915-.062-2.111-.363-3.421-.478-2.082-1.241-4.435-1.605-6.46-.248-1.382.26-4.309.995-7.573 1.065-4.729 2.584-10.194 2.673-12.473l.002-.031c.846-8.419-.56-14.466-.926-25.498-.218-6.566.591-15.13 2.785-27.79 6.877-39.687-.006-67.196-.579-73.214-.575-6.032-.316-18.854-.893-27.466l-.001-.025c-.031-1.778-.352-3.992-.23-6.287.126-2.353 1.155-4.636 1.392-6.992.391-3.89.022-7.851.133-11.752a.517.517 0 111.034.029c-.111 3.926.256 7.912-.137 11.826-.235 2.341-1.264 4.607-1.388 6.944-.121 2.262.199 4.445.231 6.2.03.443.057.897.082 1.361.006.02.011.041.014.063.843 5.423 11.092 29.986 25.275 49.966a.517.517 0 01.658.795c-.553.531-.789 1.321-.849 2.238-.067 1.016.091 2.181.359 3.37.58 2.578 1.681 5.262 2.284 6.837.298.778.464 1.33.46 1.529-.013.583-.281 5.157.281 7.914.11.538.248 1.002.436 1.336.111.197.215.354.383.37.076.007.115-.069.168-.145a2.16 2.16 0 00.244-.531c.323-.969.464-2.519.57-4.083.15-2.215.24-4.457.568-5.303.174-.447.459-.636.712-.667.248-.03.546.072.774.454.356.598.687 2.367 1.063 4.413.399 2.168.873 4.661 1.59 6.262.213.474.442.865.706 1.123.18.175.37.284.592.258.387-.045.521-.387.588-.84.101-.686.003-1.608-.173-2.622-.394-2.275-1.191-4.982-1.36-6.686-.049-.498-.045-.921.02-1.24.062-.3.179-.529.333-.688.392-.406.966-.382 1.519.389.296.413.634 1.084.996 1.907 1.114 2.529 2.503 6.569 3.863 8.512.25.358.492.639.736.801.127.084.245.138.366.089.238-.096.356-.306.413-.579.083-.404.039-.92-.079-1.509-.622-3.101-3.319-7.999-4.214-10.306a.518.518 0 01.187-.612.518.518 0 01.697-.452c.892.331 1.696 1.114 2.418 2.127.991 1.392 1.847 3.222 2.673 4.708.429.771.846 1.446 1.277 1.892.3.31.583.519.91.428.388-.109.537-.401.547-.803.014-.603-.225-1.389-.602-2.297-1.34-3.227-4.438-7.823-5.948-11.197-.535-1.194-.861-2.255-.896-3.077a1.245 1.245 0 00-.51.3.518.518 0 01-.724-.74c.434-.424.985-.629 1.626-.663l.08-.003a.518.518 0 01.18-.001c.763.016 1.649.254 2.576.588 1.429.516 2.971 1.258 4.297 1.602.749.195 1.416.278 1.917.019.12-.062.214-.097.232-.173.011-.05-.033-.094-.069-.15a1.804 1.804 0 00-.264-.304c-.802-.767-2.466-1.622-3.818-2.385-1.003-.566-1.841-1.099-2.157-1.498-.995-1.26-2.572-2.043-5.849-3.034-3.209-.971-4.222-1.159-5.883-.207a.517.517 0 01-.515-.898c.867-.497 1.579-.747 2.449-.764-2.413-7.58-5.178-23.328-11.334-34.076-7.67-13.392-8.915-21.223-9.428-24.033 0 0-3.403-17.407-6.032-23.606-.586-1.012-1.15-2.199-1.98-3.028-3.253-3.25-8.196-4.239-12.47-5.361-5.842-1.535-10.932-3.395-12.757-9.593-2.797 2.397-6.325 4.014-10.72 4.089-4.665.08-8.37-1.478-11.279-3.843-.328 1.491-.712 2.972-1.558 4.268-1.372 2.099-3.272 3.105-5.38 3.66-2.006.528-4.202.638-6.272.952a23.4 23.4 0 00-5.31 1.464c-5.526 2.278-8.606 7.35-10.505 12.756a37.93 37.93 0 01-.938 2.385c-1.795 4.813-1.775 8.681-2.123 12.674-.358 4.106-1.09 8.341-4.427 13.814-6.299 10.329-15.843 42.535-18.142 48.168.703.124 1.312.412 2.02.889.237.16.3.482.141.719a.519.519 0 01-.719.14c-1.587-1.068-2.612-.954-5.882-.216-3.339.754-4.969 1.421-6.052 2.606-.344.376-1.218.847-2.259 1.34-1.403.663-3.124 1.397-3.979 2.105-.116.096-.214.19-.285.284-.041.053-.087.093-.08.144.012.077.104.119.219.19.481.294 1.153.259 1.914.119 1.346-.249 2.938-.878 4.4-1.29.949-.267 1.85-.441 2.611-.401a.546.546 0 01.181.013l.079.009c.636.08 1.171.324 1.574.778a.519.519 0 01-.775.686 1.247 1.247 0 00-.487-.335c-.094.817-.496 1.851-1.115 3.005-1.748 3.256-5.169 7.618-6.737 10.74-.441.878-.735 1.645-.765 2.248-.019.402.109.704.488.84.319.114.617-.074.938-.361.462-.414.926-1.057 1.41-1.796.931-1.422 1.915-3.187 3.004-4.504.793-.958 1.651-1.681 2.565-1.948a.519.519 0 01.662.501.518.518 0 01.143.624c-1.058 2.237-4.1 6.929-4.943 9.977-.161.579-.242 1.09-.187 1.499.037.276.14.495.37.608.117.057.239.012.371-.063.255-.144.517-.407.792-.746 1.496-1.841 3.172-5.77 4.464-8.212.349-.661.673-1.218.958-1.609.234-.321.457-.541.646-.656a.871.871 0 01.536-.136.769.769 0 01.533.291c.142.17.243.406.283.71.042.323.016.745-.069 1.238-.291 1.687-1.28 4.33-1.837 6.571-.248.999-.412 1.912-.36 2.603.034.457.143.807.526.88.22.042.417-.053.609-.215.282-.238.539-.612.785-1.07.83-1.544 1.481-3.997 2.035-6.131.522-2.013.98-3.754 1.378-4.325.255-.365.559-.445.804-.397.25.049.521.258.662.716.267.867.195 3.11.186 5.33-.007 1.568.023 3.124.276 4.113.056.218.12.404.205.547.047.081.08.159.157.157.169-.003.284-.153.408-.341.212-.32.383-.773.531-1.301.759-2.71.82-7.291.849-7.874.01-.198.215-.737.568-1.492.715-1.528 2.006-4.125 2.77-6.656.352-1.166.593-2.317.6-3.335.006-.919-.173-1.723-.686-2.293a.517.517 0 11.769-.693c.229.254.413.541.556.857 4.343-6.143 16.643-27.038 19.039-34.496 1.322-4.112 5.999-10.844 7.321-16.823a.517.517 0 01.091-.199c.144-1.961.363-3.892.688-5.735.384-2.122.376-3.435.185-5.503-.195-2.108-.764-4.471-1.163-6.529-.694-3.581-.569-7.424-.119-11.024a.518.518 0 011.027.128c-.436 3.494-.566 7.223.108 10.699.405 2.09.979 4.49 1.178 6.631.201 2.172.206 3.553-.197 5.78-1.748 9.918-.405 22.425-.978 28.445-.573 6.017-5.936 32.716 2.002 72.195 3.941 19.605 3.673 29.729 3.224 37.678-.444 7.864-1.073 13.575 2.107 24.358l-.496.146h.517s-.005 0-.016-.13c1.1 4.246 3.567 10.044 3.768 15.184.071 1.842-.369 3.601-.806 5.356-.413 1.656-.824 3.309-.718 5.038l.001.057c-.04.795-.43 1.575-.969 2.27-.737.95-1.746 1.742-2.322 2.196-1.419 1.116-3.755 4.483-5.688 6.043-.688.556-1.254 1.662-1.369 2.675-.06.538 0 1.052.298 1.413.186.224.464.376.844.443a.518.518 0 01-.181 1.019c-1.322-.234-1.907-1.125-2.003-2.218-.126-1.45.714-3.292 1.761-4.137 1.935-1.563 4.277-4.934 5.698-6.052.531-.417 1.465-1.142 2.144-2.016.398-.514.715-1.078.751-1.665-.105-1.822.313-3.569.748-5.316.414-1.661.844-3.323.776-5.065-.197-5.064-2.647-10.771-3.733-14.956-3.223-10.934-2.596-16.726-2.145-24.702.445-7.893.708-17.947-3.206-37.415-7.971-39.645-2.593-66.455-2.017-72.497.396-4.16-.117-11.408.1-18.768zm7.766 153.243a1.64 1.64 0 00-.293.021c-.085.017-.152.048-.19.105l.483-.126zm19.445-4.753c.11.118.241.156.371.156a.515.515 0 01-.373-.16l-.019-.021.021.025zm14.029-28.664c1.644 4.21 4.365 5.276 5.805 5.974a.517.517 0 10.451-.932c-1.309-.634-3.797-1.59-5.292-5.418a.517.517 0 10-.964.376zm-18.367-1.109c-1.413 2.488-4.659 5.672-4.659 5.672a.518.518 0 10.725.738s3.365-3.313 4.834-5.899a.517.517 0 00-.9-.511zm-14.247-76.023c1.114 1.784 2.58 3.178 4.568 3.992a.519.519 0 00.392-.958c-1.78-.729-3.084-1.986-4.082-3.583a.517.517 0 00-.878.549zm43.436 3.354c1.815-1.575 3.202-3.207 4.082-4.901a.518.518 0 00-.918-.478c-.827 1.592-2.138 3.118-3.842 4.597a.518.518 0 00.678.782zm-18.678-14.853c1.244.203 1.844.887 2.022 1.568.298 1.138-.558 2.401-1.987 2.246-.482-.052-.824-.223-1.066-.461-.25-.244-.399-.568-.455-.958-.123-.867.282-2.147.739-3.364a.518.518 0 01.969.364c-.075.201-.151.404-.222.605zm-.314.991c-.086.33-.145.643-.159.925-.014.289.005.54.167.699.101.099.252.148.452.17.617.067 1.003-.464.875-.955-.103-.393-.509-.71-1.24-.816a.573.573 0 01-.095-.023zm14.21-46.515c1.053.019 2.106.008 3.158-.05a.518.518 0 00-.056-1.033 42.265 42.265 0 01-3.083.048.517.517 0 10-.019 1.035zm-36.776-.083c1.126.041 2.249.043 3.375.06a.517.517 0 10.017-1.035c-1.119-.017-2.235-.018-3.354-.06a.518.518 0 00-.038 1.035zm17.058-30.908c1.778 1.292 4.657 1.77 6.506.139a.517.517 0 00-.684-.776c-1.483 1.307-3.788.835-5.213-.201a.519.519 0 00-.609.838zm22.747-36.567c.408-2.365-.234-5.364-1.737-7.888-1.769-2.969-4.752-5.291-8.717-5.104-2.769.131-4.675-.46-6.014-1.44-1.576-1.153-2.384-2.859-2.856-4.668a23.399 23.399 0 01-.463-2.36 9.924 9.924 0 01-.371.932c-1.283 2.802-4.137 5.524-10.075 7.379-5.076 1.587-7.734 4.034-9.002 6.619-1.048 2.138-1.148 4.353-.914 6.205a.503.503 0 01.031.232c.199 1.386.577 2.55.861 3.298a.507.507 0 01.022.292.518.518 0 01.057.248c-.045 1.755 1 7.488 4.012 12.753 2.99 5.226 7.937 10.002 15.764 9.867 7.549-.129 12.365-5.11 15.277-10.537 2.796-5.211 3.85-10.847 3.826-13.119a.524.524 0 01-.017-.154l.006-.152v-.007a.488.488 0 01.007-.127c.01-.196.024-.386.041-.571a.517.517 0 01-.063-.483 6.13 6.13 0 00.226-.737c.031-.165.064-.324.099-.478zm-7.833 22.556a.51.51 0 01.074.154c.02 0 .04.002.06.005 1.871.279 4.409-.715 6.154-1.503 1.457-.658 3.038-1.202 4.984-.995 1.794.191 3.911 1.025 6.535 3.062.523-1.395.339-2.513-.048-3.798-.32-1.068-.774-2.242-1.127-3.735-.194-.817-.043-1.83.325-2.963.505-1.553 1.411-3.358 2.2-5.193.632-1.47 1.189-2.96 1.37-4.349.169-1.286.012-2.482-.775-3.467-3.555-4.443-5.641-10.166-7.024-17.868-.64-3.567-2.122-4.507-3.653-5.421-1.726-1.03-3.501-2.037-4.429-5.952-.773-3.265-2.121-5.375-3.79-6.671-2.497-1.939-5.685-2.044-8.591-1.577-3.357.538-6.359 1.848-7.637 2.197a.519.519 0 01-.282-.003.517.517 0 01-.304-.004c-1.399-.448-4.798-1.759-8.209-.238-2.285 1.018-4.549 3.309-6.251 7.915-.701 1.896-2.343 3.033-4.161 4.215-2.468 1.606-5.268 3.337-5.848 7.852-.827 6.438-5.332 11.407-7.367 15.423-.737 1.456-1.148 2.768-.803 3.981.224.791.774 1.525 1.729 2.233 6.503 4.823 5.536 10.515 4.817 12.743 1.475-.178 4.425.077 8.366 3.455.705.604 1.251.868 1.732.901.731.05 1.27-.414 1.887-.786.681-.409 1.424-.752 2.402-.657.846.081 2.414.569 3.861 1.674a.51.51 0 01.227-.268c-1.9-1.713-3.434-3.771-4.656-5.906a33.22 33.22 0 01-2.459-5.419c-.756.267-1.629.111-2.526-.423-2.121-1.262-4.442-4.732-5.302-8.48-.577-2.514.138-3.971 1.18-4.649.814-.529 1.87-.604 2.826-.297.379.123.742.305 1.066.539-.03-1.662.243-3.49 1.116-5.269 1.361-2.773 4.176-5.448 9.623-7.151 5.539-1.731 8.245-4.208 9.442-6.822.889-1.939.943-3.937.75-5.71-.202-1.855-.671-3.477-.807-4.571a.518.518 0 011.027-.128c.137 1.098.606 2.725.809 4.587.082.758.121 1.553.08 2.366a.519.519 0 01.07.179c.271 1.422.409 3.193.848 4.875.412 1.58 1.089 3.086 2.465 4.093 1.191.871 2.893 1.358 5.354 1.242 4.383-.206 7.7 2.326 9.655 5.609 1.097 1.842 1.758 3.918 1.942 5.865.267-.357.557-.63.855-.826 1.28-.839 2.782-.442 3.766.894.466.633.624 1.794.471 3.207-.328 3.01-1.967 7.231-3.787 9.29-.766.867-1.587 1.357-2.348 1.363a1.902 1.902 0 01-1.01-.282 34.736 34.736 0 01-2.254 5.223c-1.208 2.252-2.732 4.424-4.62 6.239zm-18.185-7.16c4.566 1.602 7.61 1.75 11.856-.252a.518.518 0 00-.442-.936c-3.965 1.87-6.807 1.708-11.071.212a.517.517 0 10-.343.976zm5.461-5.771c.191-.187.427-.351.699-.49.667-.343 1.556-.547 2.342-.659a.518.518 0 01.146 1.025c-.675.096-1.442.26-2.015.555-.29.149-.533.32-.63.564a.518.518 0 01-.92.082.494.494 0 01-.036-.044s-.782-.978-2.733-.978a.518.518 0 010-1.035c1.643 0 2.641.569 3.147.98zm-20.589-9.644c-.298-.612-.878-1.046-1.517-1.251-.657-.211-1.385-.185-1.944.179-.788.512-1.172 1.65-.736 3.55.681 2.967 2.327 5.761 4.019 7.232.521.452 1.042.777 1.539.92.329.094.644.105.93.001-1.007-3.136-1.387-5.782-1.358-6.893a.6.6 0 01.011-.095.602.602 0 01-.023-.051 16.693 16.693 0 01-.921-3.592zm42.05.746a13.58 13.58 0 00-.177 1.67c.071 1.364-.309 4.284-1.35 7.663.151.134.307.221.469.259.253.059.512-.006.775-.145.337-.177.671-.472 1.002-.846 1.707-1.931 3.226-5.895 3.533-8.717.119-1.088.085-1.994-.274-2.481-1.163-1.578-3.108-1.21-3.863 2.026-.032.194-.07.385-.115.571zm-14.904-.926c-.806.643-1.265 1.541-1.881 2.383a.519.519 0 01-.836-.611c.798-1.09 1.398-2.23 2.6-2.948a4.998 4.998 0 017.049 2.036.518.518 0 01-.926.463 3.952 3.952 0 00-3.643-2.18 1.889 1.889 0 11-2.363.857zm-16.112-.855c-1.35.083-2.63.827-3.231 2.11a.519.519 0 01-.938-.44c1.246-2.656 4.783-3.526 7.256-1.85.901.61 1.447 1.598 1.863 2.572a.516.516 0 11-.952.407c-.34-.795-.756-1.623-1.492-2.122l-.019-.013a1.888 1.888 0 11-2.487-.664zm17.711.901a.853.853 0 10.087-.002l-.087.002zm-16.859-.086a.852.852 0 11.072 1.702.852.852 0 01-.072-1.702zm12.499-3.953c2.859-.896 5.892-1.588 8.89-1.026a.518.518 0 00.191-1.018c-3.166-.593-6.371.11-9.391 1.056a.518.518 0 00.31.988zm-8.866-1.279c-2.675-.683-5.461-1.36-8.239-1.363a.517.517 0 10-.001 1.035c2.693.003 5.392.669 7.984 1.331a.518.518 0 00.256-1.003z"/>
    </g>
</svg>