<svg viewBox="0 0 168 320" width="168" height="320" fill-rule="evenodd" clip-rule="evenodd" stroke-linecap="round" stroke-linejoin="round" stroke-miterlimit="1.5">
    <path data-bodypart="head" d="M80.897 6.387c7.721-.359 8.511 1.812 12.658 1.684l3.3-.462c-1.331.297-2.396.434-3.3.462l-1.735.243c.923 2.768 2.424 3.124 5.19 2.537 4.801-1.018 6.271 4.177 9.296 6.781l4.348 1.371c-1.845.226-3.207-.388-4.348-1.371l-.107-.033c1.45 2.763-.077 4.325 1.192 6.401.278.456.213 1.061.006 1.769-2.45.069-4.722 1.216-6.567 3.149-2.717 2.848-4.509 7.434-4.509 12.614 0 5.18 1.792 9.766 4.509 12.614.356.372.727.716 1.113 1.029-2.527 1.726-2.422 5.099-.244 6.088-.852.614-2.258 1.359-2.831 1.361-.655.001-1.151-.344-1.657-.683-.639-.427-1.281-.874-2.041-1.111-1.763-.55-2.079.817-2.574 2.245l-.771.856c-.177-.472-.679-1.363-1.015-2.258-.125-.335-.033-1.235-.389-1.268-1.897-.175-2.377.179-2.641 1.425-.151.717 1.107 2.252 1.78 3.249-1.034-.009-3.733-.237-4.514-.726-.786-.493-1.42-1.291-1.93-2.468a.931.931 0 00-1.773.215c-.12.705-.63 1.686-2.614 2.226.001-.173-.835-.271-.863-.438-.109-.628.392-1.302-.182-1.861-.691-.673-1.797-1.304-3.357-1.858a.934.934 0 00-.849.117c-.247.175.275.784.275 1.086 0 1.764-2.166 2.328-4.639 1.945 2.431-1.371.458-6.49-4.025-7.905a9.604 9.604 0 01-1.292-.506c.272-.238.537-.491.794-.76 2.717-2.848 4.508-7.434 4.508-12.614 0-5.18-1.791-9.766-4.508-12.614-1.854-1.943-4.139-3.091-6.603-3.149.186-.292.346-.686.469-1.211 1.296-5.549 3.796-5.549 4.661-8l-.25-.229c-2.245-.097 0 0 0 0 1.031.045 2.08-.219 2.942-.854 2.739-2.019 1.73-4.037 5.479-4.181l.692 1.518c.923-3.345 2.999-6.023 8.763-6.521l.286-.029-.133.125z" />
    <path data-bodypart="ears" d="M106.718 27.695c-.824 2.321-1.456 5.137 2.288 7.493-2.653 1.039-2.88 1.136-2.076 2.423 2.883 4.613-5.072 11.229-1.727 16.304a8.545 8.545 0 00-1.374.332 9.378 9.378 0 01-1.651-1.388c-2.436-2.553-3.993-6.682-3.993-11.327s1.557-8.774 3.993-11.327c1.3-1.363 2.851-2.268 4.54-2.51zm-49.322-.054c.131-.008.261-.012.393-.012 2.043 0 3.922.97 5.454 2.576 2.436 2.553 3.993 6.682 3.993 11.327s-1.557 8.774-3.993 11.327a9.81 9.81 0 01-1.034.944c-1.845-1.887-.975-4.408-1.734-6.033-1.009-2.162-4.114-1.403-3.172-4.902.676-2.509 1.731-3.46-.432-7.929-1.917-3.961.971-5.001.525-7.298z" />
    <path data-bodypart="nape_of_neck" d="M73.653 63.577c-.193-.009.14-2.242.41-3.161.659.296 3.096 1.635 3.148 1.937.052.298.248 2.346.593 2.303 2.206-.281 4.319-2.585 4.453-2.751-.202 2.074 6.648 4.787 7.396 3.187.103-.355-1.46-2.15-1.661-2.678-.135-.354-.158-.665.03-.872.151-.165 1.379-1.254 1.663-1.284.386 1.045.606 1.68.793 2.104.312.707.572.989 1.071 1.322.27.18.528.213.761.18.307-.043.247-.982.489-1.535.186-.424.791-.568 1.127-1.263.139-.287.31-.575.689-.457.703.219 1.352.833 1.943 1.221-.369.061-.834.971-1.226 1.027.111 1.595.402 3.026 1.657 4.449-10.64 3.125-19.723 1.658-24.925.004.677-.899 1.403-2.186 1.589-3.733z" />
    <path data-bodypart="back" d="M98.624 68.754c2.54 1.825 7.07 3.723 15.206 6.012 1.06.298 2.045.679 2.957 1.132-.417 6.783-1.302 13.964-2.296 19.804l.11.64-1.352 25.144c-.13 2.931-.236 6.45-.202 9.71-19.333 2.894-38.734 2.774-58.202-.265.123-1.554.222-2.931.302-4.151l1.415-8.508a.91.91 0 00.01-.215s-1.47-19.107-1.474-19.134C53.151 86.67 52.072 79.8 52.065 75.009c.982-.706 2.055-1.258 3.223-1.585 1.762-.494 3.565-1.207 5.371-1.481 3.553-.539 7.183-.68 10.015-3.139 5.493 1.899 15.823 3.828 27.95-.05z" />
    <path data-bodypart="upper_arm" d="M50.278 76.55c.24 4.817 1.399 11.585 3.151 22.608l2.127 16.741-1.106 3.712c-.447 1.391-1.033 2.803-1.675 4.194-4.304-3.627-11.409-6.628-16.046-8.11.177-.315.351-.612.522-.893 6.493-10.649 2.841-16.485 6.44-26.121 0 0 2.05-7.539 6.587-12.131zm68.309.393c8.58 5.758 9.826 18.738 10.347 27.513.298 1.636.849 4.992 2.806 10.18-5.324 1.629-12.126 4.442-15.553 7.924-.623-1.562-2.049-6.153-2.456-7.331l2.347-18.724c.955-5.627 2.078-12.959 2.509-19.562z" />
    <path data-bodypart="elbow" d="M35.84 117.365c4.581 1.415 11.993 4.454 16.106 8.17-1.667 3.372-3.477 6.519-4.22 8.831-.493 1.534-1.408 3.64-2.586 6.069-1.703-2.307-4.133-4.275-6.792-5.754-2.795-1.555-5.833-2.567-8.507-2.899 2.04-5.535 4.118-10.703 5.999-14.417zm96.577-1.002c1.328 3.264 3.179 7.159 5.783 11.707.434.756.85 1.538 1.251 2.34-2.434.287-5.119 1.067-7.644 2.274-3.238 1.547-6.201 3.793-8.057 6.542-2.778-5.546-5.106-10.691-6.83-14.859a.934.934 0 00.347-.238c3.165-3.458 9.926-6.203 15.15-7.766z" />
    <path data-bodypart="lower_back" d="M54.695 132.794c19.531 3.035 38.993 3.159 58.389.281.029.985.074 1.927.139 2.801.576 7.786 2.162 18.888 2.018 23.069-.081 2.362-.255 4.448.259 8.025-21.032 2.79-41.745 3.088-62.846-.013.146-1.249.304-2.521.476-3.817-.695-9.625.758-21.055 1.358-27.923.074-.848.143-1.656.207-2.423z" />
    <path data-bodypart="forearm" d="M29.185 133.578c2.549.235 5.527 1.212 8.257 2.731 2.728 1.518 5.219 3.581 6.753 6.033-4.329 8.569-11.134 20.016-14.638 25.218-2.99-2.54-6.621-4.45-10.052-5.633 1.569-4.13 5.489-16.776 9.68-28.349zM140.3 132.19c4.474 9.806 6.842 21.979 8.877 28.787-3.337.894-6.915 2.442-9.996 4.605-5.389-7.719-10.352-16.4-14.443-24.404 1.579-2.914 4.587-5.243 7.872-6.813 2.558-1.222 5.294-1.987 7.69-2.175z" />
    <path data-bodypart="buttocks" d="M90.654 197.999a6.369 6.369 0 002.14-4.757c0-3.569-2.962-6.478-6.626-6.478s-6.627 2.909-6.627 6.478c0 1.485.513 2.855 1.38 3.947-.595.331-1.279.695-1.812.941a.876.876 0 00-.333.265.815.815 0 00-.288-.011c-8.967 1.16-18.402-.123-27.101-3.46-.307-7.304-.053-15.904 1.058-26.114 21.272 3.119 42.153 2.817 63.358-.001.46 2.502 1.223 5.664 2.466 9.888 1.005 3.417 1.046 9.344.589 16.232-8.471 3.248-17.642 4.548-26.398 3.532l-.039-.007c-.512-.034-1.156-.217-1.767-.455z" />
    <path data-bodypart="anus" d="M83.265 196.899c-1.13-.843-1.86-2.166-1.86-3.657 0-2.554 2.141-4.615 4.763-4.615s4.763 2.061 4.763 4.615c0 1.982-1.291 3.667-3.095 4.322l-1.935-3.566-2.636 2.901z" />
    <path data-bodypart="hand" d="M17.61 163.254c3.643 1.048 7.692 3.032 10.894 5.816-.073.1-.142.194-.209.282l-.031.487c.377 4.161-3.832 11.173-3.871 11.975-.042.835-.162 9.857-2.27 9.898-2.107.041-.441-10.531-1.577-10.753-1.137-.223-2.496 12.583-5.547 12.005-3.05-.578 2.357-10.593 1.143-12.045-1.213-1.452-5.536 12.367-8.041 11.14-2.563-1.256 2.964-9.444 4.47-12.629l-.19-.403c-3.411.996-5.744 9.367-8.146 8.505-4.081-1.465 8.367-13.967 7.698-17.759l.146-.097c-1.652-.849-6.692 4.121-9.291 1.579-1.982-1.938 5.081-3.574 6.203-4.8 1.121-1.227 2.793-1.951 6.251-2.732.947-.214 1.717-.373 2.368-.469zm132.503-.623c.761.128 1.683.382 2.906.752 3.392 1.027 5.601 2.144 6.143 2.949.929 1.378 7.505 3.323 5.738 5.458-2.349 2.836-8.118-2.818-8.936-2.081l-.08-.054c-.939 3.734 10.579 17.098 6.404 18.266-2.459.687-4.184-7.83-7.515-9.068l-.218.388c1.274 3.285 6.198 11.849 3.551 12.918-2.586 1.044-5.905-13.051-7.22-11.689-1.315 1.361 3.359 11.738.275 12.096-3.084.358-3.521-12.513-4.67-12.372-1.149.14-.246 10.804-2.346 10.612-2.099-.193-1.571-9.2-1.552-10.036.019-.863-4.261-9.247-2.769-13.104l.245-.47c3.069-2.211 6.713-3.745 10.044-4.565z" />
    <path data-bodypart="thigh" d="M88.51 197.953c-1.843.701 2.018 1.932 2.141 1.948 8.983 1.163 19.302.289 28.059-2.926-.892 11.437-2.97 24.995-4.258 34.089-4.241 2.453-9.532 3.216-14.455 3.019-5.138-.207-9.894-1.452-12.642-3.018.195-3.302.549-5.651.204-7.529-2.106-11.463-1.334-19.217-.25-23.913.513-.087.738-1.47 1.201-1.67zm-6.164.574c.211.149.501-.658.73-.535.26.138.461 1.203.74 1.307 2.197 10.43-2.266 23.039-1.014 29.334.156.787.283 1.565.384 2.336-5.953 2.395-13.493 2.304-19.683 1.122-1.946-.372-3.76-.85-5.345-1.397-.549-2.938-1.623-6.882-3.472-13.506-1.486-5.325-2.714-11.899-3.198-20.236 8.774 3.232 17.715 4.581 27.313 3.124.247-.037 2.834-1.146 3.545-1.549z" />
    <path data-bodypart="knee" d="M58.476 232.75c1.434.453 3.009.852 4.678 1.171 6.347 1.212 14.031 1.283 20.231-1.035.579 7.499-1.157 14.481-2.2 23.231-5.682 2.035-12.428 2.089-18.027 1.139-2.305-.391-4.416-.948-6.171-1.614.094-4.243.422-8.867 1.065-13.902.501-3.924.769-6.071.424-8.99zm28.79.352c3.047 1.477 7.676 2.643 12.656 2.842 4.797.193 9.904-.505 14.213-2.608-.511 3.717-.827 6.418-.768 7.502.149 2.754 1.258 7.045 1.603 13.273-3.851 2.597-8.513 3.408-13.042 3.165-4.197-.225-8.29-1.354-11.552-2.848l.067-.47c-2.884-9.448-3.308-16.043-3.177-20.856z" />
    <path data-bodypart="lower_leg" d="M56.96 257.602c1.729.61 3.727 1.125 5.886 1.491 5.732.972 12.595.912 18.477-1.057 1.185 11.906-2.987 26.271-1.607 34.199-7.506 2.524-13.25 1.811-17.124.547-1.72-6.556-5.729-17.422-5.632-35.18zm58.094-1.342c.125 5.501-.402 12.348-2.552 20.766-1.306 5.109-2.266 10.796-2.832 15.633-7.594 2.229-13.269 1.125-16.904-.279-.035-1.398-.269-2.99-.836-4.849-3.086-10.106-3.043-21.125-1.806-31.18 3.367 1.466 7.485 2.559 11.704 2.785 4.561.245 9.231-.521 13.226-2.876z" />
    <path data-bodypart="foot" d="M80.078 294.081c1.143 6.729-2.03 5.78 1.338 11.018 3.564 5.544 2.574 8.91-.594 10.098-3.168 1.188-.346 4.407-12.474 3.564-7.405-.515-7.698-5.74-6.772-10.217 1.216-5.871 3.037-6.584 1.522-13.651 4.06 1.129 9.748 1.577 16.98-.812zm12.607.267c3.782 1.36 9.406 2.319 16.769.313-.441 4.459-.499 7.915-.124 9.038 2.356 7.064.66 10.524.427 11.25-1.142 3.564-9.942 5.357-15.524 1.107l-2.741-2.836c-.194-.005-5.833-3.549-2.93-5.99 2.903-2.44 2.979-4.173 2.979-4.173-.838-2.792.748-5.042 1.144-8.709z" />
    <g>
        <path d="M80.875 7.098c-2.645.252-4.461.982-5.722 2.052-1.27 1.077-1.964 2.494-2.396 4.061a.52.52 0 11-1.004-.277c.489-1.771 1.291-3.361 2.726-4.579 1.418-1.203 3.463-2.05 6.479-2.311 2.299-.199 3.996-1.137 4.841-2.31.505-.7.693-1.479.469-2.197a.522.522 0 01.994-.311c.318 1.016.096 2.127-.617 3.117-.494.685-1.23 1.315-2.18 1.801 2.601.154 4.139.66 5.544 1.083 1.812.546 3.388.941 6.962.144a.522.522 0 01.227 1.017c-1.942.433-3.336.536-4.49.457.292.739.636 1.25 1.081 1.569.796.571 1.869.505 3.343.192 3.534-.75 5.423 1.572 7.286 4.049 1.629 2.165 3.229 4.466 6.378 4.081a.52.52 0 11.126 1.034c-1.369.167-2.494-.091-3.465-.611.182.795.167 1.499.139 2.166-.038.893-.119 1.713.451 2.645.263.431.316.963.206 1.578-.13.733-.497 1.61-.836 2.566-.454 1.283-.871 2.725-.366 4.144.334.937 1.076 1.852 2.441 2.711a.523.523 0 01-.088.926c-.775.303-1.337.522-1.723.716a2.366 2.366 0 00-.32.187c-.05.036-.095.059-.109.099-.007.017.008.033.014.054.012.04.029.082.049.126.062.137.154.292.268.474.794 1.27.86 2.675.543 4.159-.293 1.376-.922 2.824-1.539 4.285-.588 1.391-1.166 2.795-1.39 4.16-.208 1.273-.102 2.512.656 3.662a.52.52 0 01-.355.801c-2.95.461-4.866 2.368-5.1 4.025-.065.463.011.9.268 1.25.258.351.686.607 1.283.746a.52.52 0 01.421.914c-1.545 1.281-2.699 1.693-3.632 1.696-.962.002-1.721-.428-2.465-.926l-.234-.158c.054 1.254.126 2.394.614 3.492.604 1.36 1.851 2.638 4.427 4.018 2.698 1.446 6.811 2.973 13.091 4.741 6.623 1.863 10.356 6.847 12.495 12.686 2.096 5.722 2.654 12.265 2.959 17.39.504 2.77 1.743 10.384 9.184 23.375 6.222 10.865 8.974 26.871 11.401 34.226.801.123 1.776.388 3.09.786 2.075.628 3.715 1.292 4.815 1.898.816.449 1.352.887 1.598 1.253.232.343.874.701 1.62 1.116 1.298.722 2.903 1.538 3.761 2.399.467.468.727.966.735 1.457.006.36-.114.73-.419 1.099-.683.825-1.599 1.076-2.62.965-1.324-.144-2.846-.942-4.145-1.695-.801-.465-1.512-.907-2.022-1.123a1.455 1.455 0 00-.153-.055c.008.684.337 1.597.809 2.65 1.494 3.338 4.558 7.887 5.884 11.08.439 1.059.689 1.984.672 2.687-.021.906-.421 1.519-1.293 1.763-.522.146-1.027.022-1.514-.34-.383-.284-.762-.732-1.134-1.292-.936-1.407-1.866-3.564-2.963-5.252-.456-.7-.933-1.322-1.462-1.744 1.089 2.507 3.344 6.803 3.909 9.618.149.743.182 1.393.076 1.902-.133.642-.471 1.093-1.032 1.32-.353.142-.716.123-1.083-.052-.4-.191-.824-.603-1.236-1.193-1.372-1.96-2.789-6.028-3.912-8.579-.32-.727-.612-1.324-.874-1.691-.027.223-.018.497.013.81.165 1.664.948 4.305 1.333 6.526.238 1.375.314 2.601.068 3.395-.22.71-.664 1.142-1.376 1.225-.734.085-1.394-.333-1.926-1.178-.964-1.53-1.578-4.593-2.058-7.206-.248-1.346-.462-2.567-.685-3.364-.23 1.36-.269 3.836-.477 5.919-.153 1.528-.418 2.853-.855 3.488-.299.433-.678.624-1.11.585-.391-.036-.737-.247-1.019-.631-.306-.417-.544-1.076-.707-1.875-.566-2.778-.315-7.372-.298-8.026a9.582 9.582 0 00-.215-.679c-.366-.999-1.074-2.699-1.692-4.583-.919-2.802-1.599-6-.821-8.012a.522.522 0 01.325-.307l-.037-.052a160.525 160.525 0 01-4.698-6.979 199.7 199.7 0 01-3.935-6.445 236.423 236.423 0 01-4.147-7.388 257.991 257.991 0 01-6.821-13.626 224.697 224.697 0 01-2.509-5.605 166.207 166.207 0 01-1.963-4.747 116.46 116.46 0 01-.752-1.962 72.245 72.245 0 01-.771-2.164l-.017-.05c-.324 7.407-.468 14.454-.224 17.742.577 7.79 2.16 18.9 2.016 23.084-.143 4.139-.567 7.421 3.001 19.552 1.451 4.932.926 15.063-.233 25.789-1.719 15.925-4.812 33.172-4.64 36.36.289 5.349 4.181 16.478-.879 36.282-1.922 7.525-3.093 16.313-3.346 21.739-.104 2.244-.064 3.892.17 4.592 2.42 7.255.667 10.809.428 11.555-.498 1.555-2.293 2.854-4.705 3.492-3.445.912-8.125.516-11.603-2.132a.578.578 0 01-.059-.052l-2.67-2.763a1.668 1.668 0 01-.161-.083c-.48-.28-1.64-1.076-2.54-2.077-.871-.969-1.463-2.134-1.197-3.219.121-.492.411-.979.946-1.429 2.345-1.972 2.722-3.409 2.779-3.725-.485-1.727-.122-3.266.356-5.035.673-2.49 1.553-5.478.064-10.353-3.337-10.93-3.04-22.922-1.518-33.626-3.852-12.676-3.294-20.23-2.907-25.238.161-2.081.3-3.707.048-5.076-2.445-13.31-1.029-21.657.27-26.045-.868-.969-1.437-2.195-1.911-3.6a10.093 10.093 0 01-1.743 2.784.531.531 0 01.038.088c1.782 5.467 1.355 11.758.639 17.54-.698 5.641-1.683 10.784-1.019 14.124 1.859 9.35-.411 17.342-1.646 27.925 1.056 7.497-.261 16.154-1.109 23.639-.556 4.91-.913 9.305-.212 12.503.917 4.174.406 5.905.126 7.305-.014.071-.028.14-.04.21a.54.54 0 01-.007.144l-.055.288c-.104 1 .125 2.019 1.487 4.137 2.258 3.513 2.721 6.214 2.059 8.07-.468 1.314-1.487 2.247-2.907 2.78-.833.312-1.186.795-1.569 1.284-1.064 1.356-2.256 2.92-11.102 2.305-3.153-.219-5.082-1.272-6.214-2.724-1.681-2.157-1.605-5.268-1.019-8.099 1.263-6.102 3.214-6.534 1.229-14.674-1.984-8.133-8.391-23.507-4.754-51.973 1.036-8.111 1.051-8.548-3.345-24.302-3.095-11.09-5.079-27.58-1.575-54.109-.687-9.624.76-21.038 1.36-27.902.485-5.554.705-10.4.744-14.691-1.829 5.189-5.361 10.565-6.48 14.046-2.485 7.734-15.658 29.986-19.446 35.04.022.05.037.105.042.163.233 2.567-1.206 6.196-2.424 8.861-.549 1.201-1.046 2.202-1.301 2.803-.069.163-.13.352-.139.378-.03.65-.109 5.253-.874 7.985-.219.786-.504 1.426-.839 1.82-.309.363-.669.548-1.061.556-.434.008-.798-.21-1.065-.664-.391-.664-.56-2.005-.603-3.54-.058-2.092.081-4.564-.051-5.938-.279.78-.581 1.981-.924 3.306-.667 2.572-1.499 5.583-2.571 7.04-.591.805-1.28 1.174-2.005 1.036-.704-.133-1.117-.596-1.285-1.32-.188-.809-.024-2.027.312-3.381.543-2.188 1.514-4.766 1.798-6.414.053-.31.082-.583.071-.807-.288.348-.622.922-.993 1.625-1.303 2.463-3.009 6.419-4.518 8.276-.453.558-.905.938-1.318 1.1-.379.149-.742.142-1.085-.026-.543-.266-.847-.74-.934-1.39-.069-.515.011-1.162.212-1.892.766-2.767 3.324-6.89 4.589-9.312-.557.383-1.078.968-1.582 1.635-1.216 1.604-2.299 3.689-3.333 5.025-.412.531-.822.951-1.224 1.207-.512.326-1.024.413-1.534.23-.853-.306-1.208-.945-1.164-1.85.034-.704.35-1.608.864-2.632 1.552-3.09 4.934-7.407 6.664-10.629.596-1.11 1.011-2.065 1.005-2.768a2.992 2.992 0 00-.544.14c-.817.278-1.83.838-2.886 1.32-.946.433-1.926.803-2.839.904-1.021.112-1.965-.1-2.733-.851-.36-.352-.5-.709-.504-1.048-.007-.465.265-.945.788-1.381.908-.756 2.637-1.462 4.055-2.089.83-.367 1.548-.686 1.833-.997 1.17-1.28 2.901-2.069 6.509-2.883 1.557-.352 2.647-.556 3.525-.584 1.939-4.263 11.723-37.53 18.116-48.014 3.186-5.225 3.881-9.271 4.223-13.191.351-4.025.346-7.922 2.154-12.774.102-.366 1.4-4.902 4.084-9.019 1.905-2.921 4.509-5.617 7.848-6.552 1.78-.498 3.601-1.215 5.423-1.491 3.927-.595 7.968-.637 10.827-4.142.802-.983 1.804-2.609 1.745-4.613-1.2 1.218-3.444 1.636-6.527.633a.52.52 0 01-.241-.827.523.523 0 01.438-.219c1.38.037 2.24-.306 2.609-.937.33-.566.229-1.313-.159-2.072-.671-1.315-2.208-2.638-4.348-3.313-1.777-.561-2.829-1.334-3.474-2.183-.656-.864-.898-1.817-1.01-2.76-.129-1.081-.054-2.143-.436-2.962-.254-.544-.676-.859-1.108-1.125-.346-.214-.703-.397-1.021-.607-.484-.319-.881-.7-1.096-1.26-.203-.53-.247-1.238.027-2.257.388-1.439.925-2.338.831-3.753-.063-.938-.406-2.1-1.228-3.8-1.182-2.443-.686-3.87-.122-5.101.436-.951.976-1.751.361-3.005a3.111 3.111 0 01-.553-.062c-.453-.091-.876-.275-1.174-.324a.522.522 0 01.171-1.028c.307.051.742.237 1.207.33.319.064.663.088.958-.135.297-.225.527-.657.697-1.383.809-3.466 2.074-4.851 3.148-5.957.523-.539 1.005-.997 1.336-1.65a5.75 5.75 0 01-1.53-.392c-1.686-.69-2.968-2.166-2.968-4.116a.52.52 0 011.042 0c0 1.505 1.02 2.62 2.321 3.153 1.332.545 2.969.493 4.189-.406 1.307-.963 1.71-1.934 2.243-2.673.632-.877 1.394-1.52 3.515-1.601a.52.52 0 11.04 1.04c-.991.039-1.609.208-2.047.498-.435.288-.686.688-.975 1.139-.467.728-.997 1.58-2.158 2.436a4.987 4.987 0 01-2.543.937c-.377.997-1.001 1.622-1.718 2.36-.985 1.015-2.139 2.289-2.881 5.469-.247 1.056-.649 1.648-1.081 1.976a1.91 1.91 0 01-.208.137c.53 1.217.271 2.113-.138 3.028-.532 1.191-1.383 2.42-.195 4.876.905 1.869 1.261 3.153 1.33 4.185.103 1.54-.442 2.527-.864 4.093-.23.857-.203 1.401.025 1.79.234.399.649.622 1.077.867.766.438 1.579.907 2.034 1.881.327.7.388 1.552.453 2.456.076 1.068.159 2.225.987 3.212.556.662 1.442 1.239 2.85 1.683 2.454.775 4.192 2.325 4.962 3.833.573 1.123.619 2.235.13 3.071a2.573 2.573 0 01-1.017.96c2.396.17 3.797-.92 3.797-2.74a.522.522 0 01.695-.49c3.209 1.138 4.443 2.613 4.067 4.293 2.721-.555 3.333-1.835 3.477-2.683a.52.52 0 01.992-.12c.548 1.265 1.239 2.117 2.085 2.647 1.038.651 2.295.818 3.753.724-.98-1.104-1.27-2.161-1.104-2.945.227-1.071 1.266-1.81 2.895-1.659a.52.52 0 01.44.336c.513 1.367.768 2.136.982 2.621a2.1 2.1 0 00.211.387c.055-.166.117-.362.166-.532.176-.606.41-1.294.784-1.774.463-.594 1.111-.931 2.074-.631.72.225 1.326.654 1.931 1.059.573.383 1.142.752 1.883.75.596-.002 1.285-.24 2.157-.837a2.799 2.799 0 01-1.066-.861c-.414-.565-.565-1.264-.459-2.011.258-1.832 2.16-4.023 5.242-4.765-.576-1.193-.652-2.453-.44-3.747.237-1.442.838-2.927 1.458-4.396.591-1.398 1.2-2.781 1.481-4.098.258-1.208.238-2.355-.408-3.388-.227-.364-.377-.651-.442-.888a1.088 1.088 0 01.014-.673c.09-.249.294-.495.695-.729.267-.157.646-.325 1.156-.532-1.102-.858-1.729-1.766-2.053-2.674-.59-1.657-.165-3.345.365-4.842.268-.756.56-1.459.72-2.075.122-.467.191-.869.003-1.178-.568-.93-.645-1.765-.626-2.634.025-1.088.233-2.236-.581-3.786a1.179 1.179 0 01-.023-.052c-.858-.798-1.605-1.78-2.342-2.76-1.616-2.148-3.173-4.306-6.238-3.656-1.841.391-3.172.349-4.167-.365-.669-.48-1.204-1.275-1.617-2.513a.443.443 0 01-.013-.049c-.639-.119-1.228-.289-1.843-.474-1.843-.555-3.928-1.259-8.528-1.045a.522.522 0 01-.305-.081zm14.237 54.498a3.432 3.432 0 00-.501-.203c-.209-.065-.385-.077-.536-.031-.233.069-.393.262-.528.486-.32.532-.479 1.253-.631 1.759-.115.38-.249.667-.378.804a.666.666 0 01-.883.101c-.431-.287-.653-.534-.922-1.144-.201-.455-.44-1.157-.885-2.355-.552-.002-.984.142-1.245.428-.28.308-.311.766-.11 1.292.22.577.704 1.214 1.483 1.868a.522.522 0 01-.266.915c-2.212.295-4.066.163-5.544-.763-.729-.457-1.373-1.108-1.919-2.009-.569 1.007-1.846 2.081-4.819 2.459a.522.522 0 01-.526-.761c.227-.426.323-.826.257-1.206-.066-.381-.293-.732-.662-1.068-.481-.438-1.184-.838-2.111-1.213a3.614 3.614 0 01-.094.411l.004.015c.712 2.945-.684 5.366-1.788 6.719-3.042 3.73-7.3 3.881-11.477 4.514-1.782.27-3.56.978-5.299 1.464-3.1.868-5.488 3.406-7.256 6.118-2.709 4.154-3.959 8.748-3.959 8.748l-.014.045c-1.777 4.757-1.756 8.578-2.1 12.522-.354 4.055-1.076 8.237-4.372 13.642-6.476 10.621-16.427 44.666-18.155 48.108a.506.506 0 01-.152.183.522.522 0 01-.433.221c-.866-.013-1.944.195-3.56.56-3.294.743-4.902 1.401-5.97 2.57-.232.253-.676.533-1.248.815-1.154.57-2.875 1.206-4.062 1.904-.397.233-.73.468-.938.716-.089.106-.157.204-.156.314.002.108.076.206.191.319.529.517 1.187.637 1.891.559.811-.089 1.679-.431 2.52-.815 1.091-.499 2.139-1.072 2.983-1.359.72-.245 1.327-.273 1.755-.052a.52.52 0 01.16.8c.014.856-.407 2.027-1.122 3.359-1.726 3.214-5.103 7.521-6.651 10.603-.435.866-.725 1.621-.754 2.215-.019.392.105.687.474.82.313.112.603-.074.917-.355.456-.408.913-1.042 1.39-1.77.919-1.405 1.892-3.147 2.967-4.448.784-.948 1.633-1.663 2.536-1.926a.52.52 0 01.667.499c.18.148.244.405.14.625-1.044 2.208-4.047 6.839-4.88 9.848-.157.57-.237 1.073-.184 1.476.036.269.136.483.361.593.112.055.229.01.356-.062.252-.142.509-.401.78-.734 1.476-1.817 3.13-5.696 4.405-8.107.346-.652.666-1.203.947-1.589.232-.318.453-.536.64-.65a.873.873 0 01.536-.136.773.773 0 01.533.291c.141.169.242.404.281.706.042.32.016.737-.068 1.225-.287 1.666-1.264 4.276-1.813 6.488-.245.985-.407 1.885-.356 2.567.033.446.138.789.512.86.214.04.406-.052.593-.21.278-.235.53-.602.772-1.053.819-1.525 1.462-3.945 2.008-6.051.517-1.99.969-3.71 1.362-4.273.255-.365.56-.444.805-.396.249.048.519.256.66.713.264.857.193 3.072.184 5.266-.006 1.546.022 3.081.272 4.057.055.215.119.398.201.538.045.076.075.151.147.15.164-.003.275-.15.395-.332.209-.315.377-.761.523-1.282.749-2.675.809-7.197.838-7.771.006-.127.075-.376.219-.718.257-.607.758-1.617 1.313-2.83 1.147-2.511 2.553-5.915 2.334-8.334a.52.52 0 01.074-.319.52.52 0 01.06-.527c3.716-4.932 16.845-27.083 19.316-34.77 1.304-4.059 5.922-10.706 7.227-16.608a.525.525 0 01.239-.334c-.117-9.622-1.147-16.286-1.922-22.102a.52.52 0 111.032-.138c1.19 8.92 2.973 19.821 1.189 40.237-.597 6.835-2.047 18.21-1.355 27.789l-.003.106c-3.488 26.354-1.535 42.733 1.538 53.745 4.471 16.019 4.429 16.467 3.375 24.714-3.61 28.259 2.764 43.52 4.733 51.594 2.047 8.392.081 8.841-1.221 15.132-.524 2.53-.682 5.32.821 7.248.991 1.271 2.704 2.133 5.464 2.325 8.104.564 9.236-.667 10.21-1.909.49-.624.959-1.218 2.023-1.617 2.918-1.094 3.62-4.204.338-9.31-.515-.801-.885-1.468-1.144-2.042a25.43 25.43 0 00-.367 2.375c-.093.972-.075 1.846.159 2.609a.52.52 0 01-.995.307c-.626-2.034.057-4.782.689-8.026.029-.255.075-.507.128-.771.263-1.317.741-2.947-.122-6.876-.721-3.285-.377-7.801.194-12.845.841-7.423 2.165-16.012 1.104-23.442l-.002-.133c1.218-10.494 3.508-18.406 1.667-27.667-.68-3.419.292-8.683 1.007-14.456.679-5.491 1.117-11.456-.47-16.687-1.863 1.613-4.565 2.619-8.447 2.619a.52.52 0 010-1.041c4.082 0 6.755-1.165 8.458-3.042 1.708-1.884 2.435-4.46 2.672-7.209.494-5.723-1.126-12.187-1.036-15.15a.521.521 0 011.041.032c-.09 2.974 1.529 9.463 1.033 15.208a18.351 18.351 0 01-.576 3.327c.583 2.022 1.185 3.76 2.485 4.942 1.302 1.184 3.295 1.779 6.609 1.609a.522.522 0 01.053 1.041c-3.372.173-5.504-.431-6.956-1.54-1.229 4.425-2.412 12.486-.102 25.064.265 1.441.136 3.153-.033 5.344-.383 4.947-.932 12.415 2.898 24.965l.017.226c-1.515 10.588-1.837 22.466 1.467 33.288 1.572 5.147.656 8.302-.054 10.93-.265.981-.507 1.882-.547 2.793l.006.03c.652 3.421 1.42 6.315.768 8.432a.52.52 0 11-.996-.306c.235-.763.252-1.638.16-2.609a22.826 22.826 0 00-.291-1.97c-.441.772-1.215 1.776-2.57 2.915-1.176.988-.512 2.19.355 3.155.88.978 2.315 1.881 2.394 1.93.08.026.154.072.215.134l2.708 2.802c3.205 2.421 7.507 2.769 10.674 1.93 2.004-.53 3.567-1.511 3.98-2.803.226-.704 1.86-4.059-.425-10.907-.253-.758-.334-2.541-.221-4.97.255-5.478 1.436-14.352 3.377-21.949 5.015-19.632 1.135-30.666.848-35.968-.173-3.202 2.917-20.53 4.645-36.528 1.14-10.557 1.697-20.528.269-25.383-3.628-12.335-3.188-15.674-3.043-19.882.143-4.164-1.44-15.218-2.014-22.971-.578-7.798 1.015-36.599 2.026-41.654a.522.522 0 011.022.205c-.515 2.571-1.18 11.33-1.629 20.305a.455.455 0 01.017.075c.751 4.896 12.221 31.969 26.413 51.785a.521.521 0 01-.284.805c.04.113.042.24-.005.361-.711 1.839-.001 4.751.839 7.311.614 1.87 1.317 3.558 1.68 4.549.19.519.283.888.279 1.045-.013.576-.277 5.09.277 7.811.108.53.244.987.43 1.316.107.191.207.345.37.36.072.007.107-.066.157-.139.093-.134.169-.312.239-.521.32-.956.458-2.486.563-4.028.148-2.189.237-4.403.562-5.239.173-.446.458-.633.71-.664.248-.03.546.07.774.452.352.591.679 2.339 1.051 4.36.394 2.14.861 4.6 1.569 6.18.209.467.434.852.695 1.106.174.171.36.277.576.252.378-.044.507-.379.572-.821.099-.676.003-1.586-.171-2.586-.389-2.246-1.176-4.919-1.342-6.601-.049-.493-.045-.911.02-1.227.061-.298.178-.526.331-.684.391-.405.963-.384 1.514.385.293.408.627 1.071.985 1.885 1.099 2.495 2.47 6.483 3.812 8.401.246.352.484.629.725.789.122.08.235.134.351.087.232-.094.347-.299.402-.565.083-.398.039-.906-.077-1.486-.614-3.061-3.277-7.896-4.16-10.173a.521.521 0 01.184-.613.52.52 0 01.701-.45c.882.327 1.678 1.101 2.392 2.103.979 1.375 1.824 3.182 2.64 4.649.423.761.833 1.426 1.259 1.866.293.303.569.509.888.42.378-.106.524-.391.533-.784.014-.594-.222-1.369-.593-2.263-1.323-3.186-4.382-7.724-5.873-11.054-.701-1.567-1.039-2.9-.823-3.758a.52.52 0 01.607-.384c.172-.033.381-.023.624.052.551.17 1.428.709 2.432 1.291.989.574 2.113 1.191 3.162 1.455.882.222 1.709.198 2.278-.488.118-.143.182-.279.18-.418-.003-.152-.075-.298-.18-.446-.2-.283-.517-.555-.89-.824-.946-.681-2.243-1.317-3.247-1.894-.767-.44-1.37-.87-1.621-1.243-.187-.278-.617-.582-1.237-.923-1.054-.58-2.627-1.212-4.615-1.813-1.318-.399-2.276-.663-3.061-.77a.506.506 0 01-.206-.075.52.52 0 01-.422-.349c-2.435-7.194-5.143-23.365-11.404-34.297-7.574-13.224-8.803-20.956-9.311-23.737l-.007-.062c-.3-5.043-.835-11.491-2.899-17.126-2.025-5.528-5.529-10.277-11.799-12.042-6.383-1.796-10.559-3.356-13.301-4.825-2.866-1.535-4.215-3-4.887-4.513-.574-1.292-.651-2.631-.713-4.124a.52.52 0 01.124-.36zM67.35 289.565c.411 5.465.001 9.127-1.777 16.236a.522.522 0 001.011.253c1.814-7.254 2.224-10.991 1.805-16.567a.52.52 0 00-1.039.078zm36.252 9.785c-.245 2.705.361 4.55.607 6.394a.521.521 0 101.032-.138c-.237-1.777-.838-3.554-.601-6.162a.52.52 0 00-1.038-.094zm-4.469-4.661c0 3.465-.596 8.602-1.074 10.753a.521.521 0 001.017.226c.488-2.196 1.099-7.442 1.099-10.979a.52.52 0 10-1.042 0zm-25.845.394c.639 7.508 1.442 10.222 1.442 10.222a.521.521 0 00.999-.294s-.777-2.661-1.403-10.016a.522.522 0 00-1.038.088zm2.408-47.801l-3.598 5.622a.522.522 0 00.877.562l3.598-5.622a.52.52 0 10-.877-.562zm20.135-1.081c.965 2.756 2.205 5.925 2.205 5.925a.522.522 0 00.97-.38s-1.233-3.15-2.191-5.889a.522.522 0 00-.984.344zM85.272 136.527c-.29 3.191-.572 17.116.009 19.872a.52.52 0 101.019-.215c-.571-2.713-.277-16.421.009-19.562a.52.52 0 00-1.037-.095z" />
    </g>
</svg>