<svg viewBox="0 0 168 320" width="168" height="320" fill-rule="evenodd" clip-rule="evenodd" stroke-linecap="round" stroke-linejoin="round" stroke-miterlimit="1.5">
    <g>
        <path data-bodypart="head" d="M58.28 23.51c1.292 3.943 50.607 4.455 49.84-.411-.606-3.85-5.244-12.551-5.244-12.551l-10.948-8.01s-6.511-.758-9.459.315C79.182.859 70.447 1.798 68.186 6.532c-3.38 1.17-3.829 1.567-3.829 1.567s-4.011 4.125-4.978 4.283c-.966.159 1.871 2.944 1.871 2.944l-2.797 3.696s-.653 3.021-.173 4.488z" />
        <path data-bodypart="eyes" d="M75.957 31.416c3.697.925 6.043 4.295 5.235 7.522-.807 3.227-4.463 5.096-8.16 4.171-3.697-.925-6.043-4.296-5.236-7.522.808-3.227 4.464-5.096 8.161-4.171zm15.126-.128c-3.697.925-6.043 4.296-5.236 7.522.807 3.227 4.464 5.096 8.161 4.171 3.696-.925 6.042-4.295 5.235-7.522-.807-3.227-4.464-5.096-8.16-4.171z" />
        <path data-bodypart="ears" d="M107.097 32.751c.541 0 .122 1.26 1.921 2.011 2.071.866 1.073 3.416.225 5.906-.773 2.27-4.279 8.733-5.211 8.229-2.488-1.347-4.214-4.281-4.214-7.68 0-4.673 3.261-8.466 7.279-8.466zm-46.416 1.621c4.017 0 7.278 3.794 7.278 8.466 0 2.086-.65 3.998-1.728 5.474-1.336 1.83-6.045-2.431-6.963-4.956-.872-2.401-1.898-5.672-1.873-6.072.058-.901 1.057-1.351 1.632-1.853.58-.505.74-1.059 1.654-1.059z" />
        <path data-bodypart="nose" d="M85.092 41.737c-1.165-.952-1.43-1.404-1.43-1.404s-.858.933-1.305 1.447c-.999 1.148-5.224 4.834-2.449 6.617 3.676 2.362 14.323.816 5.184-6.66z" />
        <path data-bodypart="oral_cavity" d="M67.201 51.48c5.722-1.422 24.207-2.2 34.25.188 0 0-2.121 4.831-4.673 7.506-2.553 2.676-8.406 5.039-11.544 5.142-3.137.104-12.317-2.149-15.408-8.46-3.091-6.312-2.474-4.234-2.625-4.376z" />
    </g>
    <path data-bodypart="neck_or_throat" d="M96.446 61.333c.698 1.818 1.712 3.225 2.962 4.347a31.094 31.094 0 01-2.7 1.673 26.815 26.815 0 01-4.184 1.859 23.933 23.933 0 01-8.254 1.315 25.383 25.383 0 01-4.116-.412 28.287 28.287 0 01-3.947-1.025 32.426 32.426 0 01-4.333-1.829 36.406 36.406 0 01-1.671-.908l-.056-.032a7.72 7.72 0 001.164-1.403c.598-.914.968-2.32 1.249-3.584 3.316 2.402 6.884 3.954 10.619 4.266 4.22.353 8.686-.858 13.267-4.267z" />
    <path data-bodypart="chest" d="M55.592 105.966c-.053-4.782-.793-12.825-.795-13.052-.087-9.162.071-13.85 3.802-23.337.445-.094.89-.175 1.331-.241 2.884-.438 6.014-.474 8.529-1.809 7.835 4.789 19.957 8.438 32.54-.641 2.125 1.365 4.704 2.204 7.472 2.931 1.62.425 3.332.836 5.015 1.352 1.253 4.055 2.259 10.139 2.438 22.979.818 4.791-1.724 15.351-1.585 16.876.29 3.185.479 7.306.875 9.803.013.517.026 1.033.037 1.55.047 2.161.079 4.323.113 6.484l.005.274c-6.198-7.101-13.939-13.544-30.084-13.773-15.955-.226-25.991 7.937-31.03 13.998.018-2.672.002-5.404-.022-7.7.576-4.195 1.405-11.618 1.359-15.694z" />
    <path data-bodypart="upper_arm" d="M114.875 105.886c.693-1.513 2.469-9.601 2.489-9.843.854-10.467-.505-19.733-1.674-24.117 2.074.804 4.018 1.865 5.583 3.429.876.874 1.476 2.124 2.095 3.188 2.662 6.248 6.122 23.918 6.122 23.918.424 2.329 1.352 8.082 5.99 17.57-2.401.46-5.006 1.408-7.431 2.757-3.122 1.738-5.935 4.136-7.662 6.963l-.012-.026a164.636 164.636 0 01-2.93-7.02c-.07-.407-2.457-6.537-2.884-11.229-.11-1.208.246-5.444.314-5.59zm-62.449 15.107c-1.278 2.958-2.904 5.876-4.145 8.386-1.735-2.333-4.197-4.323-6.89-5.821-2.975-1.655-6.22-2.706-9.029-2.995 1.306-3.053 2.567-5.671 3.72-7.562 6.615-10.849 2.894-16.795 6.561-26.613 0 0 .494-1.12.937-2.381 1.962-5.587 5.168-10.809 10.878-13.163.607-.25 1.236-.477 1.878-.677-3.368 8.926-3.523 13.727-3.438 22.703-.137.17 1.883 8.31 1.937 13.131.024 2.21.187 5.785-.354 8.918-.405 2.344-1.78 4.251-2.055 6.074z" />
    <path data-bodypart="upper_abdomen" d="M54.217 132.506c4.078-5.721 14.026-15.487 31.042-15.246 16.671.236 23.972 7.438 30.161 14.857.039 2.018.087 3.918.159 5.6-12.518.217-48.647-.211-61.54-.342.087-1.37.143-3.053.178-4.869z" />
    <path data-bodypart="forearm" d="M31.592 122.399c2.694.156 5.927 1.177 8.876 2.818 2.781 1.547 5.321 3.651 6.883 6.152a18.046 18.046 0 00-.598 1.564c-2.299 7.154-13.601 26.531-18.514 33.824-3.086-2.55-6.801-4.455-10.287-5.614 2.013-5.232 8.109-25.297 13.64-38.744zm104.771-.605a116.909 116.909 0 002.567 4.724c6.063 10.586 8.879 25.968 11.276 33.831-3.114 1.224-6.583 2.985-9.683 5.232l-.004-.007a161.758 161.758 0 01-1.677-2.411 181.7 181.7 0 01-4.554-7.029 209.451 209.451 0 01-4.259-7.227 230.993 230.993 0 01-8.617-16.886l-.042-.091c1.412-3.089 4.34-5.668 7.602-7.483 2.424-1.349 5.04-2.278 7.391-2.653z" />
    <path data-bodypart="mid_abdomen" d="M53.872 139.272c12.751.128 49.171.557 61.806.339.037.587.079 1.132.127 1.632.207 2.173 1.229 7.124 2.138 14.423-19.807 7.76-51.488 4.02-65.972 1.666.543-8.944 1.558-15.13 1.901-18.06z" />
    <path data-bodypart="lower_abdomen" d="M79.362 180.068c-6.12-9.054-16.138-14.108-27.68-16.018.043-1.679.105-3.286.183-4.817 14.659 2.349 46.232 5.961 66.31-1.626.204 1.781.398 3.686.57 5.712-10.125 2.599-20.09 7.806-25.531 16.438a8.247 8.247 0 00-6.825-3.594 8.246 8.246 0 00-7.027 3.905z" />
    <path data-bodypart="hand" d="M15.693 162.425c3.537.923 7.533 2.745 10.831 5.342l.251.47c1.15 4.055-3.751 12.164-3.794 13.037-.042.851-.165 10.043-2.312 10.084-2.147.042-.45-10.728-1.607-10.955-1.158-.227-2.543 12.82-5.651 12.231-3.108-.589 2.401-10.792 1.165-12.272-1.237-1.479-5.641 12.6-8.193 11.35-2.612-1.28 3.019-9.622 4.554-12.867l-.194-.41c-3.474 1.014-5.851 9.543-8.299 8.665-4.155-1.492 8.51-14.214 7.844-18.087-2.689-.21-7.33 2.718-9.318 1.503-2.41-1.472 5.177-3.641 6.319-4.89 1.143-1.25 2.847-1.988 6.369-2.783a40.466 40.466 0 012.035-.418zm135.917-.589c.665.145 1.449.368 2.418.661 3.456 1.046 5.102 1.904 6.152 3.232 1.05 1.329 8.461 4.037 5.952 5.332-2.07 1.069-6.489-2.185-9.186-2.168-.942 3.814 10.776 17.414 6.525 18.603-2.504.7-4.263-7.977-7.656-9.238l-.222.395c1.298 3.347 6.315 12.072 3.618 13.161-2.635 1.063-6.017-13.296-7.356-11.909-1.34 1.387 3.422 11.959.28 12.324-3.142.364-3.587-12.749-4.758-12.606-1.171.143-.251 11.008-2.39 10.812-2.138-.196-1.601-9.373-1.582-10.224.018-.795-3.538-7.842-3.105-12.093 3.49-2.829 7.706-4.949 11.31-6.282z" />
    <path data-bodypart="sexual_organs" d="M80.533 181.931a6.335 6.335 0 015.856-3.87 6.339 6.339 0 015.732 3.594 26.955 26.955 0 00-2.308 6.134.955.955 0 00.011.49l-6.507-.134a.953.953 0 00-.055-.308 34.904 34.904 0 00-2.729-5.906z" />
    <path data-bodypart="thigh" d="M51.643 165.965c13.69 2.326 25.119 9.247 29.83 22.507a.951.951 0 00.985.628c4.178 8.306.546 27.915 1.367 35.24.167 1.497.289 2.893.373 4.201-3.599 2.146-7.74 2.951-11.751 3.035-5.241.111-10.271-1.01-13.655-2.078l-.001-.005c-.461-4.421-1.125-8.82-1.915-13.193-.212-1.171-.432-2.34-.661-3.507-.128-.652-.26-1.304-.389-1.955a226.324 226.324 0 01-1.742-9.947 214.27 214.27 0 01-2.363-25.477 199.683 199.683 0 01-.079-9.376l.001-.073zm67.255-.736c.957 12.736.977 29.775-2.515 49.924-.939 5.42-1.626 10.092-2.088 14.179-3.232 1.557-6.804 2.171-10.278 2.244-5.911.125-11.553-1.316-14.87-2.482a479.755 479.755 0 00-.122-5.038c-.34-11.222-2.345-26.219 1.271-35.201a.95.95 0 001.362-.617c3.106-12.76 15.026-19.832 27.24-23.009z" />
    <path data-bodypart="knee" d="M84.302 230.66c.314 9.153-1.385 13.6-2.275 18.284-3.044 1.322-6.354 1.856-9.58 1.924-5.02.106-9.845-.917-13.218-1.942.252-4.591.421-9.935-.24-17.385 3.51 1.039 8.409 2.041 13.498 1.933 4.013-.084 8.139-.859 11.815-2.814zm4.888.453c3.533 1.169 9.077 2.484 14.867 2.361 3.367-.071 6.814-.627 10.007-1.96-.443 4.509-.588 8.268-.48 11.535.069 2.083.175 3.99.296 5.769-3.122 1.415-6.537 1.98-9.863 2.05-4.705.1-9.241-.794-12.568-1.75-1.874-7.327-2.117-11.733-2.259-18.005z" />
    <path data-bodypart="lower_leg" d="M114.025 250.823c.511 6.696 1.124 11.684.491 17.988-.104 2.658-2.115 9.589-3.154 14.747-2.143.568-4.355.826-6.529.871-3.276.069-6.469-.343-9.229-.922-.677-5.877-3.019-11.294-2.863-19.718.038-2.024 1.005-6.438-.499-11.739l-.228-.811c3.348.877 7.624 1.621 12.043 1.527 3.353-.07 6.785-.623 9.968-1.943zm-54.908.048c3.502 1.025 8.343 2.001 13.37 1.895 3.084-.065 6.236-.537 9.199-1.641-.209 1.763-.255 3.654-.006 5.91.57 5.151.33 8.137-.365 11.901.04 0-1.564 8.448-2.109 13.484-2.215.611-4.508.885-6.759.933-2.998.063-5.926-.276-8.517-.779-.851-3.061-1.946-6.031-2.581-8.484-3.022-10.245-2.66-15.979-2.232-23.219z" />
    <path data-bodypart="foot" d="M95.791 285.479c2.753.544 5.88.916 9.082.848 2.035-.043 4.098-.263 6.118-.724-.221 1.411-.309 2.569-.179 3.294.608 3.387 2.333 7.69 1.986 10.122-.348 2.432 2.779 1.043 8.599 8.687 4.517 3.127 4.256 5.646 2.867 6.428 0 0-6.098 3.149-8.166 3.995-2.238.916-3.474-1.129-3.474-1.129s-.035-.246-.081-.59a3.114 3.114 0 00-.006-.8c-.477-2.813-.159-.407.006.8-.417 3.178-6.295 2.988-8.432.851-1.824-1.824-1.751-3.571-4.618-8.349-4.43-3.214-1.289-5.897-2.765-10.761-1.327-4.37-.554-7.334-.937-12.672zm-16.751-1.057c-.023.539-.017.97.028 1.257.405 2.58 2.478 4.545.677 9.331-1.8 4.786.521 6.287.164 8.53-.284 1.791-.677 3.427-2.303 4.93-1.626 1.503-1.113 4.719-3.175 8.186-2.062 3.468-7.837.429-7.837.429l-5.033.736c-2.495.521-3.668-1.329-3.586-1.329l-3.227-1.034c-2.628-.465-1.575-4.219-.008-5.485 1.95-1.573 4.306-4.968 5.737-6.094.93-.731 3.029-2.366 3.118-4.115-.221-3.591 1.674-6.872 1.534-10.484-.06-1.523-.319-3.102-.682-4.683 2.488.435 5.235.713 8.04.654 2.181-.046 4.396-.296 6.553-.829z" />
    <g>
        <path d="M67.881 6.32c1.292-2.622 4.062-4.147 6.992-4.733 2.893-.579 5.923-.234 7.767.792 7.272-3.097 12.533 1.132 16.772 4.746 1.361 1.161 2.612 2.251 3.793 2.97 1.06.645 2.047.996 3.013.717a.516.516 0 01.287.991c-.79.228-1.597.16-2.429-.137.966 1.787 1.498 3.511 2.224 4.945.829 1.637 1.94 2.859 4.461 3.258a.515.515 0 11-.161 1.019c-.952-.151-1.732-.401-2.384-.736.323 1.293.336 2.674.224 4.031-.146 1.783-.505 3.52-.571 4.925-.045.951.013 1.735.501 2.203.309.297.786.438 1.474.444a.516.516 0 11-.008 1.032c-.692-.006-1.231-.134-1.651-.353l-.097 1.474c.655.164 1.273.597 1.763 1.261.467.635.625 1.799.471 3.214-.329 3.019-1.972 7.252-3.797 9.318-.768.868-1.59 1.359-2.353 1.365a1.894 1.894 0 01-1.015-.284 34.841 34.841 0 01-2.262 5.242c-1.212 2.26-2.741 4.439-4.635 6.26a.51.51 0 01.079.166c1.638 6.066 6.568 7.746 12.15 9.212 4.456 1.17 9.585 2.258 12.977 5.646.902.902 1.529 2.183 2.167 3.279l.028.058c2.661 6.247 6.125 23.912 6.126 23.918.509 2.787 1.749 10.533 9.339 23.785 6.324 11.043 9.119 27.314 11.586 34.781.823.127 1.82.395 3.144.796 3.593 1.087 5.288 2.011 6.38 3.392.268.34 1.006.761 1.86 1.243 1.433.808 3.186 1.733 4.036 2.546.522.5.723 1.011.627 1.432-.069.305-.287.617-.766.864-.591.305-1.342.337-2.189.171-1.103-.215-2.391-.762-3.662-1.275-.996-.402-1.98-.783-2.846-.934a5.081 5.081 0 00-.229-.034c.005.698.341 1.632.823 2.711 1.518 3.391 4.631 8.013 5.978 11.257.446 1.074.699 2.011.682 2.725-.021.913-.424 1.531-1.304 1.778-.527.147-1.035.022-1.526-.343-.388-.288-.772-.743-1.15-1.31-.95-1.429-1.895-3.62-3.01-5.335-.476-.732-.975-1.378-1.529-1.808 1.097 2.539 3.414 6.94 3.991 9.817.151.753.184 1.412.077 1.928-.134.647-.474 1.102-1.04 1.33-.355.144-.72.124-1.09-.052-.405-.193-.833-.61-1.251-1.207-1.392-1.991-2.832-6.123-3.973-8.714-.327-.744-.626-1.354-.893-1.727l-.015-.02-.004.031c-.028.227-.019.507.012.827.168 1.691.964 4.375 1.355 6.632.241 1.394.319 2.637.069 3.442-.221.717-.669 1.152-1.387 1.236-.74.085-1.406-.338-1.944-1.191-.979-1.553-1.601-4.663-2.089-7.317-.258-1.4-.48-2.667-.712-3.476v.001c-.243 1.37-.281 3.926-.495 6.073-.155 1.549-.423 2.894-.866 3.537-.301.435-.681.628-1.116.588-.393-.036-.742-.248-1.025-.635-.31-.422-.551-1.09-.716-1.899-.575-2.826-.319-7.498-.303-8.155a18.75 18.75 0 00-.392-1.154c-.618-1.613-1.741-4.361-2.335-7.001-.352-1.564-.515-3.093-.307-4.343.09-.539.248-1.029.483-1.456l-.015-.022c-.44-.617-.875-1.237-1.306-1.86a176.753 176.753 0 01-3.615-5.452 197.814 197.814 0 01-3.586-5.853 220.41 220.41 0 01-3.893-6.88 234.97 234.97 0 01-6.329-12.558 202.556 202.556 0 01-2.351-5.236 157.316 157.316 0 01-1.925-4.659c-.253-.642-.5-1.286-.741-1.933a83.199 83.199 0 01-.759-2.116c.239 7.845.17 16.896.626 21.681.577 6.059 7.495 33.754.571 73.711-2.184 12.603-2.997 21.128-2.779 27.664.369 11.119 1.776 17.216.926 25.699-.098 2.33-1.624 7.879-2.705 12.681-.699 3.099-1.224 5.873-.989 7.185.362 2.016 1.124 4.358 1.6 6.43.335 1.459.525 2.792.38 3.81-.038.262-.03.46.05.625.143.296.462.487.906.762 1.397.867 3.939 2.211 7.454 6.81 2.849 1.989 3.834 3.791 3.896 5.059.05 1.018-.44 1.767-1.15 2.167a.516.516 0 01-.571-.044c-.358.633-.977 1.061-1.844 1.061a.515.515 0 01-.38-.167 2.347 2.347 0 01-.271.703c-.475.808-1.481 1.413-3.192 1.262a.517.517 0 01-.461-.414c-.206.709-.684 1.284-1.467 1.604-1.844.755-3.11-.197-3.706-.839-.437.617-1.125 1.047-1.949 1.303-2.18.679-5.349.047-6.838-1.441-.771-.771-1.224-1.527-1.681-2.483-.634-1.326-1.28-3.058-2.941-5.839-2.324-1.719-2.655-3.307-2.604-5.108.045-1.627.462-3.454-.252-5.808-1.48-4.873-.364-8-1.131-14.609-.667-5.894-3.017-11.313-2.86-19.756.037-1.989 1.001-6.326-.477-11.535-3.372-11.881-2.866-16.254-3.222-27.992-.207-6.851-1.037-15.114-.821-22.547.137-4.702.695-9.075 2.07-12.568l-6.92-.142c1.67 3.16 2.191 8.017 2.208 13.246.029 8.359-1.195 17.674-.685 22.221 1.312 11.715-.154 17.303-1.279 22.226-.732 3.202-1.321 6.116-.856 10.32.574 5.191.332 8.201-.368 11.992-.01.079-.03.214-.061.397-.391 2.284-2.534 13.814-2.174 16.102.157 1.001.578 1.905.909 2.929.537 1.66.872 3.608-.262 6.621-1.015 2.698-.64 4.285-.246 5.578.302.994.591 1.841.436 2.813-.301 1.894-.732 3.616-2.452 5.205-.58.536-.832 1.327-1.071 2.269-.409 1.615-.734 3.643-1.996 5.765-1.369 2.302-4.357 2.713-6.482 1.83-.632-.262-1.184-.635-1.602-1.099-.451.415-1.527 1.23-2.922 1.097a2.607 2.607 0 01-1.737-.877.517.517 0 01-.407.45c-1.212.253-2.148-.115-2.748-.787a2.753 2.753 0 01-.484-.776.523.523 0 01-.258.217c-.09.049-.401.202-.744.183-.336-.017-.82-.163-1.449-.739-.243-.223-.545-.697-.716-1.305-.245-.873-.232-2.017.541-3.008 1.132-1.452 2.008-2.921 2.389-3.657a.517.517 0 11.916.474c-.397.768-1.31 2.302-2.492 3.817-.537.689-.532 1.488-.361 2.095.106.378.269.685.42.823.361.331.614.46.806.47.119.007.188-.055.221-.073a.584.584 0 01.284-.078.52.52 0 01.236.057c-.135-.82.015-1.759.516-2.64.854-1.499 1.427-3.091 1.652-4.05a.515.515 0 111.004.236c-.24 1.023-.848 2.724-1.759 4.325-.608 1.067-.565 2.256.047 2.942.384.429.993.626 1.768.464a.497.497 0 01.243.008c-.47-.916-.473-2.156.221-3.38.72-1.268 1.365-2.294 1.875-3.715a.516.516 0 01.971.349c-.532 1.481-1.199 2.553-1.949 3.875-.862 1.521-.284 3.142 1.092 3.273 1.229.117 2.11-.795 2.25-.95a3.077 3.077 0 01-.251-1.456c.065-.986.417-1.642.912-2.069.24-.206.517-.36.821-.468.496-.383.782-1.102 1.026-1.7.227-.556.426-1.035.619-1.254a.517.517 0 01.774.682c-.191.217-.349.775-.6 1.348a7.203 7.203 0 01-.362.725c1.16.036 2.43.436 3.304.791a.516.516 0 01-.388.956c-.866-.352-2.17-.772-3.284-.713a2.79 2.79 0 00-.618.095l-.013.009a.532.532 0 01-.235.08 1.447 1.447 0 00-.37.231c-.321.276-.514.716-.557 1.355-.074 1.136.731 1.973 1.794 2.415 1.699.705 4.104.435 5.199-1.405 1.201-2.02 1.494-3.954 1.883-5.492.295-1.161.656-2.112 1.371-2.773 1.518-1.403 1.868-2.937 2.133-4.609.13-.814-.151-1.518-.404-2.351-.44-1.447-.868-3.222.268-6.241 1.017-2.704.727-4.451.245-5.941-.348-1.077-.781-2.032-.946-3.086-.367-2.335 1.777-14.106 2.176-16.436.027-.158.049-.296.055-.335a.406.406 0 01.008-.069c.683-3.699.918-6.635.358-11.697-.481-4.344.119-7.355.875-10.664 1.108-4.846 2.551-10.347 1.259-21.881-.511-4.57.708-13.932.68-22.333-.019-5.469-.55-10.527-2.522-13.498-.349-.29.025-.863.441-.801l8.573.175c.052.001.104.01.153.027l.025.008a.517.517 0 01.309.698c-1.543 3.494-2.133 8.008-2.274 12.882-.216 7.412.613 15.653.821 22.486.352 11.632-.159 15.967 3.182 27.741 1.517 5.345.555 9.795.517 11.836-.156 8.386 2.191 13.767 2.853 19.619.757 6.525-.368 9.615 1.093 14.427.61 2.011.465 3.661.355 5.13-.089 1.178-.168 2.227.328 3.259.329.683.909 1.352 1.879 2.056l.139.152c1.442 2.402 2.145 4.042 2.716 5.311.536 1.192.943 2.039 1.804 2.9 1.261 1.262 3.954 1.761 5.801 1.186 1.093-.34 1.876-1.095 1.711-2.388-.316-1.843-1.621-2.394-2.895-2.484-.937-.067-1.862.101-2.449.231a.515.515 0 11-.224-1.007c.589-.131 1.483-.29 2.416-.269l-.536-1.375a.516.516 0 11.961-.374c.442 1.136.654 1.673.735 1.88 1.4.301 2.661 1.172 3.011 3.236l-.508.086.511-.067c.054.412.044.789-.021 1.13a.522.522 0 01.038.054s1.004 1.657 2.821.913c.621-.253.91-.781.942-1.399.057-1.094-.618-2.43-1.756-3.346-1.631-1.313-1.96-2.986-1.96-2.986a.516.516 0 111.011-.206s.284 1.332 1.596 2.388c1.42 1.143 2.21 2.838 2.139 4.204-.005.1-.014.2-.028.297a.517.517 0 01.466-.215c1.165.103 1.889-.206 2.212-.756.478-.813.068-2.007-.845-2.636-1.963-1.35-2.942-4.03-2.942-4.03a.517.517 0 01.97-.352s.842 2.352 2.557 3.532c.893.615 1.414 1.604 1.473 2.557a.514.514 0 01.327-.117c.568 0 .924-.364 1.075-.835.262-.818-.017-1.945-.886-2.446-.683-.393-1.172-.962-1.57-1.522-.338-.477-.598-.946-.886-1.234a.516.516 0 01.73-.729c.262.263.513.652.799 1.077.357.531.779 1.132 1.442 1.514 1.11.64 1.596 1.954 1.473 3.087.327-.332.461-.863.268-1.527-.304-1.043-1.323-2.336-3.43-3.795l-.117-.111c-3.411-4.48-5.874-5.784-7.227-6.623-.658-.409-1.078-.75-1.291-1.189-.157-.325-.216-.707-.143-1.22.132-.919-.062-2.119-.364-3.434-.479-2.088-1.245-4.448-1.609-6.479-.249-1.385.26-4.321.997-7.594 1.069-4.744 2.592-10.226 2.682-12.512l.002-.031c.849-8.445-.562-14.51-.929-25.576-.219-6.585.593-15.175 2.793-27.874 6.899-39.808-.006-67.401-.581-73.437-.576-6.05-.317-18.911-.895-27.549l-.001-.026c-.031-1.782-.353-4.004-.231-6.305.126-2.36 1.159-4.65 1.396-7.014.392-3.901.022-7.874.133-11.787a.517.517 0 011.032.029c-.112 3.937.256 7.936-.138 11.862-.236 2.347-1.268 4.62-1.392 6.965-.121 2.268.199 4.459.231 6.219.03.444.057.9.083 1.365a.456.456 0 01.014.064c.853 5.487 11.307 30.511 25.725 50.642l-.371-.521a.515.515 0 01.658.791c-.555.533-.792 1.326-.852 2.247-.067 1.019.091 2.188.36 3.381.582 2.586 1.686 5.278 2.291 6.858.299.78.466 1.333.461 1.533-.013.584-.281 5.173.282 7.939.11.54.249 1.005.438 1.341.111.198.217.357.386.372.078.007.119-.069.172-.147.095-.137.174-.319.245-.533.325-.972.466-2.527.573-4.096.15-2.222.239-4.47.569-5.318.174-.447.458-.636.711-.667.248-.03.545.071.773.454.357.599.689 2.373 1.067 4.425.4 2.175.875 4.676 1.594 6.281.214.476.444.869.709 1.128.181.177.373.286.596.26.391-.046.526-.389.593-.846.102-.688.003-1.613-.173-2.631-.395-2.282-1.195-4.997-1.364-6.706-.05-.499-.045-.922.02-1.243.061-.3.179-.528.333-.688.392-.406.966-.381 1.518.39.297.414.636 1.087.999 1.912 1.117 2.537 2.511 6.589 3.875 8.539.251.359.494.641.74.804.127.085.247.139.369.09.24-.097.359-.309.416-.584.084-.406.04-.923-.078-1.515-.624-3.11-3.33-8.023-4.227-10.338a.515.515 0 01.187-.61.516.516 0 01.695-.453c.894.333 1.7 1.117 2.424 2.133.994 1.396 1.852 3.232 2.681 4.722.43.774.848 1.451 1.281 1.898.302.312.587.522.916.43.391-.109.542-.403.551-.808.014-.606-.226-1.395-.604-2.305-1.344-3.237-4.452-7.848-5.966-11.231-.537-1.2-.865-2.265-.899-3.09-.193.06-.367.157-.517.303a.516.516 0 01-.721-.738c.435-.424.987-.63 1.628-.663l.081-.004a.518.518 0 01.18 0c.765.015 1.653.254 2.583.589 1.434.517 2.98 1.262 4.31 1.607.752.196 1.422.279 1.925.019.122-.063.217-.099.235-.177.011-.05-.033-.095-.07-.152a1.817 1.817 0 00-.265-.305c-.805-.77-2.474-1.628-3.83-2.394-1.005-.567-1.846-1.101-2.163-1.502-.998-1.263-2.581-2.049-5.869-3.044-3.22-.974-4.237-1.162-5.903-.207a.516.516 0 11-.513-.895c.87-.499 1.585-.749 2.459-.766-2.42-7.6-5.194-23.401-11.37-34.184-7.693-13.433-8.942-21.287-9.456-24.105 0 0-3.414-17.461-6.05-23.679-.589-1.015-1.155-2.206-1.987-3.038-3.264-3.26-8.223-4.252-12.51-5.378-5.859-1.539-10.965-3.405-12.795-9.625-2.805 2.405-6.344 4.029-10.754 4.104-4.681.081-8.397-1.484-11.316-3.857-.329 1.497-.714 2.984-1.563 4.285-1.375 2.104-3.281 3.113-5.395 3.67-2.011.529-4.214.64-6.29.955a23.43 23.43 0 00-5.327 1.468c-5.543 2.285-8.634 7.373-10.539 12.797a37.69 37.69 0 01-.941 2.392c-1.801 4.828-1.78 8.708-2.129 12.713-.36 4.118-1.093 8.366-4.44 13.855-6.319 10.363-15.895 42.678-18.198 48.319.705.124 1.317.413 2.028.892a.516.516 0 01-.576.856c-1.593-1.072-2.621-.958-5.903-.217-3.35.756-4.985 1.426-6.072 2.614-.344.377-1.222.85-2.265 1.343-1.408.666-3.134 1.403-3.992 2.112a1.752 1.752 0 00-.286.286c-.042.054-.089.096-.081.147.012.078.104.121.221.193.484.295 1.158.26 1.922.119 1.351-.249 2.947-.88 4.414-1.293.952-.268 1.855-.442 2.619-.403a.515.515 0 01.18.014l.08.009c.637.08 1.173.324 1.576.779a.516.516 0 01-.772.684 1.252 1.252 0 00-.494-.339c-.093.82-.496 1.859-1.118 3.017-1.754 3.266-5.185 7.641-6.758 10.774-.442.881-.738 1.65-.767 2.255-.02.405.109.709.491.846.321.115.621-.073.945-.363.463-.415.929-1.06 1.414-1.801.933-1.427 1.921-3.197 3.013-4.518.795-.961 1.655-1.686 2.571-1.953a.516.516 0 01.66.501.517.517 0 01.143.623c-1.061 2.244-4.112 6.95-4.958 10.008-.161.581-.242 1.094-.187 1.505.037.278.141.498.373.612.118.058.242.012.375-.063.257-.145.519-.409.796-.749 1.5-1.847 3.181-5.789 4.477-8.238.351-.663.675-1.221.961-1.613.234-.322.457-.542.647-.657a.858.858 0 01.536-.136.766.766 0 01.532.29c.142.17.243.407.283.71.042.325.016.747-.069 1.242-.292 1.692-1.284 4.343-1.842 6.59-.249 1.003-.414 1.918-.362 2.612.034.46.145.813.531.886.221.042.42-.053.613-.216.284-.24.541-.614.788-1.074.833-1.55 1.486-4.01 2.042-6.151.523-2.019.982-3.765 1.381-4.337.255-.365.559-.445.804-.397.25.049.52.258.661.716.268.87.196 3.118.186 5.346-.006 1.572.023 3.133.277 4.126.056.219.121.406.206.549.048.082.083.161.161.159.17-.003.287-.154.412-.343.213-.321.385-.776.533-1.307.761-2.718.822-7.314.851-7.898.01-.199.216-.738.57-1.495.717-1.533 2.012-4.138 2.778-6.677.354-1.17.595-2.325.602-3.346.006-.922-.174-1.73-.689-2.302a.518.518 0 01.038-.729.518.518 0 01.729.038c.23.256.416.546.56.865 4.354-6.158 16.696-27.125 19.1-34.607 1.326-4.125 6.018-10.878 7.343-16.875a.534.534 0 01.092-.199 57.75 57.75 0 01.689-5.753c.386-2.129.379-3.446.186-5.52-.195-2.115-.766-4.485-1.166-6.55-.697-3.592-.571-7.446-.119-11.056a.515.515 0 111.023.128c-.438 3.504-.567 7.245.109 10.732.406 2.096.982 4.503 1.181 6.65.201 2.179.207 3.564-.198 5.798-1.753 9.948-.405 22.493-.981 28.532-.574 6.034-5.953 32.815 2.008 72.415 3.954 19.663 3.684 29.819 3.234 37.791-.445 7.888-1.076 13.617 2.114 24.433l-.495.146.5-.129c1.103 4.258 3.578 10.074 3.779 15.229.072 1.848-.37 3.611-.809 5.371-.414 1.662-.826 3.32-.719 5.054v.058c-.04.796-.43 1.578-.971 2.275-.739.952-1.75 1.747-2.328 2.201-1.424 1.12-3.767 4.497-5.706 6.062-.69.558-1.258 1.668-1.374 2.686-.061.539 0 1.057.3 1.419.186.225.466.378.848.446a.516.516 0 11-.18 1.015c-1.324-.234-1.91-1.127-2.006-2.222-.127-1.453.715-3.299 1.764-4.146 1.942-1.568 4.29-4.95 5.716-6.071.533-.419 1.47-1.145 2.151-2.023.4-.516.718-1.082.754-1.671-.106-1.828.314-3.58.75-5.332.415-1.666.847-3.333.779-5.081-.198-5.08-2.655-10.805-3.745-15.003-3.233-10.966-2.603-16.775-2.152-24.775.447-7.917.711-18.002-3.215-37.53-7.995-39.765-2.601-66.657-2.023-72.716.397-4.176-.118-11.455.1-18.844-1.925 4.986-5.178 10.035-6.25 13.371-2.521 7.844-15.864 30.389-19.737 35.57l.02.183c.118 1.263-.155 2.776-.618 4.311-.782 2.59-2.1 5.25-2.831 6.815a18.585 18.585 0 00-.475 1.123c-.03.656-.11 5.335-.887 8.111-.223.796-.511 1.445-.85 1.844-.311.365-.674.552-1.069.56-.436.008-.802-.211-1.07-.668-.396-.673-.567-2.033-.61-3.59-.06-2.156.086-4.709-.058-6.092v-.001c-.29.79-.602 2.038-.96 3.416-.677 2.611-1.521 5.669-2.609 7.148-.598.812-1.292 1.186-2.024 1.048-.71-.135-1.125-.602-1.295-1.332-.191-.821-.024-2.055.317-3.429.552-2.222 1.538-4.843 1.826-6.517.055-.317.084-.595.073-.824l-.002-.032-.017.02c-.294.352-.635.94-1.015 1.658-1.324 2.502-3.056 6.52-4.588 8.406-.46.565-.917.951-1.335 1.114-.381.15-.746.143-1.091-.026-.547-.268-.854-.746-.942-1.402-.069-.522.011-1.177.216-1.916.782-2.829 3.409-7.052 4.685-9.505-.583.388-1.128.997-1.654 1.693-1.236 1.63-2.335 3.748-3.386 5.105-.417.539-.833.964-1.24 1.224-.516.329-1.033.417-1.548.232-.86-.309-1.217-.954-1.173-1.867.035-.713.355-1.63.876-2.668 1.577-3.14 5.013-7.526 6.771-10.799.559-1.042.961-1.949 1.016-2.646a6.337 6.337 0 00-.231.019c-.875.087-1.884.397-2.906.727-1.305.42-2.629.873-3.744 1.008-.857.105-1.604.019-2.171-.327-.46-.282-.655-.608-.702-.917-.066-.427.172-.923.729-1.384.906-.749 2.72-1.546 4.208-2.249.887-.42 1.652-.787 1.945-1.107 1.187-1.299 2.944-2.098 6.606-2.925 1.57-.354 2.686-.561 3.586-.591 1.96-4.292 11.91-38.131 18.409-48.79 3.238-5.31 3.945-9.422 4.293-13.407.357-4.094.351-8.058 2.195-12.996l.011-.028s.485-1.097.919-2.333c2.002-5.699 5.294-11.007 11.118-13.409a24.505 24.505 0 015.566-1.534c2.041-.31 4.206-.413 6.182-.933 1.874-.493 3.575-1.371 4.794-3.237.795-1.216 1.13-2.616 1.436-4.017a.514.514 0 01.25-.338c-1.907-1.719-3.446-3.784-4.672-5.926a33.455 33.455 0 01-2.468-5.438c-1.01.355-2.17-.102-3.311-1.2-1.674-1.613-3.369-4.615-4.519-7.659-.892-2.361-.396-3.895.5-4.703.167-.15.35-.277.544-.38-.394-.456-1.157-1.551-1.502-3.47a5.69 5.69 0 00-.729.416c-.195.139-.358.292-.443.5-.123.302-.075.693.151 1.246a.516.516 0 01-.955.39c-.365-.895-.351-1.536-.151-2.026.203-.497.612-.86 1.135-1.165.494-.289 1.099-.529 1.641-.874.688-.438 1.254-1.073 1.21-2.331-.031-.917-.561-2.041-1.032-3.213-.529-1.32-.99-2.693-.836-3.924.189-1.509.768-2.398 1.578-3.306.493-.553 1.078-1.114 1.708-1.859.147-.173.235-.313.246-.449.01-.125-.064-.226-.154-.334-.166-.201-.404-.396-.661-.613-.696-.588-1.505-1.305-1.842-2.447-.165-.343-.229-.761-.153-1.227a.516.516 0 011.026.083c0 .265.031.507.086.728a.714.714 0 00.555.355c.662.077 1.547-.384 2.47-1.553.883-1.12 1.604-2.002 2.29-2.641 1.107-1.03 2.141-1.468 3.548-1.307zM80.93 268.706l-.009-.011.009.011a.485.485 0 00.395.183.516.516 0 01-.395-.183zm14.097-28.722c1.648 4.222 4.378 5.291 5.821 5.991a.516.516 0 00.45-.929c-1.314-.636-3.81-1.596-5.31-5.437a.516.516 0 00-.961.375zm-18.423-1.109c-1.418 2.496-4.674 5.69-4.674 5.69a.515.515 0 10.723.735s3.375-3.323 4.848-5.916a.516.516 0 10-.897-.509zm-14.29-76.258c1.117 1.789 2.587 3.186 4.58 4.002a.516.516 0 00.391-.954c-1.786-.732-3.095-1.992-4.096-3.595a.517.517 0 00-.875.547zm43.563 3.363c1.82-1.579 3.211-3.215 4.094-4.915a.515.515 0 10-.916-.475c-.829 1.596-2.144 3.128-3.854 4.611a.516.516 0 10.676.779zM87.14 151.088c1.249.202 1.851.887 2.029 1.57.298 1.139-.559 2.404-1.989 2.249-.483-.052-.826-.223-1.068-.461-.249-.245-.399-.569-.455-.959-.124-.869.283-2.153.741-3.373a.517.517 0 01.966.363c-.076.203-.152.408-.224.611zm-.313.987a4.59 4.59 0 00-.16.932c-.014.291.005.543.168.703.101.1.254.15.455.172.622.067 1.011-.468.881-.963-.103-.395-.511-.713-1.246-.82a.52.52 0 01-.098-.024zm14.255-46.656c1.056.019 2.113.008 3.168-.05a.515.515 0 10-.056-1.03c-1.03.057-2.062.067-3.092.048a.517.517 0 00-.526.506.517.517 0 00.506.526zm-36.887-.083c1.129.041 2.256.043 3.386.06a.515.515 0 10.016-1.031c-1.122-.018-2.242-.019-3.364-.06a.516.516 0 10-.038 1.031zm17.112-31.002c1.782 1.295 4.668 1.775 6.521.141a.516.516 0 10-.682-.774c-1.488 1.312-3.802.838-5.233-.201a.516.516 0 00-.606.834zm21.037-63.564c-1.127-.739-2.319-1.766-3.602-2.86-4.021-3.429-8.986-7.577-15.927-4.482a.52.52 0 01-.484-.034c-1.642-1.027-4.519-1.343-7.256-.796-2.713.543-5.31 1.941-6.395 4.451a.515.515 0 01-.617.29.505.505 0 01-.213.016c-1.129-.15-1.937.211-2.814 1.027-.655.61-1.34 1.456-2.184 2.525-.971 1.23-1.96 1.787-2.755 1.919a2.532 2.532 0 01-.279.031l.081.084c.392.395.816.709 1.139 1.01.454.423.721.854.71 1.334-.008.322-.137.689-.491 1.107-.636.752-1.227 1.32-1.725 1.878-.675.757-1.167 1.492-1.324 2.748-.134 1.073.308 2.261.77 3.411.52 1.296 1.07 2.549 1.105 3.562.067 1.942-.912 2.809-1.999 3.421.06.069.103.154.12.251.393 2.228 1.416 3.157 1.416 3.157.063.056.11.124.139.198.996-.111 2.06.249 2.748 1.037a4.255 4.255 0 011.491-1.421c-1.149-1.27-1.606-3.058-.961-4.692.436-1.106 1.385-2.159 3.014-2.91-2.745-5.553.494-9.427 3.487-12.586-.449-.238-.751-.569-.907-.942-.182-.433-.177-.936.067-1.459.297-.636.983-1.332 2.158-1.919a.516.516 0 01.461.923c-.763.381-1.28.8-1.562 1.219-.204.302-.276.591-.173.838.112.266.398.454.798.57.519.151 1.211.165 2.049.004 2.123-.408 3.281.703 4.179 1.887.382.502.708 1.016 1.063 1.375.235.238.473.409.794.34 1.044-.224 2.649-.661 4.065-.568.793.052 1.529.267 2.113.728.427.338.779.807 1.005 1.455.446-.474.801-1.12 1.238-1.72.542-.746 1.182-1.435 2.11-1.816.918-.376 2.129-.462 3.838.06 1.517.464 2.541.741 3.277.84.413.056.718.056.966-.014.279-.08.471-.258.68-.505.281-.33.575-.767 1.002-1.301a.516.516 0 01.806.644c-.436.545-.736.99-1.022 1.326a3.239 3.239 0 01-.496.482c1.164 2.094 2.004 3.677 2.375 4.991.398 1.411.292 2.544-.457 3.652 1.218 1.402 2.818 3.082 3.862 4.884 1.207 2.083 1.679 4.322.229 6.512a.516.516 0 11-.86-.569c1.208-1.826.744-3.69-.262-5.426-1.09-1.883-2.814-3.622-4.021-5.042a.516.516 0 01-.01-.656c.751-.938.864-1.878.526-3.075-.361-1.279-1.195-2.817-2.337-4.867-.305.049-.667.048-1.119-.013-.772-.105-1.848-.389-3.441-.876-1.4-.428-2.392-.401-3.144-.093-.741.304-1.235.873-1.668 1.468-.695.957-1.261 1.974-2.124 2.467a.518.518 0 01-.766-.369c-.119-.776-.409-1.299-.826-1.629-.424-.335-.966-.471-1.541-.509-1.319-.087-2.81.34-3.782.548-.567.121-1.041-.036-1.472-.378-.338-.268-.651-.667-.974-1.111-.776-1.066-1.625-2.491-3.612-2.109-.762.147-1.429.164-1.985.087a.415.415 0 01-.043.051c-2.885 3.023-6.4 6.712-3.376 12.209a.52.52 0 01-.266.73c-1.615.625-2.559 1.543-2.957 2.551-.577 1.462.016 3.073 1.224 4.055a.516.516 0 01-.139.881c-1.928.747-2.442 2.573-2.099 3.849.146.546.441.998.884 1.128.464.136 1.022-.105 1.665-.776a.516.516 0 01.744.714c-.525.548-1.034.867-1.5 1.018a.516.516 0 01.045.226c-.045 1.76 1.003 7.511 4.025 12.793 3 5.243 7.963 10.034 15.815 9.899 7.573-.13 12.405-5.127 15.326-10.571 2.805-5.227 3.862-10.881 3.838-13.162a.514.514 0 01-.017-.153l.006-.153v-.007a.525.525 0 01.007-.126c.17-3.176 1.159-4.941 2.258-5.662.316-.208.646-.34.978-.401l.16-2.412c-.323-.622-.423-1.441-.378-2.402.067-1.415.427-3.165.574-4.96.139-1.697.092-3.439-.65-4.951a.453.453 0 01-.036-.099c-.549-.566-.972-1.233-1.346-1.971-.891-1.759-1.474-3.966-2.972-6.177a.547.547 0 01-.064-.131zM78.025 53.099c4.579 1.607 7.631 1.755 11.889-.253a.516.516 0 00-.44-.933c-3.978 1.876-6.83 1.714-11.107.213a.515.515 0 10-.342.973zm5.477-5.781c.191-.188.429-.353.702-.493.669-.344 1.56-.548 2.348-.661a.516.516 0 01.146 1.021c-.678.097-1.447.262-2.023.558-.291.149-.535.322-.633.567a.517.517 0 01-.917.081.537.537 0 01-.037-.044s-.784-.982-2.743-.982a.516.516 0 110-1.032c1.65 0 2.65.573 3.157.985zM62.014 37.17c-.573-1.223-2.244-1.519-3.172-.683-.678.612-.901 1.785-.226 3.572 1.092 2.89 2.681 5.75 4.27 7.281.48.462.953.799 1.413.951.296.098.583.112.853.014-1.011-3.146-1.392-5.801-1.363-6.916a.522.522 0 01.015-.113c-.694-.112-1.26-.599-1.602-1.314-.365-.761-.466-1.793-.188-2.792zm41.478 10.58c.153.136.31.224.474.262.254.06.515-.005.78-.145.337-.178.673-.474 1.005-.85 1.712-1.937 3.237-5.914 3.545-8.745.119-1.092.085-2.001-.276-2.491-1.396-1.895-3.918-.996-4.174 4.282.072 1.369-.31 4.298-1.354 7.687zM90.089 37.446c-.816.646-1.279 1.552-1.9 2.402a.517.517 0 01-.833-.61c.799-1.092 1.401-2.235 2.606-2.955a5.01 5.01 0 017.066 2.041.516.516 0 01-.922.461 3.968 3.968 0 00-3.674-2.188 1.892 1.892 0 01-.74 3.651 1.89 1.89 0 01-1.603-2.802zm-16.156-.848c-1.362.078-2.654.826-3.26 2.119a.516.516 0 11-.934-.438c1.249-2.663 4.794-3.535 7.273-1.855.903.612 1.45 1.602 1.867 2.578a.515.515 0 11-.948.406c-.342-.798-.759-1.629-1.498-2.13l-.033-.022a1.891 1.891 0 01-1.514 2.906 1.89 1.89 0 01-.953-3.564zm17.749.904a.86.86 0 10.087-.002l-.087.002zm-16.911-.086a.859.859 0 11.072 1.716.859.859 0 01-.072-1.716zm12.537-3.965c2.868-.899 5.911-1.593 8.919-1.029a.516.516 0 00.19-1.014c-3.175-.595-6.39.109-9.418 1.058a.517.517 0 00.309.985zm-8.893-1.277c-2.683-.684-5.477-1.363-8.263-1.366a.516.516 0 10-.001 1.031c2.701.003 5.408.672 8.009 1.335a.516.516 0 00.255-1z" />
    </g>
</svg>