<svg viewBox="0 0 168 320" width="168" height="320" fill-rule="evenodd" clip-rule="evenodd" stroke-linecap="round" stroke-linejoin="round" stroke-miterlimit="1.5">
    <path data-bodypart="head" d="M53.59 68.444C51.441 57.72 55.904 46.532 65.655 40.09c9.002-5.947 26.212-5.996 36.196 11.204 3.092 5.325 3.209 9.865 2.867 14.311-5.934 1.31-10.357 6.42-10.357 12.503 0 2.615.817 5.049 2.22 7.08-4.337 5.104-8.977 7.338-13.635 7.613-5.849.347-11.693-2.357-16.947-6.233a12.34 12.34 0 001.191-5.298c0-7.072-5.977-12.828-13.358-12.828-.081 0-.162 0-.242.002z" />
    <path data-bodypart="ears" d="M53.911 69.855c6.548.04 11.866 5.131 11.866 11.415a10.93 10.93 0 01-.93 4.422 62.628 62.628 0 01-4.965-4.346.56.56 0 00-.895.647l2.343 4.86-.262.227c-2.836-1.51-6.477-2.426-7.326-3.304-3.799-3.927-2.489-11.698 1.804-9.292a27.814 27.814 0 01-1.635-4.629zm50.679-2.766c-.081.868-.168 1.735-.244 2.607 1.609-.568 4.546-.135 4.604 2.362.06 2.585-2.327 5.891-8.925 10.566l-.405-.388a.562.562 0 00-.849.086 38.434 38.434 0 01-1.258 1.718 10.984 10.984 0 01-1.739-5.932c0-5.272 3.743-9.704 8.816-11.019z" />
    <path data-bodypart="neck" d="M66.539 95.636c-.759-2.131-1.879-5.164-2.412-6.036-.446-.73-1.17-1.364-2.037-1.922l.298-.258a.56.56 0 00.139-.667l-1.244-2.58c6.413 5.686 14.085 10.2 21.729 9.748 5.595-.331 11.203-3.292 16.304-10.424l.058.056c.746 5.349-.119 8.317-.945 10.237-10.729 10.194-20.958 8.823-27.842 5.68-1.521-.695-3.063-1.746-3.554-3.446-.068-.235-.365-.274-.494-.388z" />
    <path data-bodypart="back" d="M81.918 103.056c3.111-1.388 6.742-4.482 16.519-7.234 4.882-1.374 12.974-3.081 19.541 2.042.247 4.122-.145 8.869-.731 15.013-.611 6.392-.702 9.553-.702 9.553-.026.093-1.616 3.026-1.603 3.122l.534 3.859c.066.874.184 2.064.376 3.672 1.909 15.948-.966 29.687-1.142 39.493-23.317-4.932-49.135-4.382-62.48-3.423.979-4.501.974-9.939.007-14.494-1.085-5.118-1.032-10.631-.84-14.039 1.647-5.909 1.638-15.234 1.638-15.234l-.005.001c0-.055-.002-.094-.002-.094a.699.699 0 00-.18-.383c-.189-.639-1.254-2.685-2.124-6.52-.264-1.163-.766-2.815-.16-4.757-.201-4.576.073-10.632 1.052-14.917.112-.489.23-.96.356-1.41.307-.149.618-.291.936-.426 6.376-2.707 10.731-1.184 13.11.149.824.633 1.64 1.704 3.247 2.822 2.941 2.045 7.525 3.49 12.653 3.205" />
    <path data-bodypart="upper_limb" d="M50.276,98.238C50.264,98.293 50.251,98.347 50.239,98.402C48.769,104.831 48.439,113.967 49.994,118.638C51.07,121.869 51.86,125.612 51.873,125.641C51.863,127.134 52.473,132.964 51.404,137.945C49.064,140.094 43.004,144.169 37.911,142.121C31.441,139.521 20.848,129.752 15.646,120.555C14.598,118.7 13.812,117.287 13.175,116.189C15.649,112.87 20.039,109.66 25.88,108.617C28.669,111.523 33.107,112.09 37.404,118.93C37.404,118.93 39.93,104.594 50.276,98.238ZM119.433,98.853C121.952,100.696 124.449,103.221 126.799,106.622C130.185,111.522 132.763,113.321 132.763,113.321C134.643,102.603 140.088,103.948 142.055,96.638C146.295,96.993 151.89,98.375 156.235,103.397C154.401,107.794 153.676,113.961 150.11,120.782C148.651,123.573 144.832,136.321 133.136,133.491C121.506,130.677 116.117,125.241 116.117,125.241C116.376,124.283 118.004,118.898 118.571,112.964C119.115,107.267 119.564,102.789 119.433,98.853Z" />
    <path data-bodypart="hand" d="M12.414,114.887C10.609,111.911 10.118,112.081 6.273,109.82C-0.51,105.83 0.296,98.924 3.023,100.701C2.262,98.924 3.318,95.609 6.807,97.575C5.348,93.389 10.026,93.426 10.724,94.758C10.533,93.806 10.879,92.875 12.538,91.947C14.033,91.111 17.058,94.882 17.058,94.882C17.058,94.882 19.416,94.398 21.936,94.712C27.597,95.418 24.103,103.442 25.173,107.31C19.439,108.459 15.065,111.58 12.414,114.887ZM142.359,95.268C143.512,88.591 139.815,82.671 144.616,80.387C148.095,78.731 148.351,80.254 148.351,80.254C148.351,80.254 151.708,77.266 152.733,77.711C155.244,78.8 153.37,81.027 153.71,81.149C154.876,81.568 155.396,79.15 157.077,79.349C159.287,79.612 158.534,82.083 157.891,83.484C159.002,82.719 161.009,81.457 162.306,82.248C163.607,83.042 162.277,86.006 162.277,86.006C162.277,86.006 165.667,84.668 166.737,86.631C167.808,88.593 167.023,90.635 164.258,92.241C164.258,92.241 162.354,96.335 159.122,99.125C158.2,99.921 157.484,100.889 156.892,102.008C152.36,97.068 146.677,95.655 142.359,95.268Z" />
    <path data-bodypart="buttocks" d="M79.778,200.937C79.917,200.987 78.04,203.948 78.04,203.948C75.427,205.497 73.087,205.765 71.065,205.39C60.237,199.327 51.425,188.15 46.314,178.781C46.929,178.115 47.505,177.586 48.025,177.207C49.776,175.929 51.057,173.531 51.873,170.598C65.045,169.616 91.193,168.991 114.704,174.018C114.719,175.54 114.817,176.957 115.026,178.261C115.109,178.777 115.275,179.366 115.514,180.02C111.675,190.62 103.549,199.291 96.688,203.637C96.156,204.529 93.033,206.385 89.832,206.539C87.56,206.131 82.445,201.316 82.533,201.309C85.682,201.057 88.306,198.528 88.617,195.213C88.965,191.507 86.292,188.227 82.66,187.886C79.029,187.545 75.791,190.269 75.443,193.975C75.149,197.103 77.008,199.926 79.778,200.937Z" />
    <path data-bodypart="anus" d="M82.528,189.293C85.391,189.562 87.485,192.159 87.211,195.08C86.936,198.002 84.395,200.164 81.532,199.895C78.669,199.626 76.575,197.029 76.85,194.107C77.124,191.186 79.665,189.024 82.528,189.293Z" />
    <path data-bodypart="lower_limb" d="M116.295 181.918c4.219 9.291 17.067 27.435 17.067 41.935 0 8.109-6.36 11.21-15.362 17.675-6.729 4.832-14.768 10.272-18.304 15.79-3.643-7.109-8.031-11.172-11.366-12.892 2.242-1.755 4.645-4.731 6.636-10.589 2.457-7.229 6.604-9.497 10.725-9.73 0 0-5.45-4.302-6.877-6.469-1.563-2.373-3.066-6.079-4.387-7.664-.912-1.094-2.184-2.487-3.037-3.116 1.678-.512 4.063-.766 6.054-2.028 6.76-4.282 14.707-12.639 18.851-22.912zm-70.969-2.002c4.249 7.645 10.873 16.374 18.996 22.666 1.708 1.324 3.578 1.571 5.411 2.645-2.924 2.541-12.853 12.482-13.308 14.605l.171.398s6.114-.265 10.137 9.011c4.764 10.99 2.506 8.939 6.129 13.906-.745.19-2.172.264-2.885.578-2.465 1.085-3.751 2.968-5.627 4.981-1.551 1.663-2.755 3.821-3.705 5.56-4.964-6.979-19.844-20.356-22.531-23.043-2.973-2.973-8.796-10.407-7.309-17.716 3.036-14.929 9.711-27.734 14.521-33.591z" />
    <path data-bodypart="foot" d="M73.703,244.396C76.875,245.232 80.254,248.494 81.134,250.903C81.223,247.404 87.013,245.347 87.013,245.347C89.277,246.038 95.136,250.982 98.848,258.799C98.136,260.21 98.481,261.004 98.343,262.529C97.727,269.304 101.234,273.318 97.816,278.382C97.109,279.43 97.414,280.42 95.906,281.548C94.406,282.671 91.415,283.019 90.837,281.082C90.396,279.609 87.844,281.852 86.806,281.036C85.912,280.333 85.418,278.514 86.052,276.93C85.277,275.562 84.83,274.284 84.797,273.184C84.715,270.417 85.706,269.653 84.632,266.411C83.301,262.392 80.42,258.317 80.42,256.417L80.427,256.366C79.523,259.177 78.547,262.274 78.998,265.046C79.821,270.106 84.025,271.879 81.552,274.538L80.237,275.204C80.36,278.426 76.396,281.895 72.679,277.31C65.989,272.23 64.503,262.072 61.529,256.001C61.425,255.788 61.655,255.83 61.515,255.596C62.431,253.778 63.713,251.461 65.384,249.669C67.162,247.762 68.331,245.951 70.672,244.951C71.43,244.628 72.907,244.559 73.703,244.396Z" />
    <g>
        <path d="M116.086 126.689c-.156 1.471-.141 3.36.189 6.12 1.394 11.652.252 22.13-.547 30.769-.523 5.662-.904 10.52-.283 14.381.455 2.83 3.462 7.926 6.874 14.094 5.253 9.493 11.471 21.443 11.471 31.609 0 4.272-1.663 7.229-4.524 9.965-2.734 2.616-6.599 5.028-11.133 8.284-5.361 3.85-11.052 7.656-14.902 11.843-2.471 2.687-4.18 5.523-4.464 8.649-.302 3.321.417 5.964.783 8.399.398 2.655.4 5.077-1.427 7.785-.32.475-.4.941-.582 1.412-.239.619-.593 1.253-1.49 1.924-1.043.781-2.71 1.231-4.02.987-.911-.169-1.659-.647-2.032-1.493-.45.237-1.072.46-1.834.473-.924.017-1.616-.261-2.121-.686-.746-.626-1.094-1.605-1.108-2.582-.011-.793.204-1.571.549-2.14-.942-.886-1.627-1.928-1.673-3.468-.034-1.158.108-1.981.223-2.768.151-1.041.241-2.011-.352-3.803-.789-2.382-2.132-4.781-3.078-6.726-.184-.38-.353-.744-.501-1.09-.629 2.046-1.134 4.159-.697 6.071.389 1.702.77 2.912.984 3.895 2.143 1.569 2.748 3.722 2.132 5.064-.311.678-.923 1.224-1.857 1.441.03 2.234-1.618 4.519-3.85 4.886-1.462.24-3.222-.305-4.911-2.354-3.406-2.616-5.512-6.504-7.129-10.53-1.573-3.916-2.68-7.957-4.16-10.979-2.954-6.029-20.327-21.636-23.28-24.589-1.829-1.829-4.707-5.305-6.39-9.41-1.146-2.798-1.736-5.883-1.113-8.946 2.588-12.723 7.799-23.914 12.277-30.642 1.964-2.95 3.801-5.052 5.22-6.088 1.726-1.259 2.932-3.695 3.695-6.634 1.191-4.585 1.261-10.393.242-15.197-.828-3.906-.629-10.108-.277-15.942a20.54 20.54 0 01-3.799 2.736c-2.81 1.557-6.377 2.563-9.823 1.177-6.567-2.639-17.336-12.538-22.616-21.874-2.111-3.734-2.695-5.508-3.083-6.523-.272-.712-.421-.944-1.201-1.38-.653-.364-1.659-.841-3.299-1.685-1.932-.995-4.155-3.266-5.216-4.59-1.436-1.793-1.989-3.492-1.963-4.69.022-1.038.465-1.763 1.105-2.095.308-.16.685-.239 1.115-.196-.158-1.257.382-2.456 1.379-2.998.633-.343 1.487-.453 2.504-.093-.088-1.191.311-2.015.882-2.519.833-.734 2.159-.832 3.313-.341.017-.945.366-1.923 1.691-2.494 1.138-.491 2.254-.092 3.301.774.719.595 1.408 1.425 2.062 2.177.461-.129 2.119-.523 4.402-.239 3.631.453 4.116 3.462 3.92 6.869-.101 1.769-.367 3.633-.263 5.153.057.845.213 1.575.67 2.057 1.076 1.136 2.416 1.892 3.896 2.825 2.102 1.324 4.479 2.969 6.851 6.287.477-1.751 1.161-3.562 2.003-5.357 3.229-6.881 8.764-13.517 13.524-15.611 6.58-2.896 11.221-1.103 13.766.381-.099-.304-.19-.606-.278-.905-.446-1.516-.789-2.956-1.656-4.205-.857-1.235-1.714-2.43-2.531-3.61-6.739-.635-9.839-4.605-10.612-8.067-.349-1.565-.219-3.041.25-4.115.385-.881.999-1.507 1.76-1.784a2.756 2.756 0 011.417-.119c-1.359-3.264-2.107-6.667-2.134-10.041-.04-4.85 2.582-16.612 12.798-23.477 9.514-6.394 20.463-4.163 25.735-1.023 12.75 7.595 16.307 18.802 14.139 29.958 1.543-.447 3.399.206 4.222 1.774.534 1.016.653 2.44-.147 4.209-1.015 2.244-3.6 5.15-8.891 8.508.064 2.113.464 5.711-.261 8.717-.237.979-.59 1.896-1.098 2.694 5.432-1.206 9.817-1.718 13.942-.618 4.649 1.24 8.994 4.519 14.107 11.259 2.079 2.741 3.893 4.823 5.451 6.466.909-3.332 2.391-5.256 3.995-7.18 1.659-1.991 3.458-3.981 4.805-7.759.797-2.238.86-4.55.766-6.705-.098-2.275-.366-4.386-.222-6.095.11-1.295.456-2.376 1.186-3.183.729-.806 1.853-1.362 3.599-1.521l2.157-.195c.764-1.115 1.587-1.905 2.33-2.368.86-.536 1.655-.65 2.23-.463.611.199 1.015.502 1.287.85.349.449.484.989.492 1.558.663-.526 1.426-.863 2.551-.687.804.126 1.318.452 1.643.86.335.42.481.945.476 1.523a4.284 4.284 0 01-.105.853c.321-.15.651-.277.979-.359.785-.198 1.564-.158 2.248.259.732.447 1.005 1.318.977 2.241a5.893 5.893 0 01-.095.851 5.714 5.714 0 011.205-.195c1.009-.044 2.028.247 2.674 1.223.358.541.591 1.578.482 2.759-.155 1.672-.969 3.626-2.849 4.717a.706.706 0 01-.712-.001c-1.084 2.331-2.853 4.966-5.605 7.564-1.411 1.331-2.158 3.402-2.884 5.965-1.16 4.099-2.202 9.411-5.203 15.153-1.516 2.899-6.64 14.739-19.047 12.113-9.465-2.004-13.997-5.574-15.598-7.134zM96.978 96.804a5.915 5.915 0 01-.832.442c-3.424 1.495-8.097 3.148-11.175 4.494-1.236.542-2.204 1.018-2.681 1.42a.707.707 0 01-.91-1.081c.54-.455 1.624-1.02 3.025-1.633 3.078-1.347 7.752-3 11.176-4.495 1.705-.744 2.544-2.286 2.967-4.038.652-2.7.331-5.9.238-7.955l-.016-.01a55.184 55.184 0 01-7.226 8.938.707.707 0 01-1.002-.997c15.046-15.116 21.165-38.748-.405-51.597-4.962-2.956-15.268-5.037-24.224.982-9.704 6.521-12.212 17.685-12.174 22.292.092 11.079 8.35 22.448 20.454 27.588a.707.707 0 01-.552 1.301 37.282 37.282 0 01-13.568-9.858c1.437 2.636 3.359 5.165 5.265 7.912.953 1.373 1.361 2.945 1.85 4.612.519 1.762 1.146 3.641 2.847 5.458 1.734 1.854 4.563 3.632 9.43 5.204a.707.707 0 01-.434 1.344c-5.186-1.675-8.18-3.607-10.028-5.582a11.922 11.922 0 01-2.024-2.929.71.71 0 01-.236-.105c-1.753-1.202-6.451-4.421-13.829-1.175-4.532 1.994-9.739 8.367-12.814 14.918-1.037 2.21-1.834 4.441-2.27 6.533a.724.724 0 01-.037.184c-.384 1.927-.454 3.733-.115 5.288a.707.707 0 11-1.38.301c-.364-1.666-.306-3.603.085-5.672-2.469-3.843-4.979-5.588-7.169-6.969-1.589-1.001-3.014-1.829-4.169-3.048-.658-.695-.971-1.716-1.054-2.933-.107-1.572.158-3.5.263-5.33.148-2.592.078-5.041-2.685-5.386a11.035 11.035 0 00-3.095.039c.067.06.134.118.2.171 1.829 1.491 3.067 1.908 3.947 4.347a.707.707 0 11-1.328.48c-.769-2.128-1.915-2.431-3.512-3.731-1.028-.838-2.171-2.539-3.402-3.558-.594-.491-1.194-.843-1.84-.565-.699.302-.861.826-.852 1.333.008.46.126.91.195 1.256a.707.707 0 01-1.241.584 2.392 2.392 0 00-1.761-.882c-.364-.009-.713.081-.97.307-.496.437-.585 1.278-.137 2.564a.706.706 0 01-1.077.808c-1.035-.737-1.862-.888-2.433-.578-.793.43-.907 1.631-.265 2.582a.707.707 0 01-.981.981c-.535-.361-.96-.519-1.27-.358-.155.081-.241.25-.293.459-.238.947.243 2.492 1.602 4.19.971 1.212 2.991 3.306 4.76 4.216 1.661.856 2.679 1.34 3.34 1.709 1.192.665 1.417 1.021 1.833 2.109.376.985.944 2.707 2.993 6.331 5.123 9.06 15.541 18.698 21.913 21.26 3.024 1.215 6.145.264 8.611-1.103 2.311-1.281 4.062-2.938 4.621-3.654.054-.82.109-1.626.162-2.409.305-4.462.57-8.175.231-9.581-.886-3.668-2.75-7.091-2.371-11.012a.707.707 0 011.406.136c-.363 3.76 1.489 7.028 2.338 10.545.354 1.468.124 5.347-.194 10.008l-.167 2.459a.719.719 0 01-.017.261c-.411 6.201-.762 13.169.135 17.396 1.062 5.009.984 11.064-.258 15.845-.858 3.306-2.288 6.004-4.229 7.42-1.332.972-3.035 2.962-4.877 5.73-4.404 6.617-9.523 17.627-12.068 30.14-.567 2.785-.006 5.586 1.036 8.129 1.6 3.905 4.341 7.208 6.081 8.947 2.993 2.994 20.556 18.855 23.55 24.967 1.493 3.048 2.615 7.123 4.202 11.073 1.532 3.815 3.497 7.521 6.74 9.984l.122.118c1.269 1.565 2.538 2.096 3.638 1.915 1.552-.256 2.663-1.859 2.667-3.415-.052-.004-.104-.01-.157-.016a.71.71 0 01-.275-.092c-.25.9-.72 1.776-2.303 2.455a.707.707 0 01-.556-1.299c1.238-.531 1.446-1.231 1.594-1.944.144-.699.273-1.398.764-2.045.902-1.192.971-2.018.702-3.284-.21-.989-.598-2.208-.993-3.937-.522-2.284.1-4.832.867-7.262.7-2.221 1.529-4.333 1.47-6.003a2.395 2.395 0 00-.095-.562.698.698 0 01-.124-.361c-.203-.507-.535-1.056-.949-1.611-1.114-1.493-2.845-2.998-4.645-3.845-1.807-.852-3.697-1.062-4.969.379a.707.707 0 01-1.059-.935c.943-1.069 2.134-1.525 3.42-1.525-3.606-4.906-1.568-2.832-6.146-13.968-1.768-4.301-4.051-6.648-6.497-7.767-2.833-1.296-5.852-.939-8.418-.189-2.698.788-4.92 2.017-5.997 2.405a.707.707 0 01-.478-1.329c1.091-.393 3.344-1.633 6.079-2.432 1.563-.457 3.277-.769 5.026-.723.079-.228.214-.501.409-.808.486-.766 1.372-1.822 2.477-3.011 3.298-3.547 8.574-8.33 10.54-10.039-2.734-1.011-4.77-2.968-5.963-3.987a.707.707 0 11.917-1.074c2.046 1.746 6.824 6.745 13.506 2.784 1.256-.745 2.151-1.955 2.791-3.44a.727.727 0 01.034-.081c.667-1.58 1.052-3.463 1.282-5.423.722-6.159-.169-13.113.213-14.96a.707.707 0 011.384.286c-.379 1.832.522 8.73-.194 14.838-.228 1.952-.627 3.82-1.265 5.444 3.355 4.31 6.415 5.837 9.034 5.956 3.989.181 6.847-2.861 7.863-3.758a.706.706 0 11.935 1.059c-.978.863-3.511 3.422-7.036 4.002.735.592 1.445 1.294 2.248 2.258 1.334 1.6 2.858 5.334 4.435 7.728.971 1.475 2.824 3.629 4.376 4.983.604.526 1.148.932 1.568 1.086a.75.75 0 01.179.096c3.615-.23 7.216 1.037 9.726 2.021a.708.708 0 01-.516 1.316c-3.032-1.19-7.78-2.921-12.035-1.319-2.804 1.055-5.351 3.584-7.067 8.632-1.985 5.842-4.374 8.904-6.623 10.737.682.279 1.365.792 2.118 1.544a.706.706 0 11-.999.999c-1.043-1.042-1.846-1.549-2.871-1.313-.876.53-1.706.923-2.45 1.285-1.654.806-2.869 1.387-2.966 3.492.129.384.202.748.214 1.08.047 1.318-.394 2.899-.93 4.592.026.686.465 1.655 1.027 2.809.969 1.994 2.339 4.458 3.148 6.9.695 2.097.586 3.233.409 4.451-.105.717-.24 1.467-.208 2.522.049 1.669 1.171 2.514 2.349 3.399.614.461 1.247.928 1.821 1.469a.565.565 0 01.111.065c1.255.896 1.383.683 3.354.862a.707.707 0 01-.128 1.407c-.775-.07-1.312-.099-1.737-.142a5.8 5.8 0 01.239.658c.15.5.568.741 1.055.831.951.177 2.158-.162 2.915-.729.744-.557.948-1.075 1.121-1.585.159-.47.305-.933.627-1.41 1.59-2.358 1.547-4.474 1.2-6.786-.379-2.531-1.106-5.282-.792-8.736.311-3.416 2.13-6.54 4.831-9.477 3.909-4.25 9.676-8.126 15.118-12.034 4.469-3.21 8.285-5.58 10.981-8.158 2.57-2.458 4.087-5.106 4.087-8.944 0-9.953-6.151-21.631-11.294-30.925-3.517-6.358-6.563-11.636-7.033-14.554-.637-3.956-.265-8.933.272-14.735.791-8.555 1.931-18.932.55-30.471-.999-8.348.768-8.969 1.574-13.667.518-3.015.494-5.357.906-8.16a.707.707 0 011.398.206c-.414 2.814-.391 5.165-.911 8.193-.398 2.319-1.046 3.613-1.46 5.391a.695.695 0 01.126.128s3.785 4.899 15.472 7.373c11.476 2.429 16.099-8.704 17.502-11.386 2.946-5.637 3.957-10.858 5.096-14.883.808-2.852 1.703-5.127 3.273-6.608 4.258-4.018 6.029-8.115 6.519-10.873a.707.707 0 011.391.247 15.325 15.325 0 01-.625 2.348c.932-.859 1.347-2.06 1.444-3.105.073-.786-.015-1.488-.254-1.848-.34-.515-.901-.615-1.434-.592-1.008.044-1.977.541-1.977.541a.708.708 0 01-.981-.883s.347-.898.374-1.769c.013-.391.01-.802-.3-.991-.463-.283-1.009-.176-1.539.022-.685.256-1.347.697-1.861 1.051a.706.706 0 01-1.043-.876c.234-.51.507-1.158.608-1.776.063-.391.083-.772-.144-1.037-.149-.174-.395-.275-.744-.33-.745-.116-1.211.175-1.637.551-.388.343-.749.747-1.172 1.096a.707.707 0 01-1.152-.622c.05-.459.186-1.008.212-1.54.016-.319.003-.636-.19-.883-.127-.162-.327-.283-.611-.376-.275-.09-.632.061-1.044.318-.62.387-1.293 1.053-1.924 1.982-.039.24-.616 1.012-.75 1.274-.712 1.396-1.848 2.6-2.862 3.584a.706.706 0 11-.984-1.014c.899-.872 1.918-1.926 2.56-3.158l-1.148.104c-1.287.117-2.141.468-2.678 1.062-.843.932-.91 2.37-.85 4.077.114 3.278.818 7.461-.598 11.432-1.419 3.983-3.301 6.091-5.049 8.189-1.615 1.937-3.109 3.865-3.922 7.468 1.078 1.081 2.011 1.944 2.804 2.684a.706.706 0 01-.964 1.033c-2.153-2.009-5.315-4.904-9.576-10.521-4.854-6.399-8.932-9.57-13.345-10.748-4.432-1.182-9.174-.363-15.3 1.101a.675.675 0 01-.124.018zM86.583 277.393c-.16.336-.24.773-.234 1.209.008.569.169 1.156.603 1.521.282.236.675.364 1.188.355a2.69 2.69 0 001.314-.372c-.667-1.147-1.746-1.867-2.728-2.605a17.761 17.761 0 01-.143-.108zm-6.025-6.732c-.097.781-.429 1.525-1.111 2.426a2.178 2.178 0 00-.338.667.713.713 0 01.153.002c1.032.121 1.719-.127 1.977-.688.15-.328.144-.732.017-1.158-.123-.412-.357-.838-.698-1.249zm.424-69.414c-.72 1.324-1.657 2.404-2.86 3.118-2.877 1.705-5.444 1.954-7.643 1.503-.042.101-7.502 6.752-11.043 10.56-.891.958-1.633 1.821-2.114 2.501a7.139 7.139 0 00-.321.485c.969.146 1.939.419 2.89.854 2.696 1.233 5.267 3.774 7.216 8.514 4.803 11.684 2.141 8.527 6.841 14.834.403.126.807.285 1.208.474 2.004.944 3.935 2.617 5.175 4.28.076.101.149.203.219.304a3.9 3.9 0 01.357-.647c.654-.959 1.699-1.535 3.005-2.171.67-.326 1.411-.68 2.194-1.149a.696.696 0 01.266-.163c2.486-1.559 5.346-4.356 7.647-11.125 1.9-5.592 4.8-8.33 7.906-9.5a10.77 10.77 0 011.184-.368 12.939 12.939 0 01-.536-.444c-1.642-1.432-3.601-3.711-4.628-5.271-1.549-2.352-3.03-6.029-4.34-7.6-1.244-1.493-2.241-2.299-3.527-3.095-2.667-.284-5.772-1.83-9.096-5.894zm1.504-66.501c0 7.552.63 20.139.316 26.747a.707.707 0 101.411.068c.315-6.625-.314-19.244-.314-26.815a.707.707 0 00-1.413 0zM56.804 78.162a32.167 32.167 0 01-1.532-2.757.69.69 0 01-.201-.075c-.629-.353-1.174-.43-1.617-.235-.722.319-1.106 1.237-1.19 2.349-.235 3.089 2.029 7.619 8.323 8.696-1.664-2.528-3.055-5.045-3.762-7.816a.75.75 0 01-.021-.162zm43.174 3.818c4.578-2.982 6.895-5.524 7.809-7.543.565-1.25.56-2.252.183-2.97-.572-1.09-1.965-1.459-2.951-.921-.062.033-.31.088-.369.085-.937 3.861-2.543 7.694-4.672 11.349z"/>
    </g>
</svg>