<svg viewBox="0 0 168 320" width="168" height="320" fill-rule="evenodd" clip-rule="evenodd" stroke-linecap="round" stroke-linejoin="round" stroke-miterlimit="1.5">
    <g>
        <path data-bodypart="head" d="M105.014 53.26c-9.11 4.464-35.857 5.106-46.738 2.613 1.147-11.58 6.717-15.468 6.717-15.468s6.307-6.39 15.99-6.504c10.18-.12 20.31 2.063 24.03 19.36z" />
        <path data-bodypart="eyes" d="M70.48 66.034c4.64 0 8.389 2.466 8.389 6.418s-3.126 7.037-7.764 7.037c-4.639 0-8.404-3.21-8.404-7.16 0-3.953 3.141-6.295 7.78-6.295zm22.133-.821c-4.638 0-8.388 2.466-8.388 6.418 0 3.951 3.125 7.037 7.765 7.037 4.639 0 8.404-3.21 8.404-7.16 0-3.953-3.142-6.295-7.78-6.295z" />
        <path data-bodypart="ears" d="M57.868 67.819c1.151.049 2.839 1.188 2.856 3.011.029 2.9 1.176 8.824.578 8.493-1.77-.979-3.399-6.06-4.54-7.458-1.522-1.863-.376-4.11 1.106-4.046zm49.138-2.118c-1.067.041-1.958 1.431-2.725 2.789-.45.797-1.167 10.56 1.013 6.493.93-1.734 5.134-9.414 1.712-9.282z" />
        <path data-bodypart="nose" d="M82.423 75.8c3.467-.069 5.896 2.994 5.95 5.664.053 2.67-1.629 4.23-5.087 4.505-2.087.166-6.4-.02-6.342-3.84.041-2.67 2.012-6.26 5.48-6.328z" />
        <path data-bodypart="oral_cavity" d="M63.524 88.466c13.8-1.598 24.58-3.006 39.389-1.182-.209 1.105-3.954 7.987-3.954 7.987s-7.026 6.04-15.503 6.16c-8.477.122-15.145-2.347-19.932-12.965z" />
    </g>
    <path data-bodypart="chest_and_abdomen" d="M102.337 93.107c1.693.046 5.965.319 8.194.725 1.771 3.226 3.1 5.916 4.035 8.409 1.713 2.769 2.108 4.937 1.76 9.173-.28 3.402-.545 7.247-1.599 12.326-.029.14 1.32 16.245.485 33.04-.303 6.107-1.355 12.05-2.216 17.711-12.82-2.467-35.473-4.506-50.414-5.152-4.176-.18-7.758-.245-10.374-.178a115.58 115.58 0 00-.572-3.625c-.623-3.414-.73-6.869-.758-10.331-.09-11.21 3.048-34.072 2.974-34.458-2.604-13.487-1.418-17.577.47-25.132a20.438 20.438 0 013.89-.99 23.734 23.734 0 013.663-.302c.57 0 1.935-.091 2.506-.116.022-.001 1.892 3.119 4.057 4.768 2.844 2.166 6.772 4.324 13.67 4.51 12.045.327 17.528-5.139 20.229-10.378z" />
    <path data-bodypart="upper_limb" d="M23.646 105.944c.059.04.047.132-.088.352.291.116.65.19.887.318.976.521 2.275 1.629 2.932 2.498.623.823 1.171 1.73 1.563 2.683.052.122.193.804.257.841.824.484 2.454-.12 3.4.1 2.196.514 3.945 2.076 5.384 3.767 0 0 2.159-2.3 3.526-4.59 2.5-4.187 3.428-7.824 6.926-11.66 1.254-1.376 2.798-3.169 4.38-3.947-2.07 7.789-2.328 12.093.186 25.157-.071 5.005-.471 9.5-1.038 14.259-.089.745-3.566 2.466-4.254 2.764-2.149.936-6.751 2.928-9.212 2.386-8.648-1.906-20.213-13.524-24.016-21.189l-2.873-7.306c.845-.796 1.858-1.561 2.967-2.28 2.772-1.797 6.14-3.288 9.073-4.153zM143.372 95.75l1.784-1.116.031-.022c.603-.421 3.178-1.104 5.953-1.062 2.716.04 5.664.775 7.08 3.376l.591 1.368-.02.013c.673 6.402-8.547 22.667-9.772 25.106-7.043 14.01-22.822 6.965-32.374 1.653l-1.219-.94c1.067-5.366 2.111-12.898 1.633-16.705-.186-1.476-.072-2.932-.572-4.314-.844-2.332-1.958-4.57-3.087-6.788l-1.37-2.441c.36-.283 3.495.229 6.088 1.41 2.188.997 5.053 2.954 8.323 8.747 1.221.956 5.19 4.406 6.328 7.366.573-1.768 1.091-2.905 2.771-4.516 1.666-1.598 3.952-2.947 5.048-2.911.584.019-.364-1.645 1.76-6.438.171-.389.548-1.08 1.024-1.786z" />
    <path data-bodypart="hand" d="M11.053 110.954l-.108-.273C8.593 110.33-2.542 103.644.93 97.786c.446-.752 2.968 1.134 3.047-.005.167-2.428 1.668-3.218 3.127-3.24.255-2.453 2.456-2.233 3.909-2.906 1.301-.603 1.72-2.136 2.728-2.252 2.52-.291 2.11 2.8 4.183 2.998 4.13.392 6.201-.102 6.016 4.462-.046 1.101-.705 5.27-.821 7.738-3.03.911-6.487 2.446-9.339 4.296-1.003.651-1.931 1.342-2.727 2.077zm133.89-17.804c-.861-2.627-5.48-11.576 5.827-15.419.343-.117 1.177-1.295 2.82-1.445 1.014-.092 1.737 1.168 2.965 1.38 1.42.243 3.342-.538 4.35-.344 1.565.3.294 1.834 1.666 2.182 1.251.318.705 3.095 1.803 2.772 2.622-.771 3.284 1.786 2.691 3.436-2.913 8.097-5.553 10.692-7.068 11.625l-.436-1.01-.034-.07c-1.678-3.108-5.126-4.115-8.36-4.163-2.611-.039-5.055.551-6.224 1.056z" />
    <path data-bodypart="diaper_area" d="M52.403 170.557c2.535-.053 6.032.027 10.118.204 14.907.644 37.537 2.674 50.26 5.135l-.234 1.504c-.442-.062-.9-.646-1.344-.684-12.784-1.098-25.755 8.088-25.564 22.607.011.89.289 1.804.403 2.733-2.784 1.242-11.696.766-15.827-.892 1.834-5.854 1.79-10.792.388-14.896-2.222-6.5-7.463-10.979-12.702-13.165a24.46 24.46 0 00-3.765-1.231c-.556-.13-1.605.195-1.61.184l-.123-1.499z" />
    <path data-bodypart="lower_limb" d="M92.61 209.81c-2.703-1.879-5.043-5.363-5.089-5.574-.222-1.03-.26-2.056-.35-3.038-1.432-15.496 12.848-25.142 25.991-22.79.166.029.366.291.502.215.44.171.874.434 1.3.823 2.908 2.662 6.11 7.006 7.832 10.409 4.082 8.064 12.324 23.647 11.204 32.535-.633 5.02-8.471 11.176-8.471 11.176-2.757 3.328-5.988 6.226-9.076 9.05-4.052 3.704-8.495 6.978-12.959 10.125-1.26.889-1.957 2.127-2.702 3.351-3.762-1.472-6.536-4.38-8.476-7.318a27.542 27.542 0 01-2.833-5.596c3.259-2.772 5.07-7.233 7.427-10.706 1.481-2.183 2.885-4.432 4.468-6.544.44-.586 2.771-2.596 2.769-2.595 0 0-1.25-5.488-3.61-7.97-2.229-2.348-5.307-3.73-7.927-5.552zm-41.561-37.024c1.889.126 4.136.727 6.298 1.63 4.902 2.046 9.821 6.228 11.9 12.31 1.392 4.07 1.34 9.01-.688 14.908-.127.371-1.81 4.307-3.42 5.81-1.496 1.397-3.116 2.845-4.91 3.856-1.41.793-3.23 1.365-4.4 2.513-.689.673-.842 2.243-1.193 3.108-.936 2.311-.75 1.881-.75 1.881 7.705 0 11.316 10.08 13.938 15.432.978 1.996 2.385 4.141 3.82 5.889-1.743 7.1-6.532 10.763-11.583 12.956-.94-2.02-3.266-3.81-4.613-5.059-4.648-4.308-9.616-8.242-14.086-12.718-.776-.778-2.699-2.925-3.839-4.38-.812-1.42-2.476-2.324-3.695-3.337-2.2-1.827-4.37-4.301-5.536-6.928-2.734-6.158.002-9.939 2.09-15.606 2.05-5.571 3.485-10.948 6.415-16.281.88-1.6 1.995-2.873 3.077-4.331 2.19-2.951 6.564-10.125 11.175-11.653z" />
    <path data-bodypart="foot" d="M88.285 244.04a28.892 28.892 0 002.835 5.517c2.044 3.095 4.963 6.135 8.883 7.748a8.27 8.27 0 01-.81.976c-.028.029-.111.13-.16.13 0 0-.384 1.231-.21 2.186.497 2.751 2.79 8.655 3.893 12.876.462 1.765.154 3.258.319 4.068.266 1.307-3.253 5.89-4.75 5.803-3.401 6.9-6.326 1.396-6.631-.917-.17-1.282-.35-2.376-.35-2.376-3.222-1.42-3.311-7.906-3.8-10.658-.973-5.492-5.406-10.961-7.884-15.875l.496-5.522c2.32-2.727 5.482-2.391 8.17-3.956zm-15.488-2.696c2.58 2.335 6.726 4.296 6.972 7.907.455 6.674-8.722 13.836-8.722 13.836-2.456 2.59-4.298 7.507-6.91 9.891-.837.765-3.012 2.256-3.85 2.212-.26 3.18-.947 4.529-1.508 5.26-.699.91-3.497 1.147-4.098-.384-.332-.844.162-2.878.099-3.884-.356-5.644-.566-8.684 2.304-13.8.435-.777 3.22-6.434 3.384-7.807l-.011-.117c5.269-2.25 10.283-5.988 12.34-13.114z" />
    <g>
        <path d="M29.66 111.335c.31.102.69.143 1.072.181.66.066 1.335.101 1.838.219 2.172.507 3.969 1.515 5.45 3.084.177-.331.373-.65.584-.965.684-1.021 1.52-1.977 2.201-3.12 2.549-4.268 3.507-7.967 7.072-11.879 2.75-3.015 6.367-4.54 10.326-5.163a24.662 24.662 0 013.807-.314c.446 0 2.328-.117 3.208-.187-1.921-3.075-3.345-6.992-4.239-11.825a.705.705 0 01-.106-.335c-.032-.554-.373-1.484-.828-2.555-1.143-2.69-3.055-6.16-3.552-6.983-.787-1.306-.695-2.264-.344-2.89.298-.53.816-.867 1.368-1.01.552-.14 1.131-.076 1.536.132.113.059.227.137.338.23-.57-3.053-1.328-5.967-1.561-9.394-.452-6.607 2.822-16.92 8.892-20.913 2.017-1.329 6.215-4.33 14.52-4.624 13.368-.471 19.418 6.078 21.952 11.462a25.18 25.18 0 012.152 7.31c.464 3.42.872 7.739.77 10.561-.042 1.108-.278 2.248-.522 3.364.488-.381.973-.51 1.389-.477.535.042 1.007.337 1.316.886.33.584.473 1.53.173 2.714-.25.994-.832 2.046-1.45 3.24-.84 1.624-1.75 3.542-1.755 6.053 0 .1-.02.196-.059.283-.02.262-.044.523-.071.783-.588 5.585-1.847 9.82-3.554 13.031 4.166-.07 12.766.286 16.604 1.906 4.833 2.04 8.19 7.366 9.454 9.704.455.842 1.417 1.667 2.351 2.439 1.07.881 2.112 1.698 2.568 2.349.226.321.432.653.615.972.111-.396.237-.758.377-1.071.857-1.912 2.434-3.558 4.24-4.512a6.782 6.782 0 011.701-.632c.098-.022.713-.1 1.076-.11-.087-2.14.612-4.515 1.276-5.909.423-.888 1.111-2.33 2.087-3.352.054-.056.109-.112.165-.166-1.243-2.37-1.565-5.605-1.308-8.322.176-1.852.626-3.463 1.2-4.423.85-1.419 2.621-2.717 4.138-3.191.566-.177 1.113-.325 1.702-.382.188-.018.585-.1.79-.108.112-.004.208.01.287.028.163-.228.357-.442.577-.64 1.395-1.25 3.713-1.702 5.12.16a.742.742 0 01.078.129c.713-.374 1.452-.635 2.14-.726 1.248-.163 2.337.197 2.98 1.24.156.253.222.636.082 1.115.515-.01 1.02.13 1.45.428.715.495 1.111 1.36 1.12 2.298 1.208-.29 2.042-.114 2.589.285.602.44.925 1.189.952 2.164.061 2.246-1.508 5.898-2.826 8.187-1.114 1.933-2.012 3.647-3.605 5.301l-1.55 1.61-.03-.029c-.085 1.807-.685 4.293-1.623 7.065-2.714 8.021-8.172 18.523-10.906 21.552-4.33 4.797-10.097 5.426-15.943 4.133-5.551-1.229-11.17-4.2-15.595-6.81-.106 6.986 2.266 28.3-2.138 52.56.146.075.29.155.433.238 1.546.898 2.83 2.196 3.6 2.923 2.756 2.603 5.093 6.54 7.026 10.594 2.836 5.95 4.803 12.15 6.013 14.546 2.98 5.9 4.622 11.833 4.036 16.486-.27 2.142-1.353 4.197-2.735 6.077-1.974 2.683-4.557 5.004-6.015 6.706a.723.723 0 01-.237.18c-2.61 2.984-5.563 5.641-8.4 8.234-4.108 3.756-8.614 7.078-13.14 10.27-.948.668-1.542 1.558-2.105 2.473-.64 1.04-1.24 2.115-2.133 3.028-.017.018-.229.18-.445.34.123.464.19.955.263 1.368.497 2.747 2.721 8.658 3.768 12.893.488 1.972.7 3.614.47 4.503-.25.974-.725 2.424-2.616 2.78a9.259 9.259 0 01-.387 1.286c-.377.994-1.148 1.463-1.932 1.67-.425.112-.85.14-1.185.146-.118.705-.31 1.296-.63 1.703-.931 1.184-2.25 1.31-3.474.787-1.657-.707-3.07-2.694-2.82-4.472a4.2 4.2 0 01.25-.877l-.029-.012c-1.472-.649-2.422-2.188-3.007-4.046-.784-2.49-.943-5.55-1.242-7.236-.9-5.072-4.955-10.383-7.512-15.033-.528.97-1.203 1.846-1.962 2.686-1.776 1.967-4.031 3.717-5.748 6.13a.704.704 0 01-.144.224c-1.206 1.273-2.254 3.12-3.328 4.938-1.142 1.932-2.315 3.83-3.677 5.075-.572.522-1.156 1.083-1.781 1.498-.77.512-1.597.822-2.527.692.008.433-.038.868-.08 1.297-.098 1.01-.407 2.333-.973 3.2-1.474 2.255-4.124 1.95-5.256.345-.626-.888-.606-1.808-.407-2.673.138-.603.406-1.16.377-1.611-.37-5.856-.563-9.006 2.415-14.315.318-.568 1.9-3.765 2.78-5.959a13.3 13.3 0 00.486-1.371c.021-.076.04-.17.05-.234-.078-.849-.534-1.66-1.124-2.425-1.103-1.43-2.688-2.679-3.705-3.62-4.695-4.352-9.713-8.327-14.228-12.848-.79-.791-2.735-2.965-3.912-4.459l-.012-.015c-.248-.314-.46-.598-.621-.832a.563.563 0 01-.042-.07c-.848-.918-2.044-1.599-2.962-2.362-2.3-1.91-4.562-4.502-5.78-7.248-1.745-3.93-1.402-6.95-.364-10.038.66-1.96 1.608-3.947 2.452-6.242 2.087-5.667 5.911-15.805 9.668-20.963 1.574-2.162 4.343-6.372 7.505-9.182 1.64-1.459 3.396-2.53 5.15-2.848-.159-1.28-.6-4.75-.917-6.487-.636-3.484-.747-7.009-.776-10.543-.046-5.789.674-12.338 1.37-18.465-1.169.8-3.018 2.022-3.552 2.255-1.324.576-3.557 1.541-5.677 2.102-1.514.4-2.976.585-4.06.346-3.578-.788-7.649-3.17-11.488-6.27-5.697-4.601-10.889-10.775-13.226-15.484-.568-1.146-1.983-4.143-2.782-6.37a14.773 14.773 0 01-.473-1.55c-1.012-.085-2.061-.65-2.904-1.156-1.695-1.017-2.413-2.438-3.73-3.744-.774-.768-1.714-1.261-2.324-2.222-.692-1.093-1.434-4.036-1.29-5.359 0-.589.208-1.017.514-1.32.502-.494 1.385-.67 2.39-.45a5.5 5.5 0 01.899.284 12.703 12.703 0 01-.016-.119c-.173-1.402.22-2.61 1.73-2.976.425-.103.93-.083 1.477.049-.05-.4-.063-.831.024-1.184.198-.818.962-1.502 1.886-1.83.65-.23 1.357-.277 1.949-.128.056-.255.13-.505.217-.754.291-.842.845-1.413 1.782-1.634.996-.234 1.892.05 2.64.654.519.42.962 1.004 1.308 1.657.073-.002.15-.002.227.002.61.027 1.456.192 1.765.248 1.38.257 3.065.722 4.318 1.597.928.649 1.628 1.516 1.88 2.657.49 2.223-.376 5.245-.827 7.451-.03.15-.235.784-.387 1.365a7.216 7.216 0 00-.087.39l.082.024c.278.088.563.173.773.285 1.062.568 2.476 1.775 3.192 2.72.665.88 1.248 1.848 1.668 2.866.02.05.075.24.124.423.05.06.09.13.119.204zM15.916 96.672c-.27.04-.538.03-.803-.017.093.27.17.528.23.773.346 1.424-.08 2.623-.887 3.074-.38.213-.88.301-1.482.146a2.196 2.196 0 01-.194.752c-.34.739-.806 1.144-1.312 1.344-.504.199-1.07.192-1.659.02-.892-.263-1.853-.947-2.628-1.58.03.316.011.64-.062.97-.157.707-.51 1.13-.94 1.367-.576.32-1.377.29-2.23-.07-.658-.278-1.36-.75-1.98-1.3.172.53.367.996.557 1.295.548.866 1.423 1.28 2.12 1.972 1.233 1.221 1.872 2.58 3.457 3.531.664.399 1.472.902 2.263.958a.72.72 0 011.207.53c0 .411.22 1.123.522 1.965.778 2.174 2.161 5.1 2.716 6.217 2.268 4.567 7.317 10.542 12.842 15.005 3.644 2.943 7.493 5.234 10.892 5.984.902.198 2.116.002 3.377-.332 2.043-.541 4.193-1.475 5.47-2.03.672-.293 3.557-2.274 4.15-2.71a.705.705 0 01.19-.1c.585-5.163 1.092-9.927 1.026-13.553-1.991-8.503-2.14-14.502-1.504-17.906a.722.722 0 011.418.263c-.618 3.302-.434 9.127 1.507 17.39l.02.15c.17 8.287-2.697 22.603-2.605 33.98.027 3.451.131 6.895.753 10.297.343 1.883.803 5.31.95 6.661.182.013.364.035.544.068a.718.718 0 11-.254 1.413c-2.007-.357-4.036.834-5.933 2.52-3.08 2.739-5.764 6.849-7.297 8.955-3.693 5.07-7.43 15.044-9.481 20.615-.84 2.279-1.784 4.256-2.438 6.202-.931 2.77-1.251 5.478.314 9.002 1.133 2.552 3.247 4.95 5.385 6.726 1.285 1.068 3.014 2.048 3.88 3.54 1.134 1.437 3.008 3.527 3.769 4.29 4.502 4.508 9.506 8.469 14.187 12.808 1.063.985 2.713 2.302 3.865 3.797.703.91 1.22 1.888 1.382 2.897a.672.672 0 01.045.173c.01.073.012.165.003.273.004.071.006.143.006.215a.705.705 0 01-.13.41c-.11.39-.292.898-.521 1.469-.904 2.255-2.533 5.541-2.86 6.125-2.812 5.014-2.583 7.996-2.235 13.526.03.472-.144 1.043-.316 1.654-.168.596-.358 1.264.087 1.895.62.879 2.06.93 2.866-.304.45-.689.668-1.75.746-2.555.046-.465.109-.938.057-1.405a9.354 9.354 0 00-.045-.313.715.715 0 01-.098-.823.72.72 0 01.656-.418.714.714 0 01.495.166c.837.4 1.538.173 2.177-.251.566-.376 1.09-.89 1.607-1.361 1.27-1.161 2.344-2.945 3.41-4.746 1.1-1.864 2.188-3.747 3.416-5.083a.74.74 0 01.044-.07c1.76-2.517 4.091-4.335 5.93-6.371 1.694-1.877 2.948-3.95 2.734-7.085-.128-1.865-1.44-3.217-2.943-4.45-1.697-1.394-3.652-2.63-4.861-4.068-1.559-1.855-3.112-4.194-4.173-6.362-1.566-3.195-3.473-8.088-6.413-11.487-1.811-2.093-4.019-3.614-6.826-3.672-.94 1.392-2.128 2.597-3.475 3.68-.629.505-1.681 1.143-2.526 1.43a.718.718 0 11-.467-1.358c.7-.239 1.567-.772 2.087-1.19 1.859-1.493 3.4-3.234 4.297-5.449.207-.512.342-1.275.566-1.947.191-.575.45-1.09.8-1.43 1.224-1.201 3.115-1.82 4.589-2.649 1.76-.992 3.346-2.417 4.813-3.787 2.55-2.381 4.069-5.195 4.707-8.617.012-.063.155-1.019.165-1.082a.722.722 0 011.425.222c-.01.066-.16 1.057-.171 1.122a19.112 19.112 0 01-.418 1.772c3.024 1.14 8.347 1.76 12.079 1.568 1.388-.071 2.546-.236 3.23-.567-.17-.9-.22-1.827-.142-2.781a.72.72 0 011.438.116c-.333 4.103 2.06 7.619 6.302 10.568 2.682 1.865 5.826 3.293 8.107 5.695 1.247 1.312 2.08 3.002 2.837 4.747.706 1.63 1.346 3.31 2.258 4.72 1.454 2.248 3.629 4.577 5.53 5.314a.717.717 0 11-.523 1.339c-2.12-.822-4.598-3.368-6.22-5.875-.202-.314-.393-.64-.573-.974a2.045 2.045 0 01-.097.061c-.283.167-.538.385-.827.551-.595.342-1.09 1.173-1.483 1.697-1.59 2.12-3 4.38-4.487 6.572-2.492 3.674-4.412 8.408-7.953 11.227-1.512 1.204-3.293 1.675-5.046 2.23-1.531.483-3.043 1.033-4.24 2.42.035.194.059.393.073.597.096 1.418-.063 2.65-.41 3.752 2.53 5.003 7.213 10.9 8.203 16.487.292 1.644.433 4.629 1.199 7.057.436 1.385 1.052 2.599 2.125 3.12.036-.18.058-.368.058-.57a.72.72 0 011.442 0c0 .714-.185 1.327-.395 1.876-.16.418-.343.785-.393 1.137-.139.991.556 2.045 1.42 2.65.754.528 1.696.731 2.311-.05.257-.326.327-.848.4-1.45.142-1.179.195-2.622.649-3.917.224-.643.094-1.319-.139-2.004-.28-.826-.72-1.66-1.075-2.47a.717.717 0 01.372-.945.723.723 0 01.95.37c.452 1.03 1.022 2.101 1.287 3.144.206.813.235 1.612-.033 2.377-.3.856-.4 1.783-.48 2.64.201-.011.425-.037.649-.096.38-.1.77-.308.953-.79.84-2.213.44-3.96-.394-6.002a.718.718 0 01.396-.936c.37-.149.79.028.94.396.597 1.463.984 2.798.971 4.208.735-.349.915-1.087 1.042-1.58.195-.753-.061-2.135-.474-3.804-1.053-4.264-3.286-10.217-3.786-12.981-.09-.504-.142-1.15-.376-1.657a.717.717 0 01.508-1.002l.466-.337c.798-.828 1.328-1.806 1.906-2.745.663-1.078 1.384-2.108 2.5-2.895 4.478-3.157 8.936-6.44 13-10.156 3.091-2.825 6.326-5.725 9.086-9.056a.72.72 0 01.33-.224c1.169-1.238 2.677-2.714 4.05-4.362 1.674-2.009 3.161-4.272 3.464-6.675.558-4.425-1.059-10.053-3.892-15.663-1.213-2.402-3.187-8.613-6.028-14.575-1.854-3.887-4.074-7.673-6.716-10.168-.715-.676-1.9-1.892-3.334-2.726-.873-.508-1.842-.878-2.855-.834a.72.72 0 01-.751-.686.72.72 0 01.69-.748 5.682 5.682 0 011.843.238c4.765-26.552 1.438-49.51 2.2-53.904.6-3.47 1.549-8.408 1.532-12.999-.012-2.956-.417-5.768-1.629-7.903a.716.716 0 01.274-.978.723.723 0 01.983.272c1.32 2.327 1.802 5.382 1.814 8.604.018 4.677-.94 9.712-1.554 13.248l-.024.159a.719.719 0 01.378.1c4.347 2.579 9.924 5.582 15.439 6.802 5.33 1.18 10.608.683 14.557-3.69 2.669-2.957 7.963-13.222 10.612-21.052 1.102-3.257 1.763-6.074 1.511-7.722-.236-1.55-1.355-2.572-2.662-3.232a.718.718 0 11.653-1.28c1.567.791 2.876 2.022 3.33 3.779l.696-.725c1.506-1.565 2.342-3.195 3.396-5.023 1.2-2.083 2.69-5.388 2.635-7.433-.013-.456-.08-.839-.363-1.044-.313-.23-.805-.207-1.517-.017-.28.074-.51.344-.682.658-.27.493-.387 1.14-.098 1.643.19.328.558.565 1.126.678a.717.717 0 11-.282 1.408c-.682-.135-1.193-.397-1.568-.728-.37.858-.858 1.467-1.234 1.95a.723.723 0 01-1.012.128.716.716 0 01-.128-1.008c.455-.583 1.123-1.385 1.375-2.743-.825.31-1.716.244-2.414-.24-.618-.427-.997-1.128-1.096-1.915-.582.45-1.19.827-1.776 1.068-.982.402-1.917.426-2.656-.018a3.02 3.02 0 01-.663-.528l-1.669.208c-.22.456-.643 1.203-1.288 1.816-.728.69-1.719 1.21-2.986 1.068a.718.718 0 11.158-1.427c.997.111 1.701-.47 2.17-1.048a5.19 5.19 0 00.773-1.316.72.72 0 01.588-.467l1.657-.206a2.413 2.413 0 01-.001-.256 5.409 5.409 0 01-.95-.288c-.995-.422-1.473-1.052-1.636-1.7a2.1 2.1 0 01-.052-.709 7.69 7.69 0 01-.358.05c-.489.047-.942.175-1.41.322-1.22.381-2.649 1.417-3.331 2.557-.496.827-.851 2.226-1.004 3.823-.225 2.387.013 5.221 1.06 7.344a3.31 3.31 0 011.39-.325.719.719 0 11.012 1.436c-.678.006-1.235.392-1.71.888-.864.904-1.455 2.191-1.828 2.977-.597 1.253-1.235 3.402-1.135 5.32.06 1.142.375 2.207 1.223 2.866.314.243.37.695.125 1.007a.724.724 0 01-1.012.125c-.82-.637-1.321-1.53-1.577-2.552a.722.722 0 01-.177-.032 18.7 18.7 0 00-.788.071c-.472.105-.91.273-1.34.5-1.533.809-2.872 2.206-3.598 3.828-.92 2.05-1.072 6.265-.936 8.458.062 1.008.366 1.957.579 2.933.009.042.073.359.07.44a.725.725 0 01-1.253.47.713.713 0 01-.191-.452l-.036-.154c-.229-1.048-.543-2.068-.61-3.15-.088-1.455-.043-3.734.235-5.788l-.012-.025c-.215-.438-.684-1.464-1.338-2.395-.406-.58-1.354-1.282-2.306-2.067-1.085-.896-2.173-1.886-2.7-2.863-1.176-2.174-4.255-7.166-8.75-9.063-3.89-1.643-12.862-1.892-16.601-1.78a.726.726 0 01-.256-.037c-1.048 1.654-2.23 2.992-3.506 4.075-3.886 3.299-8.666 4.245-13.292 4.432-5.802.237-10.606-1.038-14.367-3.998a18.555 18.555 0 01-3.506-3.665.946.946 0 01-.338.097c-.504.054-3.191.227-3.746.227-1.188 0-2.41.111-3.581.297-3.632.572-6.962 1.945-9.483 4.71-3.492 3.83-4.405 7.468-6.9 11.647-.697 1.166-1.545 2.143-2.242 3.184-.623.93-1.122 1.914-1.202 3.19-.225 3.565.72 7.222 2.217 10.435.353.756.997 1.39 1.288 2.16a.717.717 0 01-.42.925.722.722 0 01-.93-.419c-.279-.737-.909-1.337-1.246-2.062-1.596-3.425-2.588-7.328-2.348-11.13.032-.523.12-1.007.252-1.462a.774.774 0 01-.096-.094c-1.349-1.586-3.02-2.58-5.08-3.062-.552-.129-1.334-.139-2.044-.231a7.37 7.37 0 01-.346-.054 6.736 6.736 0 01-.436 2.964.722.722 0 01-1.352-.501c.521-1.39.37-2.392.254-3.257-.077-.214-.188-.696-.231-.8-.374-.904-.895-1.765-1.486-2.546-.61-.807-1.818-1.836-2.723-2.32-.181-.097-.446-.15-.679-.23a3.894 3.894 0 01-.208-.08 1.005 1.005 0 01-.077-.005c-.282.1-2.144.767-2.413.965a.724.724 0 01-1.008-.152.715.715 0 01.152-1.004c.296-.218 1.744-.859 2.6-1.123.103-.636.48-1.778.522-1.985.415-2.034 1.283-4.81.831-6.858-.217-.988-.96-1.647-1.844-2.122-1.005-.54-2.202-.841-3.21-1.028a26.348 26.348 0 00-1.132-.144c.026.1.05.2.073.299.2.912.195 1.79-.018 2.426-.043.13-.094.25-.154.362a.746.746 0 01-.013.142l.04.544c.023.309.093.658.217.941.348.79 1.498 1.632 2.589 2.027a.717.717 0 01.431.919.723.723 0 01-.924.43c-1.466-.53-2.95-1.737-3.417-2.8a4.387 4.387 0 01-.318-1.239zm72.199 156.172a.569.569 0 01.186.808c-.075.11-.488.457-.923.07-.183-.162-.595-.68-.714-1.012-.216-.602-.316-1.972-.077-2.605a.573.573 0 011.072.402c-.169.443-.067 1.399.083 1.82.053.151.293.427.373.517zm-.395-.07a.502.502 0 00-.216.084.578.578 0 00-.155.16.57.57 0 01.371-.243zm-15.805-6.119c-.286 1.035-.889 2.502-1.784 3.185a.569.569 0 00-.106.8c.192.25.552.296.802.105 1.074-.82 1.85-2.548 2.192-3.788a.57.57 0 00-.4-.7.574.574 0 00-.704.398zm-1.9-44.942c-.9 2.368-2.304 4.435-4.266 6.268-1.549 1.446-3.232 2.942-5.09 3.989-1.37.77-3.15 1.306-4.288 2.42-.271.267-.409.722-.541 1.182-.178.616-.314 1.256-.499 1.711-.133.331-.28.652-.437.963 2.867.302 5.19 1.91 7.103 4.122 3.022 3.494 5.006 8.511 6.616 11.795 1.013 2.068 2.495 4.3 3.982 6.069 1.16 1.378 3.049 2.546 4.674 3.882 1.2.985 2.254 2.06 2.879 3.324 1.277-1.188 2.778-1.764 4.315-2.25 1.587-.5 3.214-.892 4.582-1.982 3.43-2.73 5.244-7.349 7.66-10.909 1.5-2.21 2.921-4.488 4.525-6.627.493-.658 1.17-1.652 1.917-2.081.286-.164.537-.38.817-.545.037-.021.135-.088.185-.123-.4-.867-.767-1.768-1.152-2.655-.689-1.588-1.427-3.137-2.561-4.33-2.214-2.332-5.28-3.695-7.885-5.504-3.23-2.247-5.445-4.82-6.407-7.683-.84.32-2.071.528-3.52.603-3.888.2-9.418-.46-12.608-1.639zm-17.003-30.009a.725.725 0 00-.06-.032l.053.032h.007zm31.763-7.604c-.099-.465-.43-.875-.929-1.17-.603-.356-1.469-.549-2.307-.508-1.53.076-2.903.906-2.754 2.613.065.747.487 1.185 1.077 1.428.665.275 1.6.253 2.284.216 1.964-.109 2.881-1.404 2.63-2.579zm-1.12.239c.136.63-.517 1.144-1.572 1.201-.458.026-1.057.062-1.554-.056-.302-.073-.573-.203-.603-.547-.085-.974.798-1.333 1.67-1.376.604-.03 1.232.093 1.666.35.195.114.355.246.394.428zm-15.017-41.29a.576.576 0 01.416-.11.558.558 0 01.438.264c.083.128.11.263.086.404a.563.563 0 01-.174.33.743.743 0 01-.245.145c-.108.04-.333.096-.434.127-.51.158-1.045.237-1.576.289-.667.066-1.817.049-2.838-.11-.736-.115-1.406-.312-1.82-.58a.568.568 0 01-.17-.788.574.574 0 01.791-.168c.312.201.823.323 1.377.41.915.142 1.949.161 2.548.102.453-.045.91-.108 1.347-.243.05-.016.165-.048.254-.073zm38.233.86c-.175.056-.498.16-.624.19-.527.127-1.06.237-1.6.28-1.514.125-2.977.052-4.484-.388a.57.57 0 11.322-1.093c1.368.4 2.695.458 4.068.346.48-.039.954-.139 1.422-.253.212-.051.747-.234.827-.244a.547.547 0 01.611.338.577.577 0 01-.31.762.556.556 0 01-.232.061zm33.288-20.182a.664.664 0 00-.067.366.71.71 0 01.067-.366zM1.472 99.063c-.033-.23-.035-.403.072-.51.077-.075.19-.102.317-.12.222-.029.477-.006.748.054.934.205 2.022.836 2.657 1.69.365.49.579 1.06.443 1.667-.045.205-.105.352-.23.421-.251.14-.593.022-.966-.135-.822-.348-1.72-1.078-2.344-1.827-.364-.439-.644-.872-.697-1.24zM5.4 97.518c.136.14.268.282.405.42.424.432.85.887 1.304 1.288.57.501 1.575 1.448 2.587 1.95.44.218.87.38 1.24.232.218-.085.386-.29.533-.606.132-.29.07-.634-.07-1-.19-.498-.538-1.02-.972-1.52-.822-.95-1.95-1.82-2.998-2.296-.583-.265-1.129-.422-1.555-.319-.678.165-.719.777-.641 1.408l.029.185c.028.05.05.101.065.156l.073.102zm98.202-28.68a.679.679 0 01-.001-.128c.166-1.991.993-4.256 1.072-6.405.102-2.757-.303-6.975-.756-10.316a23.707 23.707 0 00-2.03-6.894c-2.371-5.038-8.081-11.077-20.593-10.636-7.88.277-11.862 3.127-13.777 4.386-5.684 3.74-8.67 13.431-8.249 19.618.36 5.268 1.952 9.329 2.21 14.53a.694.694 0 01-.01.16c.71 11.959 3.737 19.713 9.026 23.875 3.509 2.76 8.002 3.91 13.413 3.69 4.317-.176 8.79-1.013 12.416-4.09 3.654-3.102 6.419-8.458 7.379-17.575.367-3.487.057-7.137-.101-10.129a.628.628 0 010-.087zM12.596 98.941a.706.706 0 01.195.08c.418.244.729.357.956.229.134-.075.196-.23.238-.41.071-.304.052-.677-.045-1.075-.403-1.66-1.732-4.155-3.217-5.112-.337-.217-.859-.157-1.32.007-.446.158-.874.421-.97.815-.115.472.12 1.294.185 1.502 1.04.58 2.098 1.438 2.902 2.365a7.338 7.338 0 011.076 1.6zm-7.214-1.137a.757.757 0 010 0zm8.9-3.015c.022.01.043.021.063.033.468.269.997.603 1.538.379.17-.07.218-.275.262-.503.082-.417.046-.935-.072-1.47-.186-.845-.583-1.733-1.148-2.356-.462-.51-1.043-.845-1.727-.684-.399.095-.627.346-.751.705-.124.36-.224.72-.243 1.1.784.72 1.51 1.743 2.078 2.796zm50.767-.799a.7.7 0 00.244.417.719.719 0 01-.244-.417zm-.001-.008v.006l-.002-.02.002.014zm.124-.543a.68.68 0 00-.132.481.711.711 0 01.132-.481zm13.334-3.177c-.67.022-1.34-.015-1.983-.161a.57.57 0 11.254-1.112c1.035.236 2.14.151 3.198.01 1.145-.153 2.239-.374 3.149-.401 1.746-.053 4.301.367 6.021-.3a.569.569 0 11.416 1.06c-.643.25-1.395.364-2.18.41a.648.648 0 01-.07.106c-.367.452-.664.72-1.073 1.015-2.397 1.738-5.718 1.043-7.732-.627zm7.296-.476c-.946-.019-1.87-.073-2.643-.05-.833.025-1.816.21-2.854.354 1.607.834 3.678 1.026 5.259-.122.084-.06.162-.12.238-.182zm-2.81-5.694c.067-.272.185-.47.328-.62.273-.284.666-.402 1.107-.432.249-.016.515-.006.764-.027.143-.01.282-.022.383-.101.222-.172.338-.345.373-.515.08-.378-.197-.692-.197-.692a.518.518 0 01.059-.733c.22-.187.55-.16.736.059 0 0 .606.721.426 1.58-.077.36-.282.754-.753 1.12-.367.286-.904.328-1.439.338-.151.003-.302.005-.441.026-.105.015-.207.028-.271.107-.051.063-.072.156-.084.28a.618.618 0 01-.267.45c-.18.133-.647.247-1.126.257-.466.009-.928-.076-1.113-.185a.611.611 0 01-.307-.427c-.013-.073-.024-.13-.058-.167-.06-.062-.154-.056-.26-.066-.278-.026-.618-.01-1.01-.027-1.693-.078-2.04-1.793-1.686-2.583.117-.263.426-.38.69-.263a.519.519 0 01.264.686.837.837 0 00.78 1.12c.537.025.983 0 1.316.068.265.056.479.163.647.332.113.114.21.257.276.447.246.024.653-.01.862-.032zm79.517-3.754c.665.46.673 1.52.137 2.355-.517.807-1.425 1.204-2.068.759-.665-.46-.673-1.52-.137-2.355.518-.807 1.425-1.205 2.068-.76zm-2.003-2.067c-.34-.454-.895-.55-1.497-.471-1.27.166-2.742 1.078-3.69 2.132-.836.928-1.366 1.99-.346 2.604.38.228.856.126 1.36-.08 1.023-.421 2.113-1.35 2.939-2.278.454-.512.829-1.023 1.056-1.456a2.87 2.87 0 00.178-.45zm-5.034-.407a.521.521 0 00-.022-.027c-.825-1.093-2.184-.689-3.002.044-.45.402-.79.912-.67 1.392.076.298.348.533.805.728.268.114.578.187.78.227.217-.425.516-.847.881-1.254a8.514 8.514 0 011.228-1.11zm-5.302-.091l-.003.005.012-.015-.009.01zm.032-.036l-.007.008.012-.014-.005.006zm-80.32-5.018a3.602 3.602 0 00-.222.087c-.79.343-1.585 1.067-2.248 2.445a.574.574 0 01-.764.267.57.57 0 01-.269-.76c.822-1.707 1.844-2.57 2.824-2.997 1.47-.64 2.886-.284 3.55-.15 2.044.412 3.28 2.102 3.583 2.567.108.167.567 1.233.559 1.84a.572.572 0 01-1.145-.016c.005-.4-.305-1.096-.376-1.206a5.397 5.397 0 00-.753-.91 2.578 2.578 0 01-2.573 2.805 2.58 2.58 0 01-2.583-2.573c0-.516.153-.997.416-1.4zm2.166-.032c.794 0 1.438.641 1.438 1.431s-.644 1.432-1.438 1.432a1.437 1.437 0 01-1.438-1.432c0-.79.645-1.431 1.438-1.431zm16.62-.29c-.932.905-1.098 1.985-1.021 2.426a.573.573 0 01-1.128.197c-.167-.953.33-4.458 5.1-5.097 1.475-.198 4.124-.078 5.783 2.488a.567.567 0 01-.172.787.573.573 0 01-.79-.17c-.907-1.402-2.186-1.884-3.287-2 .512.57.764 1.361.618 2.17a2.583 2.583 0 01-3 2.076 2.575 2.575 0 01-2.103-2.877zm-28.754-.95c-.237-.43-.558-1.157-.936-1.76-.188-.298-.37-.575-.59-.688-.123-.064-.298-.062-.468-.026-.254.054-.519.204-.576.51-.06.322.064.736.386 1.27.359.594 1.436 2.533 2.452 4.592a81.716 81.716 0 01-.17-2.397.707.707 0 01.011-.167 31.036 31.036 0 00-.11-1.334zm31.57-.114c.781.14 1.301.885 1.16 1.663a1.44 1.44 0 01-2.83-.507 1.438 1.438 0 011.67-1.156zm13.753 1.1c.166-.347.334-.683.503-1.007.56-1.084 1.106-2.031 1.333-2.933.158-.625.165-1.146.033-1.515-.055-.157-.11-.294-.236-.304-.215-.017-.429.17-.68.466-.402.473-.79 1.224-1.116 2.297.053.95.115 1.956.163 2.996zM76.18 67.32c-2.679-1.605-6.876-1.794-10.64-.475a.568.568 0 00-.349.726.573.573 0 00.73.349c3.42-1.198 7.235-1.081 9.668.376.271.163.623.075.786-.194a.57.57 0 00-.195-.782zm10.327.8c2.249-1.727 6.026-2.281 9.561-1.484a.569.569 0 10.253-1.11c-3.891-.879-8.039-.208-10.513 1.692a.569.569 0 00-.104.8c.194.25.553.295.803.102z" />
    </g>
</svg>