<svg width="38" height="16" viewBox="0 0 38 16" fill="none" xmlns="http://www.w3.org/2000/svg">
<path d="M0 11.8824H7.60637V9.81111H2.51225V0H0V11.8824Z"/>
<path d="M13.2502 12.0565C15.9539 12.0565 17.6365 10.2056 17.6365 7.46132C17.6365 4.69959 15.9539 2.85456 13.2502 2.85456C10.5465 2.85456 8.86394 4.69959 8.86394 7.46132C8.86394 10.2056 10.5465 12.0565 13.2502 12.0565ZM13.2618 10.1418C12.0144 10.1418 11.3762 8.99884 11.3762 7.44391C11.3762 5.88899 12.0144 4.7402 13.2618 4.7402C14.486 4.7402 15.1243 5.88899 15.1243 7.44391C15.1243 8.99884 14.486 10.1418 13.2618 10.1418Z"/>
<path d="M23.2586 15.41C25.8057 15.41 27.6159 14.2496 27.6159 11.9694V2.9706H25.1616V4.46751H25.0688C24.7381 3.74226 24.0129 2.85456 22.5218 2.85456C20.5665 2.85456 18.9129 4.37468 18.9129 7.4091C18.9129 10.3739 20.5201 11.7548 22.5276 11.7548C23.949 11.7548 24.7439 11.0411 25.0688 10.3043H25.1732V11.9346C25.1732 13.1588 24.39 13.6346 23.3166 13.6346C22.2259 13.6346 21.6747 13.1588 21.4716 12.6193L19.1856 12.9268C19.4815 14.3308 20.8566 15.41 23.2586 15.41ZM23.3108 9.89814C22.0982 9.89814 21.4368 8.93501 21.4368 7.3975C21.4368 5.88319 22.0866 4.82143 23.3108 4.82143C24.5118 4.82143 25.1848 5.83677 25.1848 7.3975C25.1848 8.96983 24.5002 9.89814 23.3108 9.89814Z"/>
<path d="M33.6093 12.0565C36.313 12.0565 37.9956 10.2056 37.9956 7.46132C37.9956 4.69959 36.313 2.85456 33.6093 2.85456C30.9056 2.85456 29.223 4.69959 29.223 7.46132C29.223 10.2056 30.9056 12.0565 33.6093 12.0565ZM33.6209 10.1418C32.3735 10.1418 31.7353 8.99884 31.7353 7.44391C31.7353 5.88899 32.3735 4.7402 33.6209 4.7402C34.8451 4.7402 35.4833 5.88899 35.4833 7.44391C35.4833 8.99884 34.8451 10.1418 33.6209 10.1418Z"/>
</svg>
