<svg viewBox="0 0 168 320" widh="168" height="320" fill-rule="evenodd" clip-rule="evenodd" stroke-linecap="round" stroke-linejoin="round" stroke-miterlimit="1.5">
    <path data-bodypart="head" d="M73.289 44.931l-.032-.119-.002-.029a1.65 1.65 0 0 1-.137.248 1.189 1.189 0 0 1-.275.291.867.867 0 0 1-.449.159.822.822 0 0 1-.157-.006c-.345-.047-.623-.293-.834-.554a4.243 4.243 0 0 1-.405-.621 8.046 8.046 0 0 1-.432-.945l-.059-.156-.111.887c.001.06.005.119.014.178.011.065.028.129.037.195l.001.015c.001.071.001.071-.008.142l-.001.004c-.008.028-.014.056-.024.084a.507.507 0 0 1-.152.208c-.022.018-.048.033-.072.049l-.001.001c-.024.012-.049.025-.073.034a.516.516 0 0 1-.318.011c-.069-.02-.083-.033-.145-.069l-.002-.002c-.06-.049-.06-.048-.112-.106a.535.535 0 0 1-.087-.15c-.045-.098-.082-.202-.12-.303a38.817 38.817 0 0 1-1.47-5.405 3.057 3.057 0 0 0-.018.235l-.001.062c.01.057.021.115.028.173l.002.026-.003.093c-.02.089-.02.089-.054.174l-.001.001c-.042.065-.049.085-.106.138a.509.509 0 0 1-.711-.026c-.021-.021-.037-.046-.055-.069l-.001-.002c-.031-.056-.032-.055-.056-.114a1.001 1.001 0 0 1-.051-.287l-.137-.785 1.456-.42a9.218 9.218 0 0 0 2.439-1.431 10.022 10.022 0 0 0 1.734-1.818c.489-.659.899-1.376 1.225-2.129 1.322-3.052 1.231-6.674-.263-9.648a10.738 10.738 0 0 0-.962-1.565 10.16 10.16 0 0 0-1.551-1.666 9.297 9.297 0 0 0-2.295-1.446 8.73 8.73 0 0 0-2.284-.653l-.471-.036.187-1.768c.095-.564.206-1.125.332-1.683.348-1.53.822-3.041 1.505-4.456.501-1.036 1.117-2.022 1.881-2.885.258-.291.533-.564.821-.824l.076-.067c.082-.099.167-.195.252-.292a23.917 23.917 0 0 1 1.801-1.808 22.98 22.98 0 0 1 1.112-.934 16.805 16.805 0 0 1 3.137-1.988c.968-.463 1.996-.815 3.057-.977.395-.059.792-.09 1.191-.097.152 0 .151 0 .302.003a8.32 8.32 0 0 1 1.22.132c.223.042.443.098.663.156.248.065.495.133.741.204.746.215 1.486.455 2.201.756.266.112.529.232.784.368.164.088.326.181.481.285.095.065.192.133.281.208a5.857 5.857 0 0 1 1.057-.299 5.406 5.406 0 0 1 1.82-.008c1.556.254 2.948 1.124 4.111 2.156.224.199.441.405.652.618.217.219.428.444.633.676.295.334.579.68.851 1.035.323.421.63.855.922 1.298.379.573.734 1.162 1.068 1.763a32.033 32.033 0 0 1 3.138 8.14l.045.24h-.19l-1.092.084a8.73 8.73 0 0 0-2.284.653 9.316 9.316 0 0 0-2.295 1.446 10.16 10.16 0 0 0-1.551 1.666 10.738 10.738 0 0 0-.962 1.565c-1.494 2.974-1.585 6.596-.263 9.648.326.753.736 1.47 1.225 2.129.5.675 1.082 1.289 1.734 1.818a9.234 9.234 0 0 0 2.439 1.431l1.218.351-.232.943-.082.284-.057.196-.025.119a.88.88 0 0 1-.089.224c-.012.019-.027.038-.04.057l-.002.002c-.02.02-.037.042-.057.059a.51.51 0 0 1-.832-.29c-.005-.027-.006-.055-.008-.081l-.001-.004c.001-.021.001-.041.003-.061.008-.081.036-.159.057-.236.007-.057.008-.114.008-.172a5.82 5.82 0 0 0-.056-.722l-.121.441a99.43 99.43 0 0 1-.965 3.253c-.11.347-.222.692-.339 1.036-.098.293-.199.586-.321.869l-.032.069c-.028.053-.033.064-.063.109a.543.543 0 0 1-.223.194.514.514 0 0 1-.649-.189c-.02-.034-.026-.043-.043-.081a.64.64 0 0 1-.041-.237l.003-.056c-.084.151-.171.299-.262.445-.265.426-.555.843-.902 1.206l-.55.402-.029-.011c-.635-2.062-.584-2.091-1.624-3.982l-1.967-2.11-.327.075-.774 2.493-.936-1.978-.42-.006-1.418 2.794-.723-2.882-.283-.091-3.616 3.059-.266-1.478-.341-.116-1.518 1.378.6-2.707-.642-.301-2.643 3.422.038-.912-.273-.177-3.24 1.607-.416.553z" />
    <path data-bodypart="ears" d="M65.621 18.772l.437.033a7.74 7.74 0 0 1 1.829.496c.782.319 1.51.765 2.159 1.305.498.414.949.884 1.346 1.395a9.684 9.684 0 0 1 1.054 1.694c1.398 2.864 1.381 6.365-.05 9.213-.249.497-.54.972-.871 1.418a9.054 9.054 0 0 1-1.479 1.57 8.292 8.292 0 0 1-2.062 1.265l-1.435.445-.853-6.531a82.473 82.473 0 0 1-.333-5.328 60.055 60.055 0 0 1 .048-4.985l.21-1.99zm36.252-.041h.219l.146.011.154.824a26.06 26.06 0 0 1 .19 3.819 42.838 42.838 0 0 1-.326 4.442 64.28 64.28 0 0 1-.803 4.9l-1.188 4.833-1.284-.399a8.292 8.292 0 0 1-2.062-1.265 9.092 9.092 0 0 1-1.479-1.57 9.663 9.663 0 0 1-.871-1.418c-1.431-2.848-1.448-6.349-.05-9.213a9.684 9.684 0 0 1 1.054-1.694 9.017 9.017 0 0 1 1.346-1.395 8.273 8.273 0 0 1 2.159-1.305 7.74 7.74 0 0 1 1.829-.496l.966-.074z" />
    <path data-bodypart="nape_of_neck" d="M65.084 53.5l2.041-.882c.662-.296 1.325-.59 1.962-.938 1.722-.943 3.303-2.248 4.266-3.986a7.54 7.54 0 0 0 .386-.806l.416-1.445.206-.274 1.801-.893-.071 1.695.563.205 2.217-2.87-.449 2.028.518.301 2.054-1.863.259 1.439.318.114 3.67-3.104.864 3.446.535.06 1.575-3.1 1.058 2.236.521-.036.909-2.931.935 1.003.795 1.446.126.409-.045-.004a5.449 5.449 0 0 0 .071.975c.222 1.341.936 2.551 1.811 3.568a12.97 12.97 0 0 0 1.051 1.073 16.054 16.054 0 0 0 2.141 1.621 19.27 19.27 0 0 0 2.713 1.437l.212.076H86.857l-.005-.012a3.264 3.264 0 0 0-.351-.602 3.361 3.361 0 0 0-1.631-1.146 5.078 5.078 0 0 0-1.458-.238c-.142-.002-.142-.002-.285 0a5.23 5.23 0 0 0-1.356.204 3.552 3.552 0 0 0-1.457.843 3.314 3.314 0 0 0-.566.749 3.142 3.142 0 0 0-.099.202H65.084z" />
    <path data-bodypart="back" d="M61.646 112.5l-.371-2.781c-.448-2.745-1.028-5.468-1.654-8.178-.164-.708-.331-1.417-.501-2.125-.131-.55-.268-1.1-.393-1.653-.03-.139-.057-.278-.082-.418a47.273 47.273 0 0 1-.311-2.082c-.099-.747-.191-1.495-.28-2.244l-.055-.483.503-4.024-.031-.403-.079-1a883.057 883.057 0 0 0-1.074-12.372 461.56 461.56 0 0 0-1.017-9.817c-.156-1.35-.322-2.7-.505-4.047a94.42 94.42 0 0 0-.464-3.092l-.296-1.497 1.571-.466c.529-.081 1.059-.151 1.589-.231a24.981 24.981 0 0 0 1.651-.309 24.058 24.058 0 0 0 2.157-.609l.448-.169H80.39l.099-.395.004-.014c.041-.134.101-.263.172-.384.264-.447.687-.774 1.166-.964.249-.098.51-.161.774-.198a4.5 4.5 0 0 1 .545-.044c.761-.017 1.58.117 2.188.61a1.99 1.99 0 0 1 .661.947l.102.442h17.654l.857.183c.344.048.689.081 1.035.095.343.015.686.009 1.03.015.207.005.415.012.622.02 1.169.054 2.344.166 3.484.442.369.09.735.196 1.09.334l.026.013c-.553 1.473-.95 3-1.286 4.536-.558 2.552-.944 5.139-1.242 7.733-.434 3.777-.675 7.575-.803 11.374-.061 1.8-.095 3.601-.102 5.401-.005 1.295.003 2.59.035 3.885l.433 4.335-.296 2.01c-.537 3.546-1.092 7.089-1.63 10.634a437.054 437.054 0 0 0-.581 3.951l-.363 3.039H61.646z" />
    <path data-bodypart="upper_arm" d="M54.104 56.694l.325 1.754c.171 1.06.32 2.124.461 3.188.18 1.372.345 2.746.501 4.12.427 3.762.793 7.53 1.138 11.3.348 3.809.673 7.619.969 11.432l-.376 3.004-.177.424a664.42 664.42 0 0 1-3.305 7.78 253.336 253.336 0 0 1-1.471 3.333 67.673 67.673 0 0 1-.946 2.024c-.185.377-.384.745-.577 1.117-.095.19-.187.38-.278.57l-.797 1.93a35.822 35.822 0 0 1-5.064-1 25.495 25.495 0 0 1-2.627-.872 16.936 16.936 0 0 1-2.109-1 10.864 10.864 0 0 1-1.636-1.121l-.896-.915c.614-1.003 1.134-2.062 1.603-3.146a47.32 47.32 0 0 0 1.181-3.037 72.46 72.46 0 0 0 1.269-3.998c.447-1.555.853-3.122 1.227-4.695a128.842 128.842 0 0 0 1.531-7.36l.125-.722c.023-.134.047-.267.066-.401.002-.013.001-.027.002-.04l.01-.202c.019-.35.022-.386.046-.77.026-.405.056-.809.086-1.215.218-2.748.525-5.488.93-8.214.097-.652.199-1.302.309-1.952.085-.509.169-1.018.289-1.52.167-.701.389-1.389.665-2.056 1.217-2.949 3.463-5.415 6.179-7.058l1.347-.682zm58.685-.659c.862.386 1.688.867 2.458 1.43a14.472 14.472 0 0 1 2.644 2.515c1.978 2.419 3.164 5.395 3.834 8.424.106.473.198.948.279 1.425.116.686.211 1.377.283 2.069.179 1.679.236 3.37.198 5.057a45.004 45.004 0 0 1-.1 2.168c-.01.161-.025.323-.028.483 0 .06.004.12.008.179.022.256.055.51.092.765.048.339.104.677.162 1.015a81.2 81.2 0 0 0 .449 2.383c.459 2.276.98 4.54 1.549 6.791.644 2.549 1.35 5.086 2.185 7.578.315.94.648 1.874 1.016 2.795.374.938.784 1.863 1.27 2.749l.41.705c-.605.478-1.27.909-1.961 1.292-2.862 1.589-6.128 2.349-9.386 2.454l-1.886-.019-.003-.009c-.072-.2-.145-.399-.219-.598a216.173 216.173 0 0 0-1.32-3.409 825.764 825.764 0 0 0-1.647-4.131l-3.199-7.897-.378-3.78-.006-.247-.006-.322c-.05-3.081-.013-6.164.102-9.243.124-3.325.338-6.648.696-9.956.266-2.465.61-4.924 1.097-7.355.357-1.784.79-3.556 1.407-5.311z" />
    <path data-bodypart="elbow" d="M129.998 105.426l.548.943c.937 1.637 1.845 3.289 2.669 4.986a53.41 53.41 0 0 1 2.363 5.644l.027.087c-.611.526-1.231.987-1.877 1.41-1.345.879-2.8 1.59-4.329 2.085-1.43.462-2.92.734-4.422.811a18.13 18.13 0 0 1-3.724-.198l-.891-.187-.074-.154a32.995 32.995 0 0 1-.848-2.06 53.016 53.016 0 0 1-.657-1.855 46.116 46.116 0 0 1-.556-1.786 21.939 21.939 0 0 1-.38-1.489 13.22 13.22 0 0 1-.075-.397c-.031-.193-.053-.387-.083-.581a9.9 9.9 0 0 0-.062-.344 8.649 8.649 0 0 0-.28-1.002c-.212-.605-.44-1.206-.654-1.809l-.09-.259 1.744.035c3.131-.121 6.26-.825 9.063-2.248.91-.463 1.783-.999 2.588-1.632zm-93.313-.783l.317.354c.673.661 1.456 1.206 2.275 1.671 1.21.687 2.51 1.207 3.833 1.629.78.25 1.571.465 2.367.654.931.22 1.871.405 2.814.563l.899.118-.847 2.606-.059.206-.034.126c-.015.199-.015.199-.032.397a19.28 19.28 0 0 1-.38 2.365c-.313 1.378-.776 2.718-1.33 4.017l-.75 1.595-1.452-.036a52.072 52.072 0 0 1-3.156-.256 38.306 38.306 0 0 1-2.384-.342 29.001 29.001 0 0 1-2.02-.429 22.038 22.038 0 0 1-1.49-.431c-.423-.14-.842-.295-1.252-.469a12.89 12.89 0 0 1-.899-.421 10.346 10.346 0 0 1-.752-.43 8.801 8.801 0 0 1-.523-.359 6.942 6.942 0 0 1-.663-.562l-.398-.486.722-2.017a53.376 53.376 0 0 1 3.406-7.19 48.54 48.54 0 0 1 1.227-2.028l.561-.845z" />
    <path data-bodypart="lower_back" d="M54.094 141.902l.028-.26c.189-1.442.47-2.871.812-4.284.354-1.463.774-2.91 1.253-4.337a48.622 48.622 0 0 1 1.429-3.762 32.269 32.269 0 0 1 1.934-3.843 16.717 16.717 0 0 0 .984-1.902 16.68 16.68 0 0 0 1.115-3.703c.086-.484.153-.973.191-1.463.028-.345.048-.692.039-1.038.002-.087.004-.086.01-.172.009-.125.014-.25.02-.374.038-1.083-.025-2.167-.127-3.244l-.003-.02h44.213l-.082 2.558c.009.988.055 1.976.142 2.959.074.841.177 1.68.334 2.509.076.397.163.792.277 1.18.08.269.17.54.3.789.093.179.226.329.344.491.08.115.158.23.235.345.452.705.842 1.448 1.2 2.205.365.773.697 1.56 1.006 2.357.884 2.284 1.593 4.635 2.21 7.004.197.762.388 1.526.558 2.295l.696 3.859-1.508-.5a93.951 93.951 0 0 0-9.515-2.348 96.884 96.884 0 0 0-12.013-1.531 103.526 103.526 0 0 0-7.668-.198 102.51 102.51 0 0 0-20.629 2.351 90.095 90.095 0 0 0-6.652 1.713l-1.133.364z" />
    <path data-bodypart="forearm" d="M135.931 118.12c.549 1.62.992 3.269 1.357 4.935.142.652.273 1.308.393 1.965.11.602.207 1.207.314 1.809a95.84 95.84 0 0 0 .914 4.42c.602 2.58 1.31 5.135 2.088 7.666.448 1.462.921 2.916 1.41 4.366.401 1.194.814 2.385 1.219 3.579.086.257.172.514.256.77.087.265.17.532.259.797l.126.296-.426.329c-1.936 1.301-4.152 2.152-6.436 2.6-.605.118-1.215.209-1.835.268l-.405-1.447a24.198 24.198 0 0 0-.864-2.072 18.33 18.33 0 0 0-.719-1.384c-2.025-4.001-4.051-8.003-6.078-12.002-1.994-3.93-3.984-7.86-5.995-11.779l-.564-1.087c1.286.22 2.584.303 3.877.251a18.28 18.28 0 0 0 4.885-.868 19.165 19.165 0 0 0 4.812-2.362l1.412-1.05zm-105.539-.306l.951.84c.238.171.484.331.736.48.334.198.679.378 1.031.543.404.19.817.36 1.236.514.553.204 1.116.38 1.685.536.662.181 1.332.334 2.006.465.886.172 1.779.308 2.675.416 1.049.126 2.103.216 3.159.277l1.412.04-.998 1.929-.36.722a860.791 860.791 0 0 0-3.107 6.412 2832.192 2832.192 0 0 0-6.93 14.514l-2.289 4.89a26.205 26.205 0 0 1-3.032-.355c-1.127-.2-2.246-.476-3.315-.889-.696-.268-1.376-.596-1.991-1.021l-.015-.014.334-.762c.085-.198.085-.198.167-.395.679-1.677 1.199-3.414 1.658-5.162a78.94 78.94 0 0 0 1.188-5.259c.034-.18.063-.359.094-.539.072-.418.142-.837.215-1.256.166-.966.334-1.931.501-2.897.366-2.095.733-4.19 1.118-6.282.116-.632.234-1.264.356-1.896a43.313 43.313 0 0 1 .702-3.108l.813-2.743z" />
    <path data-bodypart="buttocks" d="M53.979 142.986l.451-.156a82.109 82.109 0 0 1 3.676-1.066 97.803 97.803 0 0 1 10.825-2.21c10.315-1.517 20.874-1.473 31.156.284a93.125 93.125 0 0 1 9.338 2.092l3.988 1.229.161.895c.278 1.836.518 3.678.736 5.521.48 4.039.858 8.088 1.205 12.141l.266 3.148c.043.503.087 1.007.128 1.511.013.178.024.356.033.534l.028 2.831-.662.83c-1.513 1.688-3.271 3.165-5.23 4.31a19.059 19.059 0 0 1-8.924 2.606 30.34 30.34 0 0 1-2.297-.015 47.701 47.701 0 0 1-3.046-.197 29.305 29.305 0 0 1-3.693-.581l-2.464-.785.533-.921a9.012 9.012 0 0 0 .119-7.205 8.397 8.397 0 0 0-.948-1.683 7.938 7.938 0 0 0-1.209-1.322 7.38 7.38 0 0 0-1.798-1.159 6.914 6.914 0 0 0-2.754-.617h-.194a6.914 6.914 0 0 0-2.754.617 7.38 7.38 0 0 0-1.798 1.159 7.938 7.938 0 0 0-1.209 1.322 8.397 8.397 0 0 0-.948 1.683 9.012 9.012 0 0 0 .119 7.205l.442.765c-.705.368-1.471.628-2.244.838-1.296.351-2.627.561-3.961.698a42.653 42.653 0 0 1-3.427.201c-.746.015-1.493.021-2.238-.018a18.954 18.954 0 0 1-3.057-.41 16.73 16.73 0 0 1-5.083-2.03c-1.87-1.137-3.501-2.649-4.818-4.394l-.804-1.221.038-3.027c.038-1.085.093-2.169.19-3.251.048-.551.115-1.099.181-1.647l.491-3.968c.418-3.432.828-6.867 1.138-10.312.074-.81.14-1.623.198-2.436.036-.513.062-1.028.099-1.541l.021-.248z" />
    <path data-bodypart="anus" d="M81.669 178.183l-.387-.117a6.312 6.312 0 0 1-1.65-.992 6.933 6.933 0 0 1-1.182-1.262 7.423 7.423 0 0 1-.656-1.089 7.998 7.998 0 0 1-.037-6.868c.219-.459.485-.897.794-1.301.3-.394.641-.756 1.018-1.076.472-.4.999-.734 1.566-.982a5.915 5.915 0 0 1 2.614-.491 6.01 6.01 0 0 1 2.116.491 6.387 6.387 0 0 1 1.566.982c.377.32.718.682 1.018 1.076.309.404.575.842.794 1.301a7.998 7.998 0 0 1-.037 6.868 7.423 7.423 0 0 1-.656 1.089c-.34.467-.737.894-1.182 1.262l-1.406.846-.195-1.562a36.241 36.241 0 0 1-.1-1.644 8.512 8.512 0 0 1-1.742-2.605 9.894 9.894 0 0 1-.601-1.941c-.012-.058-.024-.116-.034-.175l-.01.05a9.973 9.973 0 0 1-.626 2.066 8.88 8.88 0 0 1-.641 1.217c.04.182.056.372.065.559.02.438-.003.877-.035 1.315a32.637 32.637 0 0 1-.157 1.562l-.217 1.421z" />
    <path data-bodypart="hand" d="M138.474 178.074l.001.001c.001.003-.004-.001-.007-.003-.019-.009-.038-.017-.056-.028a1.15 1.15 0 0 1-.319-.261c-.209-.245-.33-.559-.411-.868a7.294 7.294 0 0 1-.202-1.308 17.792 17.792 0 0 1-.047-1.366c0-.992.055-1.985.13-2.974.04-.524.092-1.047.128-1.573.01-.174.018-.349.022-.523a8.596 8.596 0 0 0-.011-.7c-.003-.055-.008-.106-.013-.159-.004-.036-.005-.08-.015-.114a15.907 15.907 0 0 0-.048-.159c-.14-.454-.282-.906-.419-1.36a32.52 32.52 0 0 1-.627-2.419 23.135 23.135 0 0 1-.498-3.878 21.453 21.453 0 0 1 .086-2.967c.02-.193.042-.386.057-.578.008-.114.015-.227.02-.339a12.418 12.418 0 0 0-.406-3.619l1.522-.201c2.498-.46 4.925-1.376 7.038-2.796l.272-.21.646 1.519c.297.568.624 1.123 1.007 1.636.385.197.769.398 1.153.599.35.185.701.372 1.049.563.265.147.531.294.791.451.264.159.524.33.777.506.35.245.69.506 1.007.793.27.245.526.511.739.808.153.214.285.445.368.693.03.093.054.186.071.281.012.071.016.142.025.214l.026.126c.06.227.147.444.242.657.109.242.23.48.357.713.315.58.665 1.141 1.03 1.691l.056.083c.079.09.157.182.233.275a4.705 4.705 0 0 1 .49.724c.031.058.06.116.086.175.159.351.252.777.095 1.147a.967.967 0 0 1-.098.182.84.84 0 0 1-.175.187.89.89 0 0 1-.162.097 3.286 3.286 0 0 1-.253.105 2.428 2.428 0 0 1-.571.131 2.508 2.508 0 0 1-.792-.044c-.544-.116-1.039-.396-1.472-.739a5.542 5.542 0 0 1-.308-.263c.089.338.185.675.285 1.01.471 1.573 1.039 3.116 1.641 4.643.168.426.339.851.511 1.277.145.356.293.711.433 1.07a7.005 7.005 0 0 1 .248.788c.13.53.188 1.08.139 1.624a3.458 3.458 0 0 1-.18.847c-.07.198-.163.399-.302.558a1.078 1.078 0 0 1-.245.196 1.063 1.063 0 0 1-.287.126.872.872 0 0 1-.209.03c-.439.012-.805-.284-1.076-.601a5.448 5.448 0 0 1-.567-.829c-.294-.516-.578-1.039-.862-1.56-.496-.907-.986-1.817-1.468-2.731l-.018-.037c.074.272.073.272.145.544.068.274.068.273.134.548.233.995.428 1.997.591 3.005.055.345.108.69.159 1.035.041.282.079.565.125.847.019.099.038.199.059.298.115.51.262 1.009.393 1.514.028.12.057.24.082.36.077.386.137.807-.007 1.185a1.046 1.046 0 0 1-.153.273c-.336.431-.968.497-1.459.335a1.68 1.68 0 0 1-.298-.13c-.314-.172-.575-.427-.796-.706-.369-.466-.636-1.003-.852-1.553l-.03-.082c-.063-.181-.118-.364-.177-.545l-.413-1.306c-.294-.931-.583-1.864-.866-2.798l-.373-1.242c-.067-.215-.066-.215-.136-.428a11.309 11.309 0 0 0-.391-1.015l-.008-.017c.035.896.115 1.79.208 2.681.11 1.039.243 2.076.404 3.108.054.342.111.683.172 1.023.039.22.082.44.119.661l.047.312c.069.529.114 1.066.062 1.6-.033.349-.108.704-.276 1.014-.079.147-.18.282-.303.395a1.218 1.218 0 0 1-.344.223 1.129 1.129 0 0 1-.732.049c-.382-.108-.663-.422-.87-.748a3.143 3.143 0 0 1-.119-.202 7.198 7.198 0 0 1-.505-1.214 16.851 16.851 0 0 1-.407-1.479 32.212 32.212 0 0 1-.568-3.258c-.069-.557-.114-1.115-.169-1.673-.02-.192-.042-.384-.065-.575-.074-.584-.155-1.174-.335-1.737l-.027-.078-.007-.018a5.073 5.073 0 0 0-.085.291c-.156.616-.245 1.247-.322 1.877a46.329 46.329 0 0 0-.196 2.068c-.026.35-.048.7-.075 1.05-.014.163-.03.326-.048.488-.062.526-.142 1.052-.305 1.557-.094.293-.217.586-.412.827a1.202 1.202 0 0 1-.318.285.953.953 0 0 1-.309.123.878.878 0 0 1-.52-.052l-.081-.039zM22.839 149.041c.382.26.782.478 1.19.671 1.166.552 2.416.916 3.677 1.178 1.158.241 2.331.394 3.518.471l-.202.747c-.058.321-.099.645-.13.97a23.52 23.52 0 0 0-.069 3.096l.004.083c.032.09.061.18.09.269.037.117.07.234.103.352.396 1.528.395 3.136.204 4.696-.253 2.07-.804 4.093-1.51 6.052l-.065.175-.089.241c.025.797.057 1.596.086 2.394.056 1.499.129 2.996.165 4.496.008.518-.008 1.042-.114 1.551-.065.314-.165.628-.343.898a1.23 1.23 0 0 1-.581.49.916.916 0 0 1-.498.05 1.168 1.168 0 0 1-.802-.481 2.373 2.373 0 0 1-.359-.744 6.84 6.84 0 0 1-.234-1.203c-.024-.213-.041-.426-.06-.64-.02-.233-.043-.464-.066-.696-.133-1.27-.566-3.119-.607-2.778a302.81 302.81 0 0 1-.601 4.437c-.032.222-.066.444-.102.665a16.87 16.87 0 0 1-.275 1.334 7.63 7.63 0 0 1-.269.863c-.149.38-.344.768-.66 1.036a1.358 1.358 0 0 1-.816.324 1.577 1.577 0 0 1-.266.007 1.07 1.07 0 0 1-.407-.116 1.337 1.337 0 0 1-.584-.638 2.05 2.05 0 0 1-.16-1.102c.009-.082.024-.161.041-.24.014-.063.031-.125.043-.187.009-.044.016-.088.022-.132.058-.462.078-.927.099-1.391.029-.735.055-1.47.086-2.204.025-.545.054-1.09.099-1.634.03-.357.07-.713.104-1.069l.029-.398.007-.128-.047.176a80.302 80.302 0 0 0-.836 3.469c-.083.38-.159.763-.238 1.144l-.058.244a5.235 5.235 0 0 1-.433 1.12c-.34.625-.85 1.166-1.5 1.467a2.728 2.728 0 0 1-.353.134 1.446 1.446 0 0 1-.245.054c-.146.016-.298 0-.438-.048a.886.886 0 0 1-.359-.227 1.043 1.043 0 0 1-.177-.249c-.138-.268-.171-.578-.173-.876 0-.243.024-.486.056-.727.04-.298.094-.593.154-.888.056-.272.115-.542.169-.814.016-.091.033-.181.046-.273.013-.112.022-.224.034-.336.014-.118.03-.236.045-.353.085-.606.18-1.21.287-1.81.075-.424.153-.847.25-1.266l.034-.143-.119.38c-.154.466-.318.929-.535 1.37a4.008 4.008 0 0 1-.651.976 3.49 3.49 0 0 1-.295.275 2.44 2.44 0 0 1-.619.395 1.012 1.012 0 0 1-.379.079.784.784 0 0 1-.623-.297 1.042 1.042 0 0 1-.194-.433c-.016-.073-.02-.146-.029-.22l.001.025a2.8 2.8 0 0 1-.026-.177 6.417 6.417 0 0 1 .025-1.336c.063-.605.168-1.206.286-1.802.257-1.294.586-2.573.942-3.842.11-.395.225-.79.344-1.183l.098-.316c.032-.103.067-.203.094-.307.025-.101.047-.204.069-.306.141-.722.255-1.45.366-2.176l.086-.571c-.153.172-.31.338-.474.498-.31.301-.642.581-1.006.813-.551.351-1.195.596-1.858.533a2.174 2.174 0 0 1-.673-.175c-.068-.029-.14-.059-.201-.103a.971.971 0 0 1-.381-.722c-.02-.282.058-.563.172-.817.196-.433.494-.816.806-1.17a37.582 37.582 0 0 0 1.15-1.931c.08-.146.158-.294.233-.442.043-.084.083-.17.127-.253l.044-.072c.102-.145.226-.272.353-.394.126-.121.256-.237.388-.351.373-.325.76-.636 1.149-.942.794-.626 1.603-1.235 2.414-1.838.359-.268.721-.534 1.082-.8.121-.09.246-.18.365-.274a1.855 1.855 0 0 0 .312-.319c.023-.031.053-.064.068-.099.011-.024.014-.051.021-.075.009-.033.022-.081.029-.115.035-.146.066-.292.105-.437.023-.085.048-.169.073-.253.186-.578.419-1.14.655-1.699l.29-.66z" />
    <path data-bodypart="thigh" d="M51.621 171.227l.008.012a18.41 18.41 0 0 0 4.916 4.535 17.678 17.678 0 0 0 5.443 2.235c1.098.25 2.219.4 3.344.46.77.041 1.541.035 2.311.019a42.277 42.277 0 0 0 3.731-.229 29.678 29.678 0 0 0 2.036-.29c1.058-.19 2.108-.443 3.12-.808.45-.163.895-.347 1.306-.567l1.158 1.251a7.31 7.31 0 0 0 1.999 1.182l.524.15-.437 2.852c-.376 2.17-.783 4.335-1.193 6.499-.273 1.441-.548 2.881-.819 4.321-.137.729-.271 1.458-.402 2.188a68.966 68.966 0 0 0-.33 1.976c-.106.718-.194 1.44-.278 2.161-.09.78-.174 1.562-.253 2.344-.19 1.877-.362 3.755-.525 5.634a892.182 892.182 0 0 0-1.042 13.277c-.082 1.148-.164 2.297-.243 3.445-.05.717-.098 1.433-.15 2.148-.025.318-.05.635-.077.952-.115 1.266-.254 2.53-.474 3.781-.172.976-.391 1.948-.721 2.884-.177.5-.386.988-.629 1.459-.117.224-.237.445-.36.665-.07.125-.143.249-.209.378a5.512 5.512 0 0 0-.097.222c-.142.362-.252.735-.354 1.111l-.355 1.465a74.161 74.161 0 0 1-7.451-.457 53 53 0 0 1-3.781-.561 35.15 35.15 0 0 1-3.36-.789 22.003 22.003 0 0 1-2.419-.848l-1.375-.693.353-1.56c.171-.989.306-1.985.42-2.983a87.62 87.62 0 0 0 .279-2.843c.028-.355.054-.709.08-1.063.017-.247.034-.494.04-.742.015-.646.001-1.292-.016-1.937-.025-.964-.064-1.927-.108-2.889a433.545 433.545 0 0 0-.391-7.121 866.807 866.807 0 0 0-.815-11.728 690.223 690.223 0 0 0-1.014-12.097 313.397 313.397 0 0 0-.369-3.728c-.094-.885-.193-1.77-.284-2.654-.05-.511-.099-1.021-.146-1.531-.341-3.825-.559-7.66-.591-11.488zm64.311.113l-.072 2.173a288.66 288.66 0 0 1-.574 9.016 706.382 706.382 0 0 1-1.683 18.434c-.11 1.067-.221 2.134-.337 3.201-.09.836-.184 1.672-.272 2.509-.056.551-.111 1.103-.162 1.655a252.089 252.089 0 0 0-.553 7.367 315.123 315.123 0 0 0-.332 6.517c-.074 1.83-.133 3.66-.157 5.491a72.443 72.443 0 0 0-.003 2.032c.006.503.016 1.009.063 1.51.04.415.102.827.171 1.237l.246 1.322-3.611 1.59a45.38 45.38 0 0 1-5.604 1.674 54.947 54.947 0 0 1-7.347 1.174l-1.648.11-.632-1.79c-.217-.552-.448-1.097-.678-1.643-.064-.157-.064-.157-.126-.315a20.93 20.93 0 0 1-1.032-3.923 27.31 27.31 0 0 1-.346-2.993l-.003-.047-.538-9.668c-.064-1.443-.132-2.886-.199-4.33a880.057 880.057 0 0 0-.439-8.434c-.06-1.034-.123-2.069-.194-3.102-.049-.699-.098-1.399-.177-2.095a73.72 73.72 0 0 0-.437-3.108 254.406 254.406 0 0 0-.742-4.447c-.685-3.934-1.425-7.857-2.138-11.786-.082-.456-.163-.912-.242-1.369l-.039-.318a7.117 7.117 0 0 0 1.911-1.139l1.013-1.095 2.708.879c.536.128 1.077.235 1.62.327.707.12 1.418.214 2.131.289 1.112.117 2.228.187 3.345.226.79.027 1.581.046 2.371.014a20.56 20.56 0 0 0 3.362-.411 20.146 20.146 0 0 0 6.225-2.447 22.242 22.242 0 0 0 5.151-4.287z" />
    <path data-bodypart="lower_leg" d="M115.734 297.5h-10.438l-.016-.188a48.699 48.699 0 0 0-.434-2.49 103.32 103.32 0 0 0-.787-3.605 142.549 142.549 0 0 0-.89-3.577l-.026-.101c-.707-2.352-1.411-4.704-2.115-7.057-.607-2.033-1.211-4.066-1.813-6.101-.414-1.401-.825-2.803-1.236-4.205-.127-.441-.257-.883-.381-1.325-.358-1.305-.594-2.64-.791-3.977a88.428 88.428 0 0 1-.574-5.079c-.253-2.886-.418-5.778-.551-8.672-.08-1.729-.145-3.459-.219-5.188-.016-.333-.031-.667-.05-1.001a24.278 24.278 0 0 0-.293-2.522l-.737-3.059c2.956-.211 5.813-.612 8.619-1.247a46.643 46.643 0 0 0 6.003-1.775 32.128 32.128 0 0 0 3.482-1.515l.515 2.359c.478 2.075.969 4.148 1.449 6.224.413 1.805.821 3.612 1.201 5.424.25 1.189.499 2.38.702 3.579a51.15 51.15 0 0 1 .465 3.464c.24 2.381.317 4.777.286 7.17-.025 1.804-.118 3.606-.188 5.408-.011.32-.021.639-.027.958-.002.168-.004.336-.003.504.001.222.008.444.009.668-.001.232-.004.464-.009.698a154.689 154.689 0 0 1-.149 3.909 711.5 711.5 0 0 1-.305 5.832c-.186 3.327-.377 6.652-.562 9.979-.054.992-.107 1.985-.154 2.978-.047 1.002-.1 2.007-.042 3.01l.059.52zm-53.6 0h-10.75l.057-.852c.03-.787.031-1.575.007-2.362-.243-6.029-.885-12.034-1.327-18.051a188.909 188.909 0 0 1-.255-4.188c-.242-4.974-.268-9.964.04-14.936.148-2.378.374-4.752.702-7.112.321-2.308.74-4.605 1.298-6.868a49.913 49.913 0 0 1 1.091-3.794c.137-.412.28-.822.429-1.23.136-.376.278-.752.412-1.129.035-.104.069-.206.101-.311l.018-.08 1.211.618c.761.322 1.543.593 2.334.829 1.114.334 2.248.599 3.389.82 1.362.264 2.735.465 4.114.622a74.38 74.38 0 0 0 7.372.458l-.52 2.725a112.02 112.02 0 0 0-.633 4.308 98.359 98.359 0 0 0-.437 4.049 67.965 67.965 0 0 0-.14 1.908c-.036.602-.063 1.204-.095 1.806l-.073 1.188a157.238 157.238 0 0 1-.618 7.026 104.5 104.5 0 0 1-.317 2.559c-.1.727-.207 1.454-.342 2.175-.092.483-.211.959-.332 1.436-.144.575-.293 1.148-.442 1.721-.429 1.646-.863 3.29-1.3 4.933a2795.63 2795.63 0 0 1-2.498 9.339c-.446 1.652-.888 3.307-1.347 4.957-.061.21-.123.42-.182.631a30.173 30.173 0 0 0-.851 4.232c-.104.848-.167 1.706-.116 2.573z" />
    <path data-bodypart="foot" d="M115.848 298.5c.088.67.24 1.362.435 2.042a19.686 19.686 0 0 0 .726 2.057c.213.48.472.94.707 1.409l.118.247c.107.237.21.476.293.723.124.366.21.745.251 1.129.021.205.031.41.022.615-.021.446-.122.885-.245 1.312-.152.531-.34 1.05-.515 1.574a24.98 24.98 0 0 0-.166.53 6.438 6.438 0 0 0-.187.811c-.041.281-.053.564.007.843.052.206.113.411.167.617.171.673.319 1.352.371 2.046a6.524 6.524 0 0 1-.445 2.927 3.418 3.418 0 0 1-.204.449 2.909 2.909 0 0 1-.537.682 4.314 4.314 0 0 1-1.181.769 7.66 7.66 0 0 1-1.785.538c-.732.135-1.48.191-2.225.178a7.676 7.676 0 0 1-1.555-.158 5.895 5.895 0 0 1-1.947-.822 5.03 5.03 0 0 1-1.152-1.021 3.707 3.707 0 0 1-.759-1.489 3.117 3.117 0 0 1-.082-.887c.009-.195.041-.386.059-.579.01-.116.018-.231.025-.348.024-.483.029-.968.023-1.452l-.12-.017c-.201-.03-.4-.073-.594-.133a3.74 3.74 0 0 1-1.894-1.326 3.46 3.46 0 0 1-.444-.753l-.017-.051a7.296 7.296 0 0 1-.144-.715c-.156-1.001-.126-2.075.335-2.996a3.237 3.237 0 0 1 .616-.857 3.272 3.272 0 0 1 1.116-.734 2.35 2.35 0 0 1 .358-.11.652.652 0 0 1 .108-.006l.033.003v-.003c-.027-.151-.027-.151-.05-.302a12.752 12.752 0 0 1-.103-.954c-.067-.946-.037-1.897.03-2.843.026-.384.061-.77.098-1.154.021-.203.046-.407.061-.611.005-.087.008-.174.009-.262l-.081-.918h10.464zm-53.646 0l.071.516c.03.152.068.301.104.45a21.617 21.617 0 0 1 .222 1.018c.152.81.264 1.635.253 2.461a5.39 5.39 0 0 1-.062.783c-.013.086-.03.173-.051.258-.011.046-.021.092-.04.135-.03.07-.068.134-.102.201a2.94 2.94 0 0 0-.084.192 7.209 7.209 0 0 0-.243.79l-.031.121c.191.051.38.104.57.157a3.196 3.196 0 0 1 1.346.812c.143.144.271.3.386.467.586.846.716 1.923.622 2.925a8.08 8.08 0 0 1-.126.849l-.044.201c-.016.07-.03.137-.059.203-.113.26-.263.501-.432.727a3.762 3.762 0 0 1-2.596 1.472 1.043 1.043 0 0 1-.209.011c-.163-.023-.325-.052-.488-.081-.071.855-.134 1.713-.193 2.569l-.03.446-.008.063c-.014.076-.03.15-.047.225a3.259 3.259 0 0 1-.279.713 3.192 3.192 0 0 1-.241.379c-.553.747-1.396 1.221-2.261 1.515a8.674 8.674 0 0 1-1.037.273 10.364 10.364 0 0 1-1.883.192 12.529 12.529 0 0 1-3.078-.329 3.53 3.53 0 0 1-.352-.099 2.342 2.342 0 0 1-1.016-.733c-.298-.364-.503-.797-.654-1.24-.231-.679-.344-1.396-.408-2.108a20.496 20.496 0 0 1-.057-2.466c.031-1.067.121-2.132.236-3.194.064-.587.14-1.172.202-1.76a2.69 2.69 0 0 0 .017-.219c-.002-.138-.026-.274-.048-.41-.047-.259-.098-.516-.144-.775a8.713 8.713 0 0 1-.127-1.194 6.15 6.15 0 0 1 .532-2.717c.086-.193.187-.378.274-.569.041-.096.08-.191.116-.289.174-.474.294-.968.387-1.464.089-.476.154-.956.204-1.437l.003-.04h10.885z" />
    <g>
        <path d="M70.507 43.199c-.063.29-.116.589-.111.887.001.06.005.119.014.178.011.065.028.129.037.195l.001.015c.001.071.001.071-.008.142l-.001.004c-.008.028-.014.056-.024.084a.507.507 0 0 1-.152.208c-.022.018-.048.033-.072.049l-.001.001c-.024.012-.049.025-.073.034a.516.516 0 0 1-.318.011c-.069-.02-.083-.033-.145-.069l-.002-.002c-.06-.049-.06-.048-.112-.106a.535.535 0 0 1-.087-.15c-.045-.098-.082-.202-.12-.303a38.817 38.817 0 0 1-1.47-5.405 3.057 3.057 0 0 0-.018.235l-.001.062c.01.057.021.115.028.173l.002.026-.003.093c-.02.089-.02.089-.054.174l-.001.001c-.042.065-.049.085-.106.138a.509.509 0 0 1-.711-.026c-.021-.021-.037-.046-.055-.069l-.001-.002c-.031-.056-.032-.055-.056-.114a1.001 1.001 0 0 1-.051-.287 100.994 100.994 0 0 1-1.14-8.301 82.473 82.473 0 0 1-.333-5.328 60.055 60.055 0 0 1 .048-4.985c.083-1.59.239-3.179.503-4.751.095-.564.206-1.125.332-1.683.348-1.53.822-3.041 1.505-4.456.501-1.036 1.117-2.022 1.881-2.885.258-.291.533-.564.821-.824l.076-.067c.082-.099.167-.195.252-.292a23.917 23.917 0 0 1 1.801-1.808 22.98 22.98 0 0 1 1.112-.934 16.805 16.805 0 0 1 3.137-1.988c.968-.463 1.996-.815 3.057-.977.395-.059.792-.09 1.191-.097.152 0 .151 0 .302.003a8.32 8.32 0 0 1 1.22.132c.223.042.443.098.663.156.248.065.495.133.741.204.746.215 1.486.455 2.201.756.266.112.529.232.784.368.164.088.326.181.481.285.095.065.192.133.281.208a5.857 5.857 0 0 1 1.057-.299 5.406 5.406 0 0 1 1.82-.008c1.556.254 2.948 1.124 4.111 2.156.224.199.441.405.652.618.217.219.428.444.633.676.295.334.579.68.851 1.035.323.421.63.855.922 1.298.379.573.734 1.162 1.068 1.763a32.033 32.033 0 0 1 3.138 8.14c.161.686.297 1.376.388 2.075a26.06 26.06 0 0 1 .19 3.819 42.838 42.838 0 0 1-.326 4.442 64.28 64.28 0 0 1-.803 4.9 86.083 86.083 0 0 1-1.657 6.738l-.082.284-.057.196-.025.119a.88.88 0 0 1-.089.224c-.012.019-.027.038-.04.057l-.002.002c-.02.02-.037.042-.057.059a.51.51 0 0 1-.832-.29c-.005-.027-.006-.055-.008-.081l-.001-.004c.001-.021.001-.041.003-.061.008-.081.036-.159.057-.236.007-.057.008-.114.008-.172a5.82 5.82 0 0 0-.056-.722l-.121.441a99.43 99.43 0 0 1-.965 3.253c-.11.347-.222.692-.339 1.036-.098.293-.199.586-.321.869l-.032.069c-.028.053-.033.064-.063.109a.543.543 0 0 1-.223.194.514.514 0 0 1-.649-.189c-.02-.034-.026-.043-.043-.081a.64.64 0 0 1-.041-.237l.003-.056c-.084.151-.171.299-.262.445-.265.426-.555.843-.902 1.206-.168.176-.362.362-.599.438a.64.64 0 0 1-.38.005.597.597 0 0 1-.399-.48.937.937 0 0 1 .006-.299c.009-.051.021-.101.029-.153.006-.047.01-.094.013-.14.018-.446-.061-.893-.153-1.326l-.053-.243c-.001.091.003.181.018.269.011.063.032.122.051.183l.01.051a.538.538 0 0 1-.052.308.513.513 0 0 1-.634.238 5.449 5.449 0 0 0 .071.975c.222 1.341.936 2.551 1.811 3.568a12.97 12.97 0 0 0 1.051 1.073 16.054 16.054 0 0 0 2.141 1.621 19.27 19.27 0 0 0 2.713 1.437c.763.331 1.548.615 2.35.84.644.182 1.299.327 1.961.419.344.048.689.081 1.035.095.343.015.686.009 1.03.015.207.005.415.012.622.02 1.169.054 2.344.166 3.484.442.369.09.735.196 1.09.334.231.089.461.192.671.325l-.013-.009c.958.423 1.871.942 2.716 1.56a14.472 14.472 0 0 1 2.644 2.515c1.978 2.419 3.164 5.395 3.834 8.424.106.473.198.948.279 1.425.116.686.211 1.377.283 2.069.179 1.679.236 3.37.198 5.057a45.004 45.004 0 0 1-.1 2.168c-.01.161-.025.323-.028.483 0 .06.004.12.008.179.022.256.055.51.092.765.048.339.104.677.162 1.015a81.2 81.2 0 0 0 .449 2.383c.459 2.276.98 4.54 1.549 6.791.644 2.549 1.35 5.086 2.185 7.578.315.94.648 1.874 1.016 2.795.374.938.784 1.863 1.27 2.749.158.279.322.554.484.831.326.558.651 1.117.974 1.677.937 1.637 1.845 3.289 2.669 4.986a53.41 53.41 0 0 1 2.363 5.644 51.852 51.852 0 0 1 1.71 6.056c.142.652.273 1.308.393 1.965.11.602.207 1.207.314 1.809a95.84 95.84 0 0 0 .914 4.42c.602 2.58 1.31 5.135 2.088 7.666.448 1.462.921 2.916 1.41 4.366.401 1.194.814 2.385 1.219 3.579.086.257.172.514.256.77.087.265.17.532.259.797.328.947.712 1.876 1.176 2.764.297.568.624 1.123 1.007 1.636.385.197.769.398 1.153.599.35.185.701.372 1.049.563.265.147.531.294.791.451.264.159.524.33.777.506.35.245.69.506 1.007.793.27.245.526.511.739.808.153.214.285.445.368.693.03.093.054.186.071.281.012.071.016.142.025.214l.026.126c.06.227.147.444.242.657.109.242.23.48.357.713.315.58.665 1.141 1.03 1.691l.056.083c.079.09.157.182.233.275a4.705 4.705 0 0 1 .49.724c.031.058.06.116.086.175.159.351.252.777.095 1.147a.967.967 0 0 1-.098.182.84.84 0 0 1-.175.187.89.89 0 0 1-.162.097 3.286 3.286 0 0 1-.253.105 2.428 2.428 0 0 1-.571.131 2.508 2.508 0 0 1-.792-.044c-.544-.116-1.039-.396-1.472-.739a5.542 5.542 0 0 1-.308-.263c.089.338.185.675.285 1.01.471 1.573 1.039 3.116 1.641 4.643.168.426.339.851.511 1.277.145.356.293.711.433 1.07a7.005 7.005 0 0 1 .248.788c.13.53.188 1.08.139 1.624a3.458 3.458 0 0 1-.18.847c-.07.198-.163.399-.302.558a1.078 1.078 0 0 1-.245.196 1.063 1.063 0 0 1-.287.126.872.872 0 0 1-.209.03c-.439.012-.805-.284-1.076-.601a5.448 5.448 0 0 1-.567-.829c-.294-.516-.578-1.039-.862-1.56-.496-.907-.986-1.817-1.468-2.731l-.018-.037c.074.272.073.272.145.544.068.274.068.273.134.548.233.995.428 1.997.591 3.005.055.345.108.69.159 1.035.041.282.079.565.125.847.019.099.038.199.059.298.115.51.262 1.009.393 1.514.028.12.057.24.082.36.077.386.137.807-.007 1.185a1.046 1.046 0 0 1-.153.273c-.336.431-.968.497-1.459.335a1.68 1.68 0 0 1-.298-.13c-.314-.172-.575-.427-.796-.706-.369-.466-.636-1.003-.852-1.553l-.03-.082c-.063-.181-.118-.364-.177-.545l-.413-1.306c-.294-.931-.583-1.864-.866-2.798l-.373-1.242c-.067-.215-.066-.215-.136-.428a11.309 11.309 0 0 0-.391-1.015l-.008-.017c.035.896.115 1.79.208 2.681.11 1.039.243 2.076.404 3.108.054.342.111.683.172 1.023.039.22.082.44.119.661l.047.312c.069.529.114 1.066.062 1.6-.033.349-.108.704-.276 1.014-.079.147-.18.282-.303.395a1.218 1.218 0 0 1-.344.223 1.129 1.129 0 0 1-.732.049c-.382-.108-.663-.422-.87-.748a3.143 3.143 0 0 1-.119-.202 7.198 7.198 0 0 1-.505-1.214 16.851 16.851 0 0 1-.407-1.479 32.212 32.212 0 0 1-.568-3.258c-.069-.557-.114-1.115-.169-1.673-.02-.192-.042-.384-.065-.575-.074-.584-.155-1.174-.335-1.737l-.027-.078-.007-.018a5.073 5.073 0 0 0-.085.291c-.156.616-.245 1.247-.322 1.877a46.329 46.329 0 0 0-.196 2.068c-.026.35-.048.7-.075 1.05-.014.163-.03.326-.048.488-.062.526-.142 1.052-.305 1.557-.094.293-.217.586-.412.827a1.202 1.202 0 0 1-.318.285.953.953 0 0 1-.309.123.878.878 0 0 1-.52-.052c-.043-.017-.044-.02-.081-.039l-.006-.003.006.003.001.001c.001.003-.004-.001-.007-.003-.019-.009-.038-.017-.056-.028a1.15 1.15 0 0 1-.319-.261c-.209-.245-.33-.559-.411-.868a7.294 7.294 0 0 1-.202-1.308 17.792 17.792 0 0 1-.047-1.366c0-.992.055-1.985.13-2.974.04-.524.092-1.047.128-1.573.01-.174.018-.349.022-.523a8.596 8.596 0 0 0-.011-.7c-.003-.055-.008-.106-.013-.159-.004-.036-.005-.08-.015-.114a15.907 15.907 0 0 0-.048-.159c-.14-.454-.282-.906-.419-1.36a32.52 32.52 0 0 1-.627-2.419 23.135 23.135 0 0 1-.498-3.878 21.453 21.453 0 0 1 .086-2.967c.02-.193.042-.386.057-.578.008-.114.015-.227.02-.339.078-2.057-.384-4.101-1.08-6.025a24.198 24.198 0 0 0-.864-2.072 18.33 18.33 0 0 0-.719-1.384c-2.025-4.001-4.051-8.003-6.078-12.002-1.994-3.93-3.984-7.86-5.995-11.779-.263-.511-.525-1.021-.793-1.528a19.351 19.351 0 0 1-.212-.404 20.83 20.83 0 0 1-.216-.451 32.995 32.995 0 0 1-.848-2.06 53.016 53.016 0 0 1-.657-1.855 46.116 46.116 0 0 1-.556-1.786 21.939 21.939 0 0 1-.38-1.489 13.22 13.22 0 0 1-.075-.397c-.031-.193-.053-.387-.083-.581a9.9 9.9 0 0 0-.062-.344 8.649 8.649 0 0 0-.28-1.002c-.212-.605-.44-1.206-.654-1.809-.146-.415-.285-.832-.431-1.246-.072-.2-.145-.399-.219-.598a216.173 216.173 0 0 0-1.32-3.409 825.764 825.764 0 0 0-1.647-4.131 1993.321 1993.321 0 0 0-3.836-9.47l-.007.062a98.63 98.63 0 0 1-.181 1.329 333.4 333.4 0 0 1-.414 2.809c-.537 3.546-1.092 7.089-1.63 10.634a437.054 437.054 0 0 0-.581 3.951c-.163 1.162-.328 2.327-.418 3.499a36.414 36.414 0 0 0-.099 3.098c.009.988.055 1.976.142 2.959.074.841.177 1.68.334 2.509.076.397.163.792.277 1.18.08.269.17.54.3.789.093.179.226.329.344.491.08.115.158.23.235.345.452.705.842 1.448 1.2 2.205.365.773.697 1.56 1.006 2.357.884 2.284 1.593 4.635 2.21 7.004.197.762.388 1.526.558 2.295a90.722 90.722 0 0 1 1.058 5.862c.278 1.836.518 3.678.736 5.521.48 4.039.858 8.088 1.205 12.141l.266 3.148c.043.503.087 1.007.128 1.511.013.178.024.356.033.534.05 1.052.05 2.104.031 3.156-.02 1.15-.061 2.3-.113 3.448a288.66 288.66 0 0 1-.574 9.016 706.382 706.382 0 0 1-1.683 18.434c-.11 1.067-.221 2.134-.337 3.201-.09.836-.184 1.672-.272 2.509-.056.551-.111 1.103-.162 1.655a252.089 252.089 0 0 0-.553 7.367 315.123 315.123 0 0 0-.332 6.517c-.074 1.83-.133 3.66-.157 5.491a72.443 72.443 0 0 0-.003 2.032c.006.503.016 1.009.063 1.51.04.415.102.827.171 1.237.075.451.161.899.251 1.346.223 1.119.476 2.234.73 3.347.478 2.075.969 4.148 1.449 6.224.413 1.805.821 3.612 1.201 5.424.25 1.189.499 2.38.702 3.579a51.15 51.15 0 0 1 .465 3.464c.24 2.381.317 4.777.286 7.17-.025 1.804-.118 3.606-.188 5.408-.011.32-.021.639-.027.958-.002.168-.004.336-.003.504.001.222.008.444.009.668-.001.232-.004.464-.009.698a154.689 154.689 0 0 1-.149 3.909 711.5 711.5 0 0 1-.305 5.832c-.186 3.327-.377 6.652-.562 9.979-.054.992-.107 1.985-.154 2.978-.047 1.002-.1 2.007-.042 3.01.069 1.207.274 2.402.608 3.562a19.686 19.686 0 0 0 .726 2.057c.213.48.472.94.707 1.409l.118.247c.107.237.21.476.293.723.124.366.21.745.251 1.129.021.205.031.41.022.615-.021.446-.122.885-.245 1.312-.152.531-.34 1.05-.515 1.574a24.98 24.98 0 0 0-.166.53 6.438 6.438 0 0 0-.187.811c-.041.281-.053.564.007.843.052.206.113.411.167.617.171.673.319 1.352.371 2.046a6.524 6.524 0 0 1-.445 2.927 3.418 3.418 0 0 1-.204.449 2.909 2.909 0 0 1-.537.682 4.314 4.314 0 0 1-1.181.769 7.66 7.66 0 0 1-1.785.538c-.732.135-1.48.191-2.225.178a7.676 7.676 0 0 1-1.555-.158 5.895 5.895 0 0 1-1.947-.822 5.03 5.03 0 0 1-1.152-1.021 3.707 3.707 0 0 1-.759-1.489 3.117 3.117 0 0 1-.082-.887c.009-.195.041-.386.059-.579.01-.116.018-.231.025-.348.024-.483.029-.968.023-1.452l-.12-.017c-.201-.03-.4-.073-.594-.133a3.74 3.74 0 0 1-1.894-1.326 3.46 3.46 0 0 1-.444-.753l-.017-.051a7.296 7.296 0 0 1-.144-.715c-.156-1.001-.126-2.075.335-2.996a3.237 3.237 0 0 1 .616-.857 3.272 3.272 0 0 1 1.116-.734 2.35 2.35 0 0 1 .358-.11.652.652 0 0 1 .108-.006l.033.003v-.003c-.027-.151-.027-.151-.05-.302a12.752 12.752 0 0 1-.103-.954c-.067-.946-.037-1.897.03-2.843.026-.384.061-.77.098-1.154.021-.203.046-.407.061-.611.005-.087.008-.174.009-.262.002-.705-.085-1.409-.185-2.106a48.699 48.699 0 0 0-.434-2.49 103.32 103.32 0 0 0-.787-3.605 142.549 142.549 0 0 0-.89-3.577l-.026-.101c-.707-2.352-1.411-4.704-2.115-7.057-.607-2.033-1.211-4.066-1.813-6.101-.414-1.401-.825-2.803-1.236-4.205-.127-.441-.257-.883-.381-1.325-.358-1.305-.594-2.64-.791-3.977a88.428 88.428 0 0 1-.574-5.079c-.253-2.886-.418-5.778-.551-8.672-.08-1.729-.145-3.459-.219-5.188-.016-.333-.031-.667-.05-1.001a24.278 24.278 0 0 0-.293-2.522 26.109 26.109 0 0 0-.794-3.297 35.939 35.939 0 0 0-.901-2.553c-.217-.552-.448-1.097-.678-1.643-.064-.157-.064-.157-.126-.315a20.93 20.93 0 0 1-1.032-3.923 27.31 27.31 0 0 1-.346-2.993l-.003-.047-.538-9.668c-.064-1.443-.132-2.886-.199-4.33a880.057 880.057 0 0 0-.439-8.434c-.06-1.034-.123-2.069-.194-3.102-.049-.699-.098-1.399-.177-2.095a73.72 73.72 0 0 0-.437-3.108 254.406 254.406 0 0 0-.742-4.447c-.685-3.934-1.425-7.857-2.138-11.786-.082-.456-.163-.912-.242-1.369a36.241 36.241 0 0 1-.467-4.588 8.512 8.512 0 0 1-1.742-2.605 9.894 9.894 0 0 1-.601-1.941c-.012-.058-.024-.116-.034-.175l-.01.05a9.973 9.973 0 0 1-.626 2.066 8.88 8.88 0 0 1-.641 1.217c.04.182.056.372.065.559.02.438-.003.877-.035 1.315a32.637 32.637 0 0 1-.157 1.562c-.212 1.763-.503 3.517-.806 5.267-.376 2.17-.783 4.335-1.193 6.499-.273 1.441-.548 2.881-.819 4.321-.137.729-.271 1.458-.402 2.188a68.966 68.966 0 0 0-.33 1.976c-.106.718-.194 1.44-.278 2.161-.09.78-.174 1.562-.253 2.344-.19 1.877-.362 3.755-.525 5.634a892.182 892.182 0 0 0-1.042 13.277c-.082 1.148-.164 2.297-.243 3.445-.05.717-.098 1.433-.15 2.148-.025.318-.05.635-.077.952-.115 1.266-.254 2.53-.474 3.781-.172.976-.391 1.948-.721 2.884-.177.5-.386.988-.629 1.459-.117.224-.237.445-.36.665-.07.125-.143.249-.209.378a5.512 5.512 0 0 0-.097.222c-.142.362-.252.735-.354 1.111-.136.5-.255 1.005-.367 1.513a72.43 72.43 0 0 0-.7 3.672 112.02 112.02 0 0 0-.633 4.308 98.359 98.359 0 0 0-.437 4.049 67.965 67.965 0 0 0-.14 1.908c-.036.602-.063 1.204-.095 1.806l-.073 1.188a157.238 157.238 0 0 1-.618 7.026 104.5 104.5 0 0 1-.317 2.559c-.1.727-.207 1.454-.342 2.175-.092.483-.211.959-.332 1.436-.144.575-.293 1.148-.442 1.721-.429 1.646-.863 3.29-1.3 4.933a2795.63 2795.63 0 0 1-2.498 9.339c-.446 1.652-.888 3.307-1.347 4.957-.061.21-.123.42-.182.631a30.173 30.173 0 0 0-.851 4.232c-.127 1.04-.193 2.096-.107 3.142.026.317.068.634.13.947.03.152.068.301.104.45a21.617 21.617 0 0 1 .222 1.018c.152.81.264 1.635.253 2.461a5.39 5.39 0 0 1-.062.783c-.013.086-.03.173-.051.258-.011.046-.021.092-.04.135-.03.07-.068.134-.102.201a2.94 2.94 0 0 0-.084.192 7.209 7.209 0 0 0-.243.79l-.031.121c.191.051.38.104.57.157a3.196 3.196 0 0 1 1.346.812c.143.144.271.3.386.467.586.846.716 1.923.622 2.925a8.08 8.08 0 0 1-.126.849l-.044.201c-.016.07-.03.137-.059.203-.113.26-.263.501-.432.727a3.762 3.762 0 0 1-2.596 1.472 1.043 1.043 0 0 1-.209.011c-.163-.023-.325-.052-.488-.081-.071.855-.134 1.713-.193 2.569l-.03.446-.008.063c-.014.076-.03.15-.047.225a3.259 3.259 0 0 1-.279.713 3.192 3.192 0 0 1-.241.379c-.553.747-1.396 1.221-2.261 1.515a8.674 8.674 0 0 1-1.037.273 10.364 10.364 0 0 1-1.883.192 12.529 12.529 0 0 1-3.078-.329 3.53 3.53 0 0 1-.352-.099 2.342 2.342 0 0 1-1.016-.733c-.298-.364-.503-.797-.654-1.24-.231-.679-.344-1.396-.408-2.108a20.496 20.496 0 0 1-.057-2.466c.031-1.067.121-2.132.236-3.194.064-.587.14-1.172.202-1.76a2.69 2.69 0 0 0 .017-.219c-.002-.138-.026-.274-.048-.41-.047-.259-.098-.516-.144-.775a8.713 8.713 0 0 1-.127-1.194 6.15 6.15 0 0 1 .532-2.717c.086-.193.187-.378.274-.569.041-.096.08-.191.116-.289.174-.474.294-.968.387-1.464.089-.476.154-.956.204-1.437.066-.628.105-1.259.127-1.892.03-.787.031-1.575.007-2.362-.243-6.029-.885-12.034-1.327-18.051a188.909 188.909 0 0 1-.255-4.188c-.242-4.974-.268-9.964.04-14.936.148-2.378.374-4.752.702-7.112.321-2.308.74-4.605 1.298-6.868a49.913 49.913 0 0 1 1.091-3.794c.137-.412.28-.822.429-1.23.136-.376.278-.752.412-1.129.035-.104.069-.206.101-.311.262-.862.443-1.748.597-2.636.171-.989.306-1.985.42-2.983a87.62 87.62 0 0 0 .279-2.843c.028-.355.054-.709.08-1.063.017-.247.034-.494.04-.742.015-.646.001-1.292-.016-1.937-.025-.964-.064-1.927-.108-2.889a433.545 433.545 0 0 0-.391-7.121 866.807 866.807 0 0 0-.815-11.728 690.223 690.223 0 0 0-1.014-12.097 313.397 313.397 0 0 0-.369-3.728c-.094-.885-.193-1.77-.284-2.654-.05-.511-.099-1.021-.146-1.531-.355-3.981-.576-7.972-.605-11.968-.011-1.453.004-2.906.054-4.358.038-1.085.093-2.169.19-3.251.048-.551.115-1.099.181-1.647l.491-3.968c.418-3.432.828-6.867 1.138-10.312.074-.81.14-1.623.198-2.436.036-.513.062-1.028.099-1.541.011-.143.024-.285.036-.427.036-.389.078-.777.128-1.165.189-1.442.47-2.871.812-4.284.354-1.463.774-2.91 1.253-4.337a48.622 48.622 0 0 1 1.429-3.762 32.269 32.269 0 0 1 1.934-3.843 16.717 16.717 0 0 0 .984-1.902 16.68 16.68 0 0 0 1.115-3.703c.086-.484.153-.973.191-1.463.028-.345.048-.692.039-1.038.002-.087.004-.086.01-.172.009-.125.014-.25.02-.374.038-1.083-.025-2.167-.127-3.244a57.293 57.293 0 0 0-.507-3.801c-.448-2.745-1.028-5.468-1.654-8.178-.164-.708-.331-1.417-.501-2.125-.131-.55-.268-1.1-.393-1.653-.03-.139-.057-.278-.082-.418a47.273 47.273 0 0 1-.311-2.082c-.099-.747-.191-1.495-.28-2.244-.116-.985-.228-1.97-.336-2.957-.257.619-.515 1.236-.773 1.854a664.42 664.42 0 0 1-3.305 7.78 253.336 253.336 0 0 1-1.471 3.333 67.673 67.673 0 0 1-.946 2.024c-.185.377-.384.745-.577 1.117-.095.19-.187.38-.278.57-.83 1.771-1.478 3.623-2.025 5.498l-.059.206-.034.126c-.015.199-.015.199-.032.397a19.28 19.28 0 0 1-.38 2.365c-.313 1.378-.776 2.718-1.33 4.017a39.83 39.83 0 0 1-1.078 2.292c-.375.741-.765 1.475-1.145 2.213l-.36.722a860.791 860.791 0 0 0-3.107 6.412 2832.192 2832.192 0 0 0-6.93 14.514c-.786 1.661-1.572 3.32-2.336 4.99-.082.183-.164.366-.242.551a5.587 5.587 0 0 0-.288 1.065c-.058.321-.099.645-.13.97a23.52 23.52 0 0 0-.069 3.096l.004.083c.032.09.061.18.09.269.037.117.07.234.103.352.396 1.528.395 3.136.204 4.696-.253 2.07-.804 4.093-1.51 6.052l-.065.175-.089.241c.025.797.057 1.596.086 2.394.056 1.499.129 2.996.165 4.496.008.518-.008 1.042-.114 1.551-.065.314-.165.628-.343.898a1.23 1.23 0 0 1-.581.49.916.916 0 0 1-.498.05 1.168 1.168 0 0 1-.802-.481 2.373 2.373 0 0 1-.359-.744 6.84 6.84 0 0 1-.234-1.203c-.024-.213-.041-.426-.06-.64-.02-.233-.043-.464-.066-.696a88.24 88.24 0 0 0-.485-3.8c-.038.341-.081.681-.122 1.022a302.81 302.81 0 0 1-.601 4.437c-.032.222-.066.444-.102.665a16.87 16.87 0 0 1-.275 1.334 7.63 7.63 0 0 1-.269.863c-.149.38-.344.768-.66 1.036a1.358 1.358 0 0 1-.816.324 1.577 1.577 0 0 1-.266.007 1.07 1.07 0 0 1-.407-.116 1.337 1.337 0 0 1-.584-.638 2.05 2.05 0 0 1-.16-1.102c.009-.082.024-.161.041-.24.014-.063.031-.125.043-.187.009-.044.016-.088.022-.132.058-.462.078-.927.099-1.391.029-.735.055-1.47.086-2.204.025-.545.054-1.09.099-1.634.03-.357.07-.713.104-1.069l.029-.398.007-.128-.047.176a80.302 80.302 0 0 0-.836 3.469c-.083.38-.159.763-.238 1.144l-.058.244a5.235 5.235 0 0 1-.433 1.12c-.34.625-.85 1.166-1.5 1.467a2.728 2.728 0 0 1-.353.134 1.446 1.446 0 0 1-.245.054c-.146.016-.298 0-.438-.048a.886.886 0 0 1-.359-.227 1.043 1.043 0 0 1-.177-.249c-.138-.268-.171-.578-.173-.876 0-.243.024-.486.056-.727.04-.298.094-.593.154-.888.056-.272.115-.542.169-.814.016-.091.033-.181.046-.273.013-.112.022-.224.034-.336.014-.118.03-.236.045-.353.085-.606.18-1.21.287-1.81.075-.424.153-.847.25-1.266l.034-.143-.119.38c-.154.466-.318.929-.535 1.37a4.008 4.008 0 0 1-.651.976 3.49 3.49 0 0 1-.295.275 2.44 2.44 0 0 1-.619.395 1.012 1.012 0 0 1-.379.079.784.784 0 0 1-.623-.297 1.042 1.042 0 0 1-.194-.433c-.016-.073-.02-.146-.029-.22l.001.025a2.8 2.8 0 0 1-.026-.177 6.417 6.417 0 0 1 .025-1.336c.063-.605.168-1.206.286-1.802.257-1.294.586-2.573.942-3.842.11-.395.225-.79.344-1.183l.098-.316c.032-.103.067-.203.094-.307.025-.101.047-.204.069-.306.141-.722.255-1.45.366-2.176l.086-.571c-.153.172-.31.338-.474.498-.31.301-.642.581-1.006.813-.551.351-1.195.596-1.858.533a2.174 2.174 0 0 1-.673-.175c-.068-.029-.14-.059-.201-.103a.971.971 0 0 1-.381-.722c-.02-.282.058-.563.172-.817.196-.433.494-.816.806-1.17a37.582 37.582 0 0 0 1.15-1.931c.08-.146.158-.294.233-.442.043-.084.083-.17.127-.253l.044-.072c.102-.145.226-.272.353-.394.126-.121.256-.237.388-.351.373-.325.76-.636 1.149-.942.794-.626 1.603-1.235 2.414-1.838.359-.268.721-.534 1.082-.8.121-.09.246-.18.365-.274a1.855 1.855 0 0 0 .312-.319c.023-.031.053-.064.068-.099.011-.024.014-.051.021-.075.009-.033.022-.081.029-.115.035-.146.066-.292.105-.437.023-.085.048-.169.073-.253.186-.578.419-1.14.655-1.699.333-.788.686-1.568 1.031-2.35.085-.198.085-.198.167-.395.679-1.677 1.199-3.414 1.658-5.162a78.94 78.94 0 0 0 1.188-5.259c.034-.18.063-.359.094-.539.072-.418.142-.837.215-1.256.166-.966.334-1.931.501-2.897.366-2.095.733-4.19 1.118-6.282.116-.632.234-1.264.356-1.896a43.313 43.313 0 0 1 .702-3.108 55.59 55.59 0 0 1 1.912-5.851 53.376 53.376 0 0 1 3.406-7.19 48.54 48.54 0 0 1 1.227-2.028c.253-.392.515-.78.775-1.168l.215-.334c.664-1.076 1.225-2.209 1.728-3.37a47.32 47.32 0 0 0 1.181-3.037 72.46 72.46 0 0 0 1.269-3.998c.447-1.555.853-3.122 1.227-4.695a128.842 128.842 0 0 0 1.531-7.36l.125-.722c.023-.134.047-.267.066-.401.002-.013.001-.027.002-.04l.01-.202c.019-.35.022-.386.046-.77.026-.405.056-.809.086-1.215.218-2.748.525-5.488.93-8.214.097-.652.199-1.302.309-1.952.085-.509.169-1.018.289-1.52.167-.701.389-1.389.665-2.056 1.217-2.949 3.463-5.415 6.179-7.058a14.08 14.08 0 0 1 1.987-1.006 8.982 8.982 0 0 1 1.863-.552c.529-.081 1.059-.151 1.589-.231a24.981 24.981 0 0 0 1.651-.309 24.058 24.058 0 0 0 2.157-.609c.995-.33 1.973-.708 2.942-1.109a79.048 79.048 0 0 0 2.179-.942c.662-.296 1.325-.59 1.962-.938 1.722-.943 3.303-2.248 4.266-3.986a7.54 7.54 0 0 0 .386-.806c.192-.468.335-.957.418-1.455l.019-.12a.927.927 0 0 1-.335.054.603.603 0 0 1-.584-.555l-.002-.029a1.65 1.65 0 0 1-.137.248 1.189 1.189 0 0 1-.275.291.867.867 0 0 1-.449.159.822.822 0 0 1-.157-.006c-.345-.047-.623-.293-.834-.554a4.243 4.243 0 0 1-.405-.621 8.046 8.046 0 0 1-.491-1.101zm21.002-.24a7.758 7.758 0 0 0-.718-1.077l-.024-.028a24.995 24.995 0 0 1-.325 1.228c-.045.147-.09.294-.138.44l-.099.289c-.035.094-.069.188-.107.282a6.143 6.143 0 0 1-.192.442.504.504 0 0 1-.655.2.548.548 0 0 1-.187-.151 6.15 6.15 0 0 1-.951-1.664l-.014-.042c-.229.42-.453.844-.65 1.279-.066.146-.13.293-.185.443-.041.11-.08.222-.1.337-.006.033-.006.066-.009.099l-.007.043c-.02.08-.052.155-.085.23-.044.096-.093.19-.161.27a.596.596 0 0 1-.366.214.538.538 0 0 1-.488-.173.698.698 0 0 1-.083-.111 1.07 1.07 0 0 1-.116-.331c-.03-.135-.046-.273-.063-.411-.04-.353-.073-.706-.114-1.057-.064-.528-.135-1.067-.327-1.567l-.017-.042-3.393 2.993-.041.033a.583.583 0 0 1-.189.083.511.511 0 0 1-.607-.427c-.013-.157-.014-.319-.02-.476l-.019-.422-.002-.034a16.08 16.08 0 0 1-.339.351c-.419.417-.852.819-1.295 1.211l-.099.086a.534.534 0 0 1-.232.115.512.512 0 0 1-.58-.335.537.537 0 0 1-.018-.258c.021-.085.048-.167.071-.251a7.79 7.79 0 0 0 .065-.243c.146-.57.277-1.143.401-1.719a40.812 40.812 0 0 0-1.951 2.59c-.016.024-.025.067-.034.089l-.027.067c-.028.057-.036.077-.068.133-.096.165-.252.335-.449.373a.517.517 0 0 1-.616-.424.628.628 0 0 1 .081-.377c.056-.099.118-.194.181-.289.035-.139.055-.282.073-.424.01-.092.019-.183.026-.276-.21.084-.412.183-.613.289-.133.069-.263.141-.394.214a6.744 6.744 0 0 1-.155 1.193c-.029.135-.063.27-.099.404a9.585 9.585 0 0 1-.188.589c-.598 1.65-1.714 3.062-3.062 4.166-.944.772-1.997 1.394-3.095 1.918-.366.17-.734.335-1.103.502a71.736 71.736 0 0 1-3.613 1.513 30.538 30.538 0 0 1-3.267 1.067c-.76.196-1.531.345-2.308.465-.335.052-.67.099-1.007.147-.211.03-.425.058-.637.094a7.64 7.64 0 0 0-.328.068 9.828 9.828 0 0 0-1.783.642 14.07 14.07 0 0 0-1.995 1.142c-2.142 1.462-3.92 3.482-4.97 5.865a12.859 12.859 0 0 0-.895 2.969c-.075.438-.149.876-.22 1.314a119.005 119.005 0 0 0-1.146 9.763 65.957 65.957 0 0 0-.117 1.885l-.006.059c-.297 1.82-.65 3.632-1.033 5.436a120.02 120.02 0 0 1-1.591 6.614c-.558 2.045-1.178 4.077-1.911 6.067-.567 1.543-1.199 3.068-1.968 4.523-.241.458-.497.908-.771 1.347-.251.4-.523.788-.782 1.184-.143.218-.284.438-.423.658a51.486 51.486 0 0 0-4.332 8.706 54.012 54.012 0 0 0-1.931 5.953 39.3 39.3 0 0 0-.387 1.62c-.151.698-.282 1.399-.414 2.1a350.34 350.34 0 0 0-.485 2.646c-.554 3.079-1.087 6.162-1.613 9.245a79.184 79.184 0 0 1-1.472 6.345c-.451 1.621-.962 3.228-1.624 4.774-.23.52-.463 1.038-.691 1.557-.2.464-.401.928-.589 1.396-.122.3-.24.602-.342.91a6.066 6.066 0 0 0-.104.356c-.04.163-.075.328-.117.492l-.022.076c-.025.089-.025.089-.061.175-.013.029-.03.054-.046.081a2.9 2.9 0 0 1-.616.69c-.13.103-.266.2-.4.299a281.317 281.317 0 0 0-1.533 1.137 99.324 99.324 0 0 0-2.164 1.663 26.58 26.58 0 0 0-.885.731 8.648 8.648 0 0 0-.349.316 2.015 2.015 0 0 0-.214.229c-.023.031-.034.069-.052.103-.057.118-.118.233-.179.349-.083.157-.169.313-.255.47-.33.582-.676 1.155-1.034 1.721l-.044.069-.046.062a8.038 8.038 0 0 0-.225.264 3.602 3.602 0 0 0-.406.606.935.935 0 0 0-.122.37v.009c.063.027.129.047.194.062.498.111 1.001-.117 1.408-.383a5.285 5.285 0 0 0 .801-.658 10.232 10.232 0 0 0 .914-1.042c.198-.257.384-.522.559-.795l.004-.007.065-.472.01-.054a.632.632 0 0 1 .065-.151.524.524 0 0 1 .252-.203c.047-.016.059-.017.107-.026.054-.004.054-.004.109-.002a.514.514 0 0 1 .457.409c.01.056.008.109.004.165l-.078.562a38.379 38.379 0 0 1-.714 4.624c-.045.232-.089.464-.159.688-.076.232-.146.464-.216.696a65.813 65.813 0 0 0-.781 2.855 39.896 39.896 0 0 0-.488 2.214 16.78 16.78 0 0 0-.221 1.514 6.786 6.786 0 0 0-.031.604c0 .16.007.319.033.477l.002.008c.145-.099.282-.209.402-.337.175-.188.313-.405.432-.632a7.15 7.15 0 0 0 .309-.7c.259-.682.444-1.387.65-2.087.062-.204.062-.203.126-.406.187-.568.389-1.134.659-1.669.082-.164.171-.325.272-.477.049-.073.099-.149.16-.214l.034-.378.007-.047a.51.51 0 0 1 .469-.414c.048-.001.048-.001.096.003a.512.512 0 0 1 .439.499c-.005.098-.007.098-.016.207-.021.237-.043.475-.066.712a77.667 77.667 0 0 1-.209 1.986c-.055.454-.11.912-.208 1.359-.029.137-.076.27-.111.405-.035.14-.066.28-.096.421a36.678 36.678 0 0 0-.296 1.609c-.076.459-.146.917-.204 1.378-.019.151-.031.303-.048.455l-.035.215c-.068.365-.15.726-.222 1.09l-.056.302a6.443 6.443 0 0 0-.101.843 1.49 1.49 0 0 0 .041.489l.005.014c.183-.046.358-.134.514-.238.396-.266.686-.664.883-1.094.059-.132.111-.267.157-.404.051-.159.093-.32.13-.483.06-.29.119-.581.18-.871a75.395 75.395 0 0 1 1.127-4.6c.127-.452.259-.901.41-1.345a9.31 9.31 0 0 1 .18-.482c.046-.107.095-.216.156-.315l-.009-.092-.009-.088.002-.133c.033-.111.031-.147.105-.24a.51.51 0 0 1 .867.132c.041.103.044.227.054.338a21.076 21.076 0 0 1 .001 3.949l-.065.635a46.605 46.605 0 0 0-.105 1.582c-.044.939-.069 1.879-.114 2.818-.021.367-.041.734-.09 1.099-.013.099-.03.198-.052.296-.015.064-.033.127-.044.191a2.012 2.012 0 0 0-.014.131c-.005.158.008.317.072.463a.393.393 0 0 0 .123.171.074.074 0 0 0 .039.016c.032 0 .065-.003.097-.006a.548.548 0 0 0 .156-.032.402.402 0 0 0 .153-.118c.077-.087.136-.188.187-.292.119-.234.204-.486.277-.736a10.723 10.723 0 0 0 .208-.853 19.533 19.533 0 0 0 .225-1.325c.097-.675.191-1.35.284-2.025.132-.97.262-1.939.378-2.911.052-.426.1-.853.141-1.281.025-.268.051-.538.051-.807v-.032c-.015-.035-.021-.071-.029-.108a.565.565 0 0 1 .112-.449c.025-.035.057-.062.088-.089.133-.119.331-.154.502-.14.399.03.795.292.904.69.036.126.06.257.084.386.028.146.053.292.077.438a87.004 87.004 0 0 1 .6 4.462c.034.318.066.639.094.958.015.174.028.347.047.52.016.144.034.287.055.429.051.32.112.65.251.945a.86.86 0 0 0 .106.18c.017.021.037.046.062.059a.207.207 0 0 0 .075.019.284.284 0 0 0 .053-.051c.064-.083.107-.179.142-.276.043-.12.073-.244.096-.368.086-.452.092-.917.08-1.376-.075-2.215-.166-4.43-.245-6.646-.005-.174-.012-.174.005-.345.003-.028.016-.056.024-.082.084-.233.171-.464.255-.696a29.91 29.91 0 0 0 1.083-3.803c.173-.833.303-1.675.37-2.523.093-1.202.066-2.439-.247-3.61a7.675 7.675 0 0 0-.192-.609l-.021-.072-.009-.074a26.133 26.133 0 0 1 .034-3.05c.048-.658.129-1.322.29-1.963a5.59 5.59 0 0 1 .404-1.112c.095-.214.193-.427.29-.64.296-.643.597-1.286.898-1.927.9-1.919 1.809-3.834 2.719-5.748 1.809-3.804 3.626-7.603 5.451-11.398.609-1.264 1.218-2.528 1.829-3.79.494-1.018.986-2.038 1.491-3.052.374-.747.769-1.483 1.151-2.227l.303-.598c.26-.528.514-1.057.751-1.595.382-.865.724-1.746 1.006-2.647.28-.894.5-1.806.645-2.732.075-.483.127-.969.162-1.457l.016-.096c.218-.807.47-1.606.74-2.397a35.992 35.992 0 0 1 1.312-3.347c.139-.303.283-.603.433-.899.127-.248.26-.491.388-.739.095-.19.189-.38.282-.571a112.27 112.27 0 0 0 1.39-3.036 346.151 346.151 0 0 0 1.539-3.535 819.696 819.696 0 0 0 3.82-9.07l.254-.616c.022-.037.04-.079.066-.115l.014-.017a1409.91 1409.91 0 0 1-1.806-18.482l.021-.197.094-.175.154-.125.189-.055.197.02.173.094.124.154.056.19c.122 1.318.244 2.636.368 3.953.477 5.042.963 10.083 1.502 15.119.191 1.782.388 3.565.606 5.343.083.675.169 1.35.264 2.022.079.559.159 1.12.276 1.673.125.546.26 1.091.39 1.635.124.518.246 1.036.368 1.554.763 3.278 1.477 6.573 1.971 9.903.177 1.199.327 2.403.415 3.611.074 1.018.108 2.043.033 3.061.003.095.002.19.001.284a15.96 15.96 0 0 1-.337 2.865 17.603 17.603 0 0 1-1.182 3.659c-.2.447-.421.885-.66 1.313-.171.307-.356.606-.533.909-.118.209-.118.208-.235.419a36.79 36.79 0 0 0-1.849 3.99 51.634 51.634 0 0 0-2.252 7.154 40.045 40.045 0 0 0-.679 3.584 30.847 30.847 0 0 0-.188 1.687c-.022.272-.036.544-.052.816-.018.286-.037.572-.057.857-.028.401-.06.802-.091 1.203-.291 3.474-.685 6.94-1.104 10.402-.237 1.96-.486 3.919-.723 5.88-.027.234-.052.467-.074.703a63.117 63.117 0 0 0-.222 3.985 107.46 107.46 0 0 0-.032 4.094c.036 3.51.215 7.019.511 10.516.085 1.011.18 2.02.285 3.029.094.905.196 1.809.29 2.714.063.614.125 1.23.185 1.846.378 3.938.711 7.881 1.017 11.825.308 3.954.592 7.91.846 11.867.184 2.871.356 5.743.486 8.619.044.969.083 1.937.108 2.907.02.775.04 1.552.004 2.326-.024.388-.054.777-.083 1.166-.141 1.773-.317 3.546-.583 5.305a36.417 36.417 0 0 1-.387 2.176 16.202 16.202 0 0 1-.508 1.902c-.16.454-.331.903-.493 1.356-.3.843-.579 1.692-.831 2.551a57.982 57.982 0 0 0-1.426 6.173 82.584 82.584 0 0 0-.916 6.99 111.223 111.223 0 0 0-.408 7.678c-.062 3.123-.01 6.247.131 9.366.063 1.376.144 2.75.237 4.124.44 6.21.912 12.418 1.368 18.627.023.55.026 1.101.019 1.652-.01.715-.038 1.429-.093 2.142a21.504 21.504 0 0 1-.218 1.861 11.254 11.254 0 0 1-.465 1.891 5.677 5.677 0 0 1-.197.486c-.063.135-.132.267-.196.401-.047.102-.047.101-.09.203a4.994 4.994 0 0 0-.389 1.588 6.47 6.47 0 0 0 .077 1.497c.05.307.111.61.166.916.032.193.064.389.063.587-.001.175-.026.35-.044.524l-.139 1.188c-.069.614-.133 1.23-.181 1.848a32.008 32.008 0 0 0-.092 1.639 23.68 23.68 0 0 0-.007 1.192 13.6 13.6 0 0 0 .153 1.902c.073.463.177.925.354 1.359.166.409.414.834.817 1.044.08.041.165.072.251.095.145.037.144.037.29.07.512.111 1.029.191 1.552.233.427.033.857.044 1.285.031.315-.01.63-.035.943-.073.251-.033.502-.073.749-.127a6.35 6.35 0 0 0 .891-.255 5.12 5.12 0 0 0 .31-.123c.645-.283 1.268-.723 1.565-1.383a2.26 2.26 0 0 0 .143-.447l.005-.028c.026-.422.055-.843.086-1.265a122.892 122.892 0 0 1 .482-5.209c.1-.867.213-1.732.352-2.594.107-.66.226-1.319.39-1.967.114-.447.244-.899.466-1.304.015-.06.026-.12.037-.181.067-.459.057-.926.022-1.388a14.57 14.57 0 0 0-.289-1.903c-.07-.327-.155-.651-.227-.977a10.493 10.493 0 0 1-.064-.346c-.193-1.188-.166-2.403-.049-3.597.134-1.374.39-2.735.718-4.075.084-.342.173-.682.268-1.021.067-.235.136-.469.202-.704.289-1.05.573-2.101.857-3.151.98-3.631 1.956-7.264 2.921-10.899.374-1.408.745-2.815 1.114-4.224.275-1.052.551-2.104.808-3.162.025-.105.049-.212.072-.318.165-.807.285-1.624.396-2.439.138-1.002.257-2.005.367-3.01.235-2.163.42-4.331.561-6.502.065-.996.111-1.993.168-2.989.019-.318.041-.635.063-.953.147-1.925.354-3.846.61-5.76.218-1.638.47-3.271.764-4.897.208-1.147.434-2.293.713-3.425.097-.393.2-.783.319-1.17a6.43 6.43 0 0 1 .391-1.024c.123-.228.253-.453.377-.68.117-.219.232-.438.337-.662.137-.287.259-.581.368-.881.209-.571.37-1.159.503-1.753.142-.633.255-1.273.35-1.915.219-1.482.348-2.973.452-4.467.112-1.64.227-3.281.345-4.921.321-4.433.659-8.865 1.043-13.291.163-1.884.336-3.769.526-5.65.135-1.333.279-2.666.459-3.993.116-.858.26-1.712.412-2.564.132-.732.266-1.465.404-2.196.386-2.06.783-4.119 1.17-6.178.174-.934.346-1.868.516-2.802.239-1.332.473-2.663.687-3.999.161-1.012.313-2.025.437-3.043a24.72 24.72 0 0 0 .183-2.087c-.063.068-.128.135-.192.201-.215.216-.44.42-.676.612-1.724 1.408-3.907 2.134-6.08 2.469a22.045 22.045 0 0 1-2.685.238 25.814 25.814 0 0 1-4.657-.296l-.046-.008a.578.578 0 0 1-.217-.095.514.514 0 0 1 .015-.821.507.507 0 0 1 .299-.091c.027 0 .053.005.079.007.159.029.318.052.478.074a24.714 24.714 0 0 0 4.348.204 20.065 20.065 0 0 0 2.583-.272c.295-.052.589-.111.881-.179 1.624-.381 3.22-1.037 4.5-2.131a7.559 7.559 0 0 0 1.225-1.331c.319-.444.588-.924.803-1.427.367-.85.578-1.754.687-2.671.018-.286.033-.571.049-.857.151-3.055.195-6.115.101-9.172a71.552 71.552 0 0 0-.22-3.902 45.39 45.39 0 0 0-.459-3.749 25.274 25.274 0 0 0-.47-2.232 14.75 14.75 0 0 0-.581-1.804 8.238 8.238 0 0 0-.514-1.072 4.338 4.338 0 0 0-.798-1.029l-.054-.059a.594.594 0 0 1-.099-.215.513.513 0 0 1 .25-.542.576.576 0 0 1 .227-.064l.079.003c.069.014.089.013.152.044a.695.695 0 0 1 .188.139 4.903 4.903 0 0 1 .548.625c.306.415.554.869.767 1.338.287.629.51 1.285.698 1.949.126.438.234.882.331 1.327.206.937.362 1.885.487 2.837a35.7 35.7 0 0 1 .186-1.455c.082-.554.177-1.107.292-1.655.077-.37.163-.738.26-1.103a12.79 12.79 0 0 1 .745-2.129c.308-.662.696-1.288 1.222-1.797l.056-.051c.021-.017.04-.035.062-.05a.507.507 0 0 1 .222-.082c.027-.003.053-.002.079-.003l.079.009a.508.508 0 0 1 .3.812c-.075.08-.156.154-.232.233-.423.462-.728 1.019-.974 1.592-.352.821-.591 1.688-.781 2.56-.291 1.326-.466 2.677-.59 4.029a65.05 65.05 0 0 0-.241 4.937c-.035 2.458.031 4.918.166 7.374.044.781.095 1.561.154 2.341.022.289.043.578.071.866a10.268 10.268 0 0 0 .248 1.377c.17.668.414 1.318.741 1.924.224.414.485.806.783 1.17a8.023 8.023 0 0 0 2.103 1.794c.721.43 1.497.761 2.297 1.015 1.297.411 2.652.623 4.007.712a25.044 25.044 0 0 0 4.551-.138c.26-.033.52-.068.777-.114l.079-.007c.026.001.054.001.08.004a.496.496 0 0 1 .333.198.513.513 0 0 1-.039.657.499.499 0 0 1-.2.127c-.025.009-.052.013-.077.021-.171.03-.343.055-.514.08a26.403 26.403 0 0 1-4.36.219 21.54 21.54 0 0 1-2.515-.233 16.59 16.59 0 0 1-.933-.169c-1.707-.358-3.39-.987-4.8-2.031l.002.034c.069.969.167 1.934.31 2.894.046.321.103.64.159.959.09.513.183 1.024.276 1.537.418 2.283.84 4.563 1.255 6.846.416 2.298.828 4.597 1.211 6.901.167 1 .329 2 .477 3.003.115.776.224 1.554.307 2.335.087.816.138 1.636.192 2.454.088 1.318.164 2.637.237 3.956.198 3.601.37 7.204.534 10.806l.025.563c.182 3.28.362 6.561.547 9.842a26.462 26.462 0 0 0 .429 3.313c.148.763.332 1.519.563 2.26.112.353.234.703.371 1.047.079.199.165.396.248.593.116.274.138.33.251.605.083.202.164.403.244.606a50.4 50.4 0 0 1 .568 1.533c.327.938.611 1.891.842 2.855.226.946.401 1.904.517 2.869.065.534.109 1.07.141 1.608.022.444.042.89.062 1.335.053 1.304.105 2.608.162 3.912.023.526.047 1.051.073 1.577.159 3.194.348 6.388.676 9.568.113 1.096.242 2.191.401 3.281.147.997.316 1.993.542 2.976.123.533.274 1.057.424 1.581.323 1.11.648 2.218.973 3.326 1.442 4.888 2.903 9.771 4.369 14.653a137.71 137.71 0 0 1 1.275 5.239c.215.968.419 1.939.599 2.913.15.81.286 1.624.382 2.442.077.651.139 1.314.088 1.969-.034.344-.07.687-.101 1.031-.1 1.167-.169 2.343-.071 3.511.023.289.057.576.104.862.036.221.084.441.123.662l.048.306c.175 1.245.285 2.499.371 3.752.06.859.106 1.719.131 2.58a30 30 0 0 1 .002 1.944c-.009.22-.021.44-.04.659-.015.167-.042.332-.055.499a3.076 3.076 0 0 0-.005.192c.004.127.018.252.043.376.145.717.633 1.318 1.199 1.758.096.074.195.144.296.211a4.89 4.89 0 0 0 2.347.785c.278.022.558.033.837.032a10.033 10.033 0 0 0 2.03-.208 6.508 6.508 0 0 0 1.235-.38c.297-.128.586-.285.839-.488.182-.145.347-.315.469-.514.076-.122.13-.252.181-.385a6.04 6.04 0 0 0 .208-.626c.099-.363.16-.736.18-1.113a6.2 6.2 0 0 0-.049-1.123c-.09-.706-.278-1.392-.463-2.079-.017-.069-.016-.069-.032-.139a3.162 3.162 0 0 1-.045-.376c-.034-.641.128-1.281.315-1.889.058-.189.119-.377.182-.563.103-.305.208-.608.308-.914.047-.145.091-.289.134-.435.099-.352.189-.712.206-1.079a3.094 3.094 0 0 0-.018-.462 4.235 4.235 0 0 0-.242-1.023 7.784 7.784 0 0 0-.321-.731c-.177-.355-.365-.705-.542-1.06a14.433 14.433 0 0 1-.298-.659 38.343 38.343 0 0 1-.213-.564 20.344 20.344 0 0 1-.602-1.941 17.173 17.173 0 0 1-.517-4.316c.004-.666.039-1.332.07-1.997.047-.995.101-1.99.155-2.985.202-3.671.417-7.342.619-11.014a730.5 730.5 0 0 0 .157-2.974c.058-1.148.116-2.297.163-3.445.035-.833.068-1.667.08-2.5.007-.421-.004-.841-.005-1.262.001-.244.005-.488.011-.732.034-1.148.092-2.296.138-3.443.017-.458.032-.915.046-1.373.033-1.34.042-2.682.006-4.023a55.729 55.729 0 0 0-.484-6.067 50.547 50.547 0 0 0-.338-2.115c-.108-.592-.228-1.183-.347-1.773-.187-.919-.382-1.838-.581-2.756-.685-3.15-1.436-6.286-2.165-9.427-.141-.613-.28-1.226-.419-1.84a85.133 85.133 0 0 1-.601-2.882c-.131-.704-.256-1.414-.312-2.13a24.446 24.446 0 0 1-.056-1.691c-.007-.712 0-1.425.011-2.139.031-2.026.102-4.051.19-6.075.102-2.361.231-4.72.386-7.078.159-2.41.347-4.82.586-7.224.068-.671.143-1.342.216-2.013.108-.988.213-1.976.317-2.964.416-4.015.809-8.032 1.172-12.052.291-3.229.558-6.46.789-9.695.19-2.66.359-5.323.459-7.99.037-.988.065-1.976.072-2.964a35.923 35.923 0 0 0-.071-2.843c-.041-.501-.084-1.003-.127-1.504-.113-1.337-.226-2.675-.341-4.012-.374-4.262-.778-8.521-1.313-12.765a151.322 151.322 0 0 0-.693-4.923 85.479 85.479 0 0 0-.811-4.434 66.793 66.793 0 0 0-1.008-4.041c-.561-2.011-1.197-4.006-1.974-5.945a31.293 31.293 0 0 0-.956-2.172 17.174 17.174 0 0 0-.926-1.683 8.756 8.756 0 0 0-.315-.463c-.064-.088-.134-.174-.198-.262a2.144 2.144 0 0 1-.089-.137 4.385 4.385 0 0 1-.37-.846c-.113-.34-.203-.688-.281-1.037-.245-1.099-.381-2.223-.473-3.344a38.952 38.952 0 0 1-.025-6.002c.091-1.193.26-2.379.426-3.563.227-1.616.471-3.229.715-4.841.497-3.252 1.005-6.502 1.497-9.754.169-1.124.338-2.248.492-3.374.053-.382.104-.766.149-1.15.027-.233.059-.468.066-.702.001-.038-.003-.075-.005-.114l-.006-.197-.005-.439v-.378a265.646 265.646 0 0 1 .477-14.971c.1-1.658.218-3.315.401-4.967.054-.493.116-.985.189-1.476a27.72 27.72 0 0 1 .116-.697c.019-.063.048-.123.072-.184l.137-.143c.18-.078.182-.079.379-.082l.184.072c.141.137.143.139.221.319l.003.198c-.031.175-.061.35-.089.526-.029.195-.058.391-.084.588-.217 1.664-.35 3.337-.462 5.01a221.395 221.395 0 0 0-.288 5.579 329.418 329.418 0 0 0-.231 8.658c-.007.48-.012.959-.013 1.438.752 1.838 1.5 3.677 2.248 5.517 1.157 2.853 2.311 5.707 3.45 8.567.399 1.002.796 2.005 1.188 3.01.314.806.628 1.611.923 2.424.147.405.282.814.424 1.222l.212.601c.174.476.352.949.519 1.427.037.111.075.224.111.337.106.345.191.693.252 1.047.045.263.075.529.119.793.022.124.048.247.074.369.141.632.317 1.256.505 1.876.184.603.38 1.203.587 1.797.208.6.426 1.196.658 1.787.245.621.504 1.238.799 1.835.088.175.183.346.273.52.146.276.289.554.432.831 1.724 3.347 3.426 6.705 5.129 10.062 2.414 4.756 4.821 9.513 7.229 14.271.072.124.141.25.21.376a24.258 24.258 0 0 1 1.775 4.231c.418 1.351.713 2.751.791 4.167.027.494.028.99-.004 1.483-.02.32-.059.636-.089.955l-.034.45a21.34 21.34 0 0 0-.026 2.146c.05 1.247.216 2.488.475 3.708.15.7.33 1.393.531 2.08.175.604.37 1.202.551 1.804.011.045.011.045.019.089.061.387.064.783.055 1.172-.01.428-.046.855-.082 1.282-.024.289-.049.579-.071.869-.02.267-.039.535-.056.803a34.93 34.93 0 0 0-.071 2.243c.003.508.022 1.017.08 1.521.038.315.086.638.196.938.026.075.058.149.1.216.018.03.039.062.067.084.021-.022.038-.047.056-.071.092-.141.155-.3.205-.459.076-.236.129-.48.172-.723.105-.593.143-1.192.185-1.79.021-.311.027-.375.05-.682l.056-.637c.067-.705.142-1.409.255-2.107.062-.378.133-.754.233-1.124.021-.075.042-.149.065-.223.106-.335.251-.704.557-.906a.734.734 0 0 1 .317-.11.737.737 0 0 1 .396.076c.099.048.19.114.268.193.11.109.196.241.267.379.105.203.179.422.24.642.077.274.134.555.182.836.097.553.16 1.112.214 1.672.029.305.055.61.086.914l.061.525c.116.905.259 1.807.448 2.7.14.663.303 1.326.523 1.969.122.354.26.711.455 1.031.053.086.11.17.178.244a.434.434 0 0 0 .124.102c.015.007.031.003.047.004.073-.011.129-.091.162-.149a.71.71 0 0 0 .056-.114l.029-.077a1.567 1.567 0 0 0 .051-.199c.012-.063.022-.127.03-.191.037-.307.029-.619.005-.927-.047-.602-.172-1.192-.275-1.785a62.324 62.324 0 0 1-.669-5.425c-.038-.49-.069-.981-.079-1.473a8.134 8.134 0 0 1 .003-.518c.005-.111.012-.223.034-.332a.68.68 0 0 1 .102-.265c.033-.043.069-.097.116-.128.087-.055.084-.06.178-.095.271-.097.572-.017.795.148.199.147.349.353.474.562.225.374.39.783.539 1.19.074.204.143.41.21.617.102.325.198.652.296.977a234.794 234.794 0 0 0 1.427 4.59c.053.171.104.342.164.511a5.969 5.969 0 0 0 .282.646c.05.097.103.193.157.287a3.79 3.79 0 0 0 .387.54c.034.037.069.075.105.11.19.182.451.357.726.281a.088.088 0 0 0 .027-.01c.028-.055.025-.13.024-.188a2.33 2.33 0 0 0-.046-.382c-.042-.22-.1-.436-.157-.652-.07-.257-.141-.513-.209-.77-.041-.165-.081-.33-.118-.497a7.896 7.896 0 0 1-.067-.341c-.049-.291-.087-.581-.13-.872-.054-.364-.065-.435-.122-.805-.226-1.419-.502-2.83-.885-4.215a24.636 24.636 0 0 0-.414-1.356c-.067-.201-.141-.399-.211-.599l-.016-.054a1.106 1.106 0 0 1-.036-.375.796.796 0 0 1 .485-.661 1.085 1.085 0 0 1 .498-.078c.084.01.164.028.242.061a.772.772 0 0 1 .156.088c.289.205.4.552.516.871.029.08.06.16.091.24.036.085.075.168.115.251.334.679.693 1.346 1.051 2.013a230.697 230.697 0 0 0 1.686 3.087c.053.092.106.184.162.275.111.175.226.349.365.503.07.078.147.159.241.208l.005.003.027-.019c.014-.022.026-.046.038-.069.129-.28.182-.593.194-.899.027-.649-.135-1.289-.368-1.889-.257-.633-.515-1.265-.768-1.899-.578-1.455-1.13-2.921-1.604-4.414a28.86 28.86 0 0 1-.855-3.246 12.471 12.471 0 0 1-.25-2.065 8.598 8.598 0 0 1-.001-.359.647.647 0 0 1 .078-.337.594.594 0 0 1 .083-.103.513.513 0 0 1 .794.129.636.636 0 0 1 .058.333 5.93 5.93 0 0 0 .011.557c.021.335.058.668.108.998.032.053.039.062.077.121l.118.174c.126.174.254.345.392.51.091.107.185.213.282.315a5.136 5.136 0 0 0 .593.535c.424.321.949.584 1.495.511a1.49 1.49 0 0 0 .378-.103l.019-.008a.631.631 0 0 0-.035-.182 1.828 1.828 0 0 0-.129-.281 4.71 4.71 0 0 0-.588-.788l-.04-.051a22.732 22.732 0 0 1-1.154-1.885 11.632 11.632 0 0 1-.391-.782 5.494 5.494 0 0 1-.261-.681 2.946 2.946 0 0 1-.085-.363c-.012-.076-.015-.153-.029-.23a1.045 1.045 0 0 0-.026-.096 1.999 1.999 0 0 0-.363-.595 5.223 5.223 0 0 0-.658-.647 11.295 11.295 0 0 0-1.433-1.013c-.5-.302-1.016-.576-1.532-.849-.465-.247-.932-.49-1.4-.73l-.099-.051c-.089-.058-.089-.058-.164-.134a5.818 5.818 0 0 1-.201-.267 14.566 14.566 0 0 1-1.08-1.815 19.985 19.985 0 0 1-.92-2.107c-.218-.585-.402-1.182-.599-1.774-.445-1.329-.904-2.651-1.353-3.978-.488-1.459-.966-2.92-1.418-4.391a117.616 117.616 0 0 1-2.002-7.298 89.39 89.39 0 0 1-1.108-5.364c-.078-.449-.152-.9-.233-1.349a53.179 53.179 0 0 0-1.526-6.246 50.635 50.635 0 0 0-2.131-5.611c-.82-1.825-1.744-3.599-2.721-5.344-.42-.751-.851-1.497-1.284-2.241-.244-.419-.491-.836-.735-1.255-.086-.151-.086-.151-.169-.303-.574-1.076-1.051-2.199-1.484-3.337a59.533 59.533 0 0 1-1.177-3.406c-.976-3.093-1.798-6.234-2.53-9.392a123.564 123.564 0 0 1-1.137-5.38 55.146 55.146 0 0 1-.302-1.758 23.616 23.616 0 0 1-.091-.65 6.391 6.391 0 0 1-.053-.617c-.002-.108.005-.216.012-.324l.065-1.06c.053-1.073.075-2.148.051-3.222a36.962 36.962 0 0 0-.15-2.62 33.016 33.016 0 0 0-.244-1.983 28.593 28.593 0 0 0-.564-2.753c-.662-2.546-1.733-5.028-3.407-7.077a13.978 13.978 0 0 0-.917-1.014 13 13 0 0 0-3.11-2.31 14.375 14.375 0 0 0-1-.484c-.066-.037-.13-.076-.196-.112a5.292 5.292 0 0 0-.902-.345c-.356-.105-.72-.187-1.087-.254a19.649 19.649 0 0 0-2.836-.286c-.439-.015-.879-.012-1.318-.021a14.403 14.403 0 0 1-.415-.02 14.993 14.993 0 0 1-3.105-.58 19.754 19.754 0 0 1-2.323-.842 20.01 20.01 0 0 1-3.422-1.888 15.483 15.483 0 0 1-2.413-2.034c-1.117-1.168-2.048-2.578-2.407-4.173a6.32 6.32 0 0 1-.131-1.957l.004-.046-.021-1.298zM62.03 306.42a41.28 41.28 0 0 0-.349 2.261 93.766 93.766 0 0 0-.382 3.464l.47.088c.341-.036.676-.132.982-.288a2.794 2.794 0 0 0 1.219-1.233l.014-.03.01-.02a6.847 6.847 0 0 0 .178-1.192c.036-.695-.059-1.448-.465-2.033a2.225 2.225 0 0 0-.595-.597 2.249 2.249 0 0 0-.549-.272c-.171-.053-.354-.101-.533-.148zm43.555.086a.217.217 0 0 1-.035.015c-.065.027-.135.041-.202.063a3.905 3.905 0 0 0-.162.065 2.35 2.35 0 0 0-.524.333 2.212 2.212 0 0 0-.322.334c-.52.667-.611 1.559-.535 2.376.02.219.053.436.094.652.021.106.038.214.068.318a1.54 1.54 0 0 0 .065.131c.32.588.852 1.056 1.482 1.284a2.86 2.86 0 0 0 .528.135 71.196 71.196 0 0 0-.29-4.263c-.048-.481-.1-.963-.167-1.443zm33.385-129.317c-.007-.005-.015-.008-.022-.011l.022.011zM83.398 73.692c.032.013.066.023.098.039a.51.51 0 0 1 .256.323c.024.092.015.117.009.211-.031.191-.061.383-.087.576a35.83 35.83 0 0 0-.208 2.169 75.532 75.532 0 0 0-.124 2.561 175.601 175.601 0 0 0-.081 6.369c.012 5.463.155 10.925.302 16.386.108 3.918.222 7.837.326 11.756.064 2.486.124 4.972.163 7.459.032 2.069.053 4.138.031 6.206a70.647 70.647 0 0 1-.111 3.653c-.026.412-.057.823-.101 1.233-.02.17-.041.341-.066.509-.013.089-.024.181-.045.269a.522.522 0 0 1-.147.276.51.51 0 0 1-.75-.052.512.512 0 0 1-.108-.295c-.001-.035.005-.07.008-.106.025-.14.046-.28.065-.42.1-.773.144-1.552.177-2.33.038-.915.056-1.832.065-2.748.026-2.392-.005-4.786-.047-7.178a940.694 940.694 0 0 0-.208-8.733c-.108-3.953-.224-7.906-.328-11.859-.03-1.182-.059-2.363-.087-3.545-.099-4.465-.186-8.932-.142-13.4.016-1.675.05-3.351.136-5.024.065-1.265.152-2.533.349-3.785l.019-.115c.026-.09.025-.116.077-.196a.512.512 0 0 1 .348-.222c.034-.005.071-.003.105-.005l.106.018zm7.204-4.773a.52.52 0 0 1 .385.304c.019.047.02.06.031.11.009.079.013.157.018.236l.043.517a42.04 42.04 0 0 0 .461 3.423c.148.844.326 1.684.533 2.515.161.636.339 1.268.54 1.892.163.504.342 1.004.539 1.496.17.424.355.842.555 1.252.141.285.29.567.448.842a12.13 12.13 0 0 0 .752 1.153c.726.974 1.649 1.835 2.789 2.29.248.1.504.179.765.237a5.48 5.48 0 0 0 1.271.121l.056.003c.05.007.063.007.111.024.09.03.171.085.231.159a.512.512 0 0 1-.165.776.703.703 0 0 1-.321.055l-.207-.002a6.235 6.235 0 0 1-1.195-.145 6.323 6.323 0 0 1-2.402-1.124 8.62 8.62 0 0 1-1.625-1.63 13.426 13.426 0 0 1-1.416-2.311 21.906 21.906 0 0 1-1.212-3.08c-.516-1.64-.886-3.324-1.158-5.02a42.426 42.426 0 0 1-.275-2.007 31.06 31.06 0 0 1-.14-1.555l-.001-.056a.506.506 0 0 1 .476-.48c.057-.001.057-.001.113.005zm-15.928-.005a.51.51 0 0 1 .472.585c-.015.226-.034.453-.053.679a43.107 43.107 0 0 1-.473 3.507 36.786 36.786 0 0 1-.549 2.586 30.306 30.306 0 0 1-.558 1.958c-.17.526-.356 1.048-.563 1.561a19.42 19.42 0 0 1-.497 1.136 15.57 15.57 0 0 1-.468.909c-.813 1.463-1.9 2.846-3.374 3.685a6.14 6.14 0 0 1-1.594.635 6.477 6.477 0 0 1-1.599.167l-.057-.004a.533.533 0 0 1-.3-.149.512.512 0 0 1 .054-.755.535.535 0 0 1 .26-.104c.138-.006.276-.001.413-.006a5.007 5.007 0 0 0 1.898-.449c1.351-.615 2.366-1.782 3.131-3.028a15.345 15.345 0 0 0 .805-1.513c.193-.417.37-.843.533-1.272.188-.496.359-.998.514-1.505.209-.684.392-1.375.555-2.072.201-.866.369-1.738.511-2.615.104-.65.193-1.303.267-1.958.056-.5.106-1.001.136-1.502l.007-.057a.603.603 0 0 1 .056-.161.518.518 0 0 1 .251-.222c.047-.019.06-.02.108-.031.057-.006.057-.006.114-.005zM87.984 3.09a.506.506 0 0 1-.73-.033c-.02-.023-.036-.051-.054-.076l.001.003a.064.064 0 0 0 .007.009l-.014-.016c-.024-.025-.047-.046-.071-.068a3.17 3.17 0 0 0-.491-.33c-.18-.1-.364-.191-.55-.276a15.318 15.318 0 0 0-1.72-.641 29.435 29.435 0 0 0-1.168-.34 10.265 10.265 0 0 0-.914-.214 6.662 6.662 0 0 0-1.323-.09c-1.195.033-2.362.368-3.446.859-.762.345-1.488.768-2.179 1.239A20.22 20.22 0 0 0 73.1 4.895a19.566 19.566 0 0 0-1.818 1.881l-.056.057c-.099.086-.098.086-.196.175l-.189.178c-.28.279-.546.572-.792.882-.7.884-1.249 1.879-1.69 2.915-.728 1.709-1.174 3.533-1.474 5.364a40.608 40.608 0 0 0-.444 4.118 57.316 57.316 0 0 0-.082 4.56c.071 3.817.45 7.623 1.013 11.397.075-.285.153-.569.233-.851.018-.061.043-.164.074-.227a.51.51 0 0 1 .883-.045.514.514 0 0 1 .077.255c.001.06-.007.095-.015.152a4.923 4.923 0 0 0-.036.455c-.021.81.091 1.621.233 2.418.194 1.091.465 2.168.764 3.234l.049.172.074.251c.041-.137.082-.274.126-.411.047-.146.097-.292.147-.437l.043-.116c.014-.037.027-.079.045-.117a.443.443 0 0 1 .03-.062l.001-.001.001-.001a.516.516 0 0 1 .381-.243.568.568 0 0 1 .199.019.518.518 0 0 1 .24.16.47.47 0 0 1 .097.175l.001.002a.596.596 0 0 1 .018.086l.011.067a8.966 8.966 0 0 0 .645 2.067c.15.329.321.664.563.935l.031.031.023.021c.019-.037.036-.077.053-.116.036-.096.065-.193.099-.289.056-.163.074-.213.132-.376a34.4 34.4 0 0 1 .208-.554c.392-.999.827-1.981 1.31-2.94.017-.031.017-.03.036-.061a.528.528 0 0 1 .352-.214.578.578 0 0 1 .242.028.512.512 0 0 1 .328.498c-.014.179-.041.359-.062.537-.13 1.032-.275 2.067-.513 3.081l-.006.025c.178-.099.357-.199.536-.296a14.4 14.4 0 0 1 .428-.22c.268-.129.544-.249.831-.329 0-.35-.01-.7-.024-1.05-.008-.188-.023-.375-.029-.562a.529.529 0 0 1 .095-.299.51.51 0 0 1 .914.237c.011.116.015.235.022.354.02.436.032.873.034 1.311l-.001.201c.158-.21.319-.416.48-.623.159-.202.159-.202.32-.403.317-.388.635-.782.999-1.128.098-.095.205-.191.323-.263l.009-.05c.012-.046.013-.058.033-.1a.484.484 0 0 1 .162-.206.51.51 0 0 1 .806.454c-.014.096-.016.095-.035.189-.16.783-.322 1.565-.498 2.345.106-.104.21-.21.313-.317.164-.174.327-.349.475-.537.075-.094.156-.193.204-.305.006-.013.008-.028.011-.042.01-.041.01-.041.023-.081l.024-.061a.561.561 0 0 1 .209-.236.522.522 0 0 1 .725.204c.081.149.095.328.114.493.032.295.048.591.066.888l.002.034 3.016-2.66.042-.033a.486.486 0 0 1 .25-.092.504.504 0 0 1 .31.075.957.957 0 0 1 .118.092 1.572 1.572 0 0 1 .315.392c.034.058.067.118.095.178.043.09.081.181.116.275.046.129.086.259.121.391.045.17.081.341.114.513.038.207.067.415.096.624l.008.065c.08-.168.165-.333.249-.499.108-.205.219-.411.33-.616.209-.377.423-.749.641-1.119l.075-.126a.56.56 0 0 1 .187-.182.511.511 0 0 1 .657.144.53.53 0 0 1 .097.295c-.003.075-.011.15-.014.225-.007.552.182 1.072.433 1.557l.031.058c.256-.789.457-1.598.619-2.413l.013-.051a.578.578 0 0 1 .102-.183.512.512 0 0 1 .528-.152c.103.031.191.1.276.165.234.179.443.391.632.616.304.359.561.755.799 1.16l.059-.229a16.805 16.805 0 0 1 .2-.649c.141-.425.298-.843.472-1.256l.015-.034c.02-.042.024-.054.052-.093a.516.516 0 0 1 .251-.187c.044-.015.057-.015.103-.023.053-.003.053-.003.107-.001.07.011.136.027.2.063a.513.513 0 0 1 .235.593c-.038.105-.085.205-.126.308-.058.145-.066.167-.115.293-.066.175-.13.351-.191.529l.036.107c.16.486.309.975.432 1.472.12.478.219.961.272 1.451l.003.042a9.277 9.277 0 0 0 1.21-2.264.505.505 0 0 1 .034-.097 5.968 5.968 0 0 0 .228-.853c.016-.086.026-.17.041-.255a.516.516 0 0 1 .526-.402.549.549 0 0 1 .174.043.509.509 0 0 1 .302.449v.012c.186-.61.365-1.223.541-1.838.263-.928.515-1.861.748-2.797l.06-.242a40.378 40.378 0 0 0 .421-1.875c.117-.583.225-1.171.267-1.766l.005-.047a.508.508 0 0 1 .441-.422c.048-.003.047-.003.095-.002a.505.505 0 0 1 .469.495 3.805 3.805 0 0 1-.02.283c-.088.871-.268 1.73-.461 2.583-.062.28-.128.559-.195.837.043.185.085.372.126.558l.027.127c.088-.334.174-.671.259-1.007.774-3.108 1.404-6.259 1.734-9.448.126-1.211.207-2.428.22-3.646a25.074 25.074 0 0 0-.159-3.241c-.096-.8-.252-1.591-.443-2.375a29.815 29.815 0 0 0-.551-1.977 31.82 31.82 0 0 0-1.337-3.504 28.649 28.649 0 0 0-1.604-3.068 23.324 23.324 0 0 0-1.07-1.618 18.913 18.913 0 0 0-.909-1.163 15.682 15.682 0 0 0-.827-.903 13.364 13.364 0 0 0-.727-.681c-.16-.138-.324-.272-.491-.4-1.053-.808-2.315-1.45-3.668-1.466a4.241 4.241 0 0 0-.617.037 4.595 4.595 0 0 0-1.055.276l-.08.023-.051.007z" />
    </g>
</svg>