<svg viewBox="0 0 168 320" width="168" height="320" fill-rule="evenodd" clip-rule="evenodd" stroke-linecap="round" stroke-linejoin="round" stroke-miterlimit="1.5">
    <g>
        <path data-bodypart="head" d="M70.441 17.651l-.416-.2a6.092 6.092 0 0 0-.79-.262l-.89-.121-.037-.565a66.016 66.016 0 0 1-.075-3.359c.005-.882.03-1.765.105-2.644.065-.747.16-1.499.373-2.22.074-.236.154-.471.234-.704.219-.634.452-1.267.762-1.861.291-.558.661-1.08 1.162-1.469.32-.249.681-.436 1.061-.574.511-.188 1.045-.292 1.582-.377l.079-.052c1.08-.698 2.246-1.266 3.443-1.736A21.897 21.897 0 0 1 82.235.169a21.556 21.556 0 0 1 2.858-.168c1.713.026 3.432.242 5.081.716 1.213.348 2.387.845 3.46 1.513a11.474 11.474 0 0 1 2.218 1.796c.915.958 1.653 2.08 2.169 3.299.201.475.37.965.497 1.466.079.308.145.621.181.938.028.25.016.5.005.752-.014.323-.033.647-.053.969-.059.947-.126 1.893-.194 2.839l-.209 2.712h-.093a6.09 6.09 0 0 0-2.18.45l-.038.019-.224-.349a7.873 7.873 0 0 0-1.283-1.225 11.174 11.174 0 0 0-2.389-1.382c-1.224-.53-2.522-.881-3.835-1.114a24.305 24.305 0 0 0-2.065-.274 32.387 32.387 0 0 0-2.625-.125h-.515c-.877.009-1.752.045-2.625.125-.692.063-1.382.152-2.067.274-1.266.225-2.519.56-3.707 1.058-.864.363-1.694.813-2.443 1.376a8.093 8.093 0 0 0-1.368 1.286l-.35.531z" />
        <path data-bodypart="eyes" d="M77.5 15c2.484 0 4.5 1.456 4.5 3.25s-2.016 3.25-4.5 3.25-4.5-1.456-4.5-3.25S75.016 15 77.5 15zm11.25 0c2.346 0 4.25 1.456 4.25 3.25s-1.904 3.25-4.25 3.25-4.25-1.456-4.25-3.25S86.404 15 88.75 15z" />
        <path data-bodypart="ears" d="M98.171 18.001l-.298 3.865-.032.396a3.613 3.613 0 0 1 .12.61 6.96 6.96 0 0 1 .046.824c0 .184-.005.367-.013.551-.013.248-.03.496-.048.742l-.017.158a22.855 22.855 0 0 1-.328 1.716 34.06 34.06 0 0 1-.539 2.154c-.085.295-.175.589-.284.876a2.438 2.438 0 0 1-.277.569 1.69 1.69 0 0 1-.403.384 3.06 3.06 0 0 1-.51.29 3.327 3.327 0 0 1-.371.141 3.372 3.372 0 0 1-.191.051c-.15.035-.31.06-.469.063l-.108.952a7.685 7.685 0 0 1-1.439-1.99c-.699-1.372-1.025-2.921-1.009-4.458.015-1.587.398-3.182 1.18-4.568.733-1.297 1.841-2.429 3.245-2.979.216-.085.438-.155.664-.21a5.112 5.112 0 0 1 1.081-.137zm-29.76.074l.574.082c.225.058.446.132.661.22 1.371.561 2.452 1.675 3.173 2.95.783 1.386 1.164 2.981 1.18 4.568.016 1.536-.31 3.086-1.009 4.458a7.743 7.743 0 0 1-1.239 1.784l-.097-.749-.061.003a2.406 2.406 0 0 1-.723-.114 3.174 3.174 0 0 1-.72-.325c-.229-.14-.456-.317-.602-.546a3.257 3.257 0 0 1-.295-.67 17.65 17.65 0 0 1-.342-1.128 38.729 38.729 0 0 1-.714-3.206 4.663 4.663 0 0 1-.06-.454c-.019-.277-.039-.554-.05-.831a9.72 9.72 0 0 1 .015-1.017 6.056 6.056 0 0 1 .068-.528c.073-.385.212-.791.485-1.078-.026-.257-.048-.515-.07-.772l-.174-2.647z" />
        <path data-bodypart="nose" d="M83.259 19.144c1.557-.02 1.97 1.742 2 1.957l1 4.493a2.042 2.042 0 0 1-.139.755 1.983 1.983 0 0 1-.261.457 1.689 1.689 0 0 1-1.305.676c-.879.012-1.758.034-2.635-.001a1.716 1.716 0 0 1-.389-.069 1.75 1.75 0 0 1-.872-.606 1.944 1.944 0 0 1-.4-1.227c.257-1.58.731-2.9 1.001-4.478.061-.307.442-1.938 2-1.957z" />
        <path data-bodypart="oral_cavity" d="M74.117 30.178l.157.24.022-.014c.445-.283.915-.527 1.393-.752a17.735 17.735 0 0 1 1.913-.765 17.499 17.499 0 0 1 4.731-.898 16.276 16.276 0 0 1 3.765.26c1.126.213 2.229.547 3.287.987a18.545 18.545 0 0 1 2.36 1.194l.142-.241.186.527c.534 1.076 1.281 2.066 2.239 2.831l-.085.758-.169.226-.014-.142a2.503 2.503 0 0 1-.007.151l-.003.023c-.786 1.13-1.961 1.963-3.22 2.54-.383.175-.775.329-1.174.464-.514.174-1.038.317-1.568.435-.611.136-1.23.238-1.851.314-.802.098-1.61.152-2.417.174-.954.025-1.91.008-2.862-.056-1.245-.084-2.489-.251-3.698-.56-.428-.11-.852-.238-1.268-.389a11.006 11.006 0 0 1-.94-.39 9.007 9.007 0 0 1-.795-.422 7.954 7.954 0 0 1-.576-.38 7.035 7.035 0 0 1-.488-.388c-.436-.382-.823-.826-1.097-1.339l-.036-.177v.008l-.136-1.052c.847-.708 1.525-1.632 2.019-2.629l.19-.538z" />
    </g>
    <path data-bodypart="neck_or_throat" d="M93.499 36.583l-.095.641c-.26 1.834-.509 3.671-.692 5.514a37.075 37.075 0 0 0-.147 1.825c-.011.231-.02.463-.019.695 0 .154.003.309.02.464a.505.505 0 0 0 .012.053c.034.098.081.189.133.277.072.123.153.241.238.355.26.352.553.678.853.996.46.485.944.947 1.437 1.397.537.488 1.086.961 1.646 1.422l2.309 1.784a38.184 38.184 0 0 1-5.444 1.84 39.964 39.964 0 0 1-9.483 1.236c-3.641.04-7.284-.395-10.826-1.237a46.702 46.702 0 0 1-5.191-1.555l-1.119-.474.485-.353a48.993 48.993 0 0 0 2.496-2.075 34.618 34.618 0 0 0 1.48-1.387c.34-.339.672-.686.986-1.05.214-.249.421-.504.601-.778.057-.086.11-.174.157-.265a.946.946 0 0 0 .082-.204c.008-.032.01-.067.012-.1.008-.096.011-.192.013-.288.005-.219 0-.44-.007-.659-.021-.66-.071-1.32-.125-1.979l-.638-5.917c.421.378.908.701 1.415.975.353.192.717.361 1.089.513.476.194.964.357 1.459.497 1.301.365 2.645.565 3.991.668a31.4 31.4 0 0 0 3.203.075 26.368 26.368 0 0 0 2.512-.18 20.232 20.232 0 0 0 2.146-.376c.613-.144 1.218-.32 1.808-.537 1.164-.427 2.286-1.021 3.203-1.813z" />
    <path data-bodypart="chest" d="M55.469 83.872l.201-4.26c.159-2.794.346-5.587.577-8.376.209-2.52.453-5.038.765-7.548.202-1.626.431-3.25.717-4.863l.694-3.205.154.008c.159.008.318.015.478.02.64.013 1.287-.013 1.911-.168.263-.066.518-.16.769-.264.318-.132.628-.282.933-.442a24.631 24.631 0 0 0 2.312-1.396l1.168-.848 1.129.464a47.26 47.26 0 0 0 5.933 1.824c3.555.845 7.209 1.288 10.864 1.265a41.017 41.017 0 0 0 9.925-1.268c1.951-.5 3.864-1.15 5.717-1.939l.427-.203 1.844 1.233c.603.368 1.222.718 1.863 1.018.457.213.93.408 1.425.507.901.181 1.824.127 2.732.054l.94-.076 1.022 3.457c.458 2.038.733 4.116.897 6.197a59.88 59.88 0 0 1 .159 6.312c-.007.204-.015.408-.025.613v10.875c-.521.973-1.43 1.73-2.4 2.294-.354.206-.721.389-1.096.555a14.81 14.81 0 0 1-1.339.51c-1.327.436-2.704.713-4.087.904a42.295 42.295 0 0 1-4.915.363 48.41 48.41 0 0 1-4.587-.102c-1.242-.092-2.483-.244-3.702-.507a17.497 17.497 0 0 1-1.256-.32 12.84 12.84 0 0 1-.924-.31c-.227-.087-.452-.18-.672-.282a8.713 8.713 0 0 1-.57-.29 6.446 6.446 0 0 1-.475-.293c-.392-.265-.761-.578-1.048-.957a2.337 2.337 0 0 1-.403-.782 2.466 2.466 0 0 1-.024-.118c-.006-.057-.003-.057-.004-.141l-.283-.626-.6.073-.114.614-.002.066v.006c-.014.14-.066.278-.125.405a2.657 2.657 0 0 1-.458.659c-.3.326-.66.596-1.037.828a9.148 9.148 0 0 1-1.613.763c-.315.116-.634.22-.956.313-.429.125-.864.232-1.302.325a25.2 25.2 0 0 1-1.544.277c-1.574.234-3.165.344-4.754.389a53.51 53.51 0 0 1-3.538-.013 37.416 37.416 0 0 1-3.491-.288 24.79 24.79 0 0 1-2.936-.559c-1.362-.352-2.711-.844-3.902-1.603a6.346 6.346 0 0 1-1.374-1.144z" />
    <path data-bodypart="upper_arm" d="M118.438 107.185l-.814-1.744c-.457-.941-.924-1.877-1.394-2.813L112 94.391V72.012l.007-.147c.041-.997.05-1.994.035-2.991a62.101 62.101 0 0 0-.123-3.111c-.156-2.389-.448-4.778-.974-7.116a25.425 25.425 0 0 0-.951-3.28l.743-.006c.605.021 1.21.088 1.805.207 2.011.399 3.86 1.367 5.532 2.529.582.404 1.146.833 1.686 1.293a18.921 18.921 0 0 1 4.437 5.522 20.998 20.998 0 0 1 1.473 3.533c.647 2.048 1.002 4.181 1.151 6.321.212 3.063.001 6.137-.426 9.173l-.02.074c.011.113.042.226.071.336.041.157.09.312.141.467.17.519.371 1.028.557 1.542a77.661 77.661 0 0 1 1.779 5.598c.318 1.164.605 2.338.84 3.521.124.626.234 1.255.323 1.888.048.336.084.674.131 1.012.02.137.042.276.066.413.091.485.21.966.363 1.436l.688 1.537-.545.411a33.88 33.88 0 0 1-8.473 4.081 30.541 30.541 0 0 1-3.245.84l-.633.09zm-82.461-6.845l.017-.046c.128-.45.228-.907.298-1.37.049-.329.081-.66.12-.99.03-.234.061-.467.094-.701a47.275 47.275 0 0 1 1.042-4.951 74.743 74.743 0 0 1 1.209-4.095c.194-.591.393-1.181.599-1.768.123-.351.253-.701.373-1.052.052-.154.1-.308.147-.461.05-.175.099-.351.129-.531.005-.029.005-.029.008-.06v-.001l-.021-.077a55.636 55.636 0 0 1-.357-2.793 45.986 45.986 0 0 1-.164-2.134 41.233 41.233 0 0 1-.057-1.793c-.033-3.501.407-7.05 1.68-10.329.169-.436.352-.866.552-1.289.305-.65.645-1.284 1.02-1.897a18.616 18.616 0 0 1 1.812-2.478 19.054 19.054 0 0 1 2.042-2.026 21.792 21.792 0 0 1 1.677-1.292c1.428-.996 2.981-1.846 4.665-2.312a11.532 11.532 0 0 1 3.082-.405l1.44.076-.017.057a51.035 51.035 0 0 0-.695 3.443c-.149.874-.283 1.75-.406 2.628a153.186 153.186 0 0 0-.785 6.858 272.913 272.913 0 0 0-.619 7.876c-.411 6.299-.664 12.609-.816 18.921l-.586 1.223a1002.303 1002.303 0 0 0-3.618 7.634l-.894 1.934-.699-.082a34.627 34.627 0 0 1-2.938-.607c-1.893-.481-3.754-1.141-5.472-2.078-1.141-.622-2.22-1.37-3.158-2.272l-.704-.76z" />
    <path data-bodypart="upper_abdomen" d="M111 84.53V96h.169l-.489 1.892c-.378 1.409-.768 2.813-1.149 4.221-.495 1.858-.969 3.729-1.276 5.887H58.22c-.257-1.982-.752-3.942-1.271-5.888-.323-1.2-.655-2.398-.981-3.598-.256-.95-.508-1.901-.744-2.857l-.157-.659.197-6.767.143-3.041c.651.559 1.417 1.014 2.207 1.384.251.117.505.227.762.329.276.11.555.211.837.306 1.308.438 2.665.723 4.03.918 1.67.239 3.359.344 5.045.369 1.109.016 2.218 0 3.326-.05a39.49 39.49 0 0 0 3.778-.335 24.815 24.815 0 0 0 2.539-.485 15.111 15.111 0 0 0 2.197-.716c.951-.4 1.874-.931 2.573-1.703.047-.053.092-.107.137-.161.054-.068.106-.137.156-.208l.023.034c.61.877 1.52 1.494 2.471 1.95.195.093.393.18.593.261.219.089.441.172.665.249.297.101.597.193.9.276.396.109.796.204 1.199.287.524.109 1.053.198 1.583.271.607.085 1.217.15 1.828.199.789.064 1.58.102 2.371.121.987.024 1.974.021 2.96-.007a43.906 43.906 0 0 0 3.988-.28c1.581-.189 3.157-.477 4.678-.955a15.882 15.882 0 0 0 1.839-.7c.177-.082.353-.167.526-.257.872-.451 1.706-1.021 2.382-1.757z" />
    <path data-bodypart="forearm" d="M35.594 101.399l.291.321c1.025 1.009 2.214 1.842 3.475 2.53 1.791.977 3.731 1.668 5.705 2.169a35.38 35.38 0 0 0 3.023.625l.438.051-.552 1.267a32.287 32.287 0 0 0-1.47 4.668l-.031.138-.021.096c-.039.294-.079.588-.122.882-.172 1.155-.377 2.31-.796 3.405-.313.821-.735 1.593-1.17 2.355-.434.758-.88 1.509-1.319 2.264-.29.503-.58 1.008-.867 1.513-.285.506-.566 1.014-.848 1.521-.125.222-.252.442-.379.664-1.198 2.053-2.49 4.048-3.824 6.016a234.013 234.013 0 0 1-4.788 6.767c-1.111 1.521-2.241 3.028-3.355 4.547-.182.252-.361.506-.545.756-.306.409-.624.809-.932 1.218a11.35 11.35 0 0 0-1.238 2.053c-.394.851-.68 1.749-.902 2.659l-.054.31-.837-.1c-2.807-.495-5.546-1.482-7.933-3.056a14.013 14.013 0 0 1-1.659-1.266l.57-.95c1.926-3.243 3.774-6.538 5.342-9.971a54.565 54.565 0 0 0 1.61-3.885 36.739 36.739 0 0 0 1.13-3.592c.187-.735.346-1.478.467-2.227.077-.484.133-.971.203-1.457a34.97 34.97 0 0 1 1.156-5.133 33.135 33.135 0 0 1 5.133-10.082c.224-.298.452-.594.683-.887.206-.263.417-.523.621-.789l.191-.257c.204-.26.424-.506.645-.751l.471-.528c.142-.164.284-.328.423-.494a14.99 14.99 0 0 0 1.302-1.814 9.692 9.692 0 0 0 .763-1.556zm96.214 1.26c.437.732.962 1.402 1.522 2.041.351.394.711.779 1.061 1.174.079.094.159.187.236.285.064.08.123.164.187.244l.187.222c.344.389.694.772 1.036 1.163a32.042 32.042 0 0 1 2.803 3.707 30.154 30.154 0 0 1 3.078 6.318c.422 1.205.77 2.436 1.045 3.683.14.635.256 1.274.366 1.914.044.242.044.241.091.481.084.41.174.819.274 1.226a40.66 40.66 0 0 0 1.266 4.107 65.684 65.684 0 0 0 1.595 3.959c1.366 3.11 2.923 6.135 4.554 9.114l1.489 2.661a30.18 30.18 0 0 1-7.78 3.83l-2.635.701a16.651 16.651 0 0 0-1.163-2.881 19.073 19.073 0 0 0-1.092-1.835c-.376-.563-.775-1.108-1.161-1.664-.135-.198-.263-.399-.399-.596-.48-.679-1.007-1.324-1.528-1.972-.66-.819-1.323-1.635-1.983-2.455-.384-.479-.769-.96-1.151-1.442-2.269-2.876-4.468-5.815-6.419-8.918a49.443 49.443 0 0 1-1.514-2.571c-.352-.642-.686-1.294-1.031-1.939-.191-.353-.384-.705-.578-1.058-.582-1.047-1.182-2.085-1.772-3.129-.111-.2-.221-.399-.33-.6a19.644 19.644 0 0 1-.496-.983c-.19-.41-.358-.832-.501-1.261-.371-1.122-.561-2.292-.723-3.459l-.027-.206a32.365 32.365 0 0 0-.751-2.438l-.749-1.937 3.128-.731a34.69 34.69 0 0 0 9.184-4.265l.681-.49z" />
    <path data-bodypart="mid_abdomen" d="M108.096 109l-.156.978a24.724 24.724 0 0 0-.116 2.494c.006.748.049 1.496.094 2.242a86.75 86.75 0 0 0 .728 7.183c.077.529.161 1.056.252 1.582.074.432.153.861.246 1.289.031.145.068.288.102.432.016.081.016.08.029.163.065.452.091.91.116 1.366.034.598.057 1.195.076 1.793.059 1.791.088 3.582.108 5.373l.003.306.258 1.409-3.246.477c-2.9.389-5.805.737-8.716 1.032-2.61.264-5.224.488-7.843.647-2.341.141-4.686.234-7.031.234-2.137 0-4.274-.077-6.407-.196a194.55 194.55 0 0 1-7.965-.621 283.67 283.67 0 0 1-8.48-.959l-3.582-.507.152-.7.185-.829a335 335 0 0 1 .067-4.074c.022-.904.046-1.809.086-2.713.018-.419.04-.84.07-1.259.019-.26.04-.521.079-.779.031-.201.087-.397.132-.595.039-.185.076-.37.113-.555a62.18 62.18 0 0 0 .542-3.46 87.047 87.047 0 0 0 .602-6.594c.033-.609.062-1.217.062-1.827 0-.693-.032-1.387-.091-2.078L58.373 109h49.723z" />
    <path data-bodypart="lower_abdomen" d="M110.016 136.591l1.177 6.438.051.256c-2.979.37-5.914 1.13-8.617 2.428a21.89 21.89 0 0 0-3.244 1.908 20.7 20.7 0 0 0-4.524 4.404c-2.053 2.719-3.424 5.908-4.164 9.23-.772-1.058-1.706-1.939-2.801-2.592a8.52 8.52 0 0 0-.935-.483 8.068 8.068 0 0 0-1.213-.423 8.082 8.082 0 0 0-1.875-.256h-.242a8.082 8.082 0 0 0-1.875.256c-.414.108-.82.25-1.213.423a8.52 8.52 0 0 0-.935.483c-1.564.933-2.799 2.329-3.665 3.953l-.293-1.07c-1.246-3.765-3.172-7.353-5.893-10.261-.421-.45-.861-.884-1.319-1.298-.663-.6-1.364-1.16-2.098-1.673a21.295 21.295 0 0 0-3.35-1.911c-2.005-.913-4.145-1.51-6.322-1.83l-1.991-.153 1.678-7.724 3.668.52c2.832.362 5.669.686 8.51.962 2.664.258 5.333.475 8.006.624 2.152.12 4.308.198 6.463.198 2.145 0 4.289-.077 6.43-.198 2.423-.136 4.842-.33 7.257-.561 2.641-.253 5.278-.552 7.911-.885l5.418-.765z" />
    <path data-bodypart="hand" d="M14.388 146.596l1.479 1.194c2.463 1.652 5.292 2.706 8.199 3.246l1.075.133-.325 1.849c-.066.541-.116 1.084-.175 1.626l-.075.65c-.267 2.119-.646 4.224-1.197 6.289a32.84 32.84 0 0 1-.615 2.051 21.042 21.042 0 0 1-.644 1.691l-.07.145a29.264 29.264 0 0 0-.639 1.672c-.05.147-.098.295-.141.443-.02.072-.044.147-.058.221-.019.12-.022.243-.027.363-.007.185-.01.371-.012.556-.005.519.001 1.037.006 1.555.021 1.49.056 2.98.076 4.471.004.396.008.791.006 1.186-.002.288 0 .581-.029.87a3.919 3.919 0 0 1-.095.524c-.047.187-.11.372-.2.544a1.467 1.467 0 0 1-.396.485c-.142.111-.306.19-.48.24a1.583 1.583 0 0 1-.484.064 1.074 1.074 0 0 1-.219-.034c-.424-.112-.726-.473-.935-.84a3.552 3.552 0 0 1-.195-.404l-.026-.066c-.015-.043-.03-.08-.04-.126-.006-.026-.007-.051-.01-.076l-.378-7.678a3.853 3.853 0 0 0-.012-.415 2.262 2.262 0 0 0-.066-.385.856.856 0 0 0-.084-.208.582.582 0 0 0-.054.079c-.127.219-.193.468-.246.713l-.012.061c-.02.119-.031.239-.047.357-.02.146-.027.187-.048.333-.035.227-.072.455-.111.681-.503 2.827-1.317 5.586-2.123 8.338-.055.191-.11.382-.167.574-.05.165-.102.331-.159.494-.042.12-.086.24-.135.357-.174.426-.4.861-.775 1.143a1.532 1.532 0 0 1-.622.276 2.3 2.3 0 0 1-.543.034 2.507 2.507 0 0 1-.275-.023 1.108 1.108 0 0 1-.36-.124 1.219 1.219 0 0 1-.467-.493 2.181 2.181 0 0 1-.223-.792 5.153 5.153 0 0 1 .026-1.197l.005-.032 1.664-9.862c.034-.135.079-.269.116-.403.032-.123.061-.247.085-.371l.002-.011a7.647 7.647 0 0 0-.382.633c-.145.264-.281.535-.41.808a34.488 34.488 0 0 0-.855 1.975 88.333 88.333 0 0 0-1.68 4.616c-.143.424-.284.847-.425 1.272-.096.292-.19.586-.291.877-.032.09-.067.18-.103.268a3.346 3.346 0 0 1-.526.876 2.22 2.22 0 0 1-.57.474 2.382 2.382 0 0 1-1.251.295 2.4 2.4 0 0 1-.478-.048 1.13 1.13 0 0 1-.615-.381c-.283-.338-.361-.802-.368-1.232a4.482 4.482 0 0 1 .031-.571c.014-.131.036-.261.061-.391l.005-.026c.144-.556.338-1.098.509-1.646a3638.822 3638.822 0 0 1 2.205-7.083c.17-.544.339-1.09.516-1.633.017-.051.018-.051.038-.099.057-.117.11-.237.164-.355l.063-.15.031-.074c-.103.125-.201.252-.298.382-.47.625-.908 1.274-1.336 1.929a110.062 110.062 0 0 0-1.78 2.856c-.259.446-.509.896-.756 1.349-.015.029-.023.061-.035.092l-.059.138-.127.273c-.197.387-.421.764-.718 1.084-.18.192-.386.362-.623.478-.195.096-.41.152-.628.153a1.493 1.493 0 0 1-.774-.222 1.461 1.461 0 0 1-.391-.335c-.2-.252-.3-.565-.334-.882a3.313 3.313 0 0 1 .022-.79c.05-.363.14-.719.248-1.069.22-.717.515-1.41.824-2.093.183-.404.375-.804.555-1.208.064-.148.122-.298.185-.446.334-.756.723-1.488 1.116-2.215a45.43 45.43 0 0 1 1.287-2.248c.097-.157.2-.31.3-.464.022-.039.041-.077.061-.117.116-.257.201-.527.281-.798.089-.302.167-.608.24-.914.193-.81.351-1.629.475-2.452-.157.193-.311.39-.467.586-.449.576-.892 1.159-1.349 1.732l-.192.231c-.253.277-.58.474-.922.621-.743.319-1.606.421-2.39.2a2.895 2.895 0 0 1-.51-.198 1.79 1.79 0 0 1-.31-.193 1.074 1.074 0 0 1-.396-.78c-.016-.356.128-.698.305-1 .157-.264.345-.51.542-.745.264-.313.547-.608.834-.899.223-.225.449-.447.669-.673.072-.077.144-.153.212-.233.181-.222.311-.479.436-.737.181-.384.346-.776.524-1.162.255-.541.54-1.074.936-1.526a4.48 4.48 0 0 1 .516-.487 11.9 11.9 0 0 1 .619-.48 40.722 40.722 0 0 1 1.962-1.332 86.388 86.388 0 0 1 1.577-.987l.5-.304c.067-.04.133-.081.202-.121.103-.057.213-.105.32-.155.199-.091.4-.174.604-.251a8.26 8.26 0 0 1 1.595-.423 5.18 5.18 0 0 1 .173-.361c.241-.47.511-.924.78-1.379l1.081-1.798zm138.702-.759l1.022 1.825c.135.242.268.486.4.73.105.199.211.397.311.598.067.134.133.271.193.409.119.026.239.052.358.082a8.954 8.954 0 0 1 1.804.683c.235.14.468.282.702.423a65.61 65.61 0 0 1 2.92 1.88c.336.232.668.469.99.72.31.242.611.495.86.801.595.73.928 1.624 1.315 2.47.048.102.097.204.148.304.087.164.177.329.29.478.078.104.17.197.259.292.263.27.532.535.797.804.264.272.526.548.767.842.174.213.34.434.481.673.177.3.321.644.304 1a1.062 1.062 0 0 1-.396.779 1.651 1.651 0 0 1-.31.192 2.845 2.845 0 0 1-.583.218c-.725.185-1.508.099-2.2-.172a3.036 3.036 0 0 1-.85-.488c-.144-.121-.261-.267-.38-.412-.457-.571-.899-1.155-1.349-1.731l-.035-.043a36.91 36.91 0 0 0 .878 2.325c.141.339.287.68.464 1.004.048.09.105.173.161.257.06.09.084.13.144.223.115.185.228.372.341.56.39.661.765 1.331 1.128 2.007a34.2 34.2 0 0 1 .889 1.75c.061.132.121.264.176.398.044.107.086.215.132.321.181.404.371.805.556 1.208.237.53.468 1.063.663 1.609.126.355.239.715.322 1.083.112.494.183 1.03.062 1.532-.053.22-.147.43-.288.608a1.415 1.415 0 0 1-.391.336c-.26.155-.56.24-.865.218a1.539 1.539 0 0 1-.68-.227 2.584 2.584 0 0 1-.673-.629 5.524 5.524 0 0 1-.746-1.357c-.021-.056-.058-.107-.086-.159-.039-.069-.076-.139-.113-.208-.146-.263-.151-.271-.304-.543-.11-.194-.22-.388-.334-.579-.134-.226-.273-.449-.411-.672a98.037 98.037 0 0 0-.982-1.57c-.308-.48-.62-.957-.942-1.427a22.532 22.532 0 0 0-.982-1.339l-.015-.019c.082.202.171.4.266.596.065.168.126.337.188.506 1.006 2.755 2.004 5.512 3.004 8.269l.58 1.601c.045.158.067.322.086.485a4.98 4.98 0 0 1 .031.572c-.007.452-.095.943-.415 1.283a1.091 1.091 0 0 1-.353.255 1.291 1.291 0 0 1-.366.1c-.111.01-.11.01-.221.017a2.837 2.837 0 0 1-.801-.068 2.163 2.163 0 0 1-.744-.344c-.501-.366-.802-.924-1.01-1.497-.165-.48-.33-.96-.5-1.44-.673-1.894-1.376-3.78-2.181-5.622a28.854 28.854 0 0 0-.884-1.864c-.238-.455-.491-.912-.815-1.313l-.003-.005c.041.173.09.344.135.516l.031.13c.793 3.523 1.537 7.058 2.304 10.586.014.096.025.192.034.289.032.373.037.751-.026 1.121a1.96 1.96 0 0 1-.231.679c-.146.247-.37.441-.645.525a1.92 1.92 0 0 1-.523.061 2.032 2.032 0 0 1-.544-.06 1.513 1.513 0 0 1-.565-.287c-.367-.298-.591-.744-.759-1.177a8.74 8.74 0 0 1-.161-.445 16.143 16.143 0 0 1-.16-.516c-.06-.209-.122-.416-.186-.622-.276-.895-.56-1.787-.836-2.682a79.31 79.31 0 0 1-1.165-4.116c-.26-1.047-.491-2.103-.624-3.174a1.565 1.565 0 0 0-.065-.145 1.145 1.145 0 0 0-.224-.315l-.009-.008-.005-.005c-.014.065-.023.13-.033.195-.03.262-.037.526-.029.789l-.118 7.794c-.003.027-.003.056-.008.084-.018.097-.064.193-.103.283a3.515 3.515 0 0 1-.127.262c-.21.39-.521.783-.969.901-.071.019-.145.03-.219.034a1.599 1.599 0 0 1-.901-.258 1.398 1.398 0 0 1-.379-.395 2.217 2.217 0 0 1-.278-.681c-.093-.376-.121-.76-.146-1.145-.025-.38-.046-.76-.067-1.139-.081-1.549-.152-3.099-.232-4.646-.025-.473-.052-.945-.08-1.417-.03-.475-.057-.951-.11-1.423a3.664 3.664 0 0 0-.021-.146 3.019 3.019 0 0 0-.118-.386 11.233 11.233 0 0 0-.191-.489 25.367 25.367 0 0 0-.677-1.472c-.029-.058-.059-.118-.091-.176a5.435 5.435 0 0 1-.105-.183c-.057-.105-.056-.105-.111-.211-.559-1.111-.972-2.294-1.312-3.488a35.214 35.214 0 0 1-1.022-5.056 42.063 42.063 0 0 1-.151-1.279c-.031-.309-.061-.619-.097-.929a33.895 33.895 0 0 0-.095-.713l-.451-2.063 2.237-.546c3-.92 5.861-2.293 8.444-4.054z" />
    <path data-bodypart="sexual_organs" d="M82.097 178.284l-.869-.261a7.41 7.41 0 0 1-.748-.342c-1.716-.902-3.038-2.438-3.869-4.172-.746-1.557-1.111-3.285-1.111-5.009 0-1.762.381-3.53 1.162-5.113.848-1.722 2.185-3.239 3.91-4.116.275-.139.558-.262.848-.365a6.948 6.948 0 0 1 2.225-.405h.21a6.948 6.948 0 0 1 2.225.405c.29.103.573.226.848.365 1.725.877 3.062 2.394 3.91 4.116.781 1.583 1.162 3.351 1.162 5.113 0 1.724-.365 3.452-1.111 5.009-.831 1.734-2.153 3.27-3.869 4.172a7.124 7.124 0 0 1-1.827.666l-.441.047-.089-.593a64.078 64.078 0 0 1-.386-3.152 23.848 23.848 0 0 1-.078-1.068 7.434 7.434 0 0 1-.007-.804l-.001.015-.248-4.552h-.79l-.024.407a107.793 107.793 0 0 1-.768 7.98l-.264 1.657z" />
    <path data-bodypart="thigh" d="M54.462 145.401c1.745.061 3.483.344 5.169.829a20.803 20.803 0 0 1 5.024 2.182 20.154 20.154 0 0 1 3.883 3.052c2.939 2.944 4.972 6.701 6.24 10.639l.54 1.934-.144.334a12.539 12.539 0 0 0-.511 2.063c-.509 3.184.167 6.597 2.066 9.229.262.362.547.708.853 1.034.408.435.855.834 1.338 1.186a8.668 8.668 0 0 0 1.837 1.028l1.183.354-.183 1.15c-.402 2.208-.901 4.396-1.434 6.575a378.692 378.692 0 0 1-1.221 4.828c-.606 2.342-1.223 4.682-1.83 7.024-.27 1.062-.528 2.126-.773 3.194a152.9 152.9 0 0 0-1.681 8.512l-1.178 8.09c-2.778-2.231-6.127-3.671-9.569-4.558a35.272 35.272 0 0 0-1.9-.434c-.7-.141-1.404-.261-2.111-.364a43.064 43.064 0 0 0-2.73-.304 47.377 47.377 0 0 0-4.16-.143l-.455.02.004-2.341a54.546 54.546 0 0 0-.15-3.454c-.04-.494-.098-.986-.154-1.479-.166-1.415-.343-2.828-.512-4.243a264.138 264.138 0 0 1-.654-6.156 235.162 235.162 0 0 1-.666-9.151 282.026 282.026 0 0 1-.161-3.436c-.036-.911-.07-1.821-.086-2.733a89.552 89.552 0 0 1 .001-3.278c.058-3.229.28-6.453.627-9.663.211-1.964.474-3.921.764-5.874.186-1.225.385-2.45.568-3.677.042-.285.084-.571.116-.858.016-.148.033-.297.033-.447-.001-.039-.005-.08-.007-.119v-.128c.022-.415.094-.828.163-1.239.084-.51.178-1.02.274-1.528.292-1.544.608-3.084.93-4.622l.657-3.028zm56.981-1.117l.442 2.222c.23 1.105.465 2.208.729 3.305.128.535.272 1.067.411 1.601.066.259.131.517.194.775.423 1.768.798 3.548 1.158 5.329a292.3 292.3 0 0 1 1.176 6.164c.361 1.998.702 3.998 1.01 6.005.112.736.22 1.472.318 2.21.094.703.181 1.408.248 2.114.061.651.095 1.304.132 1.957.046.821.086 1.642.12 2.464a202 202 0 0 1 .171 7.784c.009 3.194-.048 6.389-.174 9.581a177.761 177.761 0 0 1-.435 7.476c-.037.451-.076.903-.12 1.354-.034.359-.073.717-.108 1.075a32 32 0 0 0-.051.629c-.134 1.921-.137 3.851-.076 5.776l.008.126-1.087-.226a27.306 27.306 0 0 0-4.675-.372 26.274 26.274 0 0 0-4.924.522 27.23 27.23 0 0 0-8.032 3.041l-2.246 1.441-.297-1.325a607.166 607.166 0 0 0-2.218-9.303 469.515 469.515 0 0 0-1.056-4.204 233.304 233.304 0 0 0-.834-3.189 107.966 107.966 0 0 0-1.099-3.778 103.733 103.733 0 0 0-1.811-5.283c-.572-1.539-1.179-3.064-1.767-4.598-.126-.334-.25-.669-.373-1.005a33.746 33.746 0 0 1-.849-2.638l-.413-1.928a6.756 6.756 0 0 0 1.828-.475 8.668 8.668 0 0 0 1.837-1.028c.45-.328.869-.697 1.255-1.098.31-.322.598-.664.863-1.023 1.955-2.643 2.654-6.104 2.139-9.328-.112-.7-.282-1.391-.511-2.063a10.41 10.41 0 0 0-.853-1.891l.116-.739c.786-3.6 2.321-7.065 4.696-9.903a19.671 19.671 0 0 1 2.354-2.371 20.494 20.494 0 0 1 4.232-2.761c2.689-1.323 5.623-2.08 8.572-2.422z" />
    <path data-bodypart="knee" d="M52.713 213.848l.134-.008a45.145 45.145 0 0 1 3.945.1 42.68 42.68 0 0 1 2.624.263 38.027 38.027 0 0 1 4.14.778c3.443.858 6.802 2.272 9.597 4.491l.355.322-.094.835c-.018.168-.037.336-.052.505-.016.19-.031.38-.05.569-.023.195-.048.388-.075.581-.255 1.708-.739 3.371-1.299 5-.614 1.786-1.318 3.54-1.997 5.302-.15.396-.3.791-.447 1.187a58.83 58.83 0 0 0-.582 1.636c-.14.416-.279.834-.399 1.256l-.089.356c-2.581.001-5.155-.16-7.698-.549a35.573 35.573 0 0 1-3.769-.776 25.28 25.28 0 0 1-3.363-1.136 17.91 17.91 0 0 1-2.436-1.246l-.566-.421.606-2.106c.292-1.352.49-2.72.668-4.09.103-.814.201-1.629.304-2.443.036-.284.077-.568.111-.852.134-1.182.204-2.373.265-3.561.084-1.635.136-3.27.165-4.906l.002-1.087zm43.157 3.853l2.677-1.735a26.367 26.367 0 0 1 6.772-2.657 24.962 24.962 0 0 1 6.61-.663c1.373.046 2.742.205 4.091.468l.644.153.285 4.325c.063.612.145 1.221.226 1.831.099.745.196 1.491.297 2.236.258 1.904.538 3.808.892 5.697.151.8.314 1.598.506 2.389.149.61.312 1.219.515 1.813l.022.061-1.034.637c-.275.138-.555.267-.837.391-.435.19-.878.365-1.325.526-1.081.392-2.19.708-3.309.973a44.167 44.167 0 0 1-3.641.696 59.457 59.457 0 0 1-4.058.46l-3.118.141-.072-.156c-.616-1.284-1.276-2.547-1.921-3.818-.19-.377-.379-.754-.566-1.132-.619-1.268-1.21-2.55-1.682-3.881a17.382 17.382 0 0 1-.778-2.878 13.208 13.208 0 0 1-.149-1.157l-.006-.078-1.041-4.642z" />
    <path data-bodypart="lower_leg" d="M125.812 290h-11.284l.075-1.128a18.807 18.807 0 0 0-.109-1.76 33.43 33.43 0 0 0-.354-2.461 51.08 51.08 0 0 0-.546-2.652 81.392 81.392 0 0 0-1.691-6.097c-.482-1.528-.985-3.049-1.606-4.527a39.735 39.735 0 0 0-1.24-2.654c-.469-.92-.966-1.827-1.447-2.741l-.283-.546a35.13 35.13 0 0 1-1.022-2.17 27.759 27.759 0 0 1-.991-2.723c-.518-1.696-.881-3.438-1.156-5.189-.329-2.094-.53-4.205-.678-6.318l.005-.114c.026-.168.049-.336.071-.506.03-.229.03-.229.057-.458.225-2.01.314-4.04.177-6.059a21.143 21.143 0 0 0-.293-2.394 13.803 13.803 0 0 0-.484-1.902l-.468-1.158.79-.019a63.63 63.63 0 0 0 4.634-.397 48.74 48.74 0 0 0 4.665-.793 32.115 32.115 0 0 0 3.918-1.12c.39-.141.777-.292 1.159-.454.732-.31 1.451-.661 2.097-1.07l.22.488c.222.469.45.937.671 1.408a44.91 44.91 0 0 1 1.359 3.175c.454 1.189.85 2.399 1.191 3.625.901 3.234 1.424 6.567 1.685 9.911.272 3.483.261 6.985.06 10.472a103.37 103.37 0 0 1-.257 3.425c0 .807.002 1.615.006 2.424.024 4.374.082 8.75.246 13.122.06 1.586.134 3.173.246 4.756.046.656.1 1.311.166 1.966.06.602.134 1.203.24 1.8l.171.838zm-66.764 0H47.972l.038-.185c.021-.119.041-.239.058-.359.092-.694.13-1.393.15-2.092.019-.617.022-1.236.015-1.854a115.45 115.45 0 0 0-.206-5.39 241.084 241.084 0 0 0-.501-6.738c-.223-2.576-.477-5.15-.757-7.72l-.025-.229c-.411-4.537-.637-9.1-.456-13.655a62.65 62.65 0 0 1 .427-5.335c.214-1.704.509-3.399.916-5.067a34.865 34.865 0 0 1 1.874-5.594c.196-.461.399-.918.594-1.378l.189-.466 2.523 1.372c1.089.486 2.218.881 3.364 1.208 1.337.382 2.7.67 4.072.891 2.637.425 5.31.604 7.956.604l-.378 2.403a36.487 36.487 0 0 0-.183 2.881 44.62 44.62 0 0 0 .127 4.706l.002.059c-.072 2.704-.185 5.409-.451 8.102a49.904 49.904 0 0 1-.418 3.249 27.916 27.916 0 0 1-.755 3.371c-.269.905-.602 1.79-.99 2.651-.465 1.032-1.003 2.03-1.511 3.042l-.258.523a38.13 38.13 0 0 0-1.071 2.422c-.332.834-.63 1.68-.908 2.533-.22.676-.428 1.357-.623 2.041a50.528 50.528 0 0 0-1.54 7.373 35.57 35.57 0 0 0-.314 4.623c.002.537.019 1.074.061 1.61l.055.398z" />
    <path data-bodypart="foot" d="M59.185 291l.004.023c.049.208.107.413.161.621.08.304.158.608.235.912.267 1.074.527 2.155.696 3.248.057.36.105.724.115 1.088.005.216 0 .441-.066.648a.885.885 0 0 1-.059.147c-.025.048-.056.093-.081.142a3.198 3.198 0 0 0-.062.146 13.53 13.53 0 0 0-.412 1.295 52.98 52.98 0 0 0-.456 1.763l.034.303c.155 1.57.22 3.158-.045 4.721a15.53 15.53 0 0 1-.189.927c-.031.134-.076.318-.106.44a.827.827 0 0 1-.054.154 1.404 1.404 0 0 1-.173.282c-.093.113-.195.221-.283.338a1.225 1.225 0 0 0-.152.268 1.509 1.509 0 0 0-.096.528c-.006.257.027.514.077.766.019.101.042.201.067.301.039.154.082.306.13.458.056.181.118.359.175.54a8.365 8.365 0 0 1 .225.926c.12.671.145 1.367.005 2.038a3.548 3.548 0 0 1-.333.942 2.54 2.54 0 0 1-.256.395c-.045.056-.096.105-.145.157-.044.046-.051.055-.097.109a6.13 6.13 0 0 0-.189.237c-.296.403-.552.832-.785 1.273-.123.233-.236.47-.352.707-.049.094-.049.094-.1.186a3.822 3.822 0 0 1-.6.78c-.13.129-.271.247-.419.354-.696.503-1.544.739-2.391.811a7.201 7.201 0 0 1-.465.024c-.175.004-.35.004-.522-.021a2.012 2.012 0 0 1-.593-.188c-.328-.166-.6-.42-.834-.701a7.913 7.913 0 0 1-.532-.736c-.232.28-.47.556-.711.828a2.085 2.085 0 0 1-.342.272c-.357.232-.778.372-1.208.344-.493-.033-.932-.289-1.267-.644a2.682 2.682 0 0 1-.131-.149l-.022.02c-.371.327-.903.355-1.369.284a3.384 3.384 0 0 1-.611-.155.779.779 0 0 1-.23-.198 1.963 1.963 0 0 1-.275-.422c-.019-.04-.036-.081-.053-.122-.072.017-.145.03-.217.04-.168.026-.338.04-.506.05-.161.01-.323.017-.483-.006a1.07 1.07 0 0 1-.741-.431 1.336 1.336 0 0 1-.163-.293l-.014.002a.997.997 0 0 1-.197.008c-.343-.022-.634-.231-.869-.469a3.098 3.098 0 0 1-.217-.242 1.995 1.995 0 0 1-.215-.302 2.402 2.402 0 0 1-.248-.709 5.1 5.1 0 0 1-.09-1.076 9.997 9.997 0 0 1 .216-1.896c.059-.284.127-.567.212-.845.065-.212.138-.423.228-.626.117-.262.269-.508.423-.748.181-.281.372-.556.568-.829a62.215 62.215 0 0 1 1.862-2.452l.126-.159c.04-.05.08-.102.121-.15.019-.023.042-.045.062-.067a7.28 7.28 0 0 0 .375-.45c.39-.514.726-1.067 1.031-1.635.287-.533.547-1.08.791-1.633a38.105 38.105 0 0 0 1.142-2.961 16.12 16.12 0 0 1-.263-1.43 13.473 13.473 0 0 1-.113-1.946c.014-1.108.159-2.212.349-3.302l.556-2.853h11.416zm64.151 26.934l-.026.038c-.338.496-.715 1.007-1.265 1.284a1.964 1.964 0 0 1-.593.188 3.044 3.044 0 0 1-.523.021 7.17 7.17 0 0 1-.464-.024c-.936-.079-1.876-.363-2.604-.978a3.68 3.68 0 0 1-.857-1.058c-.09-.167-.167-.341-.251-.51a28.626 28.626 0 0 0-.222-.427 9.295 9.295 0 0 0-.757-1.195 4.25 4.25 0 0 0-.2-.244c-.051-.056-.106-.108-.157-.165a2.692 2.692 0 0 1-.104-.135c-.602-.877-.694-2.005-.549-3.032a8.11 8.11 0 0 1 .265-1.171c.056-.181.118-.359.175-.54.036-.115.07-.232.102-.349.094-.364.172-.737.173-1.115 0-.221-.029-.448-.124-.65-.097-.208-.265-.37-.408-.546a1.334 1.334 0 0 1-.214-.386c-.045-.161-.081-.326-.119-.49a15.338 15.338 0 0 1-.189-.926 12.248 12.248 0 0 1-.15-1.268c-.085-1.254.001-2.512.137-3.76l-.15-.614a42.444 42.444 0 0 0-.431-1.59 14.42 14.42 0 0 0-.169-.535c-.053-.154-.107-.312-.179-.46-.023-.049-.053-.095-.079-.142-.02-.04-.02-.04-.037-.079-.108-.307-.099-.639-.077-.959.032-.425.098-.847.173-1.266.184-1.028.428-2.046.685-3.057.057-.226.117-.453.175-.678l.031-.116h11.661l.178.88c.257 1.32.505 2.648.589 3.992.049.798.038 1.598-.05 2.392-.044.413-.109.825-.191 1.232-.031.16-.066.32-.103.479l-.004.02c.456 1.348.973 2.677 1.601 3.953.237.479.488.95.767 1.404.304.494.638.967 1.034 1.391.204.256.407.513.609.77a57.838 57.838 0 0 1 1.623 2.165c.185.265.367.531.538.805.11.174.214.352.302.538.081.173.147.354.207.536.088.269.16.543.221.819.159.708.257 1.439.255 2.167-.001.33-.023.66-.09.984a2.408 2.408 0 0 1-.249.708c-.061.11-.135.207-.214.303-.07.083-.141.164-.217.241-.262.264-.606.499-.995.468-.028-.003-.057-.006-.085-.011a1.295 1.295 0 0 1-.192.332 1.095 1.095 0 0 1-.713.394c-.194.027-.392.012-.586-.002a3.943 3.943 0 0 1-.621-.083 1.864 1.864 0 0 1-.245.443 1.186 1.186 0 0 1-.233.252.836.836 0 0 1-.278.113 3.895 3.895 0 0 1-.34.078c-.45.077-.963.074-1.351-.202a1.192 1.192 0 0 1-.111-.091 2.095 2.095 0 0 1-.132.149c-.334.355-.773.612-1.266.644-.43.027-.851-.113-1.208-.345a2.056 2.056 0 0 1-.322-.25l-.021-.022a35.106 35.106 0 0 1-.71-.827l-.025.039-.051.076z" />
    <g>
        <path d="M83.153 168.24l-.024.407a107.793 107.793 0 0 1-.768 7.98 88.015 88.015 0 0 1-.604 3.788c-.402 2.208-.901 4.396-1.434 6.575a378.692 378.692 0 0 1-1.221 4.828c-.606 2.342-1.223 4.682-1.83 7.024-.27 1.062-.528 2.126-.773 3.194a152.9 152.9 0 0 0-1.681 8.512 171.51 171.51 0 0 0-1.185 8.14c-.078.647-.152 1.294-.219 1.941-.018.168-.037.336-.052.505-.016.19-.031.38-.05.569-.023.195-.048.388-.075.581-.255 1.708-.739 3.371-1.299 5-.614 1.786-1.318 3.54-1.997 5.302-.15.396-.3.791-.447 1.187a58.83 58.83 0 0 0-.582 1.636c-.14.416-.279.834-.399 1.256-.099.348-.186.699-.263 1.052-.195.89-.329 1.793-.425 2.699a36.487 36.487 0 0 0-.183 2.881 44.62 44.62 0 0 0 .127 4.706l.002.059c-.072 2.704-.185 5.409-.451 8.102a49.904 49.904 0 0 1-.418 3.249 27.916 27.916 0 0 1-.755 3.371c-.269.905-.602 1.79-.99 2.651-.465 1.032-1.003 2.03-1.511 3.042l-.258.523a38.13 38.13 0 0 0-1.071 2.422c-.332.834-.63 1.68-.908 2.533-.22.676-.428 1.357-.623 2.041a50.528 50.528 0 0 0-1.54 7.373 35.57 35.57 0 0 0-.314 4.623c.002.537.019 1.074.061 1.61.038.477.096.953.196 1.421.049.208.107.413.161.621.08.304.158.608.235.912.267 1.074.527 2.155.696 3.248.057.36.105.724.115 1.088.005.216 0 .441-.066.648a.885.885 0 0 1-.059.147c-.025.048-.056.093-.081.142a3.198 3.198 0 0 0-.062.146 13.53 13.53 0 0 0-.412 1.295 52.98 52.98 0 0 0-.456 1.763l.034.303c.155 1.57.22 3.158-.045 4.721a15.53 15.53 0 0 1-.189.927c-.031.134-.076.318-.106.44a.827.827 0 0 1-.054.154 1.404 1.404 0 0 1-.173.282c-.093.113-.195.221-.283.338a1.225 1.225 0 0 0-.152.268 1.509 1.509 0 0 0-.096.528c-.006.257.027.514.077.766.019.101.042.201.067.301.039.154.082.306.13.458.056.181.118.359.175.54a8.365 8.365 0 0 1 .225.926c.12.671.145 1.367.005 2.038a3.548 3.548 0 0 1-.333.942 2.54 2.54 0 0 1-.256.395c-.045.056-.096.105-.145.157-.044.046-.051.055-.097.109a6.13 6.13 0 0 0-.189.237c-.296.403-.552.832-.785 1.273-.123.233-.236.47-.352.707-.049.094-.049.094-.1.186a3.822 3.822 0 0 1-.6.78c-.13.129-.271.247-.419.354-.696.503-1.544.739-2.391.811a7.201 7.201 0 0 1-.465.024c-.175.004-.35.004-.522-.021a2.012 2.012 0 0 1-.593-.188c-.328-.166-.6-.42-.834-.701a7.913 7.913 0 0 1-.532-.736c-.232.28-.47.556-.711.828a2.085 2.085 0 0 1-.342.272c-.357.232-.778.372-1.208.344-.493-.033-.932-.289-1.267-.644a2.682 2.682 0 0 1-.131-.149l-.022.02c-.371.327-.903.355-1.369.284a3.384 3.384 0 0 1-.611-.155.779.779 0 0 1-.23-.198 1.963 1.963 0 0 1-.275-.422c-.019-.04-.036-.081-.053-.122-.072.017-.145.03-.217.04-.168.026-.338.04-.506.05-.161.01-.323.017-.483-.006a1.07 1.07 0 0 1-.741-.431 1.336 1.336 0 0 1-.163-.293l-.014.002a.997.997 0 0 1-.197.008c-.343-.022-.634-.231-.869-.469a3.098 3.098 0 0 1-.217-.242 1.995 1.995 0 0 1-.215-.302 2.402 2.402 0 0 1-.248-.709 5.1 5.1 0 0 1-.09-1.076 9.997 9.997 0 0 1 .216-1.896c.059-.284.127-.567.212-.845.065-.212.138-.423.228-.626.117-.262.269-.508.423-.748.181-.281.372-.556.568-.829a62.215 62.215 0 0 1 1.862-2.452l.126-.159c.04-.05.08-.102.121-.15.019-.023.042-.045.062-.067a7.28 7.28 0 0 0 .375-.45c.39-.514.726-1.067 1.031-1.635.287-.533.547-1.08.791-1.633a38.105 38.105 0 0 0 1.142-2.961 16.12 16.12 0 0 1-.263-1.43 13.473 13.473 0 0 1-.113-1.946c.014-1.108.159-2.212.349-3.302.177-1.02.386-2.034.594-3.049.068-.329.138-.659.203-.989.021-.119.041-.239.058-.359.092-.694.13-1.393.15-2.092.019-.617.022-1.236.015-1.854a115.45 115.45 0 0 0-.206-5.39 241.084 241.084 0 0 0-.501-6.738c-.223-2.576-.477-5.15-.757-7.72l-.025-.229c-.411-4.537-.637-9.1-.456-13.655a62.65 62.65 0 0 1 .427-5.335c.214-1.704.509-3.399.916-5.067a34.865 34.865 0 0 1 1.874-5.594c.196-.461.399-.918.594-1.378.067-.161.133-.323.197-.484.387-1.017.673-2.07.902-3.133.292-1.352.49-2.72.668-4.09.103-.814.201-1.629.304-2.443.036-.284.077-.568.111-.852.134-1.182.204-2.373.265-3.561.084-1.635.136-3.27.165-4.906.026-1.474.033-2.948.008-4.421a54.546 54.546 0 0 0-.15-3.454c-.04-.494-.098-.986-.154-1.479-.166-1.415-.343-2.828-.512-4.243a264.138 264.138 0 0 1-.654-6.156 235.162 235.162 0 0 1-.666-9.151 282.026 282.026 0 0 1-.161-3.436c-.036-.911-.07-1.821-.086-2.733a89.552 89.552 0 0 1 .001-3.278c.058-3.229.28-6.453.627-9.663.211-1.964.474-3.921.764-5.874.186-1.225.385-2.45.568-3.677.042-.285.084-.571.116-.858.016-.148.033-.297.033-.447-.001-.039-.005-.08-.007-.119v-.128c.022-.415.094-.828.163-1.239.084-.51.178-1.02.274-1.528.292-1.544.608-3.084.93-4.622a991.211 991.211 0 0 1 2.913-13.412l.185-.829a335 335 0 0 1 .067-4.074c.022-.904.046-1.809.086-2.713.018-.419.04-.84.07-1.259.019-.26.04-.521.079-.779.031-.201.087-.397.132-.595.039-.185.076-.37.113-.555a62.18 62.18 0 0 0 .542-3.46 87.047 87.047 0 0 0 .602-6.594c.033-.609.062-1.217.062-1.827 0-.693-.032-1.387-.091-2.078-.235-2.765-.903-5.467-1.616-8.142-.323-1.2-.655-2.398-.981-3.598-.256-.95-.508-1.901-.744-2.857-.11-.444-.223-.888-.318-1.336a26.016 26.016 0 0 1-.107-.543l-1.339 2.793a1002.303 1002.303 0 0 0-3.618 7.634c-.331.71-.66 1.42-.986 2.131a47.141 47.141 0 0 0-.882 2.026 32.287 32.287 0 0 0-1.47 4.668l-.031.138-.021.096c-.039.294-.079.588-.122.882-.172 1.155-.377 2.31-.796 3.405-.313.821-.735 1.593-1.17 2.355-.434.758-.88 1.509-1.319 2.264-.29.503-.58 1.008-.867 1.513-.285.506-.566 1.014-.848 1.521-.125.222-.252.442-.379.664-1.198 2.053-2.49 4.048-3.824 6.016a234.013 234.013 0 0 1-4.788 6.767c-1.111 1.521-2.241 3.028-3.355 4.547-.182.252-.361.506-.545.756-.306.409-.624.809-.932 1.218a11.35 11.35 0 0 0-1.238 2.053c-.394.851-.68 1.749-.902 2.659a27.073 27.073 0 0 0-.551 3.134c-.066.541-.116 1.084-.175 1.626l-.075.65c-.267 2.119-.646 4.224-1.197 6.289a32.84 32.84 0 0 1-.615 2.051 21.042 21.042 0 0 1-.644 1.691l-.07.145a29.264 29.264 0 0 0-.639 1.672c-.05.147-.098.295-.141.443-.02.072-.044.147-.058.221-.019.12-.022.243-.027.363-.007.185-.01.371-.012.556-.005.519.001 1.037.006 1.555.021 1.49.056 2.98.076 4.471.004.396.008.791.006 1.186-.002.288 0 .581-.029.87a3.919 3.919 0 0 1-.095.524c-.047.187-.11.372-.2.544a1.467 1.467 0 0 1-.396.485c-.142.111-.306.19-.48.24a1.583 1.583 0 0 1-.484.064 1.074 1.074 0 0 1-.219-.034c-.424-.112-.726-.473-.935-.84a3.552 3.552 0 0 1-.195-.404l-.026-.066c-.015-.043-.03-.08-.04-.126-.006-.026-.007-.051-.01-.076l-.378-7.678a3.853 3.853 0 0 0-.012-.415 2.262 2.262 0 0 0-.066-.385.856.856 0 0 0-.084-.208.582.582 0 0 0-.054.079c-.127.219-.193.468-.246.713l-.012.061c-.02.119-.031.239-.047.357-.02.146-.027.187-.048.333-.035.227-.072.455-.111.681-.503 2.827-1.317 5.586-2.123 8.338-.055.191-.11.382-.167.574-.05.165-.102.331-.159.494-.042.12-.086.24-.135.357-.174.426-.4.861-.775 1.143a1.532 1.532 0 0 1-.622.276 2.3 2.3 0 0 1-.543.034 2.507 2.507 0 0 1-.275-.023 1.108 1.108 0 0 1-.36-.124 1.219 1.219 0 0 1-.467-.493 2.181 2.181 0 0 1-.223-.792 5.153 5.153 0 0 1 .026-1.197l.005-.032 1.664-9.862c.034-.135.079-.269.116-.403.032-.123.061-.247.085-.371l.002-.011a7.647 7.647 0 0 0-.382.633c-.145.264-.281.535-.41.808a34.488 34.488 0 0 0-.855 1.975 88.333 88.333 0 0 0-1.68 4.616c-.143.424-.284.847-.425 1.272-.096.292-.19.586-.291.877-.032.09-.067.18-.103.268a3.346 3.346 0 0 1-.526.876 2.22 2.22 0 0 1-.57.474 2.382 2.382 0 0 1-1.251.295 2.4 2.4 0 0 1-.478-.048 1.13 1.13 0 0 1-.615-.381c-.283-.338-.361-.802-.368-1.232a4.482 4.482 0 0 1 .031-.571c.014-.131.036-.261.061-.391l.005-.026c.144-.556.338-1.098.509-1.646a3638.822 3638.822 0 0 1 2.205-7.083c.17-.544.339-1.09.516-1.633.017-.051.018-.051.038-.099.057-.117.11-.237.164-.355l.063-.15.031-.074c-.103.125-.201.252-.298.382-.47.625-.908 1.274-1.336 1.929a110.062 110.062 0 0 0-1.78 2.856c-.259.446-.509.896-.756 1.349-.015.029-.023.061-.035.092l-.059.138-.127.273c-.197.387-.421.764-.718 1.084-.18.192-.386.362-.623.478-.195.096-.41.152-.628.153a1.493 1.493 0 0 1-.774-.222 1.461 1.461 0 0 1-.391-.335c-.2-.252-.3-.565-.334-.882a3.313 3.313 0 0 1 .022-.79c.05-.363.14-.719.248-1.069.22-.717.515-1.41.824-2.093.183-.404.375-.804.555-1.208.064-.148.122-.298.185-.446.334-.756.723-1.488 1.116-2.215a45.43 45.43 0 0 1 1.287-2.248c.097-.157.2-.31.3-.464.022-.039.041-.077.061-.117.116-.257.201-.527.281-.798.089-.302.167-.608.24-.914.193-.81.351-1.629.475-2.452-.157.193-.311.39-.467.586-.449.576-.892 1.159-1.349 1.732l-.192.231c-.253.277-.58.474-.922.621-.743.319-1.606.421-2.39.2a2.895 2.895 0 0 1-.51-.198 1.79 1.79 0 0 1-.31-.193 1.074 1.074 0 0 1-.396-.78c-.016-.356.128-.698.305-1 .157-.264.345-.51.542-.745.264-.313.547-.608.834-.899.223-.225.449-.447.669-.673.072-.077.144-.153.212-.233.181-.222.311-.479.436-.737.181-.384.346-.776.524-1.162.255-.541.54-1.074.936-1.526a4.48 4.48 0 0 1 .516-.487 11.9 11.9 0 0 1 .619-.48 40.722 40.722 0 0 1 1.962-1.332 86.388 86.388 0 0 1 1.577-.987l.5-.304c.067-.04.133-.081.202-.121.103-.057.213-.105.32-.155.199-.091.4-.174.604-.251a8.26 8.26 0 0 1 1.595-.423 5.18 5.18 0 0 1 .173-.361c.241-.47.511-.924.78-1.379.711-1.193 1.436-2.379 2.147-3.572 1.926-3.243 3.774-6.538 5.342-9.971a54.565 54.565 0 0 0 1.61-3.885 36.739 36.739 0 0 0 1.13-3.592c.187-.735.346-1.478.467-2.227.077-.484.133-.971.203-1.457a34.97 34.97 0 0 1 1.156-5.133 33.135 33.135 0 0 1 5.133-10.082c.224-.298.452-.594.683-.887.206-.263.417-.523.621-.789l.191-.257c.204-.26.424-.506.645-.751l.471-.528c.142-.164.284-.328.423-.494a14.99 14.99 0 0 0 1.302-1.814c.499-.833.895-1.727 1.163-2.661.128-.45.228-.907.298-1.37.049-.329.081-.66.12-.99.03-.234.061-.467.094-.701a47.275 47.275 0 0 1 1.042-4.951 74.743 74.743 0 0 1 1.209-4.095c.194-.591.393-1.181.599-1.768.123-.351.253-.701.373-1.052.052-.154.1-.308.147-.461.05-.175.099-.351.129-.531.005-.029.005-.029.008-.06v-.001l-.021-.077a55.636 55.636 0 0 1-.357-2.793 45.986 45.986 0 0 1-.164-2.134 41.233 41.233 0 0 1-.057-1.793c-.033-3.501.407-7.05 1.68-10.329.169-.436.352-.866.552-1.289.305-.65.645-1.284 1.02-1.897a18.616 18.616 0 0 1 1.812-2.478 19.054 19.054 0 0 1 2.042-2.026 21.792 21.792 0 0 1 1.677-1.292c1.428-.996 2.981-1.846 4.665-2.312a11.532 11.532 0 0 1 3.082-.405c.879-.001 1.756.087 2.633.139.159.008.318.015.478.02.64.013 1.287-.013 1.911-.168.263-.066.518-.16.769-.264.318-.132.628-.282.933-.442a24.631 24.631 0 0 0 2.312-1.396 45.377 45.377 0 0 0 2.636-1.915 48.993 48.993 0 0 0 2.496-2.075 34.618 34.618 0 0 0 1.48-1.387c.34-.339.672-.686.986-1.05.214-.249.421-.504.601-.778.057-.086.11-.174.157-.265a.946.946 0 0 0 .082-.204c.008-.032.01-.067.012-.1.008-.096.011-.192.013-.288.005-.219 0-.44-.007-.659-.021-.66-.071-1.32-.125-1.979-.168-2.019-.404-4.033-.651-6.043l-.051-.408-.03-.233a3.501 3.501 0 0 1-.347-.682 2.752 2.752 0 0 1-.188-.923v.008l-.39-3.009-.061.003a2.406 2.406 0 0 1-.723-.114 3.174 3.174 0 0 1-.72-.325c-.229-.14-.456-.317-.602-.546a3.257 3.257 0 0 1-.295-.67 17.65 17.65 0 0 1-.342-1.128 38.729 38.729 0 0 1-.714-3.206 4.663 4.663 0 0 1-.06-.454c-.019-.277-.039-.554-.05-.831a9.72 9.72 0 0 1 .015-1.017 6.056 6.056 0 0 1 .068-.528c.073-.385.212-.791.485-1.078-.026-.257-.048-.515-.07-.772a106.275 106.275 0 0 1-.277-4.219 66.016 66.016 0 0 1-.075-3.359c.005-.882.03-1.765.105-2.644.065-.747.16-1.499.373-2.22.074-.236.154-.471.234-.704.219-.634.452-1.267.762-1.861.291-.558.661-1.08 1.162-1.469.32-.249.681-.436 1.061-.574.511-.188 1.045-.292 1.582-.377l.079-.052c1.08-.698 2.246-1.266 3.443-1.736A21.897 21.897 0 0 1 82.235.169a21.556 21.556 0 0 1 2.858-.168c1.713.026 3.432.242 5.081.716 1.213.348 2.387.845 3.46 1.513a11.474 11.474 0 0 1 2.218 1.796c.915.958 1.653 2.08 2.169 3.299.201.475.37.965.497 1.466.079.308.145.621.181.938.028.25.016.5.005.752-.014.323-.033.647-.053.969-.059.947-.126 1.893-.194 2.839-.184 2.526-.384 5.051-.584 7.577l-.032.396a3.613 3.613 0 0 1 .12.61 6.96 6.96 0 0 1 .046.824c0 .184-.005.367-.013.551-.013.248-.03.496-.048.742l-.017.158a22.855 22.855 0 0 1-.328 1.716 34.06 34.06 0 0 1-.539 2.154c-.085.295-.175.589-.284.876a2.438 2.438 0 0 1-.277.569 1.69 1.69 0 0 1-.403.384 3.06 3.06 0 0 1-.51.29 3.327 3.327 0 0 1-.371.141 3.372 3.372 0 0 1-.191.051c-.15.035-.31.06-.469.063-.259 2.537-.49 4.578-.513 2.998a2.503 2.503 0 0 1-.007.151c-.007.074-.007.074-.017.148a3.363 3.363 0 0 1-.422 1.161l-.003.079c-.065.432-.128.863-.191 1.296-.26 1.834-.509 3.671-.692 5.514a37.075 37.075 0 0 0-.147 1.825c-.011.231-.02.463-.019.695 0 .154.003.309.02.464a.505.505 0 0 0 .012.053c.034.098.081.189.133.277.072.123.153.241.238.355.26.352.553.678.853.996.46.485.944.947 1.437 1.397a51.095 51.095 0 0 0 4.26 3.442 37.794 37.794 0 0 0 2.488 1.664c.603.368 1.222.718 1.863 1.018.457.213.93.408 1.425.507.901.181 1.824.127 2.732.054a88.02 88.02 0 0 1 1.033-.083l.543-.032a15.86 15.86 0 0 1 1.154-.009c.605.021 1.21.088 1.805.207 2.011.399 3.86 1.367 5.532 2.529.582.404 1.146.833 1.686 1.293a18.921 18.921 0 0 1 4.437 5.522 20.998 20.998 0 0 1 1.473 3.533c.647 2.048 1.002 4.181 1.151 6.321.212 3.063.001 6.137-.426 9.173l-.02.074c.011.113.042.226.071.336.041.157.09.312.141.467.17.519.371 1.028.557 1.542a77.661 77.661 0 0 1 1.779 5.598c.318 1.164.605 2.338.84 3.521.124.626.234 1.255.323 1.888.048.336.084.674.131 1.012.02.137.042.276.066.413.091.485.21.966.363 1.436.238.727.555 1.429.937 2.093.495.856 1.097 1.639 1.747 2.381.351.394.711.779 1.061 1.174.079.094.159.187.236.285.064.08.123.164.187.244l.187.222c.344.389.694.772 1.036 1.163a32.042 32.042 0 0 1 2.803 3.707 30.154 30.154 0 0 1 3.078 6.318c.422 1.205.77 2.436 1.045 3.683.14.635.256 1.274.366 1.914.044.242.044.241.091.481.084.41.174.819.274 1.226a40.66 40.66 0 0 0 1.266 4.107 65.684 65.684 0 0 0 1.595 3.959c1.366 3.11 2.923 6.135 4.554 9.114.984 1.798 2.005 3.574 3.003 5.365.135.242.268.486.4.73.105.199.211.397.311.598.067.134.133.271.193.409.119.026.239.052.358.082a8.954 8.954 0 0 1 1.804.683c.235.14.468.282.702.423a65.61 65.61 0 0 1 2.92 1.88c.336.232.668.469.99.72.31.242.611.495.86.801.595.73.928 1.624 1.315 2.47.048.102.097.204.148.304.087.164.177.329.29.478.078.104.17.197.259.292.263.27.532.535.797.804.264.272.526.548.767.842.174.213.34.434.481.673.177.3.321.644.304 1a1.062 1.062 0 0 1-.396.779 1.651 1.651 0 0 1-.31.192 2.845 2.845 0 0 1-.583.218c-.725.185-1.508.099-2.2-.172a3.036 3.036 0 0 1-.85-.488c-.144-.121-.261-.267-.38-.412-.457-.571-.899-1.155-1.349-1.731l-.035-.043a36.91 36.91 0 0 0 .878 2.325c.141.339.287.68.464 1.004.048.09.105.173.161.257.06.09.084.13.144.223.115.185.228.372.341.56.39.661.765 1.331 1.128 2.007a34.2 34.2 0 0 1 .889 1.75c.061.132.121.264.176.398.044.107.086.215.132.321.181.404.371.805.556 1.208.237.53.468 1.063.663 1.609.126.355.239.715.322 1.083.112.494.183 1.03.062 1.532-.053.22-.147.43-.288.608a1.415 1.415 0 0 1-.391.336c-.26.155-.56.24-.865.218a1.539 1.539 0 0 1-.68-.227 2.584 2.584 0 0 1-.673-.629 5.524 5.524 0 0 1-.746-1.357c-.021-.056-.058-.107-.086-.159-.039-.069-.076-.139-.113-.208-.146-.263-.151-.271-.304-.543-.11-.194-.22-.388-.334-.579-.134-.226-.273-.449-.411-.672a98.037 98.037 0 0 0-.982-1.57c-.308-.48-.62-.957-.942-1.427a22.532 22.532 0 0 0-.982-1.339l-.015-.019c.082.202.171.4.266.596.065.168.126.337.188.506 1.006 2.755 2.004 5.512 3.004 8.269l.58 1.601c.045.158.067.322.086.485a4.98 4.98 0 0 1 .031.572c-.007.452-.095.943-.415 1.283a1.091 1.091 0 0 1-.353.255 1.291 1.291 0 0 1-.366.1c-.111.01-.11.01-.221.017a2.837 2.837 0 0 1-.801-.068 2.163 2.163 0 0 1-.744-.344c-.501-.366-.802-.924-1.01-1.497-.165-.48-.33-.96-.5-1.44-.673-1.894-1.376-3.78-2.181-5.622a28.854 28.854 0 0 0-.884-1.864c-.238-.455-.491-.912-.815-1.313l-.003-.005c.041.173.09.344.135.516l.031.13c.793 3.523 1.537 7.058 2.304 10.586.014.096.025.192.034.289.032.373.037.751-.026 1.121a1.96 1.96 0 0 1-.231.679c-.146.247-.37.441-.645.525a1.92 1.92 0 0 1-.523.061 2.032 2.032 0 0 1-.544-.06 1.513 1.513 0 0 1-.565-.287c-.367-.298-.591-.744-.759-1.177a8.74 8.74 0 0 1-.161-.445 16.143 16.143 0 0 1-.16-.516c-.06-.209-.122-.416-.186-.622-.276-.895-.56-1.787-.836-2.682a79.31 79.31 0 0 1-1.165-4.116c-.26-1.047-.491-2.103-.624-3.174a1.565 1.565 0 0 0-.065-.145 1.145 1.145 0 0 0-.224-.315l-.009-.008-.005-.005c-.014.065-.023.13-.033.195-.03.262-.037.526-.029.789l-.118 7.794c-.003.027-.003.056-.008.084-.018.097-.064.193-.103.283a3.515 3.515 0 0 1-.127.262c-.21.39-.521.783-.969.901-.071.019-.145.03-.219.034a1.599 1.599 0 0 1-.901-.258 1.398 1.398 0 0 1-.379-.395 2.217 2.217 0 0 1-.278-.681c-.093-.376-.121-.76-.146-1.145-.025-.38-.046-.76-.067-1.139-.081-1.549-.152-3.099-.232-4.646-.025-.473-.052-.945-.08-1.417-.03-.475-.057-.951-.11-1.423a3.664 3.664 0 0 0-.021-.146 3.019 3.019 0 0 0-.118-.386 11.233 11.233 0 0 0-.191-.489 25.367 25.367 0 0 0-.677-1.472c-.029-.058-.059-.118-.091-.176a5.435 5.435 0 0 1-.105-.183c-.057-.105-.056-.105-.111-.211-.559-1.111-.972-2.294-1.312-3.488a35.214 35.214 0 0 1-1.022-5.056 42.063 42.063 0 0 1-.151-1.279c-.031-.309-.061-.619-.097-.929a21.409 21.409 0 0 0-.722-3.579 17.304 17.304 0 0 0-1.213-3.026 19.073 19.073 0 0 0-1.092-1.835c-.376-.563-.775-1.108-1.161-1.664-.135-.198-.263-.399-.399-.596-.48-.679-1.007-1.324-1.528-1.972-.66-.819-1.323-1.635-1.983-2.455-.384-.479-.769-.96-1.151-1.442-2.269-2.876-4.468-5.815-6.419-8.918a49.443 49.443 0 0 1-1.514-2.571c-.352-.642-.686-1.294-1.031-1.939-.191-.353-.384-.705-.578-1.058-.582-1.047-1.182-2.085-1.772-3.129-.111-.2-.221-.399-.33-.6a19.644 19.644 0 0 1-.496-.983c-.19-.41-.358-.832-.501-1.261-.371-1.122-.561-2.292-.723-3.459l-.027-.206a32.365 32.365 0 0 0-.751-2.438 39.37 39.37 0 0 0-1.099-2.84 51.662 51.662 0 0 0-.841-1.801c-.457-.941-.924-1.877-1.394-2.813a684.038 684.038 0 0 0-4.547-8.854c-.033.183-.07.365-.108.547-.095.448-.207.892-.318 1.336-.185.747-.38 1.491-.577 2.235-.378 1.409-.768 2.813-1.149 4.221-.689 2.585-1.337 5.195-1.591 7.865a24.724 24.724 0 0 0-.116 2.494c.006.748.049 1.496.094 2.242a86.75 86.75 0 0 0 .728 7.183c.077.529.161 1.056.252 1.582.074.432.153.861.246 1.289.031.145.068.288.102.432.016.081.016.08.029.163.065.452.091.91.116 1.366.034.598.057 1.195.076 1.793.059 1.791.088 3.582.108 5.373l.003.306c.513 2.946 1.048 5.89 1.615 8.828.223 1.16.453 2.32.692 3.477.23 1.105.465 2.208.729 3.305.128.535.272 1.067.411 1.601.066.259.131.517.194.775.423 1.768.798 3.548 1.158 5.329a292.3 292.3 0 0 1 1.176 6.164c.361 1.998.702 3.998 1.01 6.005.112.736.22 1.472.318 2.21.094.703.181 1.408.248 2.114.061.651.095 1.304.132 1.957.046.821.086 1.642.12 2.464a202 202 0 0 1 .171 7.784c.009 3.194-.048 6.389-.174 9.581a177.761 177.761 0 0 1-.435 7.476c-.037.451-.076.903-.12 1.354-.034.359-.073.717-.108 1.075a32 32 0 0 0-.051.629c-.134 1.921-.137 3.851-.076 5.776.058 1.831.17 3.664.361 5.487.063.612.145 1.221.226 1.831.099.745.196 1.491.297 2.236.258 1.904.538 3.808.892 5.697.151.8.314 1.598.506 2.389.149.61.312 1.219.515 1.813.06.177.123.353.194.526.138.337.292.665.449.994.222.469.45.937.671 1.408a44.91 44.91 0 0 1 1.359 3.175c.454 1.189.85 2.399 1.191 3.625.901 3.234 1.424 6.567 1.685 9.911.272 3.483.261 6.985.06 10.472a103.37 103.37 0 0 1-.257 3.425c0 .807.002 1.615.006 2.424.024 4.374.082 8.75.246 13.122.06 1.586.134 3.173.246 4.756.046.656.1 1.311.166 1.966.06.602.134 1.203.24 1.8.07.371.15.74.226 1.109.11.536.219 1.072.326 1.609.257 1.32.505 2.648.589 3.992.049.798.038 1.598-.05 2.392-.044.413-.109.825-.191 1.232-.031.16-.066.32-.103.479l-.004.02c.456 1.348.973 2.677 1.601 3.953.237.479.488.95.767 1.404.304.494.638.967 1.034 1.391.204.256.407.513.609.77a57.838 57.838 0 0 1 1.623 2.165c.185.265.367.531.538.805.11.174.214.352.302.538.081.173.147.354.207.536.088.269.16.543.221.819.159.708.257 1.439.255 2.167-.001.33-.023.66-.09.984a2.408 2.408 0 0 1-.249.708c-.061.11-.135.207-.214.303-.07.083-.141.164-.217.241-.262.264-.606.499-.995.468-.028-.003-.057-.006-.085-.011a1.295 1.295 0 0 1-.192.332 1.095 1.095 0 0 1-.713.394c-.194.027-.392.012-.586-.002a3.943 3.943 0 0 1-.621-.083 1.864 1.864 0 0 1-.245.443 1.186 1.186 0 0 1-.233.252.836.836 0 0 1-.278.113 3.895 3.895 0 0 1-.34.078c-.45.077-.963.074-1.351-.202a1.192 1.192 0 0 1-.111-.091 2.095 2.095 0 0 1-.132.149c-.334.355-.773.612-1.266.644-.43.027-.851-.113-1.208-.345a2.056 2.056 0 0 1-.322-.25l-.021-.022a35.106 35.106 0 0 1-.71-.827c-.034.051-.067.103-.102.153-.338.496-.715 1.007-1.265 1.284a1.964 1.964 0 0 1-.593.188 3.044 3.044 0 0 1-.523.021 7.17 7.17 0 0 1-.464-.024c-.936-.079-1.876-.363-2.604-.978a3.68 3.68 0 0 1-.857-1.058c-.09-.167-.167-.341-.251-.51a28.626 28.626 0 0 0-.222-.427 9.295 9.295 0 0 0-.757-1.195 4.25 4.25 0 0 0-.2-.244c-.051-.056-.106-.108-.157-.165a2.692 2.692 0 0 1-.104-.135c-.602-.877-.694-2.005-.549-3.032a8.11 8.11 0 0 1 .265-1.171c.056-.181.118-.359.175-.54.036-.115.07-.232.102-.349.094-.364.172-.737.173-1.115 0-.221-.029-.448-.124-.65-.097-.208-.265-.37-.408-.546a1.334 1.334 0 0 1-.214-.386c-.045-.161-.081-.326-.119-.49a15.338 15.338 0 0 1-.189-.926 12.248 12.248 0 0 1-.15-1.268c-.085-1.254.001-2.512.137-3.76l-.15-.614a42.444 42.444 0 0 0-.431-1.59 14.42 14.42 0 0 0-.169-.535c-.053-.154-.107-.312-.179-.46-.023-.049-.053-.095-.079-.142-.02-.04-.02-.04-.037-.079-.108-.307-.099-.639-.077-.959.032-.425.098-.847.173-1.266.184-1.028.428-2.046.685-3.057.057-.226.117-.453.175-.678.05-.187.105-.373.148-.561.016-.076.015-.076.03-.153a8.422 8.422 0 0 0 .102-1.53 18.807 18.807 0 0 0-.109-1.76 33.43 33.43 0 0 0-.354-2.461 51.08 51.08 0 0 0-.546-2.652 81.392 81.392 0 0 0-1.691-6.097c-.482-1.528-.985-3.049-1.606-4.527a39.735 39.735 0 0 0-1.24-2.654c-.469-.92-.966-1.827-1.447-2.741l-.283-.546a35.13 35.13 0 0 1-1.022-2.17 27.759 27.759 0 0 1-.991-2.723c-.518-1.696-.881-3.438-1.156-5.189-.329-2.094-.53-4.205-.678-6.318l.005-.114c.026-.168.049-.336.071-.506.03-.229.03-.229.057-.458.225-2.01.314-4.04.177-6.059a21.143 21.143 0 0 0-.293-2.394 13.803 13.803 0 0 0-.484-1.902c-.14-.411-.31-.808-.487-1.205a41.192 41.192 0 0 0-.513-1.109c-.616-1.284-1.276-2.547-1.921-3.818-.19-.377-.379-.754-.566-1.132-.619-1.268-1.21-2.55-1.682-3.881a17.382 17.382 0 0 1-.778-2.878 13.208 13.208 0 0 1-.149-1.157l-.006-.078a544.562 544.562 0 0 0-1.576-7.031 607.166 607.166 0 0 0-2.218-9.303 469.515 469.515 0 0 0-1.056-4.204 233.304 233.304 0 0 0-.834-3.189 107.966 107.966 0 0 0-1.099-3.778 103.733 103.733 0 0 0-1.811-5.283c-.572-1.539-1.179-3.064-1.767-4.598-.126-.334-.25-.669-.373-1.005a33.746 33.746 0 0 1-.849-2.638 21.036 21.036 0 0 1-.464-2.167c-.069-.448-.136-.897-.201-1.346a64.078 64.078 0 0 1-.386-3.152 23.848 23.848 0 0 1-.078-1.068 7.434 7.434 0 0 1-.007-.804l-.001.015-.248-4.552h-.79zm9.242-131.096c-.194.142-.397.27-.605.386a8.376 8.376 0 0 1-.995.461c-.383.154-.77.296-1.16.429a26.908 26.908 0 0 1-3.943 1.016c-.428.076-.858.141-1.29.194-.222.027-.445.053-.668.07a9.618 9.618 0 0 1-1.53-.011c-.173-.018-.346-.042-.519-.065-.344-.047-.687-.1-1.028-.159a28.819 28.819 0 0 1-3.566-.843c-.381-.117-.76-.243-1.134-.378a15.743 15.743 0 0 1-1.164-.463 6.872 6.872 0 0 1-.609-.315 5.962 5.962 0 0 1-.439-.283c.233 1.934.456 3.872.606 5.815.049.643.093 1.286.103 1.93.004.216.004.433-.009.649a1.846 1.846 0 0 1-.064.437c-.084.284-.241.545-.407.788-.236.347-.505.67-.783.983-.41.462-.845.9-1.289 1.328a42.177 42.177 0 0 1-1.847 1.666 52.862 52.862 0 0 1-2.355 1.895 43.091 43.091 0 0 1-2.945 2.057c-.637.403-1.29.784-1.968 1.117-.533.261-1.088.501-1.67.634a7.836 7.836 0 0 1-1.747.181c-.794.001-1.586-.079-2.377-.129a15.327 15.327 0 0 0-1.592-.023c-.552.025-1.101.092-1.642.205-1.87.391-3.581 1.324-5.128 2.421a19.058 19.058 0 0 0-3.269 2.912 18.263 18.263 0 0 0-3.255 5.326c-1.374 3.438-1.774 7.195-1.668 10.874.037 1.304.139 2.606.29 3.902.053.459.113.917.179 1.375l.04.279c.01.064.018.129.029.193.004.022.017.042.024.064l.012.053c.028.183.004.366-.033.547a5.708 5.708 0 0 1-.134.53c-.181.61-.411 1.206-.622 1.806a75.98 75.98 0 0 0-1.698 5.541 49.982 49.982 0 0 0-.787 3.459c-.115.609-.216 1.22-.296 1.835-.043.337-.075.677-.119 1.015a12.379 12.379 0 0 1-.449 2.025 12.235 12.235 0 0 1-1.177 2.602 15.02 15.02 0 0 1-1.023 1.483c-.259.332-.532.654-.809.972-.291.328-.588.652-.875.984-.068.081-.136.161-.201.246-.084.108-.164.221-.246.33-.295.377-.595.749-.887 1.128a33.97 33.97 0 0 0-2.31 3.403 32.085 32.085 0 0 0-3.14 7.233 32.86 32.86 0 0 0-.853 3.653c-.109.63-.195 1.262-.278 1.895-.036.253-.036.253-.076.506-.07.427-.149.854-.24 1.279a33.303 33.303 0 0 1-1.03 3.667 51.698 51.698 0 0 1-1.661 4.232c-1.399 3.172-3.047 6.23-4.788 9.226-1.014 1.745-2.072 3.464-3.104 5.198a30.049 30.049 0 0 0-.647 1.129h.186a8.099 8.099 0 0 1 2.7.528c.44.168.866.373 1.265.625l.055.035a.572.572 0 0 1 .212.227.511.511 0 0 1-.362.716.512.512 0 0 1-.26-.02c-.088-.03-.168-.094-.247-.144a9.006 9.006 0 0 0-.271-.154 6.952 6.952 0 0 0-4.424-.698 7.71 7.71 0 0 0-1.987.659l-.076.038A67.761 67.761 0 0 0 7 153.953c-.364.247-.723.5-1.073.768-.278.213-.558.432-.781.705-.24.295-.428.631-.597.972-.209.421-.387.858-.584 1.286-.054.114-.108.227-.165.339a4.132 4.132 0 0 1-.423.675c-.153.195-.33.369-.504.545-.198.199-.397.398-.595.599-.125.128-.124.127-.247.257-.308.331-.622.672-.853 1.063a1.585 1.585 0 0 0-.136.285.364.364 0 0 0-.029.169c.002.009.006.013.012.02.011.01.023.019.036.027a2.018 2.018 0 0 0 .48.197c.49.125 1.021.066 1.494-.102.231-.081.466-.191.655-.35.094-.079.167-.18.243-.274.534-.669 1.049-1.351 1.579-2.021.273-.343.547-.687.843-1.01.105-.113.212-.227.334-.321a.665.665 0 0 1 .216-.123c.116-.031.116-.026.235-.029l.007.001c.044.007.097.013.137.034.105.055.106.053.194.131.022.02.037.046.055.069a.57.57 0 0 1 .097.235c.023.114.027.23.025.347a5.61 5.61 0 0 1-.025.409 15.99 15.99 0 0 1-.09.723 28.951 28.951 0 0 1-.495 2.559c-.094.395-.197.789-.319 1.178a5.007 5.007 0 0 1-.306.801c-.087.173-.203.328-.306.491-.111.177-.22.356-.327.536-.418.711-.82 1.431-1.209 2.159-.286.539-.57 1.081-.821 1.638-.065.144-.123.292-.184.439-.058.136-.058.136-.119.271-.164.36-.332.718-.496 1.078-.095.21-.095.21-.188.422-.248.577-.485 1.16-.654 1.766-.096.345-.177.706-.177 1.067.001.164.015.349.102.492a.377.377 0 0 0 .124.124c.116.073.245.115.378.075a.632.632 0 0 0 .113-.049.886.886 0 0 0 .127-.086c.187-.147.335-.343.463-.542.182-.281.335-.586.452-.9l.029-.064c.257-.473.517-.944.788-1.408.163-.279.334-.554.504-.83.376-.613.756-1.222 1.146-1.825.367-.569.741-1.133 1.133-1.685a16.3 16.3 0 0 1 .849-1.111c.13-.154.266-.304.414-.442.131-.12.274-.236.44-.305.252-.105.557-.098.776.076a.664.664 0 0 1 .178.213.847.847 0 0 1 .088.287c.037.283-.04.578-.124.846a7.962 7.962 0 0 1-.453 1.113c-.049.138-.1.312-.14.435l-.372 1.185-2.203 7.079-.491 1.577a3.878 3.878 0 0 0-.068.589c-.005.149-.002.3.021.447a.905.905 0 0 0 .069.24.223.223 0 0 0 .078.099.267.267 0 0 0 .048.015c.153.021.311.025.465.011.123-.011.245-.035.36-.08.41-.157.658-.551.822-.939.029-.07.056-.141.082-.212.099-.285.19-.572.285-.858.14-.427.283-.853.426-1.278.406-1.196.822-2.388 1.271-3.569.301-.793.615-1.583.956-2.36.267-.608.549-1.211.877-1.789.232-.41.489-.819.832-1.148l.041-.037c.021-.016.042-.033.064-.048a.75.75 0 0 1 .19-.083.843.843 0 0 1 .747.124.92.92 0 0 1 .318.488c.058.205.049.424.025.633a5.936 5.936 0 0 1-.243 1.055c-1.019 3.168-1.178 6.552-1.664 9.843a4.83 4.83 0 0 0-.04.624c.002.169.012.341.047.506a.955.955 0 0 0 .082.245c.017.032.039.073.075.088.012.004.023.005.035.007.183.015.393.035.566-.044a.71.71 0 0 0 .28-.266c.142-.21.24-.448.327-.684a7.87 7.87 0 0 0 .095-.271c.043-.131.056-.175.097-.31.261-.888.521-1.777.776-2.668a84.62 84.62 0 0 0 1.061-4.052c.255-1.115.479-2.238.619-3.375a4.724 4.724 0 0 1 .224-.83c.149-.379.391-.773.797-.912a.927.927 0 0 1 .45-.037c.126.02.246.066.353.133.127.08.235.188.319.31.127.182.205.392.256.606a3.9 3.9 0 0 1 .096.926l-.001.049.372 7.561c.025.062.052.123.081.182.067.134.142.265.242.375a.457.457 0 0 0 .092.084c.012.009.029.022.046.024a.675.675 0 0 0 .271-.07c.132-.079.192-.247.235-.384a2.64 2.64 0 0 0 .101-.497c.018-.179.019-.362.022-.541.002-.159.003-.33.003-.489l-.003-.586-.008-.662c-.022-1.377-.053-2.754-.071-4.132a75.335 75.335 0 0 1-.007-1.577c.002-.196.005-.391.013-.586.007-.165.013-.333.042-.495.024-.143.067-.283.11-.422.061-.202.128-.403.199-.602.171-.487.355-.969.555-1.443.057-.136.122-.268.182-.403l.155-.379a30.664 30.664 0 0 0 1.142-3.677c.38-1.521.671-3.064.892-4.617a54.31 54.31 0 0 0 .195-1.558c.048-.439.09-.879.138-1.318.038-.315.036-.315.077-.63.266-1.975.657-3.966 1.5-5.785.216-.468.463-.921.739-1.355.19-.301.395-.591.606-.877.307-.408.625-.807.931-1.217.119-.162.234-.325.351-.488.149-.207.256-.353.409-.561.9-1.221 1.807-2.439 2.706-3.662a261.866 261.866 0 0 0 4.709-6.608 122.642 122.642 0 0 0 3.26-4.978c.411-.668.814-1.34 1.202-2.021.296-.518.581-1.041.872-1.561.252-.447.506-.892.76-1.336.527-.912 1.063-1.819 1.589-2.732.111-.195.221-.39.329-.585.183-.338.362-.678.523-1.028.162-.355.305-.719.424-1.091.183-.572.311-1.161.416-1.753.11-.615.195-1.235.277-1.856.035-.163.071-.324.11-.486a34.108 34.108 0 0 1 1.47-4.619c.345-.864.736-1.709 1.125-2.554.442-.963.89-1.922 1.341-2.88 1.567-3.329 3.155-6.649 4.749-9.966l.26-.539.03-.048a45.457 45.457 0 0 1-.245-3.317 84.5 84.5 0 0 1-.048-5.034c.036-2.13.13-4.257.261-6.383.116-1.899.263-3.797.447-5.691l.018-.183c.051-.163.044-.226.183-.341.052-.041.116-.061.175-.093l.196-.018.188.058.153.125.093.174.018.196a170.952 170.952 0 0 0-.58 7.975c-.091 1.878-.15 3.757-.156 5.637a69.191 69.191 0 0 0 .135 4.884c.095 1.438.245 2.877.553 4.288.087.38.18.759.273 1.139.538 2.155 1.143 4.292 1.722 6.436.129.484.258.97.382 1.457.619 2.441 1.147 4.915 1.307 7.434.044.675.06 1.351.048 2.028-.01.575-.043 1.15-.075 1.724a88.079 88.079 0 0 1-.54 5.973 68.242 68.242 0 0 1-.469 3.185c-.067.387-.137.773-.217 1.158l-.072.327c-.024.107-.055.212-.076.32a5.145 5.145 0 0 0-.03.212 22.96 22.96 0 0 0-.102 1.437 86.907 86.907 0 0 0-.07 1.839c-.05 1.654-.076 3.308-.095 4.961l-.003.345-.012.105c-.24 1.072-.478 2.142-.716 3.214a864.743 864.743 0 0 0-2.585 11.995 197.36 197.36 0 0 0-.796 4.011c-.087.469-.172.938-.247 1.409-.03.194-.059.388-.083.582a3.572 3.572 0 0 0-.026.291c-.002.033.001.065.003.099.004.052.004.105.003.158-.002.077-.007.155-.012.233-.035.391-.089.781-.147 1.17-.059.398-.12.794-.183 1.192-.129.829-.259 1.657-.385 2.487-.074.497-.146.992-.216 1.488a134.86 134.86 0 0 0-.643 5.309c-.326 3.248-.518 6.51-.535 9.774-.005.892.003 1.785.025 2.678a274.36 274.36 0 0 0 .204 4.979 234.142 234.142 0 0 0 1.345 15.794c.167 1.416.345 2.83.511 4.246.041.355.081.711.118 1.067.132 1.419.177 2.844.197 4.268.023 1.6.01 3.201-.024 4.801a153.767 153.767 0 0 1-.127 3.721c-.033.716-.073 1.432-.12 2.148a46.6 46.6 0 0 1-.141 1.708c-.041.402-.097.803-.149 1.204-.116.923-.227 1.846-.347 2.768-.187 1.403-.4 2.805-.715 4.187-.202.888-.444 1.77-.753 2.628-.101.28-.213.556-.327.831-.229.536-.463 1.069-.69 1.604a41.302 41.302 0 0 0-.703 1.798 31.92 31.92 0 0 0-.826 2.642 42.354 42.354 0 0 0-1.06 5.456 61.857 61.857 0 0 0-.454 5.522c-.11 2.761-.067 5.527.073 8.286a126.562 126.562 0 0 0 .378 5.228c.029.286.063.57.094.856.037.333.071.666.107 1l.209 2.067c.247 2.543.476 5.087.665 7.635.129 1.745.242 3.493.32 5.242.068 1.483.115 2.968.1 4.453a36.06 36.06 0 0 1-.055 1.738 14.725 14.725 0 0 1-.185 1.677c-.146.744-.305 1.485-.455 2.228a53.463 53.463 0 0 0-.446 2.449 17.832 17.832 0 0 0-.23 2.63 12.57 12.57 0 0 0 .118 1.745l.033-.006c.059-.003.059-.003.118 0a.506.506 0 0 1 .427.646 40.072 40.072 0 0 1-1.19 3.364 28.101 28.101 0 0 1-.919 2.042c-.252.503-.524.997-.824 1.472a9.289 9.289 0 0 1-1.032 1.368c-.195.243-.387.486-.579.731-.544.698-1.082 1.4-1.592 2.124-.175.249-.346.501-.507.759-.096.153-.19.309-.263.474-.156.351-.256.73-.34 1.103-.106.475-.18.959-.212 1.446-.021.316-.026.636.004.953.014.149.036.298.074.443.027.104.062.208.115.302.044.081.106.149.167.218.057.066.117.131.184.188.03.026.063.054.099.074a2.834 2.834 0 0 1 .006-.332c.032-.403.139-.8.262-1.184.125-.391.274-.774.433-1.151a27.942 27.942 0 0 1 .948-1.985c.03-.056.059-.112.091-.167a.512.512 0 0 1 .39-.235c.034-.002.034-.002.067-.001a.552.552 0 0 1 .196.051.51.51 0 0 1 .221.693c-.089.163-.175.329-.261.495-.142.282-.281.565-.414.852-.106.229-.209.458-.307.689-.17.405-.329.815-.454 1.236-.08.273-.154.556-.168.842-.003.07 0 .139.003.209.002.057.006.113.011.17a.501.501 0 0 1 .017.15c.007.047.015.096.026.143a.64.64 0 0 0 .088.234.05.05 0 0 0 .021.02.358.358 0 0 0 .126.016c.067.002.134-.003.201-.007.197-.012.399-.025.591-.075a.501.501 0 0 0 .055-.017h.002c.025-.359.118-.717.239-1.05.039-.111.082-.22.129-.327a7.42 7.42 0 0 1 .358-.72 11.079 11.079 0 0 1 1.203-1.729c.02-.023.02-.023.042-.045a.55.55 0 0 1 .278-.129c.031-.003.062-.004.094-.003a.547.547 0 0 1 .207.058.51.51 0 0 1 .263.522.52.52 0 0 1-.078.202c-.045.065-.1.125-.149.186a10.336 10.336 0 0 0-1.026 1.52 5.174 5.174 0 0 0-.456 1.073c-.019.067-.028.106-.045.174-.069.303-.095.648.033.94.028.063.063.121.103.177l.005.005c.179.048.367.082.554.075.081-.003.183-.01.251-.061a.085.085 0 0 0 .021-.025c.082-.153.157-.308.238-.461l.137-.247c.025-.115.059-.228.099-.34.113-.323.271-.629.447-.922.277-.459.6-.89.943-1.301.406-.489.842-.955 1.298-1.397.033-.032.032-.032.067-.062a.533.533 0 0 1 .296-.116c.032-.001.032-.001.064.001a.509.509 0 0 1 .355.823c-.058.066-.127.126-.19.189-.091.089-.18.179-.269.27-.551.573-1.08 1.175-1.522 1.837a5.816 5.816 0 0 0-.374.636c-.026.053-.052.106-.076.161a.523.523 0 0 1-.032.327c-.021.042-.045.079-.069.119a8.055 8.055 0 0 0-.076.128.75.75 0 0 0 .014.291c.031.112.112.197.189.28.158.168.36.314.598.329.251.017.494-.105.689-.254l.043-.034.016-.014c.362-.434.714-.878 1.082-1.307.05-.304.19-.599.344-.857a5.456 5.456 0 0 1 .326-.475c.099-.129.202-.256.308-.378.126-.145.257-.286.39-.424a14.573 14.573 0 0 1 1.158-1.073l.034-.028a.49.49 0 0 1 .401-.109.51.51 0 0 1 .358.751c-.026.047-.037.056-.073.097-.053.049-.108.094-.163.141a12.578 12.578 0 0 0-1.283 1.242c-.199.225-.39.461-.551.714-.025.041-.05.081-.073.123a2.47 2.47 0 0 0-.11.22.501.501 0 0 1-.037.396c.105.17.218.337.331.503.128.184.259.368.412.532.119.131.254.252.413.333a.951.951 0 0 0 .343.097c.098.01.197.006.295.004.171-.003.341-.013.51-.03.713-.075 1.435-.292 1.98-.777.102-.09.196-.188.282-.293.109-.133.204-.278.286-.429.085-.158.159-.322.237-.483.078-.153.157-.305.238-.457.253-.458.523-.91.842-1.327.08-.104.164-.206.251-.304.048-.055.104-.103.15-.16.023-.028.043-.056.063-.086.338-.526.424-1.18.394-1.793a5.273 5.273 0 0 0-.099-.794 7.128 7.128 0 0 0-.14-.577c-.064-.221-.141-.438-.211-.656-.04-.132-.04-.132-.078-.265a7.75 7.75 0 0 1-.166-.712c-.106-.599-.13-1.243.117-1.812.075-.172.173-.329.286-.477a5.89 5.89 0 0 1 .158-.19c.048-.056.099-.11.14-.171a.16.16 0 0 0 .013-.022c.052-.184.09-.372.134-.558.052-.242.103-.483.144-.726.066-.386.112-.776.138-1.167.081-1.215-.007-2.433-.142-3.641l-.002-.02a67.96 67.96 0 0 0-.052-.447l-.003-.062a.607.607 0 0 1 .032-.178.514.514 0 0 1 .224-.26c.159-.627.324-1.255.518-1.872.069-.217.14-.432.225-.643.05-.127.105-.253.177-.369a.662.662 0 0 0 .015-.11 4.294 4.294 0 0 0-.047-.792c-.052-.401-.122-.8-.2-1.196a49.9 49.9 0 0 0-.588-2.56c-.103-.402-.213-.803-.316-1.204l-.056-.252a13.735 13.735 0 0 1-.216-1.82 25.128 25.128 0 0 1-.035-1.779c.022-1.65.174-3.297.408-4.93.344-2.39.871-4.752 1.541-7.071.453-1.57.962-3.128 1.575-4.644a37.3 37.3 0 0 1 1.03-2.312c.404-.834.837-1.653 1.252-2.48l.23-.468c.188-.397.372-.796.54-1.202.238-.577.45-1.165.632-1.763.339-1.112.582-2.252.772-3.398.19-1.149.327-2.305.437-3.464.23-2.435.337-4.879.408-7.324l.011-.395c-.02-.219-.035-.438-.05-.657a45.057 45.057 0 0 1 .018-6.084c.097-1.283.259-2.565.535-3.824.081-.373.173-.745.278-1.112.125-.438.267-.871.413-1.303.27-.799.563-1.591.86-2.381.429-1.122.867-2.241 1.297-3.363.532-1.405 1.051-2.816 1.467-4.26.38-1.318.676-2.663.777-4.033.038-.382.078-.763.12-1.145.339-3.032.766-6.055 1.268-9.065a157.39 157.39 0 0 1 1.77-9.027c.247-1.077.508-2.149.78-3.22.607-2.343 1.224-4.683 1.831-7.026.412-1.603.823-3.207 1.217-4.815.528-2.16 1.023-4.328 1.421-6.516.226-1.243.427-2.491.597-3.744a97.55 97.55 0 0 0 .5-4.448c.124-1.366.224-2.733.297-4.102l.011-.229c.01-.051.013-.103.03-.151a.508.508 0 0 1 .323-.307c.049-.016.101-.017.152-.024h1.749c.051.007.103.008.152.024a.501.501 0 0 1 .322.305c.018.047.021.099.032.149l.276 5.068c-.002.095-.007.19-.008.285.001.117.004.235.008.352.028.627.086 1.251.154 1.875.073.658.158 1.314.249 1.97.06.423.121.844.185 1.267.054.349.106.699.172 1.046.08.421.175.839.282 1.254.377 1.463.908 2.879 1.448 4.288.363.94.729 1.878 1.091 2.817.427 1.121.845 2.244 1.241 3.376a102.131 102.131 0 0 1 1.48 4.589c.452 1.52.861 3.053 1.259 4.589.455 1.758.899 3.52 1.335 5.283a618.51 618.51 0 0 1 3.808 16.397l.01.069a12.03 12.03 0 0 0 .093.853c.264 1.745.874 3.414 1.586 5.021.777 1.755 1.679 3.451 2.546 5.162.189.376.377.752.563 1.13.256.526.507 1.052.744 1.586.138.306.273.615.391.929.122.324.228.654.323.988.216.767.368 1.551.476 2.341.13.955.195 1.918.217 2.883a34.706 34.706 0 0 1-.068 3.043c-.058.906-.148 1.81-.274 2.71l-.016.109-.005.032c.023.338.048.676.074 1.012.161 1.987.375 3.971.717 5.935.323 1.864.761 3.711 1.4 5.494a28.2 28.2 0 0 0 1.136 2.696c.578 1.196 1.224 2.357 1.84 3.531l.297.575c.23.455.457.911.673 1.373.319.684.619 1.377.896 2.079.291.737.554 1.483.805 2.233.227.681.449 1.366.662 2.051.691 2.213 1.309 4.451 1.796 6.717.183.854.348 1.71.484 2.571.125.791.226 1.586.287 2.385.043.571.066 1.145.05 1.718a7.42 7.42 0 0 1-.166 1.447c-.045.18-.095.359-.143.538-.079.3-.156.6-.232.9a42.42 42.42 0 0 0-.61 2.755c-.056.309-.105.62-.14.933a3.585 3.585 0 0 0-.024.663l.008.056.003.016c.024.037.044.075.065.113.099.2.176.411.248.623.082.238.154.481.225.723.138.473.263.948.383 1.425a.51.51 0 0 1 .24.316c.015.062.015.12.011.182l-.049.417a.332.332 0 0 1-.01.085l-.034.323c-.142 1.428-.211 2.874.011 4.298.054.342.123.682.202 1.02.011.046.021.093.034.139.022.095.025.198.07.284.011.019.025.037.038.055.089.109.183.212.27.322a2.317 2.317 0 0 1 .311.537c.235.59.192 1.251.072 1.863-.022.117-.05.235-.078.351a9.152 9.152 0 0 1-.146.515c-.055.178-.117.355-.174.533l-.069.245a5.628 5.628 0 0 0-.194 1.065c-.043.494-.015 1.003.143 1.475.069.207.163.417.3.588.028.035.061.064.091.095.059.064.117.129.172.196.451.549.814 1.168 1.139 1.799.097.189.188.38.281.57.036.07.035.07.073.139.123.205.263.396.434.564.553.545 1.319.788 2.076.867.17.017.34.027.51.03.196.005.387.005.571-.07.189-.077.346-.215.482-.363.175-.189.325-.402.469-.615l.173-.263c.034-.051.076-.099.106-.153l-.002-.004a.522.522 0 0 1-.039-.395 3.143 3.143 0 0 0-.36-.599 8.15 8.15 0 0 0-.791-.9 12.947 12.947 0 0 0-.987-.901l-.045-.041c-.034-.042-.045-.051-.072-.098a.503.503 0 0 1 .357-.75.49.49 0 0 1 .183.004c.098.02.177.07.253.132a15.557 15.557 0 0 1 .902.815c.153.151.305.306.452.465a9.205 9.205 0 0 1 .561.673c.057.077.113.156.165.237.053.079.103.16.15.241.134.236.25.501.296.773.368.429.72.874 1.083 1.31.048.043.102.083.157.118.196.128.435.219.672.174a.686.686 0 0 0 .171-.056c.116-.054.218-.134.308-.223a1.79 1.79 0 0 0 .117-.129.506.506 0 0 0 .11-.19.69.69 0 0 0 .019-.235l-.006-.059-.028-.046c-.033-.057-.068-.112-.102-.169l-.026-.056a.53.53 0 0 1-.019-.301 4.64 4.64 0 0 0-.17-.338 7.01 7.01 0 0 0-.406-.642 13.785 13.785 0 0 0-1.285-1.537 15.426 15.426 0 0 0-.38-.387c-.057-.055-.115-.108-.17-.165l-.041-.049a.574.574 0 0 1-.087-.209.51.51 0 0 1 .429-.586.795.795 0 0 1 .097-.004c.112.01.208.048.296.116.092.082.178.17.266.257.44.442.861.902 1.252 1.388.286.355.556.725.79 1.115.177.293.335.6.448.923.039.111.073.224.099.34a14.453 14.453 0 0 1 .308.577c.014.027.045.108.078.145a.125.125 0 0 0 .042.03.677.677 0 0 0 .264.041c.172 0 .343-.031.509-.075a1.12 1.12 0 0 0 .069-.105c.182-.338.14-.745.049-1.105a3.025 3.025 0 0 0-.078-.262 5.868 5.868 0 0 0-.449-.985 10.332 10.332 0 0 0-.773-1.17c-.109-.143-.225-.281-.337-.421-.019-.026-.019-.026-.035-.053a.508.508 0 0 1 .471-.755c.13.012.239.063.332.154.075.083.144.171.214.258.349.443.672.906.954 1.396.212.365.4.746.543 1.143.122.335.214.692.24 1.051.025.01.052.017.08.024.126.03.254.044.384.055.116.01.233.018.351.02.037 0 .074-.001.111-.005.018-.003.041-.004.056-.016.014-.013.023-.029.032-.045.053-.105.079-.223.095-.341a.596.596 0 0 1 .016-.158c.011-.125.02-.252.014-.378a3.449 3.449 0 0 0-.144-.759c-.127-.45-.297-.888-.478-1.317a23.214 23.214 0 0 0-.66-1.423c-.082-.161-.163-.321-.248-.481a3.684 3.684 0 0 1-.087-.164l-.025-.063a.506.506 0 0 1 .422-.647c.034-.003.067-.004.101-.003a.517.517 0 0 1 .39.235c.063.108.119.221.177.331.187.363.369.729.541 1.099.141.301.274.605.4.913.166.407.32.821.439 1.245.084.294.153.595.177.901.008.11.009.22.005.33l.021-.012c.078-.053.147-.12.21-.19.062-.067.122-.136.176-.209.017-.021.03-.044.044-.067.12-.228.165-.491.189-.746.044-.46.017-.927-.037-1.385a9.51 9.51 0 0 0-.209-1.171 5.61 5.61 0 0 0-.302-.947 4.509 4.509 0 0 0-.35-.611c-.21-.327-.434-.644-.662-.96a65.388 65.388 0 0 0-1.833-2.396l-.097-.121a9.07 9.07 0 0 1-.42-.493 12.942 12.942 0 0 1-1.083-1.675 23.779 23.779 0 0 1-.916-1.87 36.088 36.088 0 0 1-.893-2.243 34.763 34.763 0 0 1-.652-1.965l-.014-.056a.577.577 0 0 1 0-.176.514.514 0 0 1 .272-.363.598.598 0 0 1 .168-.049c.059-.005.059-.005.117 0l.033.005c.079-.579.121-1.16.12-1.745-.003-1.217-.18-2.426-.395-3.621-.223-1.233-.491-2.456-.736-3.683-.024-.132-.048-.264-.07-.396a36.69 36.69 0 0 1-.31-2.767 102.27 102.27 0 0 1-.201-3.133 253.777 253.777 0 0 1-.258-7.706 471.61 471.61 0 0 1-.102-8.559c-.002-.613-.008-1.226-.003-1.839.002-.184.031-.366.047-.549l.043-.497.076-.98c.076-1.092.14-2.184.18-3.279.118-3.182.065-6.376-.237-9.547-.279-2.923-.771-5.831-1.56-8.661a40.407 40.407 0 0 0-1.644-4.743 47.962 47.962 0 0 0-.847-1.899c-.252-.537-.513-1.072-.767-1.61-.091-.194-.09-.194-.18-.389-.102-.232-.205-.464-.293-.703a20.567 20.567 0 0 1-.656-2.23 49.724 49.724 0 0 1-.56-2.673c-.528-2.862-.894-5.751-1.273-8.635l-.075-.635a77.537 77.537 0 0 1-.386-5.429 62.947 62.947 0 0 1 .007-5.461c.025-.514.06-1.03.107-1.543.041-.441.09-.882.132-1.323.042-.466.083-.932.12-1.399.315-4.06.481-8.132.55-12.204.069-4.07.031-8.142-.138-12.209a188.164 188.164 0 0 0-.195-3.677c-.015-.224-.015-.224-.033-.447-.135-1.509-.352-3.012-.581-4.511-.305-1.997-.646-3.99-1.005-5.978a291.528 291.528 0 0 0-1.172-6.143 142.79 142.79 0 0 0-1.15-5.291c-.132-.548-.279-1.092-.422-1.638a80.205 80.205 0 0 1-.183-.741c-.483-2.027-.894-4.071-1.293-6.116a482.462 482.462 0 0 1-1.556-8.417l-.112-.636-.094-.544-.009-.082c-.006-.627-.014-1.253-.023-1.881-.012-.744-.027-1.488-.043-2.233-.022-.897-.047-1.795-.086-2.691-.018-.411-.04-.821-.069-1.231a8.188 8.188 0 0 0-.07-.699c-.013-.084-.034-.163-.054-.246-.029-.116-.039-.167-.066-.287-.04-.193-.08-.386-.117-.579a61.485 61.485 0 0 1-.553-3.521 90.358 90.358 0 0 1-.609-6.671 35.659 35.659 0 0 1-.063-1.88c0-.722.033-1.445.094-2.164.24-2.826.919-5.584 1.647-8.318.325-1.201.656-2.4.983-3.6.254-.943.503-1.887.739-2.835.107-.434.216-.868.309-1.305.101-.475.182-.955.25-1.436a50.082 50.082 0 0 0 .079-.603c.137-1.14.214-2.286.262-3.431a85.1 85.1 0 0 0 .047-4.976 140.99 140.99 0 0 0-.26-6.336 159.65 159.65 0 0 0-.444-5.655l-.018-.181c.006-.066 0-.133.02-.196.051-.174.113-.191.244-.299l.188-.058.197.018c.173.093.175.094.3.246l.057.188c.17 1.688.302 3.38.415 5.074.147 2.231.255 4.465.302 6.7a87.486 87.486 0 0 1-.039 5.517 45.742 45.742 0 0 1-.252 3.388c.479.917.957 1.836 1.434 2.753a634.11 634.11 0 0 1 4.071 7.961c.369.737.735 1.475 1.095 2.217.294.608.588 1.218.858 1.838.352.808.671 1.632.968 2.462.34.951.652 1.913.913 2.887l.029.108.012.06c.029.227.06.452.093.678.164 1.093.366 2.187.756 3.225.298.792.698 1.54 1.112 2.276.411.735.835 1.464 1.25 2.197a126.504 126.504 0 0 1 1.422 2.594c.205.389.407.778.615 1.164.131.24.263.478.398.717 1.161 2.039 2.46 3.996 3.826 5.903a129.29 129.29 0 0 0 3.948 5.203c1.067 1.343 2.151 2.67 3.225 4.007.195.245.39.491.583.738.224.289.447.578.655.877.117.166.225.338.338.505.32.47.654.929.979 1.396.437.641.856 1.293 1.227 1.976.535.981.975 2.013 1.319 3.077.366 1.128.625 2.289.8 3.462.099.667.16 1.339.232 2.009l.074.624c.234 1.825.568 3.638 1.086 5.405.17.584.362 1.163.579 1.732.18.47.377.935.605 1.384.069.134.145.263.218.393.082.158.159.318.237.479.214.445.422.894.609 1.352.119.294.237.595.31.905.036.148.049.3.064.451.022.234.04.469.056.704.048.675.083 1.35.12 2.025.086 1.655.16 3.31.25 4.964l.033.566c.009.144.019.306.03.452.009.128.015.193.027.315a4.011 4.011 0 0 0 .062.381c.029.131.066.262.128.381a.448.448 0 0 0 .137.168c.043.03.094.049.144.06a.887.887 0 0 0 .101.017c.014.001.028.005.042.003.016-.004.031-.015.046-.024a.873.873 0 0 0 .196-.219c.086-.127.152-.266.211-.406l.003-.008.117-7.683c-.003-.084-.003-.168-.003-.252.002-.115.004-.23.011-.346a4.89 4.89 0 0 1 .055-.492c.052-.304.153-.643.411-.837a.875.875 0 0 1 .163-.094.75.75 0 0 1 .373-.048c.101.011.2.03.297.064.379.133.662.443.854.787a2.723 2.723 0 0 1 .188.418c.009.035.015.068.023.103l.063.471c.199 1.271.503 2.525.839 3.766.299 1.099.625 2.19.963 3.277.266.857.54 1.711.8 2.569.074.246.145.492.221.738.04.125.053.167.096.29.094.269.199.543.355.784a.772.772 0 0 0 .284.289c.132.067.292.068.436.061.056-.003.114-.004.168-.014a.077.077 0 0 0 .031-.016.329.329 0 0 0 .074-.116 1.09 1.09 0 0 0 .076-.275c.059-.348.04-.711-.006-1.058-.524-3.557-1.504-7.032-2.294-10.539-.048-.203-.105-.404-.156-.607l-.041-.183a1.78 1.78 0 0 1-.027-.253c-.011-.359.108-.771.446-.95a.846.846 0 0 1 .518-.081c.157.023.304.083.442.157l.029.018c.028.019.056.038.082.059.048.038.091.083.134.127.078.081.151.167.221.255.16.202.303.418.438.638.412.672.757 1.387 1.085 2.105.417.913.8 1.841 1.168 2.775.373.945.729 1.897 1.074 2.852.151.42.301.841.448 1.261l.161.467c.058.168.112.336.174.501.026.068.055.134.084.201.07.147.148.291.247.422.067.091.145.175.233.247.053.043.11.082.17.114.285.155.616.161.931.13.021-.003.043-.006.063-.015a.186.186 0 0 0 .075-.084.793.793 0 0 0 .072-.224c.025-.132.031-.269.03-.403a4.148 4.148 0 0 0-.062-.62l-.007-.035c-1.188-3.278-2.376-6.556-3.571-9.831-.053-.148-.107-.3-.164-.447a9.586 9.586 0 0 1-.318-.725 4.672 4.672 0 0 1-.233-.755 1.397 1.397 0 0 1-.021-.55.759.759 0 0 1 .255-.439c.208-.162.488-.178.73-.093.245.085.445.274.622.456.265.272.501.572.73.876.309.408.602.83.889 1.254a86.779 86.779 0 0 1 2.293 3.629 49.76 49.76 0 0 1 .786 1.407c.028.053.047.11.068.164.025.062.053.122.08.183.038.083.078.165.119.247.127.238.265.472.44.678a1.4 1.4 0 0 0 .335.303c.118.072.246.106.38.061a.528.528 0 0 0 .12-.057.401.401 0 0 0 .137-.122.812.812 0 0 0 .107-.398 2.342 2.342 0 0 0-.025-.481c-.073-.539-.249-1.065-.44-1.572-.307-.814-.687-1.596-1.048-2.386-.049-.11-.099-.221-.144-.334l-.105-.258c-.058-.131-.118-.26-.178-.39a41.201 41.201 0 0 0-1.003-1.936c-.347-.632-.7-1.262-1.075-1.879a14.956 14.956 0 0 0-.222-.356c-.063-.098-.13-.194-.192-.293a5.065 5.065 0 0 1-.114-.204 17.722 17.722 0 0 1-.754-1.725 37.186 37.186 0 0 1-.861-2.427 17.642 17.642 0 0 1-.124-.409 7.974 7.974 0 0 1-.152-.59c-.034-.163-.065-.335-.037-.501a.646.646 0 0 1 .053-.159c.033-.079.085-.122.145-.182l.005-.004c.061-.041.061-.041.128-.073l.006-.002c.044-.015.098-.037.146-.035.116.003.116-.001.228.031.027.007.052.02.077.032a.869.869 0 0 1 .182.123c.176.148.329.326.479.499l.205.242a42.832 42.832 0 0 1 .686.856c.159.201.316.402.472.604.265.343.53.685.798 1.025.081.101.161.205.248.3.152.157.353.264.551.35a2.73 2.73 0 0 0 1.468.209c.182-.028.361-.08.529-.158.059-.029.121-.057.174-.097.008-.009.019-.016.022-.028a.215.215 0 0 0-.005-.087.763.763 0 0 0-.056-.167 2.604 2.604 0 0 0-.297-.493 8.329 8.329 0 0 0-.658-.772c-.343-.363-.702-.71-1.05-1.068a7.21 7.21 0 0 1-.222-.239c-.281-.331-.479-.717-.663-1.108-.16-.351-.311-.706-.473-1.056-.214-.453-.448-.907-.78-1.286a3.182 3.182 0 0 0-.335-.322 10.776 10.776 0 0 0-.459-.364 26.13 26.13 0 0 0-1.206-.85 73.189 73.189 0 0 0-2.935-1.855l-.167-.1a7.775 7.775 0 0 0-1.734-.63 7.67 7.67 0 0 0-.435-.084 6.956 6.956 0 0 0-4.197.653c-.179.09-.355.188-.52.302l-.118.059c-.043.009-.086.024-.129.027a.495.495 0 0 1-.368-.121.51.51 0 0 1-.054-.712.835.835 0 0 1 .196-.153 7.58 7.58 0 0 1 1.965-.856 7.889 7.889 0 0 1 2.523-.285 21.763 21.763 0 0 0-.322-.604c-.245-.452-.498-.9-.75-1.347-.532-.947-1.067-1.891-1.598-2.838-.312-.559-.622-1.119-.93-1.679-1.734-3.178-3.393-6.402-4.825-9.729a62.132 62.132 0 0 1-1.578-4.02 41.048 41.048 0 0 1-1.042-3.418 29.815 29.815 0 0 1-.349-1.527c-.081-.407-.147-.815-.22-1.223a31.486 31.486 0 0 0-1.382-5.103 29.021 29.021 0 0 0-5.157-8.851 38.611 38.611 0 0 0-.753-.867c-.25-.281-.505-.559-.752-.843a8.876 8.876 0 0 1-.196-.239c-.06-.08-.119-.159-.182-.236a5.577 5.577 0 0 0-.158-.187c-.347-.395-.707-.779-1.056-1.171-.122-.141-.244-.281-.364-.424a15.772 15.772 0 0 1-1.319-1.816 12.207 12.207 0 0 1-1.297-2.888c-.146-.491-.26-.99-.342-1.494-.054-.338-.09-.679-.134-1.017a39.402 39.402 0 0 0-.098-.677 45.972 45.972 0 0 0-1.071-4.831 71.601 71.601 0 0 0-1.234-4.026 73.112 73.112 0 0 0-.609-1.739c-.128-.354-.262-.705-.388-1.061-.043-.128-.087-.256-.128-.384a7.109 7.109 0 0 1-.176-.639c-.043-.197-.071-.397-.027-.597l.009-.031.013-.035a53.18 53.18 0 0 0 .374-3.452 40.998 40.998 0 0 0 .105-3.773c-.076-3.635-.705-7.318-2.326-10.598a17.782 17.782 0 0 0-2.641-3.947 19.09 19.09 0 0 0-3.421-3.013c-1.383-.96-2.889-1.788-4.525-2.222a10.37 10.37 0 0 0-2.635-.341c-.921-.003-1.837.102-2.755.166-.169.011-.339.019-.508.027-.763.023-1.537-.005-2.28-.199-.64-.168-1.251-.447-1.838-.746a26.002 26.002 0 0 1-2.421-1.428 50.924 50.924 0 0 1-5.284-4.02 36.63 36.63 0 0 1-1.537-1.411 19.278 19.278 0 0 1-1.195-1.264 6.88 6.88 0 0 1-.637-.853 2.283 2.283 0 0 1-.291-.635 2.35 2.35 0 0 1-.053-.487 10.43 10.43 0 0 1 .003-.685c.025-.732.091-1.463.164-2.191.182-1.836.427-3.667.689-5.494zM43.87 317.467v0zm85.933-.533v-.001.001zm-72.32-2.19v0zm58.707-.531l-.001-.002.001.002zm-60.189-83.459a.564.564 0 0 1 .249.096c.037.029.07.061.104.093.053.048.107.094.161.14 1.032.848 2.306 1.431 3.642 1.561.338.032.678.036 1.016.011.157-.012.311-.036.468-.053h.067c.114.01.22.049.307.126a.51.51 0 0 1-.046.792.54.54 0 0 1-.219.086 7.05 7.05 0 0 1-1.917.019 7.845 7.845 0 0 1-3.072-1.123 7.966 7.966 0 0 1-.894-.643 4.633 4.633 0 0 1-.196-.172.735.735 0 0 1-.154-.171.512.512 0 0 1 .162-.685.545.545 0 0 1 .255-.079c.034 0 .033 0 .067.002zm58.457-1.022c.076.01.148.029.214.068.2.12.294.368.224.59a.555.555 0 0 1-.115.194l-.174.177a5.534 5.534 0 0 1-.513.43c-.903.665-1.989 1.049-3.076 1.282a13.15 13.15 0 0 1-.755.138c-.327.049-.654.088-.984.116a14.34 14.34 0 0 1-1.988.041c-.038-.004-.037-.004-.075-.01a.53.53 0 0 1-.261-.143.511.511 0 0 1 .041-.74.505.505 0 0 1 .276-.115c.042-.004.084-.001.128.001.13.007.261.01.391.012 1.154.005 2.318-.099 3.437-.389.779-.201 1.553-.497 2.212-.966.146-.104.286-.217.417-.34.075-.069.144-.145.218-.217.028-.024.028-.023.059-.047a.613.613 0 0 1 .211-.079c.038-.003.073-.004.113-.003zm-47.657-80.961c.043.004.043.004.086.012.074.02.073.021.145.044.18.063.357.132.53.213.498.236.957.55 1.38.904a11.47 11.47 0 0 1 1.572 1.635c.908 1.13 1.669 2.377 2.348 3.656.364.687.704 1.385 1.023 2.094.227.505.446 1.016.644 1.534l.014.042a.528.528 0 0 1-.024.344.51.51 0 0 1-.744.214.552.552 0 0 1-.172-.197c-.036-.081-.065-.165-.098-.247-.062-.157-.072-.18-.14-.346a35.085 35.085 0 0 0-1.619-3.376 22.418 22.418 0 0 0-1.721-2.699 11.975 11.975 0 0 0-1.404-1.589 6.336 6.336 0 0 0-1.241-.926 4.242 4.242 0 0 0-.501-.237c-.098-.038-.199-.068-.297-.104l-.04-.018a.538.538 0 0 1-.192-.178.51.51 0 0 1 .12-.672.54.54 0 0 1 .243-.099c.043-.004.043-.004.088-.004zm32.097-.529a.524.524 0 0 1 .276.127.511.511 0 0 1 .062.681.548.548 0 0 1-.207.159c-.071.027-.143.048-.214.073a4.517 4.517 0 0 0-.417.18 5.844 5.844 0 0 0-1.245.866c-.524.463-.99.991-1.419 1.542-.849 1.092-1.562 2.287-2.2 3.511a33.496 33.496 0 0 0-1.511 3.311l-.017.041a.523.523 0 0 1-.419.282.51.51 0 0 1-.526-.382.536.536 0 0 1 .005-.261c.029-.088.065-.173.098-.259.326-.811.681-1.609 1.065-2.394.348-.711.72-1.412 1.12-2.095a22.91 22.91 0 0 1 1.272-1.957c.406-.555.842-1.089 1.322-1.581.587-.602 1.248-1.151 2.003-1.529a4.97 4.97 0 0 1 .525-.226c.111-.04.221-.082.339-.093.044 0 .044 0 .088.004zm-15.782-24.1a.513.513 0 0 1 .487.525.558.558 0 0 1-.047.192c-.248.54-.494 1.08-.738 1.622l-.008.017a.818.818 0 0 1 .099-.048.694.694 0 0 1 .226-.04c.111-.005.222 0 .331.018.157.026.308.08.446.16.088.05.169.112.24.182.537.519.54 1.44.077 2.007a1.362 1.362 0 0 1-.265.249 1.42 1.42 0 0 1-.976.233 1.792 1.792 0 0 1-.544-.138 1.507 1.507 0 0 1-.631-.514c-.282-.401-.361-.917-.308-1.397.013-.115.034-.23.064-.342.032-.119.077-.23.125-.342.118-.274.241-.546.363-.818l.457-1.002c.045-.099.089-.198.136-.295a.524.524 0 0 1 .41-.268l.056-.001zm.145 3.279c.044.055.099.1.147.151a.529.529 0 0 1 .122.394l-.002.017a.635.635 0 0 0 .021-.094c.021-.143-.003-.333-.133-.42a.298.298 0 0 0-.118-.043l-.024-.004c-.005 0-.015-.004-.013-.001zm-3.717-29.089a.509.509 0 0 1 .422.743.523.523 0 0 1-.195.201c-.127.066-.26.125-.387.185l-.404.197a52.24 52.24 0 0 0-3.372 1.812 25.058 25.058 0 0 0-2.398 1.581c-.432.328-.856.677-1.22 1.08a3.394 3.394 0 0 0-.333.424c-.064.098-.121.2-.163.31-.027.071-.038.144-.053.22l-.027.077a.52.52 0 0 1-.285.275.506.506 0 0 1-.684-.513c.007-.088.028-.177.052-.263.067-.234.179-.454.313-.658.16-.246.353-.473.557-.686a9.12 9.12 0 0 1 .809-.739c.429-.352.88-.676 1.34-.986a32.593 32.593 0 0 1 1.778-1.11c.679-.396 1.37-.773 2.067-1.137a50.203 50.203 0 0 1 1.945-.965c.038-.016.038-.016.076-.029.041-.01.04-.01.08-.016.04-.003.04-.003.082-.003zm7.448.003a.795.795 0 0 1 .119.029c.199.083.393.185.588.279a50.732 50.732 0 0 1 4.06 2.196c.529.322 1.051.656 1.556 1.012.414.291.818.597 1.2.928.29.251.569.517.818.81.182.215.35.447.476.699.072.144.13.295.168.451.02.086.038.178.031.267a.509.509 0 0 1-.605.454.5.5 0 0 1-.378-.337c-.021-.059-.026-.124-.042-.186a1.36 1.36 0 0 0-.039-.112c-.157-.355-.428-.654-.701-.924-.461-.455-.98-.851-1.509-1.223-.973-.684-2-1.291-3.041-1.865a50.03 50.03 0 0 0-2.973-1.517l-.071-.041a.545.545 0 0 1-.161-.18.511.511 0 0 1 .125-.628.543.543 0 0 1 .258-.111.699.699 0 0 1 .121-.001zm-5.07-23.888c.058.009.073.009.129.03a.507.507 0 0 1 .325.522c-.02.198-.042.394-.065.591a34.945 34.945 0 0 1-.321 2.063 27.545 27.545 0 0 1-.36 1.66c-.091.362-.19.723-.3 1.08-.088.286-.183.57-.287.85-.089.241-.184.479-.288.714a9.724 9.724 0 0 1-.428.851 6.877 6.877 0 0 1-.214.347c-.398.601-.926 1.163-1.618 1.416a2.393 2.393 0 0 1-.362.099c-.245.044-.493.072-.738.105-1.503.201-3.007.381-4.513.544-1.232.131-2.467.253-3.702.353-.98.08-1.963.148-2.947.188-.769.031-1.542.052-2.311.006a5.816 5.816 0 0 1-1.342-.227c-.921-.278-1.748-.799-2.453-1.447a9.675 9.675 0 0 1-.943-1.009c-.084-.102-.165-.205-.247-.308l-.12-.154-.044-.053-.032-.038a.052.052 0 0 1-.006-.007l.011.01.004.003-.051-.043-.044-.049-.038-.054a.51.51 0 0 1 .431-.763.52.52 0 0 1 .34.125c.038.031.072.067.107.104.082.096.159.194.236.293l.235.293c.096.116.194.231.293.345.605.67 1.311 1.261 2.149 1.616a4.4 4.4 0 0 0 1.016.296c.233.038.469.054.704.065.343.016.688.018 1.032.014a52.981 52.981 0 0 0 3.426-.174c1.902-.144 3.802-.339 5.697-.56.744-.086 1.487-.176 2.23-.272.47-.061.94-.119 1.409-.191.042-.008.083-.016.124-.027.087-.026.171-.057.25-.097.249-.125.459-.315.641-.523.362-.41.628-.901.853-1.397.198-.434.363-.884.51-1.338.195-.608.356-1.224.495-1.847a30.609 30.609 0 0 0 .574-3.551l.012-.066c.017-.055.019-.072.046-.123a.514.514 0 0 1 .299-.246c.057-.017.072-.016.131-.021l.065.002zm2.255.004a.508.508 0 0 1 .409.384c.021.09.022.186.032.278l.042.354a34.413 34.413 0 0 0 .385 2.387c.096.476.203.95.326 1.42.09.344.188.686.297 1.024.166.517.356 1.026.59 1.514.177.367.378.725.628 1.048.292.378.673.735 1.16.821.34.052.683.095 1.023.141 1.546.202 3.095.385 4.644.547 1.222.127 2.445.242 3.669.335 1.008.077 2.018.142 3.029.167.424.01.85.014 1.274-.001.326-.011.651-.03.972-.091.414-.08.816-.22 1.192-.41.305-.155.594-.341.866-.549a7.6 7.6 0 0 0 1.099-1.053c.21-.243.403-.5.606-.749l.085-.096c.05-.049.1-.096.162-.13a.506.506 0 0 1 .505.005.511.511 0 0 1 .178.693.589.589 0 0 1-.131.146l.003-.003.011-.009c-.073.078-.137.168-.202.251l-.247.308a11.13 11.13 0 0 1-.577.651 7.623 7.623 0 0 1-1.261 1.062 5.76 5.76 0 0 1-2.17.889 7.468 7.468 0 0 1-1.056.096c-.445.015-.89.011-1.335 0a63.576 63.576 0 0 1-3.598-.209 157.834 157.834 0 0 1-5.701-.579c-.717-.085-1.433-.174-2.149-.269-.352-.047-.705-.091-1.055-.146a2.333 2.333 0 0 1-.582-.178c-.642-.293-1.127-.846-1.5-1.43a8.294 8.294 0 0 1-.453-.82 12.043 12.043 0 0 1-.535-1.322c-.111-.32-.21-.642-.302-.967a22.66 22.66 0 0 1-.324-1.288 30.25 30.25 0 0 1-.311-1.587 30.41 30.41 0 0 1-.284-2.087l-.002-.066c.005-.058.004-.074.022-.13a.507.507 0 0 1 .5-.358l.066.006zM40.132 84.52l.036.03.003.002-.066-.068.027.036zm86.088-.265l.004-.003.035-.031.026-.035c-.022.023-.044.045-.065.069zM83.051 5.659c-.069.003-.138.006-.207.011a16.03 16.03 0 0 0-1.755.283 41 41 0 0 0-2.224.521 42.28 42.28 0 0 0-3.175.954c-.451.157-.897.321-1.339.5-.219.088-.439.178-.654.277a2.29 2.29 0 0 0-.129.069c-.488.3-.792.825-1.007 1.341a6.716 6.716 0 0 0-.279.818 9.533 9.533 0 0 0-.159.668c-.06.289-.108.58-.149.872-.111.8-.164 1.607-.189 2.414-.029 1.01-.01 2.021.039 3.03.051 1.095.14 2.189.255 3.281.084.804.183 1.607.305 2.407l.005.058a.579.579 0 0 1-.023.171.545.545 0 0 1-.081.155.637.637 0 0 1-.081.083c-.186.152-.45.13-.67.086a1.748 1.748 0 0 1-.031-.006c.032.141.059.285.081.428l.004.044a.54.54 0 0 1-.048.25.51.51 0 0 1-.765.183.53.53 0 0 1-.191-.326 6.113 6.113 0 0 0-.301-1.162 3.254 3.254 0 0 0-.22-.476 5.752 5.752 0 0 1-.125-.18l-.026-.043-.045-.052a.77.77 0 0 0-.15-.129.412.412 0 0 0-.105-.047.265.265 0 0 0-.073-.012c-.077-.002-.128.028-.176.087a.592.592 0 0 0-.045.07 1.4 1.4 0 0 0-.132.367 3.274 3.274 0 0 0-.058.34c-.009.083-.018.165-.023.249a8.697 8.697 0 0 0-.007.836c.007.215.023.429.038.643.004.071.008.141.015.211.052.439.144.874.234 1.307a42.415 42.415 0 0 0 .447 1.898c.084.321.173.639.272.954.06.188.122.377.197.56.019.046.039.091.06.136.014.029.029.064.049.088.101.12.246.208.382.279.1.052.205.098.312.134.131.046.276.085.418.09l-.54-4.16-.004-.065a.577.577 0 0 1 .038-.194.512.512 0 0 1 .337-.295c.057-.015.072-.013.131-.017l.066.005c.057.011.072.011.127.035.122.05.222.15.273.274.022.054.022.069.034.127l1.068 8.213c.005.064.004.128.011.193.007.054.016.109.026.162.07.314.207.601.386.859l.008.01c.269.383.638.704 1.031.956.122.079.247.152.377.22.143.076.29.147.438.212a22.142 22.142 0 0 0 1.622.603c1.199.392 2.429.693 3.671.916.334.06.67.114 1.005.162.226.032.451.064.678.088a8.547 8.547 0 0 0 1.353.009 21.91 21.91 0 0 0 1.645-.215 26.073 26.073 0 0 0 4.454-1.171c.295-.108.588-.222.879-.341.191-.079.378-.166.561-.263.641-.34 1.245-.818 1.588-1.47.091-.172.162-.355.207-.544.023-.097.039-.198.041-.299l.001-.05c.258-2.761.712-5.5 1.069-8.25l.013-.065a.53.53 0 0 1 .13-.226.509.509 0 0 1 .758.047.507.507 0 0 1 .1.242c.009.059.004.074.001.132-.123.951-.285 2.566-.444 4.151a1.87 1.87 0 0 0 .513-.156c.175-.078.349-.177.483-.316a.213.213 0 0 0 .028-.033c.061-.103.105-.218.147-.329.055-.146.104-.295.152-.444.12-.384.226-.773.325-1.163.16-.624.304-1.252.432-1.881.046-.224.089-.448.128-.673.028-.156.054-.313.069-.471.018-.234.034-.469.046-.703.013-.32.019-.639-.003-.958a3.853 3.853 0 0 0-.094-.64 1.28 1.28 0 0 0-.12-.315.602.602 0 0 0-.045-.071c-.048-.059-.1-.089-.177-.087a.38.38 0 0 0-.176.059.736.736 0 0 0-.122.101c-.06.061-.112.129-.16.2l-.047.077-.013.02c-.09.153-.16.317-.223.481a6.162 6.162 0 0 0-.25.88c-.022.108-.038.217-.058.325l-.012.042a.547.547 0 0 1-.139.214.509.509 0 0 1-.777-.118.522.522 0 0 1-.064-.331 7.43 7.43 0 0 1 .176-.815l-.265.113a.628.628 0 0 1-.17.04.511.511 0 0 1-.48-.276.573.573 0 0 1-.055-.226c.005-.106.009-.105.021-.21l.073-.74c.031-.336.06-.672.086-1.007a62.16 62.16 0 0 0 .207-5.389c-.014-1.339-.075-2.686-.28-4.011-.112-.721-.262-1.449-.535-2.127a3.767 3.767 0 0 0-.352-.69 1.88 1.88 0 0 0-.34-.394c-.161-.139-.354-.216-.547-.304a20.174 20.174 0 0 0-.958-.403 32.765 32.765 0 0 0-3.841-1.207 37.758 37.758 0 0 0-2.508-.553c-.32-.057-.64-.111-.962-.154a6.522 6.522 0 0 0-.723-.068zm.415 25.545c.462.011.935.055 1.367.232a.393.393 0 0 1 .192.19.378.378 0 1 1-.439.523c-.063-.015-.122-.042-.183-.061a2.85 2.85 0 0 0-.202-.052 4.453 4.453 0 0 0-.985-.073 8.12 8.12 0 0 0-1.342.153c-.073.014-.145.033-.218.043-.022.001-.042.002-.064.001a.38.38 0 0 1-.076-.744c.115-.028.234-.048.352-.07.44-.076.882-.125 1.329-.141.135-.002.135-.002.269-.001zm-.242-1.849c.647.02 1.287.164 1.91.329.735.194 1.459.43 2.171.696.033.014.032.013.063.031.05.032.092.07.124.121a.383.383 0 0 1-.146.541.4.4 0 0 1-.272.028c-.076-.024-.074-.026-.148-.054l-.311-.111a21.714 21.714 0 0 0-2.001-.601 9.335 9.335 0 0 0-.792-.161 4.496 4.496 0 0 0-.614-.061c-.249-.006-.5.024-.748.06-.337.05-.672.12-1.005.198-.82.193-1.631.435-2.43.705-.034.01-.033.01-.069.016a.402.402 0 0 1-.172-.015.384.384 0 0 1-.228-.513.408.408 0 0 1 .193-.194c.101-.039.206-.071.309-.104a27.62 27.62 0 0 1 2.224-.633 10.113 10.113 0 0 1 1.64-.272c.101-.005.201-.007.302-.006zm-1.251-1.259c.156.01.308.03.459.073.041.013.082.026.122.041.045.017.087.036.133.049.041.011.083.019.125.025.199.024.401.023.6.007.123-.009.247-.025.366-.053.052-.012.102-.029.151-.044l.077-.021c.105-.022.21-.04.318-.047.288-.019.58.022.859.096.413.109.806.289 1.178.498a7.787 7.787 0 0 1 1.052.71c.026.024.025.024.049.05a.397.397 0 0 1 .079.154.385.385 0 0 1-.212.436.399.399 0 0 1-.136.033.393.393 0 0 1-.26-.085 6.738 6.738 0 0 0-.231-.178c-.438-.315-.906-.601-1.413-.789-.274-.102-.568-.179-.864-.171a1.253 1.253 0 0 0-.243.031c-.077.019-.152.046-.229.065a3.277 3.277 0 0 1-.202.039 4.333 4.333 0 0 1-.692.045 2.703 2.703 0 0 1-.459-.043 1.445 1.445 0 0 1-.217-.058c-.054-.02-.107-.045-.162-.062-.04-.011-.08-.02-.121-.027-.38-.056-.765.032-1.125.156a6.905 6.905 0 0 0-1.404.69c-.118.074-.235.151-.352.231l-.122.086c-.031.016-.03.016-.064.029a.39.39 0 0 1-.335-.038.382.382 0 0 1-.131-.493.4.4 0 0 1 .114-.131c.099-.076.204-.144.308-.212.169-.11.342-.215.516-.315.319-.18.647-.344.988-.477a4.037 4.037 0 0 1 1.311-.301c.085-.001.084-.001.169.001zm3.64-3.851a.403.403 0 0 1 .222.089.383.383 0 0 1-.079.631 8.275 8.275 0 0 1-1.228.491c-.341.104-.701.191-1.06.183-.215-.005-.418-.064-.623-.126a9.624 9.624 0 0 1-.843-.305 13.771 13.771 0 0 1-.394-.171c-.086-.039-.183-.073-.253-.14a.378.378 0 0 1 .424-.616c.133.062.268.122.402.179.356.149.717.285 1.089.387.035.009.071.018.107.025.119.016.241.008.359-.008a3.18 3.18 0 0 0 .388-.081c.316-.084.625-.199.924-.329.135-.057.265-.122.398-.182a.93.93 0 0 1 .07-.021.527.527 0 0 1 .097-.006zm11.301-3.074c.096-1.212.191-2.423.285-3.635.123-1.617.247-3.233.358-4.85.037-.553.075-1.106.107-1.659.018-.323.037-.646.042-.97 0-.039 0-.079-.003-.118a5.803 5.803 0 0 0-.196-1.019 9.448 9.448 0 0 0-.521-1.44 10.063 10.063 0 0 0-2.985-3.765 11.635 11.635 0 0 0-2.963-1.645c-1.264-.484-2.598-.774-3.941-.931-3.109-.362-6.3.052-9.233 1.136-.861.317-1.702.684-2.513 1.11-.349.184-.694.378-1.027.588l.65 1.662-.942.368-.651-1.662c-.593.106-1.207.248-1.719.58-.562.365-.919.946-1.197 1.542-.178.379-.327.77-.468 1.163-.111.315-.218.631-.318.949a4.38 4.38 0 0 0-.063.224c-.182.74-.257 1.505-.306 2.264a37.39 37.39 0 0 0-.066 2.636c.006 1.184.049 2.369.112 3.552.069 1.293.163 2.584.279 3.874a1.25 1.25 0 0 1 .44.112c.366.163.637.47.841.812.1.131.208.252.333.36l.017.015c-.04-.297-.076-.594-.112-.89a61.258 61.258 0 0 1-.323-3.735 38.224 38.224 0 0 1-.027-4.132c.054-1.03.16-2.063.394-3.069a9.519 9.519 0 0 1 .281-.984c.261-.744.645-1.493 1.27-1.997.126-.103.262-.194.406-.271.158-.084.323-.15.487-.219.335-.141.672-.274 1.012-.401a40.862 40.862 0 0 1 3.601-1.137 41.68 41.68 0 0 1 2.917-.683c.334-.065.668-.124 1.003-.174.273-.039.548-.073.824-.084h.087c.276.01.55.041.823.077.337.045.673.101 1.008.163.925.167 1.844.376 2.753.612 1.281.332 2.551.719 3.783 1.2.34.133.675.273 1.008.424.157.07.317.139.467.227.129.076.251.166.362.265.43.385.718.909.93 1.439.321.798.495 1.654.619 2.505.103.703.166 1.412.207 2.121.049.854.067 1.708.062 2.561a67.272 67.272 0 0 1-.298 5.818l-.004.05.45-.193c.233-.345.544-.641.953-.752.099-.026.2-.039.303-.044.045-.002.044-.002.09 0 .106.005.21.02.312.05zm-19.758-2.774a2.19 2.19 0 0 0-1.479 1.177c-.019.042-.034.086-.055.127l-.031.046a.396.396 0 0 1-.231.142.383.383 0 0 1-.445-.427c.013-.091.06-.179.1-.26.087-.173.192-.337.311-.489A2.991 2.991 0 0 1 76.83 17.7a3.74 3.74 0 0 1 .91-.138h.202c.124.003.248.007.373.017.673.054 1.373.236 1.913.661a2.435 2.435 0 0 1 .548.592c.014.025.014.024.025.049a.397.397 0 0 1 .024.218.385.385 0 0 1-.457.299.382.382 0 0 1-.17-.089c-.069-.062-.116-.146-.174-.217a1.728 1.728 0 0 0-.315-.294c-.335-.239-.736-.365-1.143-.427a.85.85 0 0 1-.304 1.246 6.65 6.65 0 0 0 .792-.136c.064-.015.128-.037.193-.05a.38.38 0 0 1 .188.732c-.066.023-.137.039-.205.055-.156.037-.314.07-.473.096a6.468 6.468 0 0 1-1.578.08 4.498 4.498 0 0 1-.886-.159 2.584 2.584 0 0 1-.149-.048.547.547 0 0 1-.182-.087.404.404 0 0 1-.086-.098.384.384 0 0 1 .1-.502.397.397 0 0 1 .245-.073c.021.002.042.004.064.009.036.009.068.022.104.034.058.02.117.037.177.054.324.085.658.124.991.129a.852.852 0 0 1-.401-1.256zm10.675-.026c-.393.061-.784.181-1.113.408-.117.08-.224.174-.317.281-.058.066-.105.14-.161.208-.018.021-.017.02-.037.04a.389.389 0 0 1-.414.065.383.383 0 0 1-.193-.49c.029-.069.084-.133.129-.193.11-.144.236-.277.375-.394.629-.524 1.46-.7 2.26-.732a3.763 3.763 0 0 1 1.209.136 2.988 2.988 0 0 1 1.839 1.551.641.641 0 0 1 .079.266.395.395 0 0 1-.025.136.383.383 0 0 1-.528.2.383.383 0 0 1-.157-.152c-.028-.051-.047-.108-.072-.161a2.293 2.293 0 0 0-.394-.545 2.24 2.24 0 0 0-1.07-.598.854.854 0 0 1-.287 1.201 3.17 3.17 0 0 0 .406-.091c.073-.022.145-.051.22-.071a.462.462 0 0 1 .065-.009h.043c.08.007.155.035.217.086.169.14.183.402.031.558a.407.407 0 0 1-.146.092 7.873 7.873 0 0 1-.217.072c-.62.175-1.266.207-1.906.151a7.014 7.014 0 0 1-1.193-.21.615.615 0 0 1-.082-.029.412.412 0 0 1-.134-.108.384.384 0 0 1 .19-.597.395.395 0 0 1 .213-.001 6.284 6.284 0 0 0 1.557.214.855.855 0 0 1-.387-1.284zm.396.49a.3.3 0 0 1 .301-.298.3.3 0 1 1 0 .598.3.3 0 0 1-.301-.3zm-10.355.3a.299.299 0 1 1-.002-.598.299.299 0 0 1 .002.598zm11.613-4.211c.369.007.738.023 1.104.079.24.036.483.089.709.181.09.035.177.079.259.13.137.088.262.197.384.305.306.265.58.568.802.906.064.096.122.194.177.295l.136.266c.017.018.016.019.03.038a.398.398 0 0 1 .065.218.383.383 0 0 1-.417.372.397.397 0 0 1-.242-.12.742.742 0 0 1-.093-.129c-.057-.109-.111-.22-.171-.328a3.503 3.503 0 0 0-.565-.741 4.982 4.982 0 0 0-.484-.421.675.675 0 0 0-.09-.055c-.22-.107-.471-.15-.711-.181a8.556 8.556 0 0 0-1.153-.058c-.994.006-1.986.101-2.972.225-.26.033-.52.068-.779.107-.084.012-.168.027-.252.037-.033.001-.032.001-.066-.001a.407.407 0 0 1-.209-.091.382.382 0 0 1-.014-.559.396.396 0 0 1 .171-.095c.171-.034.346-.054.518-.079a31.358 31.358 0 0 1 3.193-.294c.223-.006.447-.009.67-.007zm-12.457-.001c1.292.014 2.579.155 3.856.34l.226.034c.1.02.187.069.247.152a.383.383 0 0 1-.17.577.409.409 0 0 1-.196.02 33.884 33.884 0 0 0-2.661-.308 17.449 17.449 0 0 0-1.68-.054 6.72 6.72 0 0 0-.971.083 1.764 1.764 0 0 0-.545.165c-.057.031-.108.073-.159.114-.085.068-.169.14-.249.213-.238.218-.45.462-.622.734-.096.152-.172.314-.256.472a.827.827 0 0 1-.061.093.399.399 0 0 1-.406.146.383.383 0 0 1-.264-.492.38.38 0 0 1 .074-.126c.056-.106.109-.214.166-.319.248-.436.57-.819.947-1.148.123-.108.248-.217.386-.305.08-.051.168-.095.257-.131.228-.092.47-.144.712-.18.321-.049.647-.067.972-.077.133-.002.264-.003.397-.003zm-3.815 2.139l-.004.005c.004-.004.009-.009.004-.005zm19.826.005c-.009-.01-.009-.009-.019-.017l.019.017z" />
    </g>
</svg>